<svg width="22" height="22" viewBox="0 0 22 22" fill="none" xmlns="http://www.w3.org/2000/svg">
<path d="M19.3313 9.98107C19.7618 10.5442 19.7618 11.3043 19.3313 11.8665C17.9754 13.6366 14.7222 17.2812 10.9242 17.2812C7.12608 17.2812 3.87292 13.6366 2.51699 11.8665C2.30754 11.5969 2.19385 11.2652 2.19385 10.9238C2.19385 10.5824 2.30754 10.2507 2.51699 9.98107C3.87292 8.211 7.12608 4.56641 10.9242 4.56641C14.7222 4.56641 17.9754 8.211 19.3313 9.98107V9.98107Z" stroke="black" stroke-width="1.81639" stroke-linecap="round" stroke-linejoin="round"/>
<path d="M10.9243 13.6484C12.429 13.6484 13.6489 12.4286 13.6489 10.9238C13.6489 9.41906 12.429 8.19922 10.9243 8.19922C9.41955 8.19922 8.19971 9.41906 8.19971 10.9238C8.19971 12.4286 9.41955 13.6484 10.9243 13.6484Z" stroke="black" stroke-width="1.81639" stroke-linecap="round" stroke-linejoin="round"/>
</svg>
