<svg width="23" height="22" viewBox="0 0 23 22" fill="none" xmlns="http://www.w3.org/2000/svg">
<g clip-path="url(#clip0_266_75)">
<path fill-rule="evenodd" clip-rule="evenodd" d="M11.7792 0.933594C6.26193 0.933594 1.78906 5.40646 1.78906 10.9238C1.78906 16.441 6.26193 20.9139 11.7792 20.9139C17.2965 20.9139 21.7694 16.441 21.7694 10.9238C21.7694 5.40646 17.2965 0.933594 11.7792 0.933594ZM16.1095 9.23451C16.1892 9.14336 16.2499 9.03719 16.288 8.92224C16.3261 8.80729 16.3409 8.68588 16.3313 8.56515C16.3218 8.44443 16.2883 8.32682 16.2326 8.21926C16.177 8.1117 16.1004 8.01635 16.0074 7.93882C15.9143 7.8613 15.8067 7.80316 15.6909 7.76783C15.5751 7.7325 15.4534 7.72069 15.3329 7.7331C15.2124 7.74551 15.0957 7.78189 14.9895 7.84009C14.8833 7.8983 14.7898 7.97715 14.7145 8.07202L10.8093 12.7574L8.78853 10.7358C8.61724 10.5703 8.38783 10.4788 8.1497 10.4808C7.91158 10.4829 7.68379 10.5784 7.5154 10.7468C7.34702 10.9152 7.2515 11.143 7.24943 11.3811C7.24736 11.6192 7.33891 11.8487 7.50434 12.0199L10.2289 14.7445C10.3182 14.8337 10.425 14.9033 10.5426 14.9489C10.6603 14.9945 10.7861 15.0151 10.9121 15.0094C11.0382 15.0037 11.1616 14.9718 11.2746 14.9157C11.3876 14.8596 11.4877 14.7806 11.5685 14.6837L16.1095 9.23451Z" fill="#30C07B"/>
</g>
<defs>
<clipPath id="clip0_266_75">
<rect width="21.7967" height="21.7967" fill="white" transform="translate(0.882324 0.0253906)"/>
</clipPath>
</defs>
</svg>
