<svg width="17" height="17" viewBox="0 0 17 17" fill="none" xmlns="http://www.w3.org/2000/svg">
<g clip-path="url(#clip0_398_2282)">
<path d="M2.92969 2.75195C2.92969 2.22152 3.1404 1.71281 3.51547 1.33774C3.89055 0.962667 4.39925 0.751953 4.92969 0.751953L12.9297 0.751953C13.4601 0.751953 13.9688 0.962667 14.3439 1.33774C14.719 1.71281 14.9297 2.22152 14.9297 2.75195V16.252C14.9296 16.3424 14.9051 16.4311 14.8586 16.5087C14.8121 16.5863 14.7454 16.6498 14.6657 16.6925C14.586 16.7352 14.4961 16.7554 14.4058 16.7511C14.3155 16.7468 14.228 16.7181 14.1527 16.668L8.92969 13.853L3.70669 16.668C3.63139 16.7181 3.54392 16.7468 3.45358 16.7511C3.36324 16.7554 3.27342 16.7352 3.19369 16.6925C3.11395 16.6498 3.04729 16.5863 3.0008 16.5087C2.95431 16.4311 2.92973 16.3424 2.92969 16.252V2.75195ZM4.92969 1.75195C4.66447 1.75195 4.41012 1.85731 4.22258 2.04485C4.03504 2.23238 3.92969 2.48674 3.92969 2.75195V15.318L8.65269 12.836C8.73475 12.7813 8.83112 12.7522 8.92969 12.7522C9.02826 12.7522 9.12463 12.7813 9.20669 12.836L13.9297 15.318V2.75195C13.9297 2.48674 13.8243 2.23238 13.6368 2.04485C13.4493 1.85731 13.1949 1.75195 12.9297 1.75195H4.92969Z" fill="#3E3E3E"/>
<path d="M8.92969 4.75195C9.0623 4.75195 9.18947 4.80463 9.28324 4.8984C9.37701 4.99217 9.42969 5.11934 9.42969 5.25195V6.75195H10.9297C11.0623 6.75195 11.1895 6.80463 11.2832 6.8984C11.377 6.99217 11.4297 7.11934 11.4297 7.25195C11.4297 7.38456 11.377 7.51174 11.2832 7.60551C11.1895 7.69927 11.0623 7.75195 10.9297 7.75195H9.42969V9.25195C9.42969 9.38456 9.37701 9.51174 9.28324 9.60551C9.18947 9.69928 9.0623 9.75195 8.92969 9.75195C8.79708 9.75195 8.6699 9.69928 8.57613 9.60551C8.48237 9.51174 8.42969 9.38456 8.42969 9.25195V7.75195H6.92969C6.79708 7.75195 6.6699 7.69927 6.57613 7.60551C6.48237 7.51174 6.42969 7.38456 6.42969 7.25195C6.42969 7.11934 6.48237 6.99217 6.57613 6.8984C6.6699 6.80463 6.79708 6.75195 6.92969 6.75195H8.42969V5.25195C8.42969 5.11934 8.48237 4.99217 8.57613 4.8984C8.6699 4.80463 8.79708 4.75195 8.92969 4.75195Z" fill="#3E3E3E"/>
</g>
<defs>
<clipPath id="clip0_398_2282">
<rect width="16" height="16" fill="white" transform="translate(0.929688 0.751953)"/>
</clipPath>
</defs>
</svg>
