<svg width="25" height="25" viewBox="0 0 25 25" fill="none" xmlns="http://www.w3.org/2000/svg">
<g clip-path="url(#clip0_398_2394)">
<path d="M4.45059 18.0558C4.60629 18.2121 4.72559 18.4008 4.80001 18.6085C4.87442 18.8162 4.9021 19.0377 4.88109 19.2573C4.77567 20.2737 4.57581 21.278 4.28409 22.2573C6.37659 21.7728 7.65459 21.2118 8.23509 20.9178C8.56435 20.7511 8.94353 20.7116 9.30009 20.8068C10.3222 21.0793 11.3757 21.2165 12.4336 21.2148C18.4276 21.2148 22.9336 17.0043 22.9336 12.2148C22.9336 7.42684 18.4276 3.21484 12.4336 3.21484C6.43959 3.21484 1.93359 7.42684 1.93359 12.2148C1.93359 14.4168 2.85909 16.4598 4.45059 18.0558ZM3.71109 23.9133C3.3557 23.9838 2.99915 24.0483 2.64159 24.1068C2.34159 24.1548 2.11359 23.8428 2.23209 23.5638C2.36528 23.2497 2.48736 22.931 2.59809 22.6083L2.60259 22.5933C2.97459 21.5133 3.27759 20.2713 3.38859 19.1148C1.54809 17.2698 0.433594 14.8548 0.433594 12.2148C0.433594 6.41584 5.80659 1.71484 12.4336 1.71484C19.0606 1.71484 24.4336 6.41584 24.4336 12.2148C24.4336 18.0138 19.0606 22.7148 12.4336 22.7148C11.2451 22.7164 10.0615 22.5621 8.91309 22.2558C8.13309 22.6503 6.45459 23.3688 3.71109 23.9133Z" fill="#464646"/>
</g>
<defs>
<clipPath id="clip0_398_2394">
<rect width="24" height="24" fill="white" transform="translate(0.433594 0.214844)"/>
</clipPath>
</defs>
</svg>
