<svg width="37" height="38" viewBox="0 0 37 38" fill="none" xmlns="http://www.w3.org/2000/svg">
<path d="M30.9285 29.1131C32.5891 27.1152 33.744 24.7468 34.2956 22.2082C34.8471 19.6695 34.7792 17.0354 34.0975 14.5286C33.4157 12.0218 32.1402 9.71609 30.3789 7.80649C28.6176 5.89688 26.4223 4.43958 23.9786 3.55785C21.535 2.67613 18.9149 2.39593 16.3401 2.74096C13.7652 3.08598 11.3114 4.04608 9.18608 5.54004C7.06078 7.03399 5.32655 9.01785 4.13012 11.3238C2.93368 13.6297 2.31023 16.1899 2.31251 18.7878C2.31338 22.5643 3.64421 26.2199 6.07148 29.1131L6.04835 29.1327C6.12929 29.2299 6.22179 29.3131 6.30504 29.4091C6.4091 29.5282 6.52126 29.6403 6.62879 29.756C6.95254 30.1075 7.28554 30.4451 7.63473 30.7619C7.7411 30.859 7.85094 30.9492 7.95848 31.0417C8.32848 31.3608 8.70888 31.6638 9.10316 31.9459C9.15404 31.9806 9.20029 32.0257 9.25116 32.0615V32.0476C11.9592 33.9533 15.1898 34.9761 18.5012 34.9761C21.8125 34.9761 25.0431 33.9533 27.7512 32.0476V32.0615C27.802 32.0257 27.8471 31.9806 27.8992 31.9459C28.2923 31.6626 28.6739 31.3608 29.0439 31.0417C29.1514 30.9492 29.2612 30.8579 29.3676 30.7619C29.7168 30.4439 30.0498 30.1075 30.3735 29.756C30.4811 29.6403 30.5921 29.5282 30.6973 29.4091C30.7794 29.3131 30.873 29.2299 30.954 29.1316L30.9285 29.1131ZM18.5 9.53777C19.5291 9.53777 20.5351 9.84292 21.3907 10.4147C22.2464 10.9864 22.9133 11.799 23.3071 12.7497C23.7009 13.7005 23.8039 14.7467 23.6032 15.756C23.4024 16.7653 22.9068 17.6924 22.1792 18.4201C21.4515 19.1477 20.5244 19.6433 19.5151 19.844C18.5058 20.0448 17.4596 19.9418 16.5089 19.548C15.5581 19.1541 14.7455 18.4872 14.1738 17.6316C13.602 16.7759 13.2969 15.77 13.2969 14.7409C13.2969 13.3609 13.8451 12.0375 14.8208 11.0617C15.7966 10.086 17.1201 9.53777 18.5 9.53777ZM9.2581 29.1131C9.27816 27.5949 9.89513 26.1456 10.9755 25.0789C12.056 24.0121 13.5129 23.4135 15.0313 23.4128H21.9688C23.4871 23.4135 24.9441 24.0121 26.0245 25.0789C27.1049 26.1456 27.7219 27.5949 27.7419 29.1131C25.2061 31.3982 21.9136 32.6629 18.5 32.6629C15.0865 32.6629 11.7939 31.3982 9.2581 29.1131Z" fill="#C4C4C4"/>
</svg>
