<svg width="895" height="776" viewBox="0 0 895 776" fill="none" xmlns="http://www.w3.org/2000/svg">
<g filter="url(#filter0_d_27_27587)">
<rect x="194" y="130" width="507" height="388" rx="22" fill="white"/>
<rect x="194.5" y="130.5" width="506" height="387" rx="21.5" stroke="#DFDFDF"/>
</g>
<g clip-path="url(#clip0_27_27587)">
<path d="M310 386.2H147L159 270.1H323.4L310 386.2Z" fill="#F5F5F5"/>
<path d="M164.9 366.701C164.8 366.701 166.4 349.201 168.7 327.701C170.9 306.201 172.8 288.701 173 288.801C173.1 288.801 171.5 306.301 169.2 327.801C167 349.301 165.1 366.701 164.9 366.701Z" fill="#E0E0E0"/>
<path d="M186.4 292.901C190.929 292.901 194.6 292.766 194.6 292.601C194.6 292.435 190.929 292.301 186.4 292.301C181.871 292.301 178.2 292.435 178.2 292.601C178.2 292.766 181.871 292.901 186.4 292.901Z" fill="#E0E0E0"/>
<path d="M264.2 292.601C264.2 292.701 249.6 292.901 231.6 292.901C213.6 292.901 199 292.801 199 292.601C199 292.501 213.6 292.301 231.6 292.301C249.6 292.401 264.2 292.501 264.2 292.601Z" fill="#E0E0E0"/>
<path d="M184.5 334.2C189.029 334.2 192.7 334.065 192.7 333.9C192.7 333.734 189.029 333.6 184.5 333.6C179.971 333.6 176.3 333.734 176.3 333.9C176.3 334.065 179.971 334.2 184.5 334.2Z" fill="#E0E0E0"/>
<path d="M262.3 333.9C262.3 334 247.7 334.2 229.7 334.2C211.7 334.2 197.1 334.1 197.1 333.9C197.1 333.8 211.7 333.6 229.7 333.6C247.7 333.6 262.3 333.7 262.3 333.9Z" fill="#E0E0E0"/>
<path d="M240.099 352.9C240.099 353 225.499 353.2 207.499 353.2C189.499 353.2 174.899 353.1 174.899 352.9C174.899 352.8 189.499 352.6 207.499 352.6C225.499 352.6 240.099 352.8 240.099 352.9Z" fill="#E0E0E0"/>
<path d="M190.3 304.6C196.651 304.6 201.8 304.466 201.8 304.3C201.8 304.134 196.651 304 190.3 304C183.949 304 178.8 304.134 178.8 304.3C178.8 304.466 183.949 304.6 190.3 304.6Z" fill="#E0E0E0"/>
<path d="M189.7 321.7C196.051 321.7 201.2 321.565 201.2 321.4C201.2 321.234 196.051 321.1 189.7 321.1C183.349 321.1 178.2 321.234 178.2 321.4C178.2 321.565 183.349 321.7 189.7 321.7Z" fill="#E0E0E0"/>
<path d="M209.2 346.1C215.551 346.1 220.7 345.966 220.7 345.8C220.7 345.634 215.551 345.5 209.2 345.5C202.849 345.5 197.7 345.634 197.7 345.8C197.7 345.966 202.849 346.1 209.2 346.1Z" fill="#E0E0E0"/>
<path d="M285.5 304.3C285.5 304.4 272.3 304.6 256.1 304.6C239.9 304.6 226.7 304.5 226.7 304.3C226.7 304.2 239.9 304 256.1 304C272.4 304 285.5 304.1 285.5 304.3Z" fill="#E0E0E0"/>
<path d="M267.4 322.3C267.4 322.4 254.2 322.6 238 322.6C221.8 322.6 208.6 322.5 208.6 322.3C208.6 322.2 221.8 322 238 322C254.2 322.1 267.4 322.2 267.4 322.3Z" fill="#E0E0E0"/>
<path d="M287.6 345.8C287.6 345.9 274.4 346.1 258.2 346.1C242 346.1 228.8 346 228.8 345.8C228.8 345.7 242 345.5 258.2 345.5C274.5 345.5 287.6 345.6 287.6 345.8Z" fill="#E0E0E0"/>
<path d="M233.9 366.7C233.9 366.8 220.7 367 204.5 367C188.3 367 175.1 366.9 175.1 366.7C175.1 366.6 188.3 366.4 204.5 366.4C220.8 366.4 233.9 366.5 233.9 366.7Z" fill="#E0E0E0"/>
<path d="M299 366.7C299 366.8 285.8 367 269.6 367C253.4 367 240.2 366.9 240.2 366.7C240.2 366.6 253.4 366.4 269.6 366.4C285.8 366.4 299 366.5 299 366.7Z" fill="#E0E0E0"/>
<path d="M233.9 373.501C233.9 373.601 220.7 373.801 204.5 373.801C188.3 373.801 175.1 373.701 175.1 373.501C175.1 373.301 188.3 373.201 204.5 373.201C220.8 373.201 233.9 373.301 233.9 373.501Z" fill="#E0E0E0"/>
<path d="M236.8 309.2C236.8 309.3 223.6 309.5 207.4 309.5C191.2 309.5 178 309.4 178 309.2C178 309.1 191.2 308.9 207.4 308.9C223.6 308.9 236.8 309 236.8 309.2Z" fill="#E0E0E0"/>
<path d="M213.499 304.6C217.697 304.6 221.099 304.466 221.099 304.3C221.099 304.134 217.697 304 213.499 304C209.302 304 205.899 304.134 205.899 304.3C205.899 304.466 209.302 304.6 213.499 304.6Z" fill="#E0E0E0"/>
<path d="M183.2 339.801C187.397 339.801 190.8 339.667 190.8 339.501C190.8 339.335 187.397 339.201 183.2 339.201C179.002 339.201 175.6 339.335 175.6 339.501C175.6 339.667 179.002 339.801 183.2 339.801Z" fill="#E0E0E0"/>
<path d="M182.8 346.1C186.998 346.1 190.4 345.966 190.4 345.8C190.4 345.634 186.998 345.5 182.8 345.5C178.603 345.5 175.2 345.634 175.2 345.8C175.2 345.966 178.603 346.1 182.8 346.1Z" fill="#E0E0E0"/>
<path d="M321.6 282.3C321.6 282.4 284.9 282.6 239.7 282.6C194.5 282.6 157.8 282.5 157.8 282.3C157.8 282.1 194.4 282 239.7 282C285 282.1 321.6 282.2 321.6 282.3Z" fill="#E0E0E0"/>
<path d="M168.9 278.7C169.949 278.7 170.8 277.85 170.8 276.8C170.8 275.751 169.949 274.9 168.9 274.9C167.851 274.9 167 275.751 167 276.8C167 277.85 167.851 278.7 168.9 278.7Z" fill="white"/>
<path d="M177.299 278.7C178.349 278.7 179.199 277.85 179.199 276.8C179.199 275.751 178.349 274.9 177.299 274.9C176.25 274.9 175.399 275.751 175.399 276.8C175.399 277.85 176.25 278.7 177.299 278.7Z" fill="white"/>
<path d="M185.6 278.7C186.65 278.7 187.5 277.85 187.5 276.8C187.5 275.751 186.65 274.9 185.6 274.9C184.551 274.9 183.7 275.751 183.7 276.8C183.7 277.85 184.551 278.7 185.6 278.7Z" fill="white"/>
<path d="M733.2 328.1H570.2L582.2 212H746.6L733.2 328.1Z" fill="#F5F5F5"/>
<path d="M588.1 308.6C588 308.6 589.6 291.1 591.9 269.6C594.1 248.1 596 230.6 596.2 230.7C596.3 230.7 594.7 248.2 592.4 269.7C590.2 291.2 588.3 308.6 588.1 308.6Z" fill="#E0E0E0"/>
<path d="M609.6 234.901C614.129 234.901 617.8 234.766 617.8 234.601C617.8 234.435 614.129 234.301 609.6 234.301C605.072 234.301 601.4 234.435 601.4 234.601C601.4 234.766 605.072 234.901 609.6 234.901Z" fill="#E0E0E0"/>
<path d="M687.4 234.601C687.4 234.701 672.8 234.901 654.8 234.901C636.8 234.901 622.2 234.801 622.2 234.601C622.2 234.501 636.8 234.301 654.8 234.301C672.8 234.301 687.4 234.401 687.4 234.601Z" fill="#E0E0E0"/>
<path d="M607.7 276.1C612.229 276.1 615.9 275.966 615.9 275.8C615.9 275.634 612.229 275.5 607.7 275.5C603.171 275.5 599.5 275.634 599.5 275.8C599.5 275.966 603.171 276.1 607.7 276.1Z" fill="#E0E0E0"/>
<path d="M685.5 275.8C685.5 275.9 670.9 276.1 652.9 276.1C634.9 276.1 620.3 276 620.3 275.8C620.3 275.7 634.9 275.5 652.9 275.5C670.9 275.6 685.5 275.7 685.5 275.8Z" fill="#E0E0E0"/>
<path d="M663.3 294.9C663.3 295 648.7 295.2 630.7 295.2C612.7 295.2 598.1 295.1 598.1 294.9C598.1 294.8 612.7 294.6 630.7 294.6C648.7 294.6 663.3 294.7 663.3 294.9Z" fill="#E0E0E0"/>
<path d="M613.5 246.5C619.851 246.5 625 246.366 625 246.2C625 246.035 619.851 245.9 613.5 245.9C607.149 245.9 602 246.035 602 246.2C602 246.366 607.149 246.5 613.5 246.5Z" fill="#E0E0E0"/>
<path d="M612.9 263.6C619.252 263.6 624.4 263.466 624.4 263.3C624.4 263.134 619.252 263 612.9 263C606.549 263 601.4 263.134 601.4 263.3C601.4 263.466 606.549 263.6 612.9 263.6Z" fill="#E0E0E0"/>
<path d="M632.4 288C638.752 288 643.9 287.866 643.9 287.7C643.9 287.535 638.752 287.4 632.4 287.4C626.049 287.4 620.9 287.535 620.9 287.7C620.9 287.866 626.049 288 632.4 288Z" fill="#E0E0E0"/>
<path d="M708.7 246.2C708.7 246.3 695.5 246.5 679.3 246.5C663.1 246.5 649.9 246.4 649.9 246.2C649.9 246 663.1 245.9 679.3 245.9C695.6 246 708.7 246.1 708.7 246.2Z" fill="#E0E0E0"/>
<path d="M690.6 264.3C690.6 264.4 677.4 264.6 661.2 264.6C645 264.6 631.8 264.5 631.8 264.3C631.8 264.2 645 264 661.2 264C677.4 264 690.6 264.2 690.6 264.3Z" fill="#E0E0E0"/>
<path d="M710.8 287.7C710.8 287.8 697.6 288 681.4 288C665.2 288 652 287.9 652 287.7C652 287.6 665.2 287.4 681.4 287.4C697.7 287.4 710.8 287.6 710.8 287.7Z" fill="#E0E0E0"/>
<path d="M657.1 308.601C657.1 308.701 643.9 308.901 627.7 308.901C611.5 308.901 598.3 308.801 598.3 308.601C598.3 308.501 611.5 308.301 627.7 308.301C644 308.401 657.1 308.501 657.1 308.601Z" fill="#E0E0E0"/>
<path d="M722.2 308.601C722.2 308.701 709 308.901 692.8 308.901C676.6 308.901 663.4 308.801 663.4 308.601C663.4 308.501 676.6 308.301 692.8 308.301C709 308.401 722.2 308.501 722.2 308.601Z" fill="#E0E0E0"/>
<path d="M657.1 315.4C657.1 315.5 643.9 315.7 627.7 315.7C611.5 315.7 598.3 315.6 598.3 315.4C598.3 315.3 611.5 315.1 627.7 315.1C644 315.2 657.1 315.3 657.1 315.4Z" fill="#E0E0E0"/>
<path d="M660 251.101C660 251.201 646.8 251.401 630.6 251.401C614.4 251.401 601.2 251.301 601.2 251.101C601.2 250.901 614.4 250.801 630.6 250.801C646.8 250.901 660 251.001 660 251.101Z" fill="#E0E0E0"/>
<path d="M636.7 246.6C640.897 246.6 644.3 246.466 644.3 246.3C644.3 246.134 640.897 246 636.7 246C632.502 246 629.1 246.134 629.1 246.3C629.1 246.466 632.502 246.6 636.7 246.6Z" fill="#E0E0E0"/>
<path d="M606.4 281.7C610.597 281.7 614 281.565 614 281.4C614 281.234 610.597 281.1 606.4 281.1C602.202 281.1 598.8 281.234 598.8 281.4C598.8 281.565 602.202 281.7 606.4 281.7Z" fill="#E0E0E0"/>
<path d="M606 288C610.198 288 613.6 287.866 613.6 287.7C613.6 287.535 610.198 287.4 606 287.4C601.803 287.4 598.4 287.535 598.4 287.7C598.4 287.866 601.803 288 606 288Z" fill="#E0E0E0"/>
<path d="M744.8 224.3C744.8 224.4 708.1 224.6 662.9 224.6C617.7 224.6 581 224.5 581 224.3C581 224.2 617.6 224 662.9 224C708.2 224 744.8 224.2 744.8 224.3Z" fill="#E0E0E0"/>
<path d="M592.1 220.7C593.15 220.7 594 219.85 594 218.8C594 217.751 593.15 216.9 592.1 216.9C591.051 216.9 590.2 217.751 590.2 218.8C590.2 219.85 591.051 220.7 592.1 220.7Z" fill="white"/>
<path d="M600.5 220.7C601.549 220.7 602.4 219.85 602.4 218.8C602.4 217.751 601.549 216.9 600.5 216.9C599.45 216.9 598.6 217.751 598.6 218.8C598.6 219.85 599.45 220.7 600.5 220.7Z" fill="white"/>
<path d="M608.8 220.7C609.85 220.7 610.7 219.85 610.7 218.8C610.7 217.751 609.85 216.9 608.8 216.9C607.751 216.9 606.9 217.751 606.9 218.8C606.9 219.85 607.751 220.7 608.8 220.7Z" fill="white"/>
<path d="M391.3 252.3H289.8L297.3 180H399.7L391.3 252.3Z" fill="#EBEBEB"/>
<path d="M303.188 215.879C301.804 229.283 300.816 240.163 300.981 240.18C301.146 240.197 302.401 229.345 303.785 215.941C305.169 202.536 306.157 191.656 305.993 191.639C305.828 191.622 304.572 202.475 303.188 215.879Z" fill="#E0E0E0"/>
<path d="M314.4 194.401C317.216 194.401 319.5 194.266 319.5 194.101C319.5 193.935 317.216 193.801 314.4 193.801C311.583 193.801 309.3 193.935 309.3 194.101C309.3 194.266 311.583 194.401 314.4 194.401Z" fill="#E0E0E0"/>
<path d="M342.499 194.401C353.711 194.401 362.799 194.266 362.799 194.101C362.799 193.935 353.711 193.801 342.499 193.801C331.288 193.801 322.199 193.935 322.199 194.101C322.199 194.266 331.288 194.401 342.499 194.401Z" fill="#E0E0E0"/>
<path d="M313.2 220C316.016 220 318.3 219.866 318.3 219.7C318.3 219.535 316.016 219.4 313.2 219.4C310.383 219.4 308.1 219.535 308.1 219.7C308.1 219.866 310.383 220 313.2 220Z" fill="#E0E0E0"/>
<path d="M341.3 220C352.511 220 361.6 219.866 361.6 219.7C361.6 219.535 352.511 219.4 341.3 219.4C330.089 219.4 321 219.535 321 219.7C321 219.866 330.089 220 341.3 220Z" fill="#E0E0E0"/>
<path d="M327.499 231.901C338.711 231.901 347.799 231.766 347.799 231.601C347.799 231.435 338.711 231.301 327.499 231.301C316.288 231.301 307.199 231.435 307.199 231.601C307.199 231.766 316.288 231.901 327.499 231.901Z" fill="#E0E0E0"/>
<path d="M316.8 201.6C320.776 201.6 324 201.466 324 201.3C324 201.134 320.776 201 316.8 201C312.823 201 309.6 201.134 309.6 201.3C309.6 201.466 312.823 201.6 316.8 201.6Z" fill="#E0E0E0"/>
<path d="M316.399 212.2C320.376 212.2 323.599 212.065 323.599 211.9C323.599 211.734 320.376 211.6 316.399 211.6C312.423 211.6 309.199 211.734 309.199 211.9C309.199 212.065 312.423 212.2 316.399 212.2Z" fill="#E0E0E0"/>
<path d="M328.5 227.401C332.476 227.401 335.7 227.266 335.7 227.101C335.7 226.935 332.476 226.801 328.5 226.801C324.523 226.801 321.3 226.935 321.3 227.101C321.3 227.266 324.523 227.401 328.5 227.401Z" fill="#E0E0E0"/>
<path d="M357.8 201.6C367.907 201.6 376.1 201.466 376.1 201.3C376.1 201.134 367.907 201 357.8 201C347.693 201 339.5 201.134 339.5 201.3C339.5 201.466 347.693 201.6 357.8 201.6Z" fill="#E0E0E0"/>
<path d="M346.499 212.901C356.606 212.901 364.799 212.766 364.799 212.601C364.799 212.435 356.606 212.301 346.499 212.301C336.392 212.301 328.199 212.435 328.199 212.601C328.199 212.766 336.392 212.901 346.499 212.901Z" fill="#E0E0E0"/>
<path d="M359.1 227.401C369.207 227.401 377.4 227.266 377.4 227.101C377.4 226.935 369.207 226.801 359.1 226.801C348.993 226.801 340.8 226.935 340.8 227.101C340.8 227.266 348.993 227.401 359.1 227.401Z" fill="#E0E0E0"/>
<path d="M325.699 240.5C335.806 240.5 343.999 240.366 343.999 240.2C343.999 240.035 335.806 239.9 325.699 239.9C315.593 239.9 307.399 240.035 307.399 240.2C307.399 240.366 315.593 240.5 325.699 240.5Z" fill="#E0E0E0"/>
<path d="M366.199 240.5C376.306 240.5 384.499 240.366 384.499 240.2C384.499 240.035 376.306 239.9 366.199 239.9C356.093 239.9 347.899 240.035 347.899 240.2C347.899 240.366 356.093 240.5 366.199 240.5Z" fill="#E0E0E0"/>
<path d="M325.699 244.7C335.806 244.7 343.999 244.565 343.999 244.4C343.999 244.234 335.806 244.1 325.699 244.1C315.593 244.1 307.399 244.234 307.399 244.4C307.399 244.565 315.593 244.7 325.699 244.7Z" fill="#E0E0E0"/>
<path d="M327.4 204.7C337.506 204.7 345.7 204.565 345.7 204.4C345.7 204.234 337.506 204.1 327.4 204.1C317.293 204.1 309.1 204.234 309.1 204.4C309.1 204.565 317.293 204.7 327.4 204.7Z" fill="#E0E0E0"/>
<path d="M331.3 201.6C333.895 201.6 336 201.466 336 201.3C336 201.134 333.895 201 331.3 201C328.704 201 326.6 201.134 326.6 201.3C326.6 201.466 328.704 201.6 331.3 201.6Z" fill="#E0E0E0"/>
<path d="M312.399 223.5C314.995 223.5 317.099 223.366 317.099 223.2C317.099 223.035 314.995 222.9 312.399 222.9C309.803 222.9 307.699 223.035 307.699 223.2C307.699 223.366 309.803 223.5 312.399 223.5Z" fill="#E0E0E0"/>
<path d="M312.099 227.401C314.695 227.401 316.799 227.266 316.799 227.101C316.799 226.935 314.695 226.801 312.099 226.801C309.504 226.801 307.399 226.935 307.399 227.101C307.399 227.266 309.504 227.401 312.099 227.401Z" fill="#E0E0E0"/>
<path d="M398.6 187.601C398.6 187.701 375.8 187.901 347.6 187.901C319.4 187.901 296.6 187.801 296.6 187.601C296.6 187.501 319.4 187.301 347.6 187.301C375.8 187.401 398.6 187.501 398.6 187.601Z" fill="#E0E0E0"/>
<path d="M303.5 185.4C304.163 185.4 304.7 184.863 304.7 184.2C304.7 183.537 304.163 183 303.5 183C302.837 183 302.3 183.537 302.3 184.2C302.3 184.863 302.837 185.4 303.5 185.4Z" fill="white"/>
<path d="M308.7 185.4C309.363 185.4 309.9 184.863 309.9 184.2C309.9 183.537 309.363 183 308.7 183C308.037 183 307.5 183.537 307.5 184.2C307.5 184.863 308.037 185.4 308.7 185.4Z" fill="white"/>
<path d="M313.899 185.4C314.562 185.4 315.099 184.863 315.099 184.2C315.099 183.537 314.562 183 313.899 183C313.236 183 312.699 183.537 312.699 184.2C312.699 184.863 313.236 185.4 313.899 185.4Z" fill="white"/>
<path d="M450.7 360.801H339.8L348 281.801H459.8L450.7 360.801Z" fill="#263238"/>
<path d="M445.1 360.801H334.1L342.3 281.801H454.2L445.1 360.801Z" fill="#455A64"/>
<path d="M440.9 357.3H338L345.6 283.9H449.4L440.9 357.3Z" fill="#F5F5F5"/>
<path d="M351.443 320.363C350.042 333.932 349.04 344.946 349.204 344.963C349.369 344.98 350.639 333.994 352.039 320.425C353.44 306.855 354.443 295.842 354.278 295.825C354.113 295.808 352.844 306.794 351.443 320.363Z" fill="#263238"/>
<path d="M362.8 298.602C365.671 298.602 368 298.468 368 298.302C368 298.136 365.671 298.002 362.8 298.002C359.928 298.002 357.6 298.136 357.6 298.302C357.6 298.468 359.928 298.602 362.8 298.602Z" fill="#263238"/>
<path d="M391.299 298.602C402.676 298.602 411.899 298.468 411.899 298.302C411.899 298.136 402.676 298.002 391.299 298.002C379.922 298.002 370.699 298.136 370.699 298.302C370.699 298.468 379.922 298.602 391.299 298.602Z" fill="#007FDB"/>
<path d="M361.499 324.602C364.371 324.602 366.699 324.468 366.699 324.302C366.699 324.136 364.371 324.002 361.499 324.002C358.627 324.002 356.299 324.136 356.299 324.302C356.299 324.468 358.627 324.602 361.499 324.602Z" fill="#263238"/>
<path d="M390.099 324.602C401.476 324.602 410.699 324.468 410.699 324.302C410.699 324.136 401.476 324.002 390.099 324.002C378.722 324.002 369.499 324.136 369.499 324.302C369.499 324.468 378.722 324.602 390.099 324.602Z" fill="#007FDB"/>
<path d="M376.099 336.602C387.476 336.602 396.699 336.468 396.699 336.302C396.699 336.136 387.476 336.002 376.099 336.002C364.722 336.002 355.499 336.136 355.499 336.302C355.499 336.468 364.722 336.602 376.099 336.602Z" fill="#007FDB"/>
<path d="M365.199 305.901C369.231 305.901 372.499 305.766 372.499 305.601C372.499 305.435 369.231 305.301 365.199 305.301C361.168 305.301 357.899 305.435 357.899 305.601C357.899 305.766 361.168 305.901 365.199 305.901Z" fill="#007FDB"/>
<path d="M364.799 316.702C368.831 316.702 372.099 316.567 372.099 316.402C372.099 316.236 368.831 316.102 364.799 316.102C360.767 316.102 357.499 316.236 357.499 316.402C357.499 316.567 360.767 316.702 364.799 316.702Z" fill="#007FDB"/>
<path d="M377.099 332.102C381.131 332.102 384.399 331.968 384.399 331.802C384.399 331.636 381.131 331.502 377.099 331.502C373.067 331.502 369.799 331.636 369.799 331.802C369.799 331.968 373.067 332.102 377.099 332.102Z" fill="#007FDB"/>
<path d="M406.799 305.901C417.072 305.901 425.399 305.766 425.399 305.601C425.399 305.435 417.072 305.301 406.799 305.301C396.527 305.301 388.199 305.435 388.199 305.601C388.199 305.766 396.527 305.901 406.799 305.901Z" fill="#263238"/>
<path d="M395.299 317.301C405.572 317.301 413.899 317.167 413.899 317.001C413.899 316.835 405.572 316.701 395.299 316.701C385.027 316.701 376.699 316.835 376.699 317.001C376.699 317.167 385.027 317.301 395.299 317.301Z" fill="#263238"/>
<path d="M408.099 332.102C418.372 332.102 426.699 331.968 426.699 331.802C426.699 331.636 418.372 331.502 408.099 331.502C397.827 331.502 389.499 331.636 389.499 331.802C389.499 331.968 397.827 332.102 408.099 332.102Z" fill="#263238"/>
<path d="M374.2 345.301C384.472 345.301 392.8 345.167 392.8 345.001C392.8 344.835 384.472 344.701 374.2 344.701C363.927 344.701 355.6 344.835 355.6 345.001C355.6 345.167 363.927 345.301 374.2 345.301Z" fill="#263238"/>
<path d="M415.299 345.301C425.572 345.301 433.899 345.167 433.899 345.001C433.899 344.835 425.572 344.701 415.299 344.701C405.027 344.701 396.699 344.835 396.699 345.001C396.699 345.167 405.027 345.301 415.299 345.301Z" fill="#263238"/>
<path d="M374.2 349.602C384.472 349.602 392.8 349.468 392.8 349.302C392.8 349.136 384.472 349.002 374.2 349.002C363.927 349.002 355.6 349.136 355.6 349.302C355.6 349.468 363.927 349.602 374.2 349.602Z" fill="#263238"/>
<path d="M375.999 309.002C386.272 309.002 394.599 308.868 394.599 308.702C394.599 308.537 386.272 308.402 375.999 308.402C365.727 308.402 357.399 308.537 357.399 308.702C357.399 308.868 365.727 309.002 375.999 309.002Z" fill="#263238"/>
<path d="M379.9 306.002C382.551 306.002 384.7 305.868 384.7 305.702C384.7 305.537 382.551 305.402 379.9 305.402C377.249 305.402 375.1 305.537 375.1 305.702C375.1 305.868 377.249 306.002 379.9 306.002Z" fill="#455A64"/>
<path d="M360.699 328.202C363.35 328.202 365.499 328.067 365.499 327.902C365.499 327.736 363.35 327.602 360.699 327.602C358.048 327.602 355.899 327.736 355.899 327.902C355.899 328.067 358.048 328.202 360.699 328.202Z" fill="#455A64"/>
<path d="M360.499 332.102C363.15 332.102 365.299 331.968 365.299 331.802C365.299 331.636 363.15 331.502 360.499 331.502C357.848 331.502 355.699 331.636 355.699 331.802C355.699 331.968 357.848 332.102 360.499 332.102Z" fill="#455A64"/>
<path d="M448.099 291.802C448.099 291.902 424.999 292.102 396.399 292.102C367.799 292.102 344.699 292.002 344.699 291.802C344.699 291.702 367.799 291.502 396.399 291.502C424.999 291.502 448.099 291.602 448.099 291.802Z" fill="#263238"/>
<path d="M351.699 289.502C352.362 289.502 352.899 288.964 352.899 288.302C352.899 287.639 352.362 287.102 351.699 287.102C351.036 287.102 350.499 287.639 350.499 288.302C350.499 288.964 351.036 289.502 351.699 289.502Z" fill="white"/>
<path d="M356.999 289.502C357.662 289.502 358.199 288.964 358.199 288.302C358.199 287.639 357.662 287.102 356.999 287.102C356.336 287.102 355.799 287.639 355.799 288.302C355.799 288.964 356.336 289.502 356.999 289.502Z" fill="white"/>
<path d="M362.199 289.502C362.862 289.502 363.399 288.964 363.399 288.302C363.399 287.639 362.862 287.102 362.199 287.102C361.536 287.102 360.999 287.639 360.999 288.302C360.999 288.964 361.536 289.502 362.199 289.502Z" fill="white"/>
<path d="M596.4 363.2H479.7L488.4 280.1H606L596.4 363.2Z" fill="#263238"/>
<path d="M590.5 363.2H473.8L482.4 280.1H600.1L590.5 363.2Z" fill="#455A64"/>
<path d="M586.099 359.499H477.899L485.899 282.299H594.999L586.099 359.499Z" fill="#EBEBEB"/>
<path d="M489.699 345.4C489.599 345.4 490.599 333.8 492.099 319.5C493.599 305.2 494.899 293.6 494.999 293.6C495.099 293.6 494.099 305.2 492.599 319.5C491.099 333.9 489.799 345.5 489.699 345.4Z" fill="#263238"/>
<path d="M503.899 296.6C506.881 296.6 509.299 296.466 509.299 296.3C509.299 296.134 506.881 296 503.899 296C500.917 296 498.499 296.134 498.499 296.3C498.499 296.466 500.917 296.6 503.899 296.6Z" fill="#263238"/>
<path d="M533.999 296.6C545.929 296.6 555.599 296.466 555.599 296.3C555.599 296.134 545.929 296 533.999 296C522.07 296 512.399 296.134 512.399 296.3C512.399 296.466 522.07 296.6 533.999 296.6Z" fill="#007FDB"/>
<path d="M502.7 324C505.682 324 508.1 323.866 508.1 323.7C508.1 323.535 505.682 323.4 502.7 323.4C499.717 323.4 497.3 323.535 497.3 323.7C497.3 323.866 499.717 324 502.7 324Z" fill="#263238"/>
<path d="M532.7 324C544.629 324 554.3 323.866 554.3 323.7C554.3 323.535 544.629 323.4 532.7 323.4C520.77 323.4 511.1 323.535 511.1 323.7C511.1 323.866 520.77 324 532.7 324Z" fill="#007FDB"/>
<path d="M517.9 336.6C529.829 336.6 539.5 336.466 539.5 336.3C539.5 336.134 529.829 336 517.9 336C505.97 336 496.3 336.134 496.3 336.3C496.3 336.466 505.97 336.6 517.9 336.6Z" fill="#007FDB"/>
<path d="M506.499 304.301C510.697 304.301 514.099 304.167 514.099 304.001C514.099 303.835 510.697 303.701 506.499 303.701C502.302 303.701 498.899 303.835 498.899 304.001C498.899 304.167 502.302 304.301 506.499 304.301Z" fill="#007FDB"/>
<path d="M506.099 315.6C510.296 315.6 513.699 315.466 513.699 315.3C513.699 315.134 510.296 315 506.099 315C501.902 315 498.499 315.134 498.499 315.3C498.499 315.466 501.902 315.6 506.099 315.6Z" fill="#007FDB"/>
<path d="M519.099 331.801C523.296 331.801 526.699 331.667 526.699 331.501C526.699 331.335 523.296 331.201 519.099 331.201C514.902 331.201 511.499 331.335 511.499 331.501C511.499 331.667 514.902 331.801 519.099 331.801Z" fill="#007FDB"/>
<path d="M550.3 304.301C561.069 304.301 569.8 304.167 569.8 304.001C569.8 303.835 561.069 303.701 550.3 303.701C539.53 303.701 530.8 303.835 530.8 304.001C530.8 304.167 539.53 304.301 550.3 304.301Z" fill="#263238"/>
<path d="M538.199 316.301C548.969 316.301 557.699 316.167 557.699 316.001C557.699 315.835 548.969 315.701 538.199 315.701C527.43 315.701 518.699 315.835 518.699 316.001C518.699 316.167 527.43 316.301 538.199 316.301Z" fill="#263238"/>
<path d="M551.6 331.801C562.369 331.801 571.1 331.667 571.1 331.501C571.1 331.335 562.369 331.201 551.6 331.201C540.83 331.201 532.1 331.335 532.1 331.501C532.1 331.667 540.83 331.801 551.6 331.801Z" fill="#263238"/>
<path d="M515.999 345.7C526.769 345.7 535.499 345.565 535.499 345.4C535.499 345.234 526.769 345.1 515.999 345.1C505.229 345.1 496.499 345.234 496.499 345.4C496.499 345.565 505.229 345.7 515.999 345.7Z" fill="#263238"/>
<path d="M559.199 345.7C569.969 345.7 578.699 345.565 578.699 345.4C578.699 345.234 569.969 345.1 559.199 345.1C548.43 345.1 539.699 345.234 539.699 345.4C539.699 345.565 548.43 345.7 559.199 345.7Z" fill="#263238"/>
<path d="M515.999 350.301C526.769 350.301 535.499 350.167 535.499 350.001C535.499 349.835 526.769 349.701 515.999 349.701C505.229 349.701 496.499 349.835 496.499 350.001C496.499 350.167 505.229 350.301 515.999 350.301Z" fill="#263238"/>
<path d="M517.899 307.5C528.669 307.5 537.399 307.366 537.399 307.2C537.399 307.035 528.669 306.9 517.899 306.9C507.13 306.9 498.399 307.035 498.399 307.2C498.399 307.366 507.13 307.5 517.899 307.5Z" fill="#263238"/>
<path d="M521.999 304.301C524.76 304.301 526.999 304.167 526.999 304.001C526.999 303.835 524.76 303.701 521.999 303.701C519.238 303.701 516.999 303.835 516.999 304.001C516.999 304.167 519.238 304.301 521.999 304.301Z" fill="#455A64"/>
<path d="M501.8 327.7C504.561 327.7 506.8 327.565 506.8 327.4C506.8 327.234 504.561 327.1 501.8 327.1C499.038 327.1 496.8 327.234 496.8 327.4C496.8 327.565 499.038 327.7 501.8 327.7Z" fill="#455A64"/>
<path d="M501.499 331.801C504.26 331.801 506.499 331.667 506.499 331.501C506.499 331.335 504.26 331.201 501.499 331.201C498.738 331.201 496.499 331.335 496.499 331.501C496.499 331.667 498.738 331.801 501.499 331.801Z" fill="#455A64"/>
<path d="M593.699 289.4C593.699 289.5 569.399 289.7 539.299 289.7C509.299 289.7 484.899 289.6 484.899 289.4C484.899 289.3 509.199 289.1 539.299 289.1C569.399 289.2 593.699 289.3 593.699 289.4Z" fill="#263238"/>
<path d="M492.299 287C493.017 287 493.599 286.418 493.599 285.7C493.599 284.982 493.017 284.4 492.299 284.4C491.581 284.4 490.999 284.982 490.999 285.7C490.999 286.418 491.581 287 492.299 287Z" fill="white"/>
<path d="M497.9 287C498.618 287 499.2 286.418 499.2 285.7C499.2 284.982 498.618 284.4 497.9 284.4C497.182 284.4 496.6 284.982 496.6 285.7C496.6 286.418 497.182 287 497.9 287Z" fill="white"/>
<path d="M503.4 287C504.118 287 504.7 286.418 504.7 285.7C504.7 284.982 504.118 284.4 503.4 284.4C502.682 284.4 502.1 284.982 502.1 285.7C502.1 286.418 502.682 287 503.4 287Z" fill="white"/>
<path d="M529.799 264.8H418.399L426.699 185.5H538.999L529.799 264.8Z" fill="#263238"/>
<path d="M524.2 264.8H412.8L421 185.5H533.3L524.2 264.8Z" fill="#455A64"/>
<path d="M520 261.3H416.6L424.3 187.6H528.5L520 261.3Z" fill="#FAFAFA"/>
<path d="M430.23 224.179C428.824 237.803 427.817 248.862 427.982 248.879C428.147 248.896 429.42 237.865 430.827 224.241C432.234 210.617 433.24 199.558 433.076 199.541C432.911 199.524 431.637 210.555 430.23 224.179Z" fill="#263238"/>
<path d="M441.599 202.2C444.471 202.2 446.799 202.065 446.799 201.9C446.799 201.734 444.471 201.6 441.599 201.6C438.728 201.6 436.399 201.734 436.399 201.9C436.399 202.065 438.728 202.2 441.599 202.2Z" fill="#263238"/>
<path d="M470.3 202.2C481.732 202.2 491 202.065 491 201.9C491 201.734 481.732 201.6 470.3 201.6C458.867 201.6 449.6 201.734 449.6 201.9C449.6 202.065 458.867 202.2 470.3 202.2Z" fill="#007FDB"/>
<path d="M440.399 228.399C443.271 228.399 445.599 228.265 445.599 228.099C445.599 227.933 443.271 227.799 440.399 227.799C437.527 227.799 435.199 227.933 435.199 228.099C435.199 228.265 437.527 228.399 440.399 228.399Z" fill="#263238"/>
<path d="M469.099 228.399C480.532 228.399 489.799 228.265 489.799 228.099C489.799 227.933 480.532 227.799 469.099 227.799C457.667 227.799 448.399 227.933 448.399 228.099C448.399 228.265 457.667 228.399 469.099 228.399Z" fill="#007FDB"/>
<path d="M455 240.498C466.432 240.498 475.7 240.364 475.7 240.198C475.7 240.033 466.432 239.898 455 239.898C443.568 239.898 434.3 240.033 434.3 240.198C434.3 240.364 443.568 240.498 455 240.498Z" fill="#007FDB"/>
<path d="M444.1 209.6C448.132 209.6 451.4 209.466 451.4 209.3C451.4 209.134 448.132 209 444.1 209C440.068 209 436.8 209.134 436.8 209.3C436.8 209.466 440.068 209.6 444.1 209.6Z" fill="#007FDB"/>
<path d="M443.699 220.399C447.731 220.399 450.999 220.265 450.999 220.099C450.999 219.933 447.731 219.799 443.699 219.799C439.668 219.799 436.399 219.933 436.399 220.099C436.399 220.265 439.668 220.399 443.699 220.399Z" fill="#007FDB"/>
<path d="M456.1 235.899C460.132 235.899 463.4 235.765 463.4 235.599C463.4 235.433 460.132 235.299 456.1 235.299C452.068 235.299 448.8 235.433 448.8 235.599C448.8 235.765 452.068 235.899 456.1 235.899Z" fill="#007FDB"/>
<path d="M485.899 209.6C496.227 209.6 504.599 209.466 504.599 209.3C504.599 209.134 496.227 209 485.899 209C475.571 209 467.199 209.134 467.199 209.3C467.199 209.466 475.571 209.6 485.899 209.6Z" fill="#263238"/>
<path d="M474.399 221.1C484.727 221.1 493.099 220.966 493.099 220.8C493.099 220.634 484.727 220.5 474.399 220.5C464.071 220.5 455.699 220.634 455.699 220.8C455.699 220.966 464.071 221.1 474.399 221.1Z" fill="#263238"/>
<path d="M487.2 235.899C497.528 235.899 505.9 235.765 505.9 235.599C505.9 235.433 497.528 235.299 487.2 235.299C476.872 235.299 468.5 235.433 468.5 235.599C468.5 235.765 476.872 235.899 487.2 235.899Z" fill="#263238"/>
<path d="M453.099 249.2C463.427 249.2 471.799 249.065 471.799 248.9C471.799 248.734 463.427 248.6 453.099 248.6C442.772 248.6 434.399 248.734 434.399 248.9C434.399 249.065 442.772 249.2 453.099 249.2Z" fill="#263238"/>
<path d="M494.399 249.2C504.727 249.2 513.099 249.065 513.099 248.9C513.099 248.734 504.727 248.6 494.399 248.6C484.071 248.6 475.699 248.734 475.699 248.9C475.699 249.065 484.071 249.2 494.399 249.2Z" fill="#263238"/>
<path d="M453.099 253.498C463.427 253.498 471.799 253.364 471.799 253.198C471.799 253.033 463.427 252.898 453.099 252.898C442.772 252.898 434.399 253.033 434.399 253.198C434.399 253.364 442.772 253.498 453.099 253.498Z" fill="#263238"/>
<path d="M455 212.7C465.328 212.7 473.7 212.565 473.7 212.4C473.7 212.234 465.328 212.1 455 212.1C444.672 212.1 436.3 212.234 436.3 212.4C436.3 212.565 444.672 212.7 455 212.7Z" fill="#263238"/>
<path d="M458.9 209.7C461.551 209.7 463.7 209.565 463.7 209.4C463.7 209.234 461.551 209.1 458.9 209.1C456.249 209.1 454.1 209.234 454.1 209.4C454.1 209.565 456.249 209.7 458.9 209.7Z" fill="#455A64"/>
<path d="M439.6 231.998C442.251 231.998 444.4 231.864 444.4 231.698C444.4 231.533 442.251 231.398 439.6 231.398C436.949 231.398 434.8 231.533 434.8 231.698C434.8 231.864 436.949 231.998 439.6 231.998Z" fill="#455A64"/>
<path d="M439.4 235.899C442.051 235.899 444.2 235.765 444.2 235.599C444.2 235.433 442.051 235.299 439.4 235.299C436.749 235.299 434.6 235.433 434.6 235.599C434.6 235.765 436.749 235.899 439.4 235.899Z" fill="#455A64"/>
<path d="M527.4 195.4C527.4 195.5 504.2 195.7 475.5 195.7C446.8 195.7 423.6 195.6 423.6 195.4C423.6 195.2 446.8 195.1 475.5 195.1C504.2 195.1 527.4 195.3 527.4 195.4Z" fill="#263238"/>
<path d="M430.599 193.099C431.262 193.099 431.799 192.562 431.799 191.899C431.799 191.236 431.262 190.699 430.599 190.699C429.937 190.699 429.399 191.236 429.399 191.899C429.399 192.562 429.937 193.099 430.599 193.099Z" fill="white"/>
<path d="M435.8 193.099C436.462 193.099 437 192.562 437 191.899C437 191.236 436.462 190.699 435.8 190.699C435.137 190.699 434.6 191.236 434.6 191.899C434.6 192.562 435.137 193.099 435.8 193.099Z" fill="white"/>
<path d="M441.099 193.099C441.762 193.099 442.299 192.562 442.299 191.899C442.299 191.236 441.762 190.699 441.099 190.699C440.437 190.699 439.899 191.236 439.899 191.899C439.899 192.562 440.437 193.099 441.099 193.099Z" fill="white"/>
<path d="M341.1 564.602H332.4V576.402H341.1V564.602Z" fill="#263238"/>
<path d="M464.6 422.701H387.6V426.401H464.6V422.701Z" fill="#263238"/>
<path d="M476.6 426.501L491 372.301H430.9L417.8 426.501H476.6Z" fill="#263238"/>
<path d="M421.399 422.4H475.099L487.599 374.9H433.599L421.399 422.4Z" fill="#F5F5F5"/>
<path d="M435 384.102L431.6 397.502H467.3L471.1 384.102H435Z" fill="#E0E0E0"/>
<path d="M449.6 382.6C457.332 382.6 463.6 382.466 463.6 382.3C463.6 382.134 457.332 382 449.6 382C441.868 382 435.6 382.134 435.6 382.3C435.6 382.466 441.868 382.6 449.6 382.6Z" fill="#455A64"/>
<path d="M441.7 386.901C444.792 386.901 447.3 386.766 447.3 386.601C447.3 386.435 444.792 386.301 441.7 386.301C438.607 386.301 436.1 386.435 436.1 386.601C436.1 386.766 438.607 386.901 441.7 386.901Z" fill="#263238"/>
<path d="M452.7 386.702C454.743 386.702 456.4 386.567 456.4 386.402C456.4 386.236 454.743 386.102 452.7 386.102C450.657 386.102 449 386.236 449 386.402C449 386.567 450.657 386.702 452.7 386.702Z" fill="#263238"/>
<path d="M451.099 389.401C459.604 389.401 466.499 389.266 466.499 389.101C466.499 388.935 459.604 388.801 451.099 388.801C442.594 388.801 435.699 388.935 435.699 389.101C435.699 389.266 442.594 389.401 451.099 389.401Z" fill="#455A64"/>
<path d="M440.1 391.6C442.861 391.6 445.1 391.466 445.1 391.3C445.1 391.134 442.861 391 440.1 391C437.338 391 435.1 391.134 435.1 391.3C435.1 391.466 437.338 391.6 440.1 391.6Z" fill="#007FDB"/>
<path d="M449.499 394.801C457.397 394.801 463.799 394.667 463.799 394.501C463.799 394.335 457.397 394.201 449.499 394.201C441.602 394.201 435.199 394.335 435.199 394.501C435.199 394.667 441.602 394.801 449.499 394.801Z" fill="#455A64"/>
<path d="M437.199 401.702C440.237 401.702 442.699 401.567 442.699 401.402C442.699 401.236 440.237 401.102 437.199 401.102C434.162 401.102 431.699 401.236 431.699 401.402C431.699 401.567 434.162 401.702 437.199 401.702Z" fill="#455A64"/>
<path d="M448.407 401.707C450.506 401.724 452.209 401.603 452.21 401.437C452.211 401.272 450.511 401.124 448.412 401.107C446.314 401.09 444.611 401.21 444.61 401.376C444.609 401.542 446.309 401.69 448.407 401.707Z" fill="#263238"/>
<path d="M455.9 401.5C456.783 401.5 457.5 401.366 457.5 401.2C457.5 401.035 456.783 400.9 455.9 400.9C455.016 400.9 454.3 401.035 454.3 401.2C454.3 401.366 455.016 401.5 455.9 401.5Z" fill="#263238"/>
<path d="M433.699 404.401C434.694 404.401 435.499 404.266 435.499 404.101C435.499 403.935 434.694 403.801 433.699 403.801C432.705 403.801 431.899 403.935 431.899 404.101C431.899 404.266 432.705 404.401 433.699 404.401Z" fill="#007FDB"/>
<path d="M441.7 404.401C444.02 404.401 445.9 404.266 445.9 404.101C445.9 403.935 444.02 403.801 441.7 403.801C439.38 403.801 437.5 403.935 437.5 404.101C437.5 404.266 439.38 404.401 441.7 404.401Z" fill="#263238"/>
<path d="M459.8 404.1C465.985 404.1 471 403.966 471 403.8C471 403.634 465.985 403.5 459.8 403.5C453.614 403.5 448.6 403.634 448.6 403.8C448.6 403.966 453.614 404.1 459.8 404.1Z" fill="#455A64"/>
<path d="M433.1 407.301C434.094 407.301 434.9 407.167 434.9 407.001C434.9 406.835 434.094 406.701 433.1 406.701C432.106 406.701 431.3 406.835 431.3 407.001C431.3 407.167 432.106 407.301 433.1 407.301Z" fill="#263238"/>
<path d="M438.2 407.202C439.415 407.202 440.4 407.067 440.4 406.902C440.4 406.736 439.415 406.602 438.2 406.602C436.985 406.602 436 406.736 436 406.902C436 407.067 436.985 407.202 438.2 407.202Z" fill="#263238"/>
<path d="M449.799 407C453.72 407 456.899 406.866 456.899 406.7C456.899 406.535 453.72 406.4 449.799 406.4C445.878 406.4 442.699 406.535 442.699 406.7C442.699 406.866 445.878 407 449.799 407Z" fill="#455A64"/>
<path d="M439.6 412C444.294 412 448.1 411.866 448.1 411.7C448.1 411.535 444.294 411.4 439.6 411.4C434.905 411.4 431.1 411.535 431.1 411.7C431.1 411.866 434.905 412 439.6 412Z" fill="#455A64"/>
<path d="M454.299 411.801C456.453 411.801 458.199 411.667 458.199 411.501C458.199 411.335 456.453 411.201 454.299 411.201C452.145 411.201 450.399 411.335 450.399 411.501C450.399 411.667 452.145 411.801 454.299 411.801Z" fill="#007FDB"/>
<path d="M466.5 411.801C470.034 411.801 472.9 411.667 472.9 411.501C472.9 411.335 470.034 411.201 466.5 411.201C462.965 411.201 460.1 411.335 460.1 411.501C460.1 411.667 462.965 411.801 466.5 411.801Z" fill="#263238"/>
<path d="M468.199 382.401C468.917 382.401 469.499 382.266 469.499 382.101C469.499 381.935 468.917 381.801 468.199 381.801C467.481 381.801 466.899 381.935 466.899 382.101C466.899 382.266 467.481 382.401 468.199 382.401Z" fill="#263238"/>
<path d="M439.5 380.6C441.101 380.6 442.4 380.466 442.4 380.3C442.4 380.134 441.101 380 439.5 380C437.898 380 436.6 380.134 436.6 380.3C436.6 380.466 437.898 380.6 439.5 380.6Z" fill="#007FDB"/>
<path d="M486.699 378.3C468.499 378.3 450.899 378.3 432.699 378.3L433.599 374.9H487.599L486.699 378.3Z" fill="#EBEBEB"/>
<path d="M435.9 377.2C436.231 377.2 436.5 376.931 436.5 376.6C436.5 376.269 436.231 376 435.9 376C435.568 376 435.3 376.269 435.3 376.6C435.3 376.931 435.568 377.2 435.9 377.2Z" fill="#FAFAFA"/>
<path d="M437.9 377.2C438.231 377.2 438.5 376.931 438.5 376.6C438.5 376.269 438.231 376 437.9 376C437.568 376 437.3 376.269 437.3 376.6C437.3 376.931 437.568 377.2 437.9 377.2Z" fill="#FAFAFA"/>
<path d="M439.999 377.2C440.331 377.2 440.599 376.931 440.599 376.6C440.599 376.269 440.331 376 439.999 376C439.668 376 439.399 376.269 439.399 376.6C439.399 376.931 439.668 377.2 439.999 377.2Z" fill="#FAFAFA"/>
<path d="M552.5 431.5H424.5V506.2H552.5V431.5Z" fill="#263238"/>
<path d="M482.8 431.5H424.5V506.2H482.8V431.5Z" fill="#455A64"/>
<path d="M476.9 456.901C476.9 456.901 476.9 456.801 476.9 456.501C476.9 456.201 476.9 455.901 476.9 455.401C476.9 454.401 476.9 453.001 476.9 451.301C476.9 447.701 476.8 442.501 476.8 436.201L477 436.401C464.9 436.401 448.3 436.401 430.1 436.501C429.9 436.701 430.4 436.201 430.4 436.201V436.301V436.501V436.801V437.501V438.901C430.4 439.801 430.4 440.701 430.4 441.601C430.4 443.401 430.4 445.101 430.4 446.901C430.4 450.401 430.4 453.701 430.4 457.001L430.2 456.801C443.8 456.801 455.5 456.901 463.8 456.901C467.9 456.901 471.3 457.001 473.6 457.001C474.7 457.001 475.6 457.001 476.2 457.001C476.5 457.001 476.7 457.001 476.9 457.001C476.8 456.901 476.9 456.901 476.9 456.901C476.9 456.901 476.8 456.901 476.7 456.901C476.5 456.901 476.3 456.901 476 456.901C475.4 456.901 474.5 456.901 473.4 456.901C471.1 456.901 467.8 456.901 463.7 457.001C455.3 457.001 443.6 457.101 429.9 457.101H429.7V456.901C429.7 453.701 429.7 450.301 429.7 446.801C429.7 445.101 429.7 443.301 429.7 441.501C429.7 440.601 429.7 439.701 429.7 438.801V437.401V436.701V436.401V436.201V436.101C429.6 436.201 430.2 435.601 430 435.801C448.2 435.801 464.8 435.901 476.9 435.901H477.1V436.101C477.1 442.501 477 447.701 477 451.301C477 453.101 477 454.401 477 455.401C477 455.801 477 456.201 477 456.501C476.9 456.801 476.9 456.901 476.9 456.901Z" fill="#263238"/>
<path d="M455.4 446.501C455.3 446.501 455.4 445.701 454.5 445.101C454.1 444.801 453.4 444.601 452.8 444.901C452.2 445.101 451.7 445.801 451.7 446.501C451.7 447.301 452.2 447.901 452.8 448.101C453.4 448.301 454.1 448.201 454.5 447.901C455.4 447.301 455.3 446.501 455.4 446.501C455.4 446.501 455.5 446.701 455.4 447.001C455.4 447.301 455.2 447.801 454.7 448.201C454.2 448.601 453.4 448.801 452.6 448.601C451.8 448.301 451.1 447.501 451.1 446.501C451.1 445.501 451.8 444.701 452.6 444.401C453.4 444.101 454.2 444.401 454.7 444.801C455.2 445.201 455.4 445.701 455.4 446.001C455.5 446.301 455.4 446.501 455.4 446.501Z" fill="#263238"/>
<path d="M476.9 479.7C476.9 479.7 476.9 479.6 476.9 479.3C476.9 479 476.9 478.7 476.9 478.2C476.9 477.2 476.9 475.8 476.9 474C476.9 470.4 476.8 465.2 476.8 458.9L477 459.1C464.9 459.1 448.3 459.1 430.1 459.2C429.9 459.4 430.4 458.9 430.4 458.9V459V459.2V459.5V460.2V461.6C430.4 462.5 430.4 463.4 430.4 464.3C430.4 466.1 430.4 467.8 430.4 469.6C430.4 473.1 430.4 476.4 430.4 479.7L430.2 479.5C443.8 479.5 455.5 479.6 463.8 479.6C467.9 479.6 471.3 479.7 473.6 479.7C474.7 479.7 475.6 479.7 476.2 479.7C476.5 479.7 476.7 479.7 476.9 479.7C476.9 479.7 476.8 479.7 476.9 479.7C476.9 479.7 476.8 479.7 476.7 479.7C476.5 479.7 476.3 479.7 476 479.7C475.4 479.7 474.5 479.7 473.4 479.7C471.1 479.7 467.8 479.7 463.7 479.8C455.3 479.8 443.6 479.9 429.9 479.9H429.7V479.7C429.7 476.5 429.7 473.1 429.7 469.6C429.7 467.9 429.7 466.1 429.7 464.3C429.7 463.4 429.7 462.5 429.7 461.6V460.2V459.5V459.2V459V458.9C429.6 459 430.2 458.4 430 458.6C448.2 458.6 464.8 458.7 476.9 458.7H477.1V458.9C477.1 465.3 477 470.5 477 474.1C477 475.9 477 477.2 477 478.2C477 478.6 477 479 477 479.3C476.9 479.6 476.9 479.7 476.9 479.7Z" fill="#263238"/>
<path d="M455.4 469.4C455.3 469.4 455.4 468.6 454.5 468C454.1 467.7 453.4 467.5 452.8 467.8C452.2 468 451.7 468.7 451.7 469.4C451.7 470.2 452.2 470.8 452.8 471C453.4 471.2 454.1 471.1 454.5 470.8C455.4 470.2 455.3 469.3 455.4 469.4C455.4 469.4 455.5 469.6 455.4 469.9C455.4 470.2 455.2 470.7 454.7 471.1C454.2 471.5 453.4 471.7 452.6 471.5C451.8 471.2 451.1 470.4 451.1 469.4C451.1 468.4 451.8 467.6 452.6 467.3C453.4 467 454.2 467.3 454.7 467.7C455.2 468.1 455.4 468.6 455.4 468.9C455.5 469.2 455.4 469.4 455.4 469.4Z" fill="#263238"/>
<path d="M476.9 502.6C476.9 502.6 476.9 502.5 476.9 502.2C476.9 501.9 476.9 501.6 476.9 501.1C476.9 500.1 476.9 498.7 476.9 497C476.9 493.4 476.8 488.2 476.8 481.9L477 482.1C464.9 482.1 448.3 482.1 430.1 482.2C429.9 482.4 430.4 481.9 430.4 481.9V482V482.2V482.5V483.2V484.6C430.4 485.5 430.4 486.4 430.4 487.3C430.4 489.1 430.4 490.8 430.4 492.6C430.4 496.1 430.4 499.4 430.4 502.7L430.2 502.5C443.8 502.5 455.5 502.6 463.8 502.6C467.9 502.6 471.3 502.7 473.6 502.7C474.7 502.7 475.6 502.7 476.2 502.7C476.5 502.7 476.7 502.7 476.9 502.7C476.8 502.6 476.9 502.6 476.9 502.6C476.9 502.6 476.8 502.6 476.7 502.6C476.5 502.6 476.3 502.6 476 502.6C475.4 502.6 474.5 502.6 473.4 502.6C471.1 502.6 467.8 502.6 463.7 502.7C455.3 502.7 443.6 502.8 429.9 502.8H429.7V502.6C429.7 499.4 429.7 496 429.7 492.5C429.7 490.8 429.7 489 429.7 487.2C429.7 486.3 429.7 485.4 429.7 484.5V483.1V482.4V482.1V482V481.9C429.6 482 430.2 481.4 430 481.6C448.2 481.6 464.8 481.7 476.9 481.7H477.1V481.9C477.1 488.3 477 493.5 477 497.1C477 498.9 477 500.2 477 501.2C477 501.6 477 502 477 502.3C476.9 502.5 476.9 502.6 476.9 502.6Z" fill="#263238"/>
<path d="M455.4 492.2C455.3 492.2 455.4 491.4 454.5 490.8C454.1 490.5 453.4 490.3 452.8 490.6C452.2 490.8 451.7 491.5 451.7 492.2C451.7 493 452.2 493.6 452.8 493.8C453.4 494 454.1 493.9 454.5 493.6C455.4 493 455.3 492.2 455.4 492.2C455.4 492.2 455.5 492.4 455.4 492.7C455.4 493 455.2 493.5 454.7 493.9C454.2 494.3 453.4 494.5 452.6 494.3C451.8 494 451.1 493.2 451.1 492.2C451.1 491.2 451.8 490.4 452.6 490.1C453.4 489.8 454.2 490.1 454.7 490.5C455.2 490.9 455.4 491.4 455.4 491.7C455.5 492 455.4 492.2 455.4 492.2Z" fill="#263238"/>
<path d="M339.2 567H253.7V431.5H339.2V567Z" fill="#263238"/>
<path d="M557.2 426.301H249.5V433.401H557.2V426.301Z" fill="#263238"/>
<path d="M263.2 433.4H253.7V577.1H263.2V433.4Z" fill="#263238"/>
<path d="M552.5 433.4H543V577.1H552.5V433.4Z" fill="#263238"/>
<path d="M492.3 433.4H482.8V577.1H492.3V433.4Z" fill="#263238"/>
<path d="M272.3 426.6C283.622 426.6 292.8 426.466 292.8 426.3C292.8 426.134 283.622 426 272.3 426C260.978 426 251.8 426.134 251.8 426.3C251.8 426.466 260.978 426.6 272.3 426.6Z" fill="#455A64"/>
<path d="M382.7 570.101L382.9 559.801L363.7 559.201L363.2 574.201L364.4 574.301C369.7 574.801 391.4 576.201 395 575.301C399 574.301 382.7 570.101 382.7 570.101Z" fill="#007FDB"/>
<g opacity="0.4">
<g opacity="0.4">
<g opacity="0.4">
<path opacity="0.4" d="M390.7 572.4C390.7 572.4 396.4 574.2 395.6 575.1C394.9 576 372.9 575.3 363.2 574.2V573.8L388.8 574.8C388.9 574.9 389.5 572.5 390.7 572.4Z" fill="white"/>
</g>
</g>
</g>
<path d="M363 573.801C363 573.801 363.1 573.801 363.3 573.801C363.6 573.801 363.9 573.901 364.2 573.901C365.1 574.001 366.3 574.101 367.7 574.201C370.7 574.401 374.7 574.601 379.2 574.801C383.7 574.901 387.8 575.001 390.8 575.001C392.2 575.001 393.4 575.001 394.3 575.001C394.7 575.001 395 575.001 395.3 575.001C395.5 575.001 395.6 575.001 395.6 575.001C395.6 575.001 395.5 575.001 395.3 575.001C395 575.001 394.7 575.001 394.3 575.001C393.3 575.001 392.2 575.001 390.8 575.001C387.8 575.001 383.8 574.901 379.2 574.801C374.7 574.701 370.6 574.501 367.7 574.301C366.3 574.201 365.2 574.201 364.2 574.101C363.8 574.101 363.5 574.101 363.2 574.101C363.1 573.801 363 573.801 363 573.801Z" fill="#263238"/>
<path d="M388.9 575.2C389 575.2 389.1 574.4 389.6 573.6C390.1 572.8 390.9 572.4 390.8 572.3C390.8 572.2 390 572.6 389.4 573.5C388.8 574.3 388.8 575.2 388.9 575.2Z" fill="#263238"/>
<path d="M383.76 571.281C383.481 571.692 383.292 572.051 383.337 572.082C383.383 572.113 383.646 571.805 383.925 571.393C384.204 570.982 384.394 570.623 384.348 570.592C384.302 570.561 384.039 570.87 383.76 571.281Z" fill="#263238"/>
<path d="M382.304 570.645C381.966 570.93 381.721 571.195 381.757 571.237C381.793 571.279 382.095 571.082 382.433 570.797C382.77 570.512 383.015 570.247 382.979 570.205C382.944 570.163 382.641 570.359 382.304 570.645Z" fill="#263238"/>
<path d="M381.871 569.372C381.319 569.348 380.87 569.374 380.867 569.43C380.865 569.485 381.31 569.548 381.862 569.571C382.414 569.595 382.863 569.569 382.866 569.513C382.868 569.458 382.422 569.395 381.871 569.372Z" fill="#263238"/>
<path d="M380.5 568.101C380.5 568.201 381 568.401 381.6 568.501C382.3 568.601 382.8 568.401 382.8 568.401C382.8 568.301 382.3 568.401 381.7 568.301C381 568.201 380.5 568.001 380.5 568.101Z" fill="#263238"/>
<path d="M384 570.4C384 570.4 384.5 570.5 385.2 570.4C385.6 570.4 386 570.3 386.5 570.2C386.7 570.1 387 570.1 387.3 569.9C387.4 569.8 387.6 569.7 387.6 569.5C387.7 569.3 387.6 569.1 387.4 569C386.2 568.4 385 569 384.6 569.6C384.3 569.9 384.2 570.2 384.2 570.4C384.1 570.6 384.1 570.7 384.2 570.7C384.2 570.7 384.3 570.2 384.8 569.7C385 569.4 385.4 569.2 385.9 569C386.3 568.9 387 568.9 387.4 569.1C387.6 569.3 387.5 569.5 387.3 569.6C387.1 569.7 386.8 569.8 386.6 569.9C386.1 570 385.7 570.1 385.3 570.2C384.5 570.4 384 570.4 384 570.4Z" fill="#263238"/>
<path d="M384.3 570.502C384.3 570.502 384.5 570.202 384.5 569.602C384.5 569.302 384.4 569.002 384.2 568.702C384 568.402 383.7 568.002 383.2 568.002C382.9 568.002 382.8 568.302 382.8 568.602C382.8 568.802 382.9 569.002 383 569.202C383.2 569.502 383.4 569.802 383.6 570.002C384 570.402 384.3 570.502 384.3 570.502C384.3 570.502 384.1 570.302 383.7 569.902C383.5 569.702 383.4 569.402 383.2 569.102C383 568.802 382.9 568.402 383.2 568.302C383.5 568.302 383.8 568.602 384 568.802C384.2 569.102 384.3 569.402 384.3 569.602C384.4 570.202 384.3 570.502 384.3 570.502Z" fill="#263238"/>
<path d="M363.5 568.601C363.5 568.601 364.1 568.601 364.9 568.701C365.8 568.801 366.9 569.201 368 570.101C369 571.001 369.6 572.101 369.9 572.901C370.2 573.701 370.2 574.301 370.2 574.301C370.2 574.301 370.2 574.201 370.2 573.901C370.2 573.701 370.1 573.301 370 572.901C369.8 572.001 369.2 570.901 368.1 570.001C367 569.101 365.8 568.701 364.9 568.601C364.5 568.601 364.1 568.601 363.8 568.601C363.7 568.501 363.5 568.601 363.5 568.601Z" fill="#263238"/>
<path d="M365.717 564.575C365.813 562.368 365.846 560.576 365.791 560.574C365.735 560.572 365.613 562.359 365.517 564.566C365.421 566.773 365.388 568.564 365.444 568.567C365.499 568.569 365.621 566.782 365.717 564.575Z" fill="#263238"/>
<path d="M372.7 572.502C372.7 572.602 373.9 572.802 375.5 572.902C377.1 573.002 378.3 572.802 378.3 572.802C378.3 572.702 377 572.802 375.5 572.702C373.9 572.602 372.7 572.502 372.7 572.502Z" fill="#263238"/>
<path d="M368.9 572.4C368.9 572.4 369 572.7 369.1 573C369.2 573.3 369.3 573.6 369.3 573.5C369.4 573.5 369.4 573.2 369.3 572.9C369.2 572.6 369 572.4 368.9 572.4Z" fill="#263238"/>
<path d="M367.958 570.91C367.77 570.707 367.585 570.573 367.545 570.611C367.504 570.649 367.624 570.843 367.811 571.046C367.999 571.248 368.184 571.382 368.225 571.344C368.265 571.307 368.146 571.112 367.958 570.91Z" fill="#263238"/>
<path d="M365.5 569.701C365.5 569.801 365.8 569.801 366 569.901C366.3 570.001 366.5 570.201 366.5 570.101C366.6 570.101 366.4 569.801 366.1 569.701C365.8 569.601 365.5 569.701 365.5 569.701Z" fill="#263238"/>
<path d="M364.416 569.351C364.263 569.287 364.122 569.275 364.101 569.326C364.079 569.377 364.185 569.471 364.338 569.535C364.491 569.6 364.632 569.611 364.653 569.56C364.675 569.509 364.569 569.416 364.416 569.351Z" fill="#263238"/>
<g opacity="0.3">
<path opacity="0.3" d="M363.6 568.102L382.8 568.302V566.002L363.4 566.802L363.6 568.102Z" fill="black"/>
</g>
<path d="M413.1 571.701V561.401L393.8 561.301L393.7 576.301L394.9 576.401C400.2 576.701 421.9 577.601 425.5 576.601C429.5 575.501 413.1 571.701 413.1 571.701Z" fill="#007FDB"/>
<g opacity="0.4">
<g opacity="0.4">
<g opacity="0.4">
<path opacity="0.4" d="M421.1 573.801C421.1 573.801 426.8 575.501 426.1 576.401C425.4 577.301 403.4 577.201 393.7 576.401V576.001L419.3 576.301C419.4 576.301 420 573.901 421.1 573.801Z" fill="white"/>
</g>
</g>
</g>
<path d="M393.4 576.001C393.4 576.001 393.5 576.001 393.7 576.001C394 576.001 394.3 576.001 394.7 576.101C395.7 576.101 396.8 576.201 398.2 576.301C401.2 576.401 405.2 576.501 409.8 576.601C414.3 576.601 418.4 576.601 421.4 576.501C422.8 576.401 423.9 576.401 424.9 576.401C425.3 576.401 425.6 576.401 425.9 576.301C426.1 576.301 426.2 576.301 426.2 576.301C426.2 576.301 426.1 576.301 425.9 576.301C425.6 576.301 425.3 576.301 424.9 576.301C423.9 576.301 422.8 576.301 421.4 576.401C418.4 576.401 414.4 576.501 409.8 576.501C405.3 576.501 401.2 576.401 398.2 576.301C396.8 576.301 395.7 576.201 394.7 576.201C394.3 576.201 394 576.201 393.7 576.201C393.5 575.901 393.4 575.901 393.4 576.001Z" fill="#263238"/>
<path d="M419.4 576.601C419.5 576.601 419.5 575.801 420.1 574.901C420.6 574.001 421.3 573.601 421.3 573.601C421.3 573.501 420.5 573.901 419.9 574.801C419.3 575.701 419.3 576.601 419.4 576.601Z" fill="#263238"/>
<path d="M414.126 572.8C413.858 573.219 413.678 573.582 413.725 573.612C413.771 573.642 414.027 573.327 414.295 572.908C414.563 572.49 414.743 572.126 414.696 572.096C414.65 572.067 414.394 572.382 414.126 572.8Z" fill="#263238"/>
<path d="M412.65 572.277C412.32 572.571 412.083 572.843 412.119 572.884C412.156 572.925 412.453 572.72 412.783 572.427C413.113 572.133 413.351 571.861 413.314 571.82C413.278 571.779 412.98 571.983 412.65 572.277Z" fill="#263238"/>
<path d="M412.15 570.896C411.597 570.887 411.149 570.925 411.148 570.98C411.147 571.036 411.594 571.087 412.147 571.096C412.699 571.104 413.147 571.067 413.148 571.011C413.149 570.956 412.702 570.904 412.15 570.896Z" fill="#263238"/>
<path d="M410.801 569.801C410.801 569.901 411.301 570.101 411.901 570.101C412.601 570.201 413.101 570.001 413.101 570.001C413.101 569.901 412.601 570.001 412.001 569.901C411.401 569.801 410.901 569.701 410.801 569.801Z" fill="#263238"/>
<path d="M414.4 572C414.4 572 414.9 572.1 415.6 572C416 572 416.4 571.9 416.9 571.7C417.1 571.6 417.4 571.6 417.7 571.4C417.8 571.3 418 571.2 418 571C418.1 570.8 418 570.6 417.8 570.5C416.6 569.9 415.4 570.5 415 571.2C414.8 571.5 414.6 571.8 414.6 572C414.5 572.2 414.6 572.3 414.6 572.3C414.6 572.3 414.7 571.8 415.2 571.2C415.4 570.9 415.8 570.7 416.3 570.5C416.7 570.4 417.4 570.3 417.8 570.6C418 570.7 417.9 571 417.7 571.1C417.5 571.2 417.2 571.3 417 571.4C416.5 571.6 416.1 571.7 415.7 571.7C414.8 572 414.4 572 414.4 572Z" fill="#263238"/>
<path d="M414.701 572.101C414.701 572.101 414.901 571.801 414.801 571.201C414.801 570.901 414.701 570.601 414.501 570.301C414.301 570.001 414.001 569.601 413.501 569.701C413.201 569.701 413.101 570.101 413.101 570.301C413.101 570.501 413.201 570.701 413.301 570.901C413.501 571.201 413.701 571.501 413.901 571.701C414.301 572.101 414.601 572.201 414.601 572.201C414.601 572.201 414.401 572.001 414.001 571.601C413.801 571.401 413.601 571.201 413.501 570.901C413.301 570.601 413.201 570.201 413.501 570.101C413.801 570.101 414.101 570.401 414.301 570.601C414.501 570.901 414.601 571.201 414.601 571.401C414.801 571.701 414.601 572.101 414.701 572.101Z" fill="#263238"/>
<path d="M393.801 570.702C393.801 570.702 394.401 570.602 395.201 570.802C396.101 570.902 397.301 571.302 398.301 572.102C399.301 572.902 399.901 574.002 400.201 574.802C400.501 575.602 400.501 576.202 400.601 576.202C400.601 576.202 400.601 576.102 400.601 575.802C400.601 575.602 400.501 575.202 400.401 574.802C400.201 573.902 399.501 572.802 398.501 571.902C397.401 571.002 396.201 570.702 395.301 570.602C394.901 570.602 394.501 570.602 394.201 570.602C394.001 570.602 393.801 570.702 393.801 570.702Z" fill="#263238"/>
<path d="M395.888 566.644C395.925 564.435 395.911 562.644 395.856 562.643C395.8 562.642 395.725 564.432 395.688 566.641C395.65 568.85 395.665 570.641 395.72 570.642C395.775 570.643 395.85 568.853 395.888 566.644Z" fill="#263238"/>
<path d="M403.101 574.401C403.101 574.501 404.301 574.701 405.901 574.701C407.501 574.701 408.701 574.501 408.701 574.501C408.701 574.401 407.401 574.501 405.901 574.501C404.401 574.401 403.101 574.301 403.101 574.401Z" fill="#263238"/>
<path d="M399.301 574.4C399.301 574.4 399.401 574.7 399.501 575C399.601 575.3 399.701 575.5 399.801 575.5C399.901 575.5 399.901 575.2 399.801 574.9C399.601 574.5 399.401 574.3 399.301 574.4Z" fill="#263238"/>
<path d="M398.374 572.891C398.181 572.694 397.993 572.565 397.953 572.604C397.914 572.642 398.038 572.834 398.231 573.031C398.425 573.229 398.613 573.357 398.653 573.319C398.692 573.28 398.568 573.089 398.374 572.891Z" fill="#263238"/>
<path d="M395.9 571.801C395.9 571.901 396.2 571.901 396.5 572.001C396.8 572.101 397 572.301 397 572.201C397.1 572.201 396.9 571.901 396.5 571.801C396.2 571.601 395.9 571.701 395.9 571.801Z" fill="#263238"/>
<path d="M394.799 571.478C394.645 571.417 394.503 571.41 394.483 571.461C394.463 571.513 394.571 571.603 394.726 571.664C394.88 571.724 395.021 571.732 395.041 571.68C395.062 571.629 394.953 571.538 394.799 571.478Z" fill="#263238"/>
<g opacity="0.3">
<path opacity="0.3" d="M393.9 570.202L413.1 569.902V567.602L393.7 569.002L393.9 570.202Z" fill="black"/>
</g>
<path d="M370.6 395.702L378.3 418.902C380.4 425.202 385.9 426.202 392.5 426.202H435.4V416.602L396.2 411.002L386.9 387.102L370.6 395.702Z" fill="#FFBE9D"/>
<path d="M440.099 414.702L443.499 413.102C443.499 413.102 447.199 406.002 447.999 406.302C448.799 406.602 449.099 408.702 447.599 411.902L452.099 410.602C452.099 410.602 461.899 415.102 461.499 415.702C461.099 416.302 460.299 417.802 458.099 416.702C455.999 415.602 453.199 414.302 453.199 414.302L447.899 415.802L454.699 416.702L461.099 422.502C461.099 422.502 458.999 424.102 457.199 422.402L440.599 426.002L435.399 426.302V416.702L440.099 414.702Z" fill="#FFBE9D"/>
<path d="M457.199 422.402C457.099 422.402 456.799 422.002 456.199 421.302C455.899 421.002 455.499 420.602 454.999 420.402C454.499 420.102 453.899 420.002 453.199 419.902C450.399 419.602 448.199 419.202 448.199 419.002C448.199 418.902 450.499 419.002 453.299 419.302C453.999 419.402 454.699 419.502 455.299 419.902C455.799 420.202 456.299 420.602 456.499 421.002C457.099 421.902 457.299 422.402 457.199 422.402Z" fill="#EB996E"/>
<path d="M454.6 423.101C454.5 423.101 454.5 422.801 454 422.701C453.5 422.601 452.8 422.501 452 422.401C450.4 422.201 449.1 422.301 449.1 422.101C449.1 422.001 450.4 421.701 452.1 421.901C452.9 422.001 453.6 422.101 454.2 422.301C454.5 422.401 454.7 422.701 454.7 422.801C454.7 423.001 454.6 423.101 454.6 423.101Z" fill="#EB996E"/>
<path d="M334.401 300.3L332.101 347.5L352.301 349.4L353.401 338C353.401 338 360.501 339.8 362.701 333.2C364.101 329 365.301 296 365.301 296L334.401 300.3Z" fill="#FFBE9D"/>
<path d="M367 301.401C367.6 305.801 361.4 308.401 361.4 308.401L360.3 318.801C359.4 318.701 357.4 318.801 357.4 318.801C357.9 313.901 351.6 314.901 351 318.201C350.4 321.401 354 323.601 354 323.601C351.5 327.501 350.4 329.501 346.9 333.201C343 337.101 340.9 337.401 336.9 337.301L332.5 337.101C332.5 337.101 330.9 333.301 329.8 324.401C329.2 320.101 325.9 314.501 326.9 307.501C329.6 287.701 348.6 289.801 348.6 289.801C358.3 290.101 365.7 291.101 367 301.401Z" fill="#263238"/>
<path d="M352.5 290.4C356.8 290.5 361.2 290.8 365 292.9C368.8 295 371.7 299.2 370.9 303.4C370.2 303.5 369.5 303.7 368.8 303.8C368.5 303.3 368.2 302.7 367.9 302.2C367.9 303 367.9 303.9 367.9 304.7C366.6 305.1 365.4 305.4 364.1 305.8C363.5 302.6 362.4 299.5 360.8 296.7" fill="#263238"/>
<path d="M335.201 312.101C335.201 312.101 335.001 311.901 334.901 311.401C334.701 310.901 334.501 310.201 334.401 309.301C334.101 307.501 334.001 304.801 334.901 302.001C335.801 299.201 337.301 297.101 338.601 295.701C339.301 295.001 339.801 294.501 340.301 294.201C340.701 293.901 341.001 293.701 341.001 293.801C341.101 293.901 340.101 294.601 338.901 295.901C337.701 297.301 336.301 299.401 335.401 302.101C334.601 304.801 334.601 307.301 334.801 309.201C334.901 310.901 335.301 312.001 335.201 312.101Z" fill="#455A64"/>
<path d="M339.2 310.402C339.1 310.402 338.8 309.502 338.4 308.002C338 306.502 337.8 304.302 338 301.902C338.2 299.502 338.8 297.402 339.4 295.902C340 294.402 340.6 293.602 340.6 293.702C340.8 293.802 338.9 297.202 338.5 302.002C338 306.602 339.3 310.402 339.2 310.402Z" fill="#455A64"/>
<path d="M364.9 303.1C364.8 303.1 364.6 301.9 363.8 300.1C363 298.3 361.4 296 358.9 294.3C356.4 292.6 353.7 292 351.7 291.9C349.7 291.8 348.5 292.1 348.5 292C348.5 292 348.8 291.9 349.3 291.7C349.9 291.6 350.7 291.5 351.7 291.5C353.7 291.5 356.6 292 359.2 293.8C361.8 295.6 363.4 298 364.1 299.9C364.5 300.8 364.7 301.6 364.8 302.2C365 302.8 365 303.1 364.9 303.1Z" fill="#455A64"/>
<path d="M335.8 286.501C335.8 286.401 337.4 286.801 338.7 288.201C340.1 289.601 340.5 291.101 340.4 291.101C340.3 291.201 339.6 289.801 338.3 288.601C337.1 287.301 335.7 286.701 335.8 286.501Z" fill="#263238"/>
<path d="M340.5 286.6C340.6 286.7 340.3 287.7 340.4 289C340.4 290.3 340.8 291.3 340.7 291.4C340.6 291.5 339.9 290.5 339.9 289C339.9 287.6 340.4 286.5 340.5 286.6Z" fill="#455A64"/>
<path d="M367 390.702L370.3 401.902L391.2 392.402C390.4 390.102 387 379.602 380.4 363.102C376.7 353.902 368.5 347.202 358.7 345.602C351.8 344.502 344.4 343.602 338.7 343.602C327 343.702 309.7 351.102 307.4 362.602C305.6 371.402 307.3 386.902 307.3 405.702L308.8 441.702L369 443.702L367 390.702Z" fill="#007FDB"/>
<g opacity="0.3">
<g opacity="0.3">
<path opacity="0.3" d="M307.3 397.401C314.6 398.901 322.1 397.401 329.6 396.901C334.1 396.601 339.1 396.101 342.7 398.901C345.5 401.101 346.7 404.801 347.5 408.301C350.6 421.601 351.2 430.601 351.9 444.201L315.7 446.401L307.3 397.401Z" fill="black"/>
</g>
</g>
<path d="M378.6 359.601C378.6 359.701 362.8 359.901 343.3 359.901C323.8 359.901 308 359.801 308 359.601C308 359.501 323.8 359.301 343.3 359.301C362.8 359.401 378.6 359.501 378.6 359.601Z" fill="#FAFAFA"/>
<path d="M383 369.702C383 369.802 365.8 370.002 344.7 370.002C323.5 370.002 306.3 369.902 306.3 369.702C306.3 369.502 323.5 369.402 344.7 369.402C365.8 369.502 383 369.602 383 369.702Z" fill="#FAFAFA"/>
<path d="M388.5 382.402C388.5 382.502 370.2 382.702 347.6 382.702C325 382.702 306.7 382.602 306.7 382.402C306.7 382.302 325 382.102 347.6 382.102C370.2 382.202 388.5 382.302 388.5 382.402Z" fill="#FAFAFA"/>
<path d="M353.699 396.401C360.769 396.401 366.499 396.266 366.499 396.101C366.499 395.935 360.769 395.801 353.699 395.801C346.63 395.801 340.899 395.935 340.899 396.101C340.899 396.266 346.63 396.401 353.699 396.401Z" fill="#FAFAFA"/>
<path d="M354.304 411.109C361.705 411.169 367.705 411.084 367.707 410.918C367.708 410.752 361.71 410.569 354.309 410.509C346.909 410.449 340.908 410.535 340.907 410.7C340.905 410.866 346.904 411.049 354.304 411.109Z" fill="#FAFAFA"/>
<path d="M368.3 423.001C368.3 423.001 367.9 423.001 367.2 423.001C366.4 423.001 365.5 423.001 364.3 422.901C361.9 422.801 358.5 422.801 354.8 422.801C351.1 422.801 347.8 422.901 345.3 422.901C344.2 422.901 343.2 422.901 342.4 423.001C341.7 423.001 341.3 423.001 341.3 423.001C341.3 423.001 341.7 422.901 342.3 422.801C343 422.701 344 422.701 345.2 422.601C347.6 422.501 351 422.301 354.7 422.301C358.4 422.301 361.7 422.401 364.2 422.601C365.4 422.701 366.4 422.701 367.1 422.801C367.9 422.901 368.3 423.001 368.3 423.001Z" fill="#FAFAFA"/>
<path d="M354.9 433.102C362.19 433.102 368.1 432.968 368.1 432.802C368.1 432.636 362.19 432.502 354.9 432.502C347.61 432.502 341.7 432.636 341.7 432.802C341.7 432.968 347.61 433.102 354.9 433.102Z" fill="#FAFAFA"/>
<path d="M344 350.002C358.304 350.002 369.9 349.868 369.9 349.702C369.9 349.537 358.304 349.402 344 349.402C329.695 349.402 318.1 349.537 318.1 349.702C318.1 349.868 329.695 350.002 344 350.002Z" fill="#FAFAFA"/>
<path d="M368.5 351.601C368.5 351.701 367.9 351.701 366.9 352.101C365.9 352.501 364.6 353.401 363.4 354.901C362.3 356.401 361.5 358.601 361.3 361.201C361.1 363.701 361.5 366.501 361.9 369.401C362.8 375.201 364.2 380.401 365.3 384.101C365.8 385.901 366.2 387.401 366.5 388.501C366.8 389.501 366.9 390.101 366.9 390.101C366.9 390.101 366.7 389.501 366.3 388.501C366 387.501 365.5 386.001 364.9 384.101C363.8 380.401 362.3 375.201 361.4 369.301C361 366.401 360.6 363.501 360.8 360.901C361 358.301 361.8 356.001 363.1 354.401C364.3 352.801 365.8 352.001 366.8 351.601C367.3 351.401 367.7 351.301 368 351.301C368.3 351.601 368.5 351.601 368.5 351.601Z" fill="#263238"/>
<path d="M390.499 389.502C390.499 389.602 389.399 390.202 387.599 391.202C385.699 392.202 383.099 393.502 380.199 394.802C377.299 396.102 374.599 397.202 372.599 398.002C370.599 398.702 369.399 399.202 369.399 399.102C369.399 399.002 370.599 398.502 372.499 397.702C374.399 396.902 377.099 395.702 379.999 394.402C382.899 393.102 385.499 391.902 387.399 391.002C389.299 390.002 390.499 389.502 390.499 389.502Z" fill="#263238"/>
<path d="M327.3 442.301L399.2 444.801C410.9 445.201 420.1 454.901 419.9 466.601L416.9 569.301L389.1 568.401L391.2 472.301L327.3 470.601V442.301Z" fill="#263238"/>
<path d="M297.6 442.301L369.5 444.801C381.2 445.201 390.4 454.901 390.2 466.601L387.2 569.301L359.1 567.101L361.5 472.301L297.6 470.601V442.301Z" fill="#263238"/>
<path d="M351.5 479.602H344.4V564.302H351.5V479.602Z" fill="#455A64"/>
<path d="M285 397.401V459.801C285 468.001 291.6 474.601 299.8 474.601H341.3V397.401C341.3 393.801 338.3 390.801 334.7 390.801H291.6C288 390.801 285 393.701 285 397.401Z" fill="#455A64"/>
<path d="M397.3 479.602H296.1C296.1 473.502 301 468.602 307.1 468.602H386.3C392.3 468.602 397.3 473.502 397.3 479.602Z" fill="#455A64"/>
<path d="M341.4 467.201C341.4 467.201 341.4 467.401 341.4 467.701C341.4 468.001 341.4 468.501 341.2 469.101C341 470.301 340.2 472.001 338.5 473.301C337.6 474.001 336.6 474.501 335.3 474.701C334 474.901 332.7 474.801 331.3 474.801C328.5 474.801 325.4 474.801 322.2 474.801C315.8 474.801 309.9 474.801 305.7 474.701C303.7 474.701 302 474.601 300.7 474.601C300.2 474.601 299.7 474.601 299.3 474.601C299 474.601 298.8 474.601 298.8 474.501C298.8 474.501 299 474.501 299.3 474.401C299.7 474.401 300.1 474.401 300.7 474.301C302 474.301 303.7 474.201 305.7 474.201C309.9 474.101 315.8 474.101 322.2 474.101C325.4 474.101 328.5 474.101 331.3 474.101C332.7 474.101 334 474.201 335.2 474.001C336.4 473.801 337.4 473.301 338.3 472.701C340 471.501 340.7 469.801 341 468.701C341.3 467.801 341.3 467.201 341.4 467.201Z" fill="#263238"/>
<path d="M347.9 480.1C351.324 480.1 354.1 479.966 354.1 479.8C354.1 479.634 351.324 479.5 347.9 479.5C344.476 479.5 341.7 479.634 341.7 479.8C341.7 479.966 344.476 480.1 347.9 480.1Z" fill="#263238"/>
<path d="M384.9 475.1C384.8 475.1 384.6 474.1 384.3 472.1C384 470.2 383.5 467.4 383 463.9C382.4 460.5 382.1 456.3 380.2 452.2C379.2 450.1 378 448.1 376.4 446.2C374.8 444.3 372.9 442.6 370.8 441.1C368.6 439.6 366.3 438.5 364 437.8C361.7 437.1 359.3 436.6 357 436.6C352.4 436.5 348.2 436.5 344.8 436.4C341.3 436.4 338.5 436.3 336.5 436.2C334.6 436.1 333.5 436.1 333.5 436C333.5 435.9 334.6 435.9 336.5 435.8C338.4 435.7 341.3 435.7 344.8 435.6C348.3 435.6 352.4 435.5 357.1 435.5C359.4 435.5 361.9 436 364.3 436.7C366.8 437.4 369.2 438.6 371.4 440.1C373.6 441.6 375.6 443.4 377.2 445.4C378.8 447.4 380.1 449.5 381 451.7C381.2 452.2 381.4 452.8 381.6 453.3C381.7 453.6 381.8 453.8 381.9 454.1C382 454.4 382.1 454.6 382.1 454.9C382.2 455.4 382.4 456 382.5 456.5C382.6 457 382.7 457.6 382.8 458.1C383.2 460.1 383.3 462 383.6 463.8C384 467.3 384.4 470.1 384.6 472C384.8 473.9 384.9 475.1 384.9 475.1Z" fill="#455A64"/>
<path d="M378.8 572H377.8C377.8 555.4 364.3 541.9 347.7 541.9C331.1 541.9 317.6 555.4 317.6 572H316.6C316.6 554.9 330.5 540.9 347.7 540.9C364.9 540.9 378.8 554.8 378.8 572Z" fill="#455A64"/>
<path d="M317.1 578.201C319.696 578.201 321.8 576.097 321.8 573.501C321.8 570.905 319.696 568.801 317.1 568.801C314.505 568.801 312.4 570.905 312.4 573.501C312.4 576.097 314.505 578.201 317.1 578.201Z" fill="#263238"/>
<path d="M378.6 577.601C381.196 577.601 383.3 575.497 383.3 572.901C383.3 570.305 381.196 568.201 378.6 568.201C376.005 568.201 373.9 570.305 373.9 572.901C373.9 575.497 376.005 577.601 378.6 577.601Z" fill="#263238"/>
<path d="M378.5 564.3C378.5 564.4 365 564.6 348.3 564.6C331.6 564.6 318.1 564.5 318.1 564.3C318.1 564.1 331.6 564 348.3 564C365 564.1 378.5 564.2 378.5 564.3Z" fill="#455A64"/>
<path d="M494.199 338.801L546.399 367.701L544.399 371.401L492.699 342.001L494.199 338.801Z" fill="#007FDB"/>
<path d="M491.6 336.1L494 332.4L495.4 333.3L493.2 337L491.6 336.1Z" fill="#007FDB"/>
<path d="M540.399 363.201L543.099 364.701L534.399 420.501H530.199L540.399 363.201Z" fill="#007FDB"/>
<path d="M518.199 426.301C518.199 426.301 524.599 419.901 533.099 420.301C541.599 420.801 545.999 426.201 545.999 426.201L518.199 426.301Z" fill="#007FDB"/>
<path d="M491.6 361.4L471 349.5L477 339.2C480.3 333.5 487.6 331.5 493.3 334.8C499 338.1 501 345.4 497.7 351.1L491.6 361.4Z" fill="#007FDB"/>
</g>
<defs>
<filter id="filter0_d_27_27587" x="0" y="0" width="895" height="776" filterUnits="userSpaceOnUse" color-interpolation-filters="sRGB">
<feFlood flood-opacity="0" result="BackgroundImageFix"/>
<feColorMatrix in="SourceAlpha" type="matrix" values="0 0 0 0 0 0 0 0 0 0 0 0 0 0 0 0 0 0 127 0" result="hardAlpha"/>
<feOffset dy="64"/>
<feGaussianBlur stdDeviation="97"/>
<feComposite in2="hardAlpha" operator="out"/>
<feColorMatrix type="matrix" values="0 0 0 0 0 0 0 0 0 0 0 0 0 0 0 0 0 0 0.1 0"/>
<feBlend mode="normal" in2="BackgroundImageFix" result="effect1_dropShadow_27_27587"/>
<feBlend mode="normal" in="SourceGraphic" in2="effect1_dropShadow_27_27587" result="shape"/>
</filter>
<clipPath id="clip0_27_27587">
<rect width="599.6" height="398.2" fill="white" transform="translate(147 180)"/>
</clipPath>
</defs>
</svg>
