<svg width="429" height="321" viewBox="0 0 429 321" fill="none" xmlns="http://www.w3.org/2000/svg">
<rect x="34.0957" y="0.5" width="361.409" height="276.346" rx="21.5" fill="white" stroke="#DFDFDF"/>
<g clip-path="url(#clip0_1130_534)">
<path d="M116.514 183.134H0L8.57772 100.145H126.092L116.514 183.134Z" fill="#F5F5F5"/>
<path d="M12.7952 169.195C12.7237 169.195 13.8674 156.686 15.5114 141.318C17.084 125.949 18.4422 113.44 18.5851 113.512C18.6566 113.512 17.5129 126.021 15.8688 141.389C14.2963 156.758 12.9381 169.195 12.7952 169.195Z" fill="#E0E0E0"/>
<path d="M28.1632 116.443C31.4004 116.443 34.0246 116.347 34.0246 116.228C34.0246 116.11 31.4004 116.014 28.1632 116.014C24.926 116.014 22.3018 116.11 22.3018 116.228C22.3018 116.347 24.926 116.443 28.1632 116.443Z" fill="#E0E0E0"/>
<path d="M83.7755 116.228C83.7755 116.3 73.3393 116.443 60.4727 116.443C47.6061 116.443 37.1699 116.371 37.1699 116.228C37.1699 116.157 47.6061 116.014 60.4727 116.014C73.3393 116.085 83.7755 116.157 83.7755 116.228Z" fill="#E0E0E0"/>
<path d="M26.8048 145.964C30.042 145.964 32.6662 145.868 32.6662 145.75C32.6662 145.631 30.042 145.535 26.8048 145.535C23.5676 145.535 20.9434 145.631 20.9434 145.75C20.9434 145.868 23.5676 145.964 26.8048 145.964Z" fill="#E0E0E0"/>
<path d="M82.4171 145.75C82.4171 145.821 71.9809 145.964 59.1143 145.964C46.2477 145.964 35.8115 145.893 35.8115 145.75C35.8115 145.678 46.2477 145.535 59.1143 145.535C71.9809 145.535 82.4171 145.607 82.4171 145.75Z" fill="#E0E0E0"/>
<path d="M66.549 159.331C66.549 159.403 56.1127 159.546 43.2462 159.546C30.3796 159.546 19.9434 159.474 19.9434 159.331C19.9434 159.26 30.3796 159.117 43.2462 159.117C56.1127 159.117 66.549 159.26 66.549 159.331Z" fill="#E0E0E0"/>
<path d="M30.9508 124.806C35.4907 124.806 39.1711 124.71 39.1711 124.591C39.1711 124.473 35.4907 124.377 30.9508 124.377C26.4108 124.377 22.7305 124.473 22.7305 124.591C22.7305 124.71 26.4108 124.806 30.9508 124.806Z" fill="#E0E0E0"/>
<path d="M30.5221 137.029C35.062 137.029 38.7424 136.933 38.7424 136.815C38.7424 136.696 35.062 136.6 30.5221 136.6C25.9821 136.6 22.3018 136.696 22.3018 136.815C22.3018 136.933 25.9821 137.029 30.5221 137.029Z" fill="#E0E0E0"/>
<path d="M44.4605 154.47C49.0005 154.47 52.6809 154.374 52.6809 154.256C52.6809 154.138 49.0005 154.042 44.4605 154.042C39.9206 154.042 36.2402 154.138 36.2402 154.256C36.2402 154.374 39.9206 154.47 44.4605 154.47Z" fill="#E0E0E0"/>
<path d="M99.0005 124.591C99.0005 124.663 89.5651 124.806 77.9851 124.806C66.4052 124.806 56.9697 124.734 56.9697 124.591C56.9697 124.52 66.4052 124.377 77.9851 124.377C89.6365 124.377 99.0005 124.448 99.0005 124.591Z" fill="#E0E0E0"/>
<path d="M86.063 137.458C86.063 137.529 76.6276 137.672 65.0476 137.672C53.4677 137.672 44.0322 137.601 44.0322 137.458C44.0322 137.386 53.4677 137.243 65.0476 137.243C76.6276 137.315 86.063 137.386 86.063 137.458Z" fill="#E0E0E0"/>
<path d="M100.503 154.256C100.503 154.327 91.067 154.47 79.4871 154.47C67.9072 154.47 58.4717 154.399 58.4717 154.256C58.4717 154.184 67.9072 154.042 79.4871 154.042C91.1385 154.042 100.503 154.113 100.503 154.256Z" fill="#E0E0E0"/>
<path d="M62.1168 169.195C62.1168 169.267 52.6813 169.41 41.1013 169.41C29.5214 169.41 20.0859 169.338 20.0859 169.195C20.0859 169.124 29.5214 168.981 41.1013 168.981C52.7528 168.981 62.1168 169.052 62.1168 169.195Z" fill="#E0E0E0"/>
<path d="M108.651 169.195C108.651 169.267 99.2155 169.41 87.6355 169.41C76.0556 169.41 66.6201 169.338 66.6201 169.195C66.6201 169.124 76.0556 168.981 87.6355 168.981C99.2155 168.981 108.651 169.052 108.651 169.195Z" fill="#E0E0E0"/>
<path d="M62.1168 174.056C62.1168 174.128 52.6813 174.271 41.1013 174.271C29.5214 174.271 20.0859 174.199 20.0859 174.056C20.0859 173.913 29.5214 173.842 41.1013 173.842C52.7528 173.842 62.1168 173.913 62.1168 174.056Z" fill="#E0E0E0"/>
<path d="M64.19 128.094C64.19 128.165 54.7545 128.308 43.1746 128.308C31.5947 128.308 22.1592 128.237 22.1592 128.094C22.1592 128.022 31.5947 127.879 43.1746 127.879C54.7545 127.879 64.19 127.951 64.19 128.094Z" fill="#E0E0E0"/>
<path d="M47.5351 124.806C50.5354 124.806 52.9676 124.71 52.9676 124.591C52.9676 124.473 50.5354 124.377 47.5351 124.377C44.5348 124.377 42.1025 124.473 42.1025 124.591C42.1025 124.71 44.5348 124.806 47.5351 124.806Z" fill="#E0E0E0"/>
<path d="M25.8759 149.967C28.8762 149.967 31.3085 149.871 31.3085 149.753C31.3085 149.634 28.8762 149.538 25.8759 149.538C22.8756 149.538 20.4434 149.634 20.4434 149.753C20.4434 149.871 22.8756 149.967 25.8759 149.967Z" fill="#E0E0E0"/>
<path d="M25.5898 154.47C28.5901 154.47 31.0223 154.374 31.0223 154.256C31.0223 154.138 28.5901 154.042 25.5898 154.042C22.5895 154.042 20.1572 154.138 20.1572 154.256C20.1572 154.374 22.5895 154.47 25.5898 154.47Z" fill="#E0E0E0"/>
<path d="M124.806 108.866C124.806 108.937 98.5721 109.08 66.2627 109.08C33.9532 109.08 7.71973 109.009 7.71973 108.866C7.71973 108.723 33.8818 108.651 66.2627 108.651C98.6435 108.723 124.806 108.794 124.806 108.866Z" fill="#E0E0E0"/>
<path d="M15.654 106.292C16.4041 106.292 17.0122 105.684 17.0122 104.934C17.0122 104.184 16.4041 103.576 15.654 103.576C14.904 103.576 14.2959 104.184 14.2959 104.934C14.2959 105.684 14.904 106.292 15.654 106.292Z" fill="white"/>
<path d="M21.6589 106.292C22.409 106.292 23.0171 105.684 23.0171 104.934C23.0171 104.184 22.409 103.576 21.6589 103.576C20.9088 103.576 20.3008 104.184 20.3008 104.934C20.3008 105.684 20.9088 106.292 21.6589 106.292Z" fill="white"/>
<path d="M27.5915 106.292C28.3416 106.292 28.9497 105.684 28.9497 104.934C28.9497 104.184 28.3416 103.576 27.5915 103.576C26.8415 103.576 26.2334 104.184 26.2334 104.934C26.2334 105.684 26.8415 106.292 27.5915 106.292Z" fill="white"/>
<path d="M419.022 141.604H302.508L311.086 58.6145H428.6L419.022 141.604Z" fill="#F5F5F5"/>
<path d="M315.303 127.665C315.231 127.665 316.375 115.156 318.019 99.7876C319.592 84.4192 320.95 71.91 321.093 71.9815C321.164 71.9815 320.021 84.4907 318.377 99.8591C316.804 115.227 315.446 127.665 315.303 127.665Z" fill="#E0E0E0"/>
<path d="M330.671 74.9838C333.908 74.9838 336.532 74.8878 336.532 74.7694C336.532 74.6509 333.908 74.5549 330.671 74.5549C327.434 74.5549 324.81 74.6509 324.81 74.7694C324.81 74.8878 327.434 74.9838 330.671 74.9838Z" fill="#E0E0E0"/>
<path d="M386.283 74.7694C386.283 74.8409 375.847 74.9838 362.981 74.9838C350.114 74.9838 339.678 74.9123 339.678 74.7694C339.678 74.6979 350.114 74.5549 362.981 74.5549C375.847 74.5549 386.283 74.6264 386.283 74.7694Z" fill="#E0E0E0"/>
<path d="M329.313 104.434C332.55 104.434 335.174 104.338 335.174 104.22C335.174 104.101 332.55 104.005 329.313 104.005C326.075 104.005 323.451 104.101 323.451 104.22C323.451 104.338 326.075 104.434 329.313 104.434Z" fill="#E0E0E0"/>
<path d="M384.925 104.22C384.925 104.291 374.489 104.434 361.622 104.434C348.756 104.434 338.319 104.363 338.319 104.22C338.319 104.148 348.756 104.005 361.622 104.005C374.489 104.077 384.925 104.148 384.925 104.22Z" fill="#E0E0E0"/>
<path d="M369.057 117.872C369.057 117.944 358.621 118.087 345.754 118.087C332.887 118.087 322.451 118.015 322.451 117.872C322.451 117.801 332.887 117.658 345.754 117.658C358.621 117.658 369.057 117.729 369.057 117.872Z" fill="#E0E0E0"/>
<path d="M333.459 83.2756C337.999 83.2756 341.679 83.1796 341.679 83.0611C341.679 82.9427 337.999 82.8467 333.459 82.8467C328.919 82.8467 325.238 82.9427 325.238 83.0611C325.238 83.1796 328.919 83.2756 333.459 83.2756Z" fill="#E0E0E0"/>
<path d="M333.03 95.4987C337.57 95.4987 341.25 95.4027 341.25 95.2843C341.25 95.1658 337.57 95.0698 333.03 95.0698C328.49 95.0698 324.81 95.1658 324.81 95.2843C324.81 95.4027 328.49 95.4987 333.03 95.4987Z" fill="#E0E0E0"/>
<path d="M346.968 112.94C351.508 112.94 355.189 112.844 355.189 112.726C355.189 112.607 351.508 112.511 346.968 112.511C342.428 112.511 338.748 112.607 338.748 112.726C338.748 112.844 342.428 112.94 346.968 112.94Z" fill="#E0E0E0"/>
<path d="M401.508 83.0611C401.508 83.1326 392.073 83.2756 380.493 83.2756C368.913 83.2756 359.478 83.2041 359.478 83.0611C359.478 82.9182 368.913 82.8467 380.493 82.8467C392.144 82.9182 401.508 82.9896 401.508 83.0611Z" fill="#E0E0E0"/>
<path d="M388.571 95.9991C388.571 96.0706 379.135 96.2136 367.555 96.2136C355.976 96.2136 346.54 96.1421 346.54 95.9991C346.54 95.9276 355.976 95.7847 367.555 95.7847C379.135 95.7847 388.571 95.9276 388.571 95.9991Z" fill="#E0E0E0"/>
<path d="M403.01 112.726C403.01 112.797 393.575 112.94 381.995 112.94C370.415 112.94 360.979 112.869 360.979 112.726C360.979 112.654 370.415 112.511 381.995 112.511C393.646 112.511 403.01 112.654 403.01 112.726Z" fill="#E0E0E0"/>
<path d="M364.625 127.665C364.625 127.737 355.189 127.88 343.609 127.88C332.029 127.88 322.594 127.808 322.594 127.665C322.594 127.594 332.029 127.451 343.609 127.451C355.261 127.522 364.625 127.594 364.625 127.665Z" fill="#E0E0E0"/>
<path d="M411.159 127.665C411.159 127.737 401.723 127.88 390.143 127.88C378.563 127.88 369.128 127.808 369.128 127.665C369.128 127.594 378.563 127.451 390.143 127.451C401.723 127.522 411.159 127.594 411.159 127.665Z" fill="#E0E0E0"/>
<path d="M364.625 132.526C364.625 132.597 355.189 132.74 343.609 132.74C332.029 132.74 322.594 132.669 322.594 132.526C322.594 132.454 332.029 132.312 343.609 132.312C355.261 132.383 364.625 132.454 364.625 132.526Z" fill="#E0E0E0"/>
<path d="M366.698 86.5636C366.698 86.635 357.262 86.778 345.682 86.778C334.102 86.778 324.667 86.7065 324.667 86.5636C324.667 86.4206 334.102 86.3491 345.682 86.3491C357.262 86.4206 366.698 86.4921 366.698 86.5636Z" fill="#E0E0E0"/>
<path d="M350.043 83.3471C353.043 83.3471 355.475 83.2511 355.475 83.1327C355.475 83.0142 353.043 82.9182 350.043 82.9182C347.043 82.9182 344.61 83.0142 344.61 83.1327C344.61 83.2511 347.043 83.3471 350.043 83.3471Z" fill="#E0E0E0"/>
<path d="M328.384 108.437C331.384 108.437 333.816 108.341 333.816 108.223C333.816 108.104 331.384 108.008 328.384 108.008C325.383 108.008 322.951 108.104 322.951 108.223C322.951 108.341 325.383 108.437 328.384 108.437Z" fill="#E0E0E0"/>
<path d="M328.098 112.94C331.098 112.94 333.53 112.844 333.53 112.726C333.53 112.607 331.098 112.511 328.098 112.511C325.097 112.511 322.665 112.607 322.665 112.726C322.665 112.844 325.097 112.94 328.098 112.94Z" fill="#E0E0E0"/>
<path d="M427.313 67.4068C427.313 67.4783 401.08 67.6213 368.77 67.6213C336.461 67.6213 310.228 67.5498 310.228 67.4068C310.228 67.3353 336.39 67.1924 368.77 67.1924C401.151 67.1924 427.313 67.3353 427.313 67.4068Z" fill="#E0E0E0"/>
<path d="M318.162 64.8335C318.912 64.8335 319.52 64.2254 319.52 63.4753C319.52 62.7252 318.912 62.1172 318.162 62.1172C317.412 62.1172 316.804 62.7252 316.804 63.4753C316.804 64.2254 317.412 64.8335 318.162 64.8335Z" fill="white"/>
<path d="M324.167 64.8335C324.917 64.8335 325.525 64.2254 325.525 63.4753C325.525 62.7252 324.917 62.1172 324.167 62.1172C323.417 62.1172 322.809 62.7252 322.809 63.4753C322.809 64.2254 323.417 64.8335 324.167 64.8335Z" fill="white"/>
<path d="M330.099 64.8335C330.849 64.8335 331.458 64.2254 331.458 63.4753C331.458 62.7252 330.849 62.1172 330.099 62.1172C329.349 62.1172 328.741 62.7252 328.741 63.4753C328.741 64.2254 329.349 64.8335 330.099 64.8335Z" fill="white"/>
<path d="M174.628 87.4212H102.075L107.436 35.7405H180.633L174.628 87.4212Z" fill="#EBEBEB"/>
<path d="M111.645 61.3862C110.656 70.9677 109.95 78.7449 110.068 78.7571C110.185 78.7693 111.083 71.0118 112.072 61.4302C113.061 51.8487 113.768 44.0714 113.65 44.0593C113.532 44.0471 112.635 51.8046 111.645 61.3862Z" fill="#E0E0E0"/>
<path d="M119.659 46.0339C121.673 46.0339 123.305 45.9379 123.305 45.8194C123.305 45.701 121.673 45.605 119.659 45.605C117.646 45.605 116.014 45.701 116.014 45.8194C116.014 45.9379 117.646 46.0339 119.659 46.0339Z" fill="#E0E0E0"/>
<path d="M139.745 46.0339C147.759 46.0339 154.256 45.9379 154.256 45.8194C154.256 45.701 147.759 45.605 139.745 45.605C131.731 45.605 125.234 45.701 125.234 45.8194C125.234 45.9379 131.731 46.0339 139.745 46.0339Z" fill="#E0E0E0"/>
<path d="M118.802 64.3329C120.815 64.3329 122.447 64.2369 122.447 64.1185C122.447 64.0001 120.815 63.9041 118.802 63.9041C116.788 63.9041 115.156 64.0001 115.156 64.1185C115.156 64.2369 116.788 64.3329 118.802 64.3329Z" fill="#E0E0E0"/>
<path d="M138.888 64.3329C146.902 64.3329 153.398 64.2369 153.398 64.1185C153.398 64.0001 146.902 63.9041 138.888 63.9041C130.874 63.9041 124.377 64.0001 124.377 64.1185C124.377 64.2369 130.874 64.3329 138.888 64.3329Z" fill="#E0E0E0"/>
<path d="M129.023 72.8393C137.037 72.8393 143.534 72.7433 143.534 72.6248C143.534 72.5064 137.037 72.4104 129.023 72.4104C121.009 72.4104 114.513 72.5064 114.513 72.6248C114.513 72.7433 121.009 72.8393 129.023 72.8393Z" fill="#E0E0E0"/>
<path d="M121.375 51.1804C124.218 51.1804 126.522 51.0843 126.522 50.9659C126.522 50.8475 124.218 50.7515 121.375 50.7515C118.533 50.7515 116.229 50.8475 116.229 50.9659C116.229 51.0843 118.533 51.1804 121.375 51.1804Z" fill="#E0E0E0"/>
<path d="M121.089 58.7575C123.931 58.7575 126.236 58.6615 126.236 58.5431C126.236 58.4246 123.931 58.3286 121.089 58.3286C118.247 58.3286 115.942 58.4246 115.942 58.5431C115.942 58.6615 118.247 58.7575 121.089 58.7575Z" fill="#E0E0E0"/>
<path d="M129.738 69.6225C132.581 69.6225 134.885 69.5265 134.885 69.408C134.885 69.2896 132.581 69.1936 129.738 69.1936C126.896 69.1936 124.592 69.2896 124.592 69.408C124.592 69.5265 126.896 69.6225 129.738 69.6225Z" fill="#E0E0E0"/>
<path d="M150.682 51.1804C157.906 51.1804 163.763 51.0843 163.763 50.9659C163.763 50.8475 157.906 50.7515 150.682 50.7515C143.457 50.7515 137.601 50.8475 137.601 50.9659C137.601 51.0843 143.457 51.1804 150.682 51.1804Z" fill="#E0E0E0"/>
<path d="M142.604 59.2577C149.829 59.2577 155.685 59.1617 155.685 59.0433C155.685 58.9249 149.829 58.8289 142.604 58.8289C135.38 58.8289 129.523 58.9249 129.523 59.0433C129.523 59.1617 135.38 59.2577 142.604 59.2577Z" fill="#E0E0E0"/>
<path d="M151.611 69.6225C158.836 69.6225 164.692 69.5265 164.692 69.408C164.692 69.2896 158.836 69.1936 151.611 69.1936C144.387 69.1936 138.53 69.2896 138.53 69.408C138.53 69.5265 144.387 69.6225 151.611 69.6225Z" fill="#E0E0E0"/>
<path d="M127.736 78.9865C134.961 78.9865 140.817 78.8905 140.817 78.7721C140.817 78.6536 134.961 78.5576 127.736 78.5576C120.512 78.5576 114.655 78.6536 114.655 78.7721C114.655 78.8905 120.512 78.9865 127.736 78.9865Z" fill="#E0E0E0"/>
<path d="M156.686 78.9865C163.911 78.9865 169.768 78.8905 169.768 78.7721C169.768 78.6536 163.911 78.5576 156.686 78.5576C149.462 78.5576 143.605 78.6536 143.605 78.7721C143.605 78.8905 149.462 78.9865 156.686 78.9865Z" fill="#E0E0E0"/>
<path d="M127.736 81.9887C134.961 81.9887 140.817 81.8927 140.817 81.7743C140.817 81.6558 134.961 81.5598 127.736 81.5598C120.512 81.5598 114.655 81.6558 114.655 81.7743C114.655 81.8927 120.512 81.9887 127.736 81.9887Z" fill="#E0E0E0"/>
<path d="M128.952 53.3964C136.177 53.3964 142.033 53.3004 142.033 53.182C142.033 53.0635 136.177 52.9675 128.952 52.9675C121.728 52.9675 115.871 53.0635 115.871 53.182C115.871 53.3004 121.728 53.3964 128.952 53.3964Z" fill="#E0E0E0"/>
<path d="M131.739 51.1804C133.595 51.1804 135.099 51.0843 135.099 50.9659C135.099 50.8475 133.595 50.7515 131.739 50.7515C129.884 50.7515 128.38 50.8475 128.38 50.9659C128.38 51.0843 129.884 51.1804 131.739 51.1804Z" fill="#E0E0E0"/>
<path d="M118.23 66.8349C120.085 66.8349 121.589 66.7389 121.589 66.6204C121.589 66.502 120.085 66.406 118.23 66.406C116.374 66.406 114.87 66.502 114.87 66.6204C114.87 66.7389 116.374 66.8349 118.23 66.8349Z" fill="#E0E0E0"/>
<path d="M118.015 69.6225C119.87 69.6225 121.374 69.5265 121.374 69.408C121.374 69.2896 119.87 69.1936 118.015 69.1936C116.159 69.1936 114.655 69.2896 114.655 69.408C114.655 69.5265 116.159 69.6225 118.015 69.6225Z" fill="#E0E0E0"/>
<path d="M179.846 41.1732C179.846 41.2447 163.548 41.3876 143.391 41.3876C123.233 41.3876 106.936 41.3161 106.936 41.1732C106.936 41.1017 123.233 40.9587 143.391 40.9587C163.548 41.0302 179.846 41.1017 179.846 41.1732Z" fill="#E0E0E0"/>
<path d="M111.868 39.6006C112.341 39.6006 112.725 39.2165 112.725 38.7428C112.725 38.269 112.341 37.885 111.868 37.885C111.394 37.885 111.01 38.269 111.01 38.7428C111.01 39.2165 111.394 39.6006 111.868 39.6006Z" fill="white"/>
<path d="M115.584 39.6006C116.058 39.6006 116.442 39.2165 116.442 38.7428C116.442 38.269 116.058 37.885 115.584 37.885C115.111 37.885 114.727 38.269 114.727 38.7428C114.727 39.2165 115.111 39.6006 115.584 39.6006Z" fill="white"/>
<path d="M119.302 39.6006C119.776 39.6006 120.16 39.2165 120.16 38.7428C120.16 38.269 119.776 37.885 119.302 37.885C118.828 37.885 118.444 38.269 118.444 38.7428C118.444 39.2165 118.828 39.6006 119.302 39.6006Z" fill="white"/>
<path d="M217.088 164.978H137.815L143.677 108.508H223.593L217.088 164.978Z" fill="#263238"/>
<path d="M213.085 164.978H133.741L139.603 108.508H219.59L213.085 164.978Z" fill="#455A64"/>
<path d="M210.083 162.476H136.529L141.962 110.009H216.159L210.083 162.476Z" fill="#F5F5F5"/>
<path d="M146.139 136.072C145.138 145.771 144.421 153.644 144.539 153.656C144.657 153.668 145.564 145.815 146.566 136.116C147.567 126.417 148.283 118.544 148.166 118.532C148.048 118.52 147.14 126.373 146.139 136.072Z" fill="#263238"/>
<path d="M154.256 120.517C156.309 120.517 157.973 120.421 157.973 120.303C157.973 120.184 156.309 120.088 154.256 120.088C152.203 120.088 150.539 120.184 150.539 120.303C150.539 120.421 152.203 120.517 154.256 120.517Z" fill="#263238"/>
<path d="M174.628 120.517C182.761 120.517 189.353 120.421 189.353 120.303C189.353 120.184 182.761 120.088 174.628 120.088C166.496 120.088 159.903 120.184 159.903 120.303C159.903 120.421 166.496 120.517 174.628 120.517Z" fill="#007FDB"/>
<path d="M153.327 139.102C155.38 139.102 157.044 139.006 157.044 138.888C157.044 138.769 155.38 138.673 153.327 138.673C151.275 138.673 149.61 138.769 149.61 138.888C149.61 139.006 151.275 139.102 153.327 139.102Z" fill="#263238"/>
<path d="M173.771 139.102C181.903 139.102 188.496 139.006 188.496 138.888C188.496 138.769 181.903 138.673 173.771 138.673C165.639 138.673 159.046 138.769 159.046 138.888C159.046 139.006 165.639 139.102 173.771 139.102Z" fill="#007FDB"/>
<path d="M163.763 147.68C171.896 147.68 178.488 147.584 178.488 147.465C178.488 147.347 171.896 147.251 163.763 147.251C155.631 147.251 149.038 147.347 149.038 147.465C149.038 147.584 155.631 147.68 163.763 147.68Z" fill="#007FDB"/>
<path d="M155.972 125.735C158.854 125.735 161.19 125.639 161.19 125.521C161.19 125.402 158.854 125.306 155.972 125.306C153.09 125.306 150.754 125.402 150.754 125.521C150.754 125.639 153.09 125.735 155.972 125.735Z" fill="#007FDB"/>
<path d="M155.686 133.455C158.568 133.455 160.904 133.359 160.904 133.241C160.904 133.122 158.568 133.026 155.686 133.026C152.804 133.026 150.468 133.122 150.468 133.241C150.468 133.359 152.804 133.455 155.686 133.455Z" fill="#007FDB"/>
<path d="M164.478 144.463C167.36 144.463 169.696 144.367 169.696 144.249C169.696 144.13 167.36 144.034 164.478 144.034C161.596 144.034 159.26 144.13 159.26 144.249C159.26 144.367 161.596 144.463 164.478 144.463Z" fill="#007FDB"/>
<path d="M185.708 125.735C193.05 125.735 199.003 125.639 199.003 125.521C199.003 125.402 193.05 125.306 185.708 125.306C178.365 125.306 172.412 125.402 172.412 125.521C172.412 125.639 178.365 125.735 185.708 125.735Z" fill="#263238"/>
<path d="M177.488 133.884C184.831 133.884 190.783 133.788 190.783 133.67C190.783 133.551 184.831 133.455 177.488 133.455C170.145 133.455 164.192 133.551 164.192 133.67C164.192 133.788 170.145 133.884 177.488 133.884Z" fill="#263238"/>
<path d="M186.637 144.463C193.98 144.463 199.933 144.367 199.933 144.249C199.933 144.13 193.98 144.034 186.637 144.034C179.294 144.034 173.342 144.13 173.342 144.249C173.342 144.367 179.294 144.463 186.637 144.463Z" fill="#263238"/>
<path d="M162.405 153.899C169.748 153.899 175.7 153.803 175.7 153.684C175.7 153.566 169.748 153.47 162.405 153.47C155.062 153.47 149.109 153.566 149.109 153.684C149.109 153.803 155.062 153.899 162.405 153.899Z" fill="#263238"/>
<path d="M191.784 153.899C199.127 153.899 205.079 153.803 205.079 153.684C205.079 153.566 199.127 153.47 191.784 153.47C184.441 153.47 178.488 153.566 178.488 153.684C178.488 153.803 184.441 153.899 191.784 153.899Z" fill="#263238"/>
<path d="M162.405 156.972C169.748 156.972 175.7 156.876 175.7 156.758C175.7 156.639 169.748 156.543 162.405 156.543C155.062 156.543 149.109 156.639 149.109 156.758C149.109 156.876 155.062 156.972 162.405 156.972Z" fill="#263238"/>
<path d="M163.692 127.951C171.035 127.951 176.987 127.855 176.987 127.736C176.987 127.618 171.035 127.522 163.692 127.522C156.349 127.522 150.396 127.618 150.396 127.736C150.396 127.855 156.349 127.951 163.692 127.951Z" fill="#263238"/>
<path d="M166.48 125.807C168.375 125.807 169.911 125.711 169.911 125.592C169.911 125.474 168.375 125.378 166.48 125.378C164.585 125.378 163.049 125.474 163.049 125.592C163.049 125.711 164.585 125.807 166.48 125.807Z" fill="#455A64"/>
<path d="M152.755 141.675C154.65 141.675 156.186 141.579 156.186 141.461C156.186 141.342 154.65 141.246 152.755 141.246C150.86 141.246 149.324 141.342 149.324 141.461C149.324 141.579 150.86 141.675 152.755 141.675Z" fill="#455A64"/>
<path d="M152.613 144.463C154.508 144.463 156.044 144.367 156.044 144.249C156.044 144.13 154.508 144.034 152.613 144.034C150.718 144.034 149.182 144.13 149.182 144.249C149.182 144.367 150.718 144.463 152.613 144.463Z" fill="#455A64"/>
<path d="M215.23 115.656C215.23 115.728 198.718 115.871 178.274 115.871C157.83 115.871 141.318 115.799 141.318 115.656C141.318 115.585 157.83 115.442 178.274 115.442C198.718 115.442 215.23 115.513 215.23 115.656Z" fill="#263238"/>
<path d="M146.322 114.012C146.795 114.012 147.179 113.628 147.179 113.154C147.179 112.681 146.795 112.297 146.322 112.297C145.848 112.297 145.464 112.681 145.464 113.154C145.464 113.628 145.848 114.012 146.322 114.012Z" fill="white"/>
<path d="M150.111 114.012C150.584 114.012 150.968 113.628 150.968 113.154C150.968 112.681 150.584 112.297 150.111 112.297C149.637 112.297 149.253 112.681 149.253 113.154C149.253 113.628 149.637 114.012 150.111 114.012Z" fill="white"/>
<path d="M153.827 114.012C154.301 114.012 154.685 113.628 154.685 113.154C154.685 112.681 154.301 112.297 153.827 112.297C153.354 112.297 152.97 112.681 152.97 113.154C152.97 113.628 153.354 114.012 153.827 114.012Z" fill="white"/>
<path d="M321.236 166.694H237.817L244.036 107.293H328.098L321.236 166.694Z" fill="#263238"/>
<path d="M317.018 166.694H233.6L239.747 107.293H323.88L317.018 166.694Z" fill="#455A64"/>
<path d="M313.873 164.049H236.53L242.249 108.865H320.235L313.873 164.049Z" fill="#EBEBEB"/>
<path d="M244.965 153.97C244.893 153.97 245.608 145.678 246.68 135.456C247.753 125.235 248.682 116.943 248.753 116.943C248.825 116.943 248.11 125.235 247.038 135.456C245.966 145.75 245.036 154.042 244.965 153.97Z" fill="#263238"/>
<path d="M255.116 119.087C257.248 119.087 258.976 118.991 258.976 118.873C258.976 118.754 257.248 118.658 255.116 118.658C252.984 118.658 251.256 118.754 251.256 118.873C251.256 118.991 252.984 119.087 255.116 119.087Z" fill="#263238"/>
<path d="M276.631 119.087C285.159 119.087 292.071 118.991 292.071 118.873C292.071 118.754 285.159 118.658 276.631 118.658C268.104 118.658 261.191 118.754 261.191 118.873C261.191 118.991 268.104 119.087 276.631 119.087Z" fill="#007FDB"/>
<path d="M254.257 138.673C256.389 138.673 258.117 138.577 258.117 138.459C258.117 138.34 256.389 138.244 254.257 138.244C252.126 138.244 250.397 138.34 250.397 138.459C250.397 138.577 252.126 138.673 254.257 138.673Z" fill="#263238"/>
<path d="M275.702 138.673C284.229 138.673 291.141 138.577 291.141 138.459C291.141 138.34 284.229 138.244 275.702 138.244C267.174 138.244 260.262 138.34 260.262 138.459C260.262 138.577 267.174 138.673 275.702 138.673Z" fill="#007FDB"/>
<path d="M265.123 147.68C273.65 147.68 280.562 147.584 280.562 147.465C280.562 147.347 273.65 147.251 265.123 147.251C256.595 147.251 249.683 147.347 249.683 147.465C249.683 147.584 256.595 147.68 265.123 147.68Z" fill="#007FDB"/>
<path d="M256.975 124.591C259.975 124.591 262.407 124.495 262.407 124.377C262.407 124.259 259.975 124.163 256.975 124.163C253.974 124.163 251.542 124.259 251.542 124.377C251.542 124.495 253.974 124.591 256.975 124.591Z" fill="#007FDB"/>
<path d="M256.688 132.669C259.689 132.669 262.121 132.573 262.121 132.454C262.121 132.336 259.689 132.24 256.688 132.24C253.688 132.24 251.256 132.336 251.256 132.454C251.256 132.573 253.688 132.669 256.688 132.669Z" fill="#007FDB"/>
<path d="M265.98 144.249C268.981 144.249 271.413 144.153 271.413 144.034C271.413 143.916 268.981 143.82 265.98 143.82C262.98 143.82 260.548 143.916 260.548 144.034C260.548 144.153 262.98 144.249 265.98 144.249Z" fill="#007FDB"/>
<path d="M288.283 124.591C295.981 124.591 302.221 124.495 302.221 124.377C302.221 124.259 295.981 124.163 288.283 124.163C280.584 124.163 274.344 124.259 274.344 124.377C274.344 124.495 280.584 124.591 288.283 124.591Z" fill="#263238"/>
<path d="M279.633 133.169C287.331 133.169 293.572 133.073 293.572 132.955C293.572 132.836 287.331 132.74 279.633 132.74C271.935 132.74 265.694 132.836 265.694 132.955C265.694 133.073 271.935 133.169 279.633 133.169Z" fill="#263238"/>
<path d="M289.212 144.249C296.91 144.249 303.151 144.153 303.151 144.034C303.151 143.916 296.91 143.82 289.212 143.82C281.514 143.82 275.273 143.916 275.273 144.034C275.273 144.153 281.514 144.249 289.212 144.249Z" fill="#263238"/>
<path d="M263.765 154.184C271.463 154.184 277.704 154.088 277.704 153.97C277.704 153.852 271.463 153.756 263.765 153.756C256.067 153.756 249.826 153.852 249.826 153.97C249.826 154.088 256.067 154.184 263.765 154.184Z" fill="#263238"/>
<path d="M294.645 154.184C302.343 154.184 308.584 154.088 308.584 153.97C308.584 153.852 302.343 153.756 294.645 153.756C286.947 153.756 280.706 153.852 280.706 153.97C280.706 154.088 286.947 154.184 294.645 154.184Z" fill="#263238"/>
<path d="M263.765 157.473C271.463 157.473 277.704 157.377 277.704 157.258C277.704 157.14 271.463 157.044 263.765 157.044C256.067 157.044 249.826 157.14 249.826 157.258C249.826 157.377 256.067 157.473 263.765 157.473Z" fill="#263238"/>
<path d="M265.123 126.879C272.822 126.879 279.062 126.783 279.062 126.664C279.062 126.546 272.822 126.45 265.123 126.45C257.425 126.45 251.185 126.546 251.185 126.664C251.185 126.783 257.425 126.879 265.123 126.879Z" fill="#263238"/>
<path d="M268.054 124.591C270.027 124.591 271.628 124.495 271.628 124.377C271.628 124.259 270.027 124.163 268.054 124.163C266.08 124.163 264.479 124.259 264.479 124.377C264.479 124.495 266.08 124.591 268.054 124.591Z" fill="#455A64"/>
<path d="M253.614 141.318C255.588 141.318 257.188 141.222 257.188 141.104C257.188 140.985 255.588 140.889 253.614 140.889C251.64 140.889 250.04 140.985 250.04 141.104C250.04 141.222 251.64 141.318 253.614 141.318Z" fill="#455A64"/>
<path d="M253.4 144.249C255.374 144.249 256.974 144.153 256.974 144.034C256.974 143.916 255.374 143.82 253.4 143.82C251.426 143.82 249.826 143.916 249.826 144.034C249.826 144.153 251.426 144.249 253.4 144.249Z" fill="#455A64"/>
<path d="M319.306 113.941C319.306 114.012 301.936 114.155 280.42 114.155C258.976 114.155 241.534 114.084 241.534 113.941C241.534 113.869 258.904 113.726 280.42 113.726C301.936 113.798 319.306 113.869 319.306 113.941Z" fill="#263238"/>
<path d="M246.824 112.225C247.337 112.225 247.753 111.809 247.753 111.296C247.753 110.783 247.337 110.367 246.824 110.367C246.311 110.367 245.895 110.783 245.895 111.296C245.895 111.809 246.311 112.225 246.824 112.225Z" fill="white"/>
<path d="M250.827 112.225C251.34 112.225 251.756 111.809 251.756 111.296C251.756 110.783 251.34 110.367 250.827 110.367C250.313 110.367 249.897 110.783 249.897 111.296C249.897 111.809 250.313 112.225 250.827 112.225Z" fill="white"/>
<path d="M254.758 112.225C255.272 112.225 255.688 111.809 255.688 111.296C255.688 110.783 255.272 110.367 254.758 110.367C254.245 110.367 253.829 110.783 253.829 111.296C253.829 111.809 254.245 112.225 254.758 112.225Z" fill="white"/>
<path d="M273.629 96.3563H193.999L199.932 39.6719H280.205L273.629 96.3563Z" fill="#263238"/>
<path d="M269.626 96.3563H189.996L195.858 39.6719H276.131L269.626 96.3563Z" fill="#455A64"/>
<path d="M266.623 93.8546H192.712L198.216 41.1731H272.699L266.623 93.8546Z" fill="#FAFAFA"/>
<path d="M202.455 67.3195C201.449 77.0581 200.73 84.9627 200.848 84.9749C200.965 84.987 201.876 77.1022 202.882 67.3636C203.887 57.6249 204.607 49.7204 204.489 49.7082C204.371 49.696 203.46 57.5809 202.455 67.3195Z" fill="#263238"/>
<path d="M210.582 51.6093C212.635 51.6093 214.299 51.5133 214.299 51.3949C214.299 51.2764 212.635 51.1804 210.582 51.1804C208.529 51.1804 206.865 51.2764 206.865 51.3949C206.865 51.5133 208.529 51.6093 210.582 51.6093Z" fill="#263238"/>
<path d="M231.097 51.6093C239.269 51.6093 245.894 51.5133 245.894 51.3949C245.894 51.2764 239.269 51.1804 231.097 51.1804C222.925 51.1804 216.301 51.2764 216.301 51.3949C216.301 51.5133 222.925 51.6093 231.097 51.6093Z" fill="#007FDB"/>
<path d="M209.725 70.3373C211.778 70.3373 213.442 70.2413 213.442 70.1229C213.442 70.0045 211.778 69.9084 209.725 69.9084C207.672 69.9084 206.008 70.0045 206.008 70.1229C206.008 70.2413 207.672 70.3373 209.725 70.3373Z" fill="#263238"/>
<path d="M230.24 70.3373C238.412 70.3373 245.036 70.2413 245.036 70.1229C245.036 70.0045 238.412 69.9084 230.24 69.9084C222.068 69.9084 215.443 70.0045 215.443 70.1229C215.443 70.2413 222.068 70.3373 230.24 70.3373Z" fill="#007FDB"/>
<path d="M220.161 78.9865C228.333 78.9865 234.957 78.8905 234.957 78.7721C234.957 78.6536 228.333 78.5576 220.161 78.5576C211.989 78.5576 205.364 78.6536 205.364 78.7721C205.364 78.8905 211.989 78.9865 220.161 78.9865Z" fill="#007FDB"/>
<path d="M212.369 56.8989C215.251 56.8989 217.588 56.8028 217.588 56.6844C217.588 56.566 215.251 56.47 212.369 56.47C209.488 56.47 207.151 56.566 207.151 56.6844C207.151 56.8028 209.488 56.8989 212.369 56.8989Z" fill="#007FDB"/>
<path d="M212.083 64.6188C214.965 64.6188 217.301 64.5228 217.301 64.4044C217.301 64.286 214.965 64.1899 212.083 64.1899C209.201 64.1899 206.865 64.286 206.865 64.4044C206.865 64.5228 209.201 64.6188 212.083 64.6188Z" fill="#007FDB"/>
<path d="M220.948 75.6984C223.83 75.6984 226.166 75.6024 226.166 75.484C226.166 75.3655 223.83 75.2695 220.948 75.2695C218.066 75.2695 215.729 75.3655 215.729 75.484C215.729 75.6024 218.066 75.6984 220.948 75.6984Z" fill="#007FDB"/>
<path d="M242.249 56.8989C249.631 56.8989 255.616 56.8028 255.616 56.6844C255.616 56.566 249.631 56.47 242.249 56.47C234.866 56.47 228.882 56.566 228.882 56.6844C228.882 56.8028 234.866 56.8989 242.249 56.8989Z" fill="#263238"/>
<path d="M234.028 65.1191C241.41 65.1191 247.395 65.0231 247.395 64.9046C247.395 64.7862 241.41 64.6902 234.028 64.6902C226.646 64.6902 220.661 64.7862 220.661 64.9046C220.661 65.0231 226.646 65.1191 234.028 65.1191Z" fill="#263238"/>
<path d="M243.178 75.6984C250.56 75.6984 256.544 75.6024 256.544 75.484C256.544 75.3655 250.56 75.2695 243.178 75.2695C235.795 75.2695 229.811 75.3655 229.811 75.484C229.811 75.6024 235.795 75.6984 243.178 75.6984Z" fill="#263238"/>
<path d="M218.803 85.2053C226.185 85.2053 232.169 85.1092 232.169 84.9908C232.169 84.8724 226.185 84.7764 218.803 84.7764C211.42 84.7764 205.436 84.8724 205.436 84.9908C205.436 85.1092 211.42 85.2053 218.803 85.2053Z" fill="#263238"/>
<path d="M248.324 85.2053C255.706 85.2053 261.691 85.1092 261.691 84.9908C261.691 84.8724 255.706 84.7764 248.324 84.7764C240.942 84.7764 234.957 84.8724 234.957 84.9908C234.957 85.1092 240.942 85.2053 248.324 85.2053Z" fill="#263238"/>
<path d="M218.803 88.279C226.185 88.279 232.169 88.183 232.169 88.0645C232.169 87.9461 226.185 87.8501 218.803 87.8501C211.42 87.8501 205.436 87.9461 205.436 88.0645C205.436 88.183 211.42 88.279 218.803 88.279Z" fill="#263238"/>
<path d="M220.161 59.1147C227.543 59.1147 233.528 59.0187 233.528 58.9002C233.528 58.7818 227.543 58.6858 220.161 58.6858C212.779 58.6858 206.794 58.7818 206.794 58.9002C206.794 59.0187 212.779 59.1147 220.161 59.1147Z" fill="#263238"/>
<path d="M222.949 56.9704C224.844 56.9704 226.38 56.8744 226.38 56.7559C226.38 56.6375 224.844 56.5415 222.949 56.5415C221.054 56.5415 219.518 56.6375 219.518 56.7559C219.518 56.8744 221.054 56.9704 222.949 56.9704Z" fill="#455A64"/>
<path d="M209.153 72.9106C211.048 72.9106 212.584 72.8146 212.584 72.6961C212.584 72.5777 211.048 72.4817 209.153 72.4817C207.258 72.4817 205.722 72.5777 205.722 72.6961C205.722 72.8146 207.258 72.9106 209.153 72.9106Z" fill="#455A64"/>
<path d="M209.01 75.6984C210.905 75.6984 212.441 75.6024 212.441 75.484C212.441 75.3655 210.905 75.2695 209.01 75.2695C207.115 75.2695 205.579 75.3655 205.579 75.484C205.579 75.6024 207.115 75.6984 209.01 75.6984Z" fill="#455A64"/>
<path d="M271.913 46.7486C271.913 46.8201 255.329 46.9631 234.814 46.9631C214.299 46.9631 197.716 46.8916 197.716 46.7486C197.716 46.6057 214.299 46.5342 234.814 46.5342C255.329 46.5342 271.913 46.6771 271.913 46.7486Z" fill="#263238"/>
<path d="M202.719 45.1045C203.193 45.1045 203.577 44.7204 203.577 44.2467C203.577 43.773 203.193 43.3889 202.719 43.3889C202.245 43.3889 201.861 43.773 201.861 44.2467C201.861 44.7204 202.245 45.1045 202.719 45.1045Z" fill="white"/>
<path d="M206.437 45.1045C206.911 45.1045 207.295 44.7204 207.295 44.2467C207.295 43.773 206.911 43.3889 206.437 43.3889C205.963 43.3889 205.579 43.773 205.579 44.2467C205.579 44.7204 205.963 45.1045 206.437 45.1045Z" fill="white"/>
<path d="M210.225 45.1045C210.699 45.1045 211.083 44.7204 211.083 44.2467C211.083 43.773 210.699 43.3889 210.225 43.3889C209.751 43.3889 209.367 43.773 209.367 44.2467C209.367 44.7204 209.751 45.1045 210.225 45.1045Z" fill="white"/>
<path d="M138.744 310.656H132.525V319.091H138.744V310.656Z" fill="#263238"/>
<path d="M227.023 209.225H171.982V211.87H227.023V209.225Z" fill="#263238"/>
<path d="M235.6 211.941L245.893 173.198H202.933L193.569 211.941H235.6Z" fill="#263238"/>
<path d="M196.143 209.01H234.528L243.463 175.057H204.863L196.143 209.01Z" fill="#F5F5F5"/>
<path d="M205.864 181.633L203.434 191.212H228.952L231.669 181.633H205.864Z" fill="#E0E0E0"/>
<path d="M216.3 180.561C221.827 180.561 226.308 180.465 226.308 180.347C226.308 180.228 221.827 180.132 216.3 180.132C210.773 180.132 206.293 180.228 206.293 180.347C206.293 180.465 210.773 180.561 216.3 180.561Z" fill="#455A64"/>
<path d="M210.653 183.635C212.864 183.635 214.656 183.539 214.656 183.42C214.656 183.302 212.864 183.206 210.653 183.206C208.443 183.206 206.65 183.302 206.65 183.42C206.65 183.539 208.443 183.635 210.653 183.635Z" fill="#263238"/>
<path d="M218.517 183.492C219.978 183.492 221.162 183.396 221.162 183.277C221.162 183.159 219.978 183.063 218.517 183.063C217.056 183.063 215.872 183.159 215.872 183.277C215.872 183.396 217.056 183.492 218.517 183.492Z" fill="#263238"/>
<path d="M217.373 185.422C223.453 185.422 228.381 185.326 228.381 185.207C228.381 185.089 223.453 184.993 217.373 184.993C211.294 184.993 206.365 185.089 206.365 185.207C206.365 185.326 211.294 185.422 217.373 185.422Z" fill="#455A64"/>
<path d="M209.51 186.994C211.483 186.994 213.084 186.898 213.084 186.78C213.084 186.661 211.483 186.565 209.51 186.565C207.536 186.565 205.936 186.661 205.936 186.78C205.936 186.898 207.536 186.994 209.51 186.994Z" fill="#007FDB"/>
<path d="M216.23 189.282C221.875 189.282 226.451 189.186 226.451 189.067C226.451 188.949 221.875 188.853 216.23 188.853C210.584 188.853 206.008 188.949 206.008 189.067C206.008 189.186 210.584 189.282 216.23 189.282Z" fill="#455A64"/>
<path d="M207.437 194.214C209.609 194.214 211.369 194.118 211.369 193.999C211.369 193.881 209.609 193.785 207.437 193.785C205.266 193.785 203.506 193.881 203.506 193.999C203.506 194.118 205.266 194.214 207.437 194.214Z" fill="#455A64"/>
<path d="M215.448 194.219C216.948 194.231 218.165 194.145 218.166 194.026C218.167 193.908 216.952 193.802 215.452 193.79C213.951 193.778 212.735 193.864 212.734 193.983C212.733 194.101 213.948 194.207 215.448 194.219Z" fill="#263238"/>
<path d="M220.804 194.071C221.436 194.071 221.948 193.975 221.948 193.857C221.948 193.738 221.436 193.642 220.804 193.642C220.172 193.642 219.66 193.738 219.66 193.857C219.66 193.975 220.172 194.071 220.804 194.071Z" fill="#263238"/>
<path d="M204.935 196.144C205.646 196.144 206.222 196.048 206.222 195.929C206.222 195.811 205.646 195.715 204.935 195.715C204.225 195.715 203.648 195.811 203.648 195.929C203.648 196.048 204.225 196.144 204.935 196.144Z" fill="#007FDB"/>
<path d="M210.654 196.144C212.312 196.144 213.656 196.048 213.656 195.929C213.656 195.811 212.312 195.715 210.654 195.715C208.996 195.715 207.651 195.811 207.651 195.929C207.651 196.048 208.996 196.144 210.654 196.144Z" fill="#263238"/>
<path d="M223.592 195.93C228.013 195.93 231.598 195.833 231.598 195.715C231.598 195.597 228.013 195.501 223.592 195.501C219.17 195.501 215.586 195.597 215.586 195.715C215.586 195.833 219.17 195.93 223.592 195.93Z" fill="#455A64"/>
<path d="M204.506 198.217C205.217 198.217 205.793 198.121 205.793 198.002C205.793 197.884 205.217 197.788 204.506 197.788C203.796 197.788 203.22 197.884 203.22 198.002C203.22 198.121 203.796 198.217 204.506 198.217Z" fill="#263238"/>
<path d="M208.152 198.145C209.02 198.145 209.724 198.049 209.724 197.931C209.724 197.812 209.02 197.716 208.152 197.716C207.283 197.716 206.579 197.812 206.579 197.931C206.579 198.049 207.283 198.145 208.152 198.145Z" fill="#263238"/>
<path d="M216.443 198.002C219.246 198.002 221.518 197.906 221.518 197.788C221.518 197.669 219.246 197.573 216.443 197.573C213.64 197.573 211.368 197.669 211.368 197.788C211.368 197.906 213.64 198.002 216.443 198.002Z" fill="#455A64"/>
<path d="M209.152 201.576C212.508 201.576 215.228 201.48 215.228 201.362C215.228 201.244 212.508 201.148 209.152 201.148C205.796 201.148 203.076 201.244 203.076 201.362C203.076 201.48 205.796 201.576 209.152 201.576Z" fill="#455A64"/>
<path d="M219.66 201.434C221.199 201.434 222.448 201.338 222.448 201.219C222.448 201.101 221.199 201.005 219.66 201.005C218.12 201.005 216.872 201.101 216.872 201.219C216.872 201.338 218.12 201.434 219.66 201.434Z" fill="#007FDB"/>
<path d="M228.38 201.434C230.907 201.434 232.955 201.338 232.955 201.219C232.955 201.101 230.907 201.005 228.38 201.005C225.854 201.005 223.806 201.101 223.806 201.219C223.806 201.338 225.854 201.434 228.38 201.434Z" fill="#263238"/>
<path d="M229.596 180.418C230.109 180.418 230.526 180.322 230.526 180.204C230.526 180.085 230.109 179.989 229.596 179.989C229.083 179.989 228.667 180.085 228.667 180.204C228.667 180.322 229.083 180.418 229.596 180.418Z" fill="#263238"/>
<path d="M209.081 179.132C210.226 179.132 211.154 179.036 211.154 178.917C211.154 178.799 210.226 178.703 209.081 178.703C207.936 178.703 207.008 178.799 207.008 178.917C207.008 179.036 207.936 179.132 209.081 179.132Z" fill="#007FDB"/>
<path d="M242.82 177.487C229.811 177.487 217.23 177.487 204.221 177.487L204.864 175.057H243.464L242.82 177.487Z" fill="#EBEBEB"/>
<path d="M206.508 176.701C206.745 176.701 206.937 176.509 206.937 176.272C206.937 176.035 206.745 175.843 206.508 175.843C206.271 175.843 206.079 176.035 206.079 176.272C206.079 176.509 206.271 176.701 206.508 176.701Z" fill="#FAFAFA"/>
<path d="M207.938 176.701C208.175 176.701 208.367 176.509 208.367 176.272C208.367 176.035 208.175 175.843 207.938 175.843C207.701 175.843 207.509 176.035 207.509 176.272C207.509 176.509 207.701 176.701 207.938 176.701Z" fill="#FAFAFA"/>
<path d="M209.439 176.701C209.676 176.701 209.868 176.509 209.868 176.272C209.868 176.035 209.676 175.843 209.439 175.843C209.202 175.843 209.01 176.035 209.01 176.272C209.01 176.509 209.202 176.701 209.439 176.701Z" fill="#FAFAFA"/>
<path d="M289.855 215.515H198.359V268.912H289.855V215.515Z" fill="#263238"/>
<path d="M240.033 215.515H198.359V268.912H240.033V215.515Z" fill="#455A64"/>
<path d="M235.815 233.671C235.815 233.671 235.815 233.6 235.815 233.386C235.815 233.171 235.815 232.957 235.815 232.599C235.815 231.884 235.815 230.884 235.815 229.668C235.815 227.095 235.744 223.378 235.744 218.875L235.887 219.018C227.238 219.018 215.372 219.018 202.362 219.089C202.219 219.232 202.577 218.875 202.577 218.875V218.946V219.089V219.304V219.804V220.805C202.577 221.448 202.577 222.092 202.577 222.735C202.577 224.022 202.577 225.237 202.577 226.523C202.577 229.025 202.577 231.384 202.577 233.743L202.434 233.6C212.155 233.6 220.519 233.671 226.451 233.671C229.382 233.671 231.813 233.743 233.457 233.743C234.243 233.743 234.886 233.743 235.315 233.743C235.53 233.743 235.673 233.743 235.815 233.743C235.744 233.671 235.815 233.671 235.815 233.671C235.815 233.671 235.744 233.671 235.673 233.671C235.53 233.671 235.387 233.671 235.172 233.671C234.743 233.671 234.1 233.671 233.314 233.671C231.67 233.671 229.311 233.671 226.38 233.743C220.376 233.743 212.012 233.814 202.219 233.814H202.076V233.671C202.076 231.384 202.076 228.954 202.076 226.452C202.076 225.237 202.076 223.95 202.076 222.663C202.076 222.02 202.076 221.377 202.076 220.733V219.733V219.232V219.018V218.875V218.803C202.005 218.875 202.434 218.446 202.291 218.589C215.3 218.589 227.166 218.66 235.815 218.66H235.958V218.803C235.958 223.378 235.887 227.095 235.887 229.668C235.887 230.955 235.887 231.884 235.887 232.599C235.887 232.885 235.887 233.171 235.887 233.386C235.815 233.6 235.815 233.671 235.815 233.671Z" fill="#263238"/>
<path d="M220.447 226.237C220.375 226.237 220.447 225.666 219.803 225.237C219.517 225.022 219.017 224.879 218.588 225.094C218.159 225.237 217.802 225.737 217.802 226.237C217.802 226.809 218.159 227.238 218.588 227.381C219.017 227.524 219.517 227.453 219.803 227.238C220.447 226.809 220.375 226.237 220.447 226.237C220.447 226.237 220.518 226.38 220.447 226.595C220.447 226.809 220.304 227.167 219.946 227.453C219.589 227.739 219.017 227.881 218.445 227.738C217.873 227.524 217.373 226.952 217.373 226.237C217.373 225.523 217.873 224.951 218.445 224.736C219.017 224.522 219.589 224.736 219.946 225.022C220.304 225.308 220.447 225.666 220.447 225.88C220.518 226.094 220.447 226.237 220.447 226.237Z" fill="#263238"/>
<path d="M235.815 249.969C235.815 249.969 235.815 249.898 235.815 249.683C235.815 249.469 235.815 249.254 235.815 248.897C235.815 248.182 235.815 247.181 235.815 245.895C235.815 243.321 235.744 239.604 235.744 235.101L235.887 235.244C227.238 235.244 215.372 235.244 202.362 235.315C202.219 235.458 202.577 235.101 202.577 235.101V235.172V235.315V235.53V236.03V237.031C202.577 237.674 202.577 238.318 202.577 238.961C202.577 240.248 202.577 241.463 202.577 242.749C202.577 245.251 202.577 247.61 202.577 249.969L202.434 249.826C212.155 249.826 220.519 249.898 226.451 249.898C229.382 249.898 231.813 249.969 233.457 249.969C234.243 249.969 234.886 249.969 235.315 249.969C235.53 249.969 235.673 249.969 235.815 249.969C235.815 249.969 235.744 249.969 235.815 249.969C235.815 249.969 235.744 249.969 235.673 249.969C235.53 249.969 235.387 249.969 235.172 249.969C234.743 249.969 234.1 249.969 233.314 249.969C231.67 249.969 229.311 249.969 226.38 250.041C220.376 250.041 212.012 250.112 202.219 250.112H202.076V249.969C202.076 247.682 202.076 245.251 202.076 242.749C202.076 241.534 202.076 240.248 202.076 238.961C202.076 238.318 202.076 237.674 202.076 237.031V236.03V235.53V235.315V235.172V235.101C202.005 235.172 202.434 234.744 202.291 234.887C215.3 234.887 227.166 234.958 235.815 234.958H235.958V235.101C235.958 239.676 235.887 243.393 235.887 245.966C235.887 247.253 235.887 248.182 235.887 248.897C235.887 249.183 235.887 249.469 235.887 249.683C235.815 249.898 235.815 249.969 235.815 249.969Z" fill="#263238"/>
<path d="M220.447 242.607C220.375 242.607 220.447 242.035 219.803 241.606C219.517 241.391 219.017 241.248 218.588 241.463C218.159 241.606 217.802 242.106 217.802 242.607C217.802 243.178 218.159 243.607 218.588 243.75C219.017 243.893 219.517 243.822 219.803 243.607C220.447 243.178 220.375 242.535 220.447 242.607C220.447 242.607 220.518 242.749 220.447 242.964C220.447 243.178 220.304 243.536 219.946 243.822C219.589 244.108 219.017 244.251 218.445 244.108C217.873 243.893 217.373 243.321 217.373 242.607C217.373 241.892 217.873 241.32 218.445 241.105C219.017 240.891 219.589 241.105 219.946 241.391C220.304 241.677 220.447 242.035 220.447 242.249C220.518 242.464 220.447 242.607 220.447 242.607Z" fill="#263238"/>
<path d="M235.815 266.338C235.815 266.338 235.815 266.267 235.815 266.052C235.815 265.838 235.815 265.623 235.815 265.266C235.815 264.551 235.815 263.55 235.815 262.335C235.815 259.762 235.744 256.045 235.744 251.542L235.887 251.685C227.238 251.685 215.372 251.685 202.362 251.756C202.219 251.899 202.577 251.542 202.577 251.542V251.613V251.756V251.971V252.471V253.472C202.577 254.115 202.577 254.758 202.577 255.402C202.577 256.688 202.577 257.903 202.577 259.19C202.577 261.692 202.577 264.051 202.577 266.41L202.434 266.267C212.155 266.267 220.519 266.338 226.451 266.338C229.382 266.338 231.813 266.41 233.457 266.41C234.243 266.41 234.886 266.41 235.315 266.41C235.53 266.41 235.673 266.41 235.815 266.41C235.744 266.338 235.815 266.338 235.815 266.338C235.815 266.338 235.744 266.338 235.673 266.338C235.53 266.338 235.387 266.338 235.172 266.338C234.743 266.338 234.1 266.338 233.314 266.338C231.67 266.338 229.311 266.338 226.38 266.41C220.376 266.41 212.012 266.481 202.219 266.481H202.076V266.338C202.076 264.051 202.076 261.62 202.076 259.119C202.076 257.903 202.076 256.617 202.076 255.33C202.076 254.687 202.076 254.044 202.076 253.4V252.399V251.899V251.685V251.613V251.542C202.005 251.613 202.434 251.184 202.291 251.327C215.3 251.327 227.166 251.399 235.815 251.399H235.958V251.542C235.958 256.116 235.887 259.833 235.887 262.407C235.887 263.693 235.887 264.623 235.887 265.338C235.887 265.623 235.887 265.909 235.887 266.124C235.815 266.267 235.815 266.338 235.815 266.338Z" fill="#263238"/>
<path d="M220.447 258.904C220.375 258.904 220.447 258.332 219.803 257.904C219.517 257.689 219.017 257.546 218.588 257.761C218.159 257.904 217.802 258.404 217.802 258.904C217.802 259.476 218.159 259.905 218.588 260.048C219.017 260.191 219.517 260.119 219.803 259.905C220.447 259.476 220.375 258.904 220.447 258.904C220.447 258.904 220.518 259.047 220.447 259.262C220.447 259.476 220.304 259.834 219.946 260.119C219.589 260.405 219.017 260.548 218.445 260.405C217.873 260.191 217.373 259.619 217.373 258.904C217.373 258.189 217.873 257.618 218.445 257.403C219.017 257.189 219.589 257.403 219.946 257.689C220.304 257.975 220.447 258.332 220.447 258.547C220.518 258.761 220.447 258.904 220.447 258.904Z" fill="#263238"/>
<path d="M137.386 312.372H76.2695V215.515H137.386V312.372Z" fill="#263238"/>
<path d="M293.215 211.798H73.2676V216.873H293.215V211.798Z" fill="#263238"/>
<path d="M83.0602 216.873H76.2695V319.592H83.0602V216.873Z" fill="#263238"/>
<path d="M289.855 216.873H283.064V319.592H289.855V216.873Z" fill="#263238"/>
<path d="M246.824 216.873H240.033V319.592H246.824V216.873Z" fill="#263238"/>
<path d="M89.5657 212.013C97.6587 212.013 104.219 211.917 104.219 211.798C104.219 211.68 97.6587 211.584 89.5657 211.584C81.4728 211.584 74.9121 211.68 74.9121 211.798C74.9121 211.917 81.4728 212.013 89.5657 212.013Z" fill="#455A64"/>
<path d="M168.48 314.588L168.623 307.225L154.898 306.797L154.541 317.519L155.399 317.59C159.187 317.948 174.699 318.948 177.272 318.305C180.131 317.59 168.48 314.588 168.48 314.588Z" fill="#007FDB"/>
<g opacity="0.4">
<g opacity="0.4">
<g opacity="0.4">
<path opacity="0.4" d="M174.198 316.232C174.198 316.232 178.273 317.519 177.701 318.162C177.2 318.805 161.475 318.305 154.541 317.519V317.233L172.84 317.947C172.912 318.019 173.341 316.303 174.198 316.232Z" fill="white"/>
</g>
</g>
</g>
<path d="M154.398 317.233C154.398 317.233 154.47 317.233 154.613 317.233C154.827 317.233 155.042 317.304 155.256 317.304C155.9 317.376 156.757 317.447 157.758 317.519C159.902 317.662 162.762 317.805 165.978 317.947C169.195 318.019 172.126 318.09 174.27 318.09C175.271 318.09 176.129 318.09 176.772 318.09C177.058 318.09 177.272 318.09 177.487 318.09C177.63 318.09 177.701 318.09 177.701 318.09C177.701 318.09 177.63 318.09 177.487 318.09C177.272 318.09 177.058 318.09 176.772 318.09C176.057 318.09 175.271 318.09 174.27 318.09C172.126 318.09 169.266 318.019 165.978 317.947C162.762 317.876 159.831 317.733 157.758 317.59C156.757 317.519 155.971 317.519 155.256 317.447C154.97 317.447 154.756 317.447 154.541 317.447C154.47 317.233 154.398 317.233 154.398 317.233Z" fill="#263238"/>
<path d="M172.912 318.233C172.984 318.233 173.055 317.662 173.413 317.09C173.77 316.518 174.342 316.232 174.271 316.161C174.271 316.089 173.699 316.375 173.27 317.018C172.841 317.59 172.841 318.233 172.912 318.233Z" fill="#263238"/>
<path d="M169.238 315.432C169.039 315.726 168.904 315.982 168.936 316.004C168.969 316.026 169.157 315.806 169.357 315.512C169.556 315.218 169.691 314.962 169.659 314.939C169.626 314.917 169.438 315.138 169.238 315.432Z" fill="#263238"/>
<path d="M168.196 314.976C167.955 315.18 167.78 315.37 167.806 315.4C167.831 315.43 168.047 315.289 168.289 315.086C168.53 314.882 168.705 314.692 168.679 314.662C168.654 314.632 168.438 314.773 168.196 314.976Z" fill="#263238"/>
<path d="M167.888 314.067C167.493 314.051 167.172 314.069 167.17 314.109C167.169 314.148 167.487 314.193 167.882 314.21C168.276 314.226 168.597 314.208 168.599 314.168C168.6 314.129 168.282 314.084 167.888 314.067Z" fill="#263238"/>
<path d="M166.907 313.158C166.907 313.23 167.265 313.373 167.694 313.444C168.194 313.516 168.551 313.373 168.551 313.373C168.551 313.301 168.194 313.373 167.765 313.301C167.265 313.23 166.907 313.087 166.907 313.158Z" fill="#263238"/>
<path d="M169.409 314.802C169.409 314.802 169.767 314.874 170.267 314.802C170.553 314.802 170.839 314.731 171.196 314.659C171.339 314.588 171.554 314.588 171.768 314.445C171.84 314.374 171.982 314.302 171.982 314.159C172.054 314.016 171.982 313.873 171.84 313.802C170.982 313.373 170.124 313.802 169.838 314.231C169.624 314.445 169.552 314.659 169.552 314.802C169.481 314.945 169.481 315.017 169.552 315.017C169.552 315.017 169.624 314.659 169.981 314.302C170.124 314.088 170.41 313.945 170.767 313.802C171.053 313.73 171.554 313.73 171.84 313.873C171.982 314.016 171.911 314.159 171.768 314.231C171.625 314.302 171.411 314.374 171.268 314.445C170.91 314.516 170.624 314.588 170.338 314.659C169.767 314.802 169.409 314.802 169.409 314.802Z" fill="#263238"/>
<path d="M169.624 314.874C169.624 314.874 169.767 314.659 169.767 314.23C169.767 314.016 169.695 313.802 169.552 313.587C169.41 313.373 169.195 313.087 168.838 313.087C168.623 313.087 168.552 313.301 168.552 313.516C168.552 313.659 168.623 313.802 168.695 313.945C168.838 314.159 168.981 314.373 169.124 314.516C169.41 314.802 169.624 314.874 169.624 314.874C169.624 314.874 169.481 314.731 169.195 314.445C169.052 314.302 168.981 314.088 168.838 313.873C168.695 313.659 168.623 313.373 168.838 313.301C169.052 313.301 169.267 313.516 169.41 313.659C169.552 313.873 169.624 314.088 169.624 314.23C169.695 314.659 169.624 314.874 169.624 314.874Z" fill="#263238"/>
<path d="M154.756 313.516C154.756 313.516 155.185 313.516 155.757 313.587C156.4 313.659 157.186 313.945 157.973 314.588C158.687 315.231 159.116 316.018 159.331 316.589C159.545 317.161 159.545 317.59 159.545 317.59C159.545 317.59 159.545 317.519 159.545 317.304C159.545 317.161 159.474 316.875 159.402 316.589C159.259 315.946 158.83 315.16 158.044 314.517C157.258 313.873 156.4 313.587 155.757 313.516C155.471 313.516 155.185 313.516 154.97 313.516C154.899 313.444 154.756 313.516 154.756 313.516Z" fill="#263238"/>
<path d="M156.341 310.638C156.41 309.06 156.433 307.78 156.394 307.778C156.354 307.776 156.267 309.054 156.198 310.631C156.13 312.209 156.106 313.489 156.146 313.491C156.185 313.493 156.273 312.215 156.341 310.638Z" fill="#263238"/>
<path d="M161.332 316.303C161.332 316.375 162.19 316.518 163.334 316.589C164.477 316.661 165.335 316.518 165.335 316.518C165.335 316.446 164.406 316.518 163.334 316.446C162.19 316.375 161.332 316.303 161.332 316.303Z" fill="#263238"/>
<path d="M158.616 316.232C158.616 316.232 158.688 316.446 158.759 316.661C158.831 316.875 158.902 317.09 158.902 317.018C158.974 317.018 158.974 316.804 158.902 316.589C158.831 316.375 158.688 316.232 158.616 316.232Z" fill="#263238"/>
<path d="M157.943 315.166C157.809 315.021 157.676 314.925 157.647 314.952C157.618 314.979 157.704 315.118 157.838 315.263C157.972 315.407 158.105 315.503 158.133 315.476C158.162 315.449 158.077 315.31 157.943 315.166Z" fill="#263238"/>
<path d="M156.186 314.302C156.186 314.374 156.4 314.374 156.543 314.445C156.757 314.516 156.9 314.659 156.9 314.588C156.972 314.588 156.829 314.374 156.614 314.302C156.4 314.231 156.186 314.302 156.186 314.302Z" fill="#263238"/>
<path d="M155.41 314.052C155.301 314.005 155.2 313.997 155.185 314.034C155.169 314.07 155.245 314.137 155.354 314.183C155.463 314.229 155.564 314.237 155.58 314.201C155.595 314.165 155.519 314.098 155.41 314.052Z" fill="#263238"/>
<g opacity="0.3">
<path opacity="0.3" d="M154.828 313.158L168.552 313.301V311.657L154.685 312.229L154.828 313.158Z" fill="black"/>
</g>
<path d="M190.211 315.732V308.369L176.415 308.298L176.344 319.02L177.202 319.091C180.99 319.306 196.501 319.949 199.075 319.234C201.934 318.448 190.211 315.732 190.211 315.732Z" fill="#007FDB"/>
<g opacity="0.4">
<g opacity="0.4">
<g opacity="0.4">
<path opacity="0.4" d="M195.93 317.233C195.93 317.233 200.004 318.448 199.504 319.091C199.003 319.735 183.277 319.663 176.344 319.091V318.805L194.643 319.02C194.714 319.02 195.143 317.304 195.93 317.233Z" fill="white"/>
</g>
</g>
</g>
<path d="M176.129 318.805C176.129 318.805 176.2 318.805 176.343 318.805C176.558 318.805 176.772 318.805 177.058 318.877C177.773 318.877 178.559 318.948 179.56 319.02C181.704 319.091 184.564 319.163 187.852 319.234C191.068 319.234 193.999 319.234 196.144 319.163C197.144 319.091 197.931 319.091 198.645 319.091C198.931 319.091 199.146 319.091 199.36 319.02C199.503 319.02 199.575 319.02 199.575 319.02C199.575 319.02 199.503 319.02 199.36 319.02C199.146 319.02 198.931 319.02 198.645 319.02C197.931 319.02 197.144 319.02 196.144 319.091C193.999 319.091 191.14 319.163 187.852 319.163C184.635 319.163 181.704 319.091 179.56 319.02C178.559 319.02 177.773 318.948 177.058 318.948C176.772 318.948 176.558 318.948 176.343 318.948C176.2 318.734 176.129 318.734 176.129 318.805Z" fill="#263238"/>
<path d="M194.714 319.234C194.786 319.234 194.786 318.662 195.215 318.019C195.572 317.376 196.072 317.09 196.072 317.09C196.072 317.018 195.5 317.304 195.072 317.948C194.643 318.591 194.643 319.234 194.714 319.234Z" fill="#263238"/>
<path d="M190.944 316.517C190.752 316.816 190.624 317.076 190.657 317.098C190.69 317.119 190.872 316.894 191.064 316.594C191.256 316.295 191.384 316.035 191.351 316.014C191.318 315.993 191.135 316.218 190.944 316.517Z" fill="#263238"/>
<path d="M189.889 316.145C189.653 316.355 189.483 316.549 189.509 316.579C189.536 316.608 189.748 316.462 189.984 316.252C190.22 316.042 190.39 315.848 190.364 315.818C190.337 315.789 190.125 315.935 189.889 316.145Z" fill="#263238"/>
<path d="M189.532 315.157C189.137 315.151 188.816 315.178 188.816 315.218C188.815 315.257 189.135 315.294 189.529 315.3C189.924 315.306 190.245 315.279 190.245 315.24C190.246 315.2 189.926 315.163 189.532 315.157Z" fill="#263238"/>
<path d="M188.566 314.373C188.566 314.445 188.924 314.588 189.353 314.588C189.853 314.659 190.21 314.516 190.21 314.516C190.21 314.445 189.853 314.516 189.424 314.445C188.995 314.373 188.638 314.302 188.566 314.373Z" fill="#263238"/>
<path d="M191.14 315.946C191.14 315.946 191.497 316.018 191.997 315.946C192.283 315.946 192.569 315.875 192.927 315.732C193.07 315.66 193.284 315.66 193.499 315.517C193.57 315.446 193.713 315.374 193.713 315.231C193.784 315.088 193.713 314.945 193.57 314.874C192.712 314.445 191.854 314.874 191.569 315.374C191.426 315.589 191.283 315.803 191.283 315.946C191.211 316.089 191.283 316.161 191.283 316.161C191.283 316.161 191.354 315.803 191.712 315.374C191.854 315.16 192.14 315.017 192.498 314.874C192.784 314.802 193.284 314.731 193.57 314.945C193.713 315.017 193.641 315.231 193.499 315.303C193.356 315.374 193.141 315.446 192.998 315.517C192.641 315.66 192.355 315.732 192.069 315.732C191.426 315.946 191.14 315.946 191.14 315.946Z" fill="#263238"/>
<path d="M191.355 316.018C191.355 316.018 191.498 315.803 191.426 315.374C191.426 315.16 191.355 314.945 191.212 314.731C191.069 314.517 190.854 314.231 190.497 314.302C190.282 314.302 190.211 314.588 190.211 314.731C190.211 314.874 190.282 315.017 190.354 315.16C190.497 315.374 190.64 315.589 190.783 315.732C191.069 316.018 191.283 316.089 191.283 316.089C191.283 316.089 191.14 315.946 190.854 315.66C190.711 315.517 190.568 315.374 190.497 315.16C190.354 314.945 190.282 314.659 190.497 314.588C190.711 314.588 190.926 314.802 191.069 314.945C191.212 315.16 191.283 315.374 191.283 315.517C191.426 315.732 191.283 316.018 191.355 316.018Z" fill="#263238"/>
<path d="M176.415 315.017C176.415 315.017 176.844 314.945 177.416 315.088C178.059 315.16 178.917 315.446 179.632 316.018C180.346 316.589 180.775 317.376 180.99 317.948C181.204 318.519 181.204 318.948 181.276 318.948C181.276 318.948 181.276 318.877 181.276 318.662C181.276 318.519 181.204 318.233 181.133 317.948C180.99 317.304 180.489 316.518 179.775 315.875C178.988 315.231 178.131 315.017 177.487 314.945C177.201 314.945 176.915 314.945 176.701 314.945C176.558 314.945 176.415 315.017 176.415 315.017Z" fill="#263238"/>
<path d="M177.907 312.117C177.934 310.538 177.924 309.257 177.884 309.256C177.845 309.256 177.791 310.535 177.764 312.114C177.738 313.693 177.748 314.974 177.787 314.974C177.827 314.975 177.88 313.696 177.907 312.117Z" fill="#263238"/>
<path d="M183.062 317.662C183.062 317.733 183.92 317.876 185.064 317.876C186.208 317.876 187.065 317.733 187.065 317.733C187.065 317.662 186.136 317.733 185.064 317.733C183.992 317.662 183.062 317.59 183.062 317.662Z" fill="#263238"/>
<path d="M180.347 317.662C180.347 317.662 180.418 317.876 180.49 318.091C180.561 318.305 180.633 318.448 180.704 318.448C180.776 318.448 180.776 318.233 180.704 318.019C180.561 317.733 180.418 317.59 180.347 317.662Z" fill="#263238"/>
<path d="M179.684 316.583C179.546 316.442 179.412 316.35 179.383 316.377C179.355 316.405 179.444 316.542 179.582 316.683C179.72 316.824 179.855 316.916 179.883 316.888C179.911 316.861 179.822 316.724 179.684 316.583Z" fill="#263238"/>
<path d="M177.916 315.803C177.916 315.875 178.13 315.875 178.345 315.946C178.559 316.018 178.702 316.161 178.702 316.089C178.774 316.089 178.631 315.875 178.345 315.803C178.13 315.66 177.916 315.732 177.916 315.803Z" fill="#263238"/>
<path d="M177.128 315.572C177.018 315.529 176.917 315.524 176.902 315.56C176.888 315.597 176.966 315.662 177.076 315.705C177.186 315.748 177.287 315.754 177.302 315.717C177.316 315.68 177.238 315.615 177.128 315.572Z" fill="#263238"/>
<g opacity="0.3">
<path opacity="0.3" d="M176.487 314.659L190.211 314.445V312.801L176.344 313.802L176.487 314.659Z" fill="black"/>
</g>
<path d="M159.831 189.925L165.335 206.509C166.836 211.012 170.768 211.727 175.485 211.727H206.151V204.865L178.13 200.862L171.482 183.778L159.831 189.925Z" fill="#FFBE9D"/>
<path d="M209.51 203.506L211.94 202.363C211.94 202.363 214.585 197.288 215.157 197.502C215.729 197.717 215.943 199.218 214.871 201.505L218.088 200.576C218.088 200.576 225.093 203.792 224.807 204.221C224.521 204.65 223.949 205.722 222.377 204.936C220.875 204.15 218.874 203.221 218.874 203.221L215.086 204.293L219.946 204.936L224.521 209.082C224.521 209.082 223.02 210.226 221.733 209.011L209.867 211.584L206.15 211.798V204.936L209.51 203.506Z" fill="#FFBE9D"/>
<path d="M221.733 209.01C221.662 209.01 221.447 208.725 221.018 208.224C220.804 208.01 220.518 207.724 220.161 207.581C219.803 207.366 219.374 207.295 218.874 207.223C216.872 207.009 215.3 206.723 215.3 206.58C215.3 206.509 216.944 206.58 218.945 206.795C219.446 206.866 219.946 206.938 220.375 207.223C220.732 207.438 221.09 207.724 221.233 208.01C221.662 208.653 221.805 209.01 221.733 209.01Z" fill="#EB996E"/>
<path d="M219.875 209.511C219.803 209.511 219.803 209.296 219.446 209.225C219.089 209.153 218.588 209.082 218.016 209.01C216.873 208.868 215.943 208.939 215.943 208.796C215.943 208.725 216.873 208.51 218.088 208.653C218.66 208.725 219.16 208.796 219.589 208.939C219.803 209.01 219.946 209.225 219.946 209.296C219.946 209.439 219.875 209.511 219.875 209.511Z" fill="#EB996E"/>
<path d="M133.955 121.732L132.311 155.471L146.75 156.829L147.536 148.68C147.536 148.68 152.611 149.967 154.184 145.249C155.184 142.247 156.042 118.658 156.042 118.658L133.955 121.732Z" fill="#FFBE9D"/>
<path d="M157.258 122.518C157.687 125.664 153.255 127.522 153.255 127.522L152.469 134.956C151.825 134.885 150.396 134.956 150.396 134.956C150.753 131.454 146.25 132.168 145.821 134.527C145.392 136.815 147.965 138.387 147.965 138.387C146.178 141.175 145.392 142.605 142.89 145.249C140.102 148.037 138.601 148.252 135.742 148.18L132.597 148.037C132.597 148.037 131.453 145.321 130.667 138.959C130.238 135.885 127.879 131.882 128.594 126.879C130.524 112.726 144.105 114.227 144.105 114.227C151.039 114.441 156.329 115.156 157.258 122.518Z" fill="#263238"/>
<path d="M146.893 114.656C149.966 114.727 153.111 114.941 155.828 116.443C158.544 117.944 160.617 120.946 160.045 123.948C159.545 124.02 159.044 124.162 158.544 124.234C158.33 123.877 158.115 123.448 157.901 123.09C157.901 123.662 157.901 124.305 157.901 124.877C156.971 125.163 156.114 125.378 155.184 125.664C154.755 123.376 153.969 121.16 152.826 119.159" fill="#263238"/>
<path d="M134.527 130.167C134.527 130.167 134.384 130.024 134.312 129.667C134.169 129.309 134.026 128.809 133.955 128.166C133.741 126.879 133.669 124.949 134.312 122.947C134.956 120.946 136.028 119.445 136.957 118.444C137.458 117.944 137.815 117.586 138.172 117.372C138.458 117.157 138.673 117.014 138.673 117.086C138.744 117.157 138.029 117.658 137.172 118.587C136.314 119.588 135.313 121.089 134.67 123.019C134.098 124.949 134.098 126.736 134.241 128.094C134.312 129.309 134.598 130.096 134.527 130.167Z" fill="#455A64"/>
<path d="M137.387 128.952C137.315 128.952 137.101 128.309 136.815 127.236C136.529 126.164 136.386 124.592 136.529 122.876C136.672 121.16 137.101 119.659 137.529 118.587C137.958 117.515 138.387 116.943 138.387 117.015C138.53 117.086 137.172 119.516 136.886 122.947C136.529 126.236 137.458 128.952 137.387 128.952Z" fill="#455A64"/>
<path d="M155.757 123.734C155.686 123.734 155.543 122.876 154.971 121.589C154.399 120.303 153.255 118.659 151.468 117.443C149.681 116.228 147.751 115.799 146.322 115.728C144.892 115.656 144.034 115.871 144.034 115.799C144.034 115.799 144.249 115.728 144.606 115.585C145.035 115.513 145.607 115.442 146.322 115.442C147.751 115.442 149.824 115.799 151.683 117.086C153.541 118.373 154.685 120.088 155.185 121.446C155.471 122.09 155.614 122.661 155.686 123.09C155.829 123.519 155.829 123.734 155.757 123.734Z" fill="#455A64"/>
<path d="M134.956 111.868C134.956 111.796 136.099 112.082 137.029 113.083C138.029 114.084 138.315 115.156 138.244 115.156C138.172 115.227 137.672 114.227 136.743 113.369C135.885 112.44 134.884 112.011 134.956 111.868Z" fill="#263238"/>
<path d="M138.316 111.939C138.387 112.011 138.173 112.726 138.244 113.655C138.244 114.584 138.53 115.299 138.459 115.37C138.387 115.442 137.887 114.727 137.887 113.655C137.887 112.654 138.244 111.868 138.316 111.939Z" fill="#455A64"/>
<path d="M157.258 186.351L159.617 194.357L174.557 187.566C173.985 185.922 171.554 178.417 166.837 166.622C164.192 160.046 158.33 155.257 151.325 154.113C146.393 153.327 141.103 152.683 137.029 152.683C128.666 152.755 116.3 158.044 114.655 166.265C113.369 172.555 114.584 183.635 114.584 197.073L115.656 222.806L158.688 224.236L157.258 186.351Z" fill="#007FDB"/>
<g opacity="0.3">
<g opacity="0.3">
<path opacity="0.3" d="M114.584 191.14C119.802 192.212 125.163 191.14 130.524 190.783C133.741 190.568 137.315 190.211 139.888 192.212C141.89 193.785 142.747 196.43 143.319 198.932C145.535 208.438 145.964 214.872 146.464 224.593L120.588 226.166L114.584 191.14Z" fill="black"/>
</g>
</g>
<path d="M165.55 164.12C165.55 164.192 154.256 164.335 140.317 164.335C126.378 164.335 115.084 164.263 115.084 164.12C115.084 164.049 126.378 163.906 140.317 163.906C154.256 163.977 165.55 164.049 165.55 164.12Z" fill="#FAFAFA"/>
<path d="M168.695 171.34C168.695 171.411 156.4 171.554 141.318 171.554C126.164 171.554 113.869 171.483 113.869 171.34C113.869 171.197 126.164 171.125 141.318 171.125C156.4 171.197 168.695 171.268 168.695 171.34Z" fill="#FAFAFA"/>
<path d="M172.627 180.418C172.627 180.49 159.546 180.632 143.391 180.632C127.236 180.632 114.155 180.561 114.155 180.418C114.155 180.347 127.236 180.204 143.391 180.204C159.546 180.275 172.627 180.347 172.627 180.418Z" fill="#FAFAFA"/>
<path d="M147.751 190.425C152.804 190.425 156.901 190.329 156.901 190.211C156.901 190.092 152.804 189.996 147.751 189.996C142.698 189.996 138.602 190.092 138.602 190.211C138.602 190.329 142.698 190.425 147.751 190.425Z" fill="#FAFAFA"/>
<path d="M148.183 200.938C153.473 200.981 157.763 200.92 157.764 200.802C157.765 200.683 153.477 200.552 148.187 200.509C142.897 200.466 138.608 200.528 138.607 200.646C138.606 200.765 142.893 200.895 148.183 200.938Z" fill="#FAFAFA"/>
<path d="M158.188 209.439C158.188 209.439 157.902 209.439 157.401 209.439C156.829 209.439 156.186 209.439 155.328 209.368C153.613 209.296 151.182 209.296 148.538 209.296C145.893 209.296 143.534 209.368 141.747 209.368C140.961 209.368 140.246 209.368 139.674 209.439C139.174 209.439 138.888 209.439 138.888 209.439C138.888 209.439 139.174 209.368 139.603 209.296C140.103 209.225 140.818 209.225 141.675 209.153C143.391 209.082 145.821 208.939 148.466 208.939C151.111 208.939 153.47 209.01 155.257 209.153C156.115 209.225 156.829 209.225 157.33 209.296C157.902 209.368 158.188 209.439 158.188 209.439Z" fill="#FAFAFA"/>
<path d="M148.609 216.659C153.82 216.659 158.045 216.563 158.045 216.444C158.045 216.326 153.82 216.23 148.609 216.23C143.398 216.23 139.174 216.326 139.174 216.444C139.174 216.563 143.398 216.659 148.609 216.659Z" fill="#FAFAFA"/>
<path d="M140.817 157.258C151.042 157.258 159.331 157.162 159.331 157.044C159.331 156.925 151.042 156.829 140.817 156.829C130.593 156.829 122.304 156.925 122.304 157.044C122.304 157.162 130.593 157.258 140.817 157.258Z" fill="#FAFAFA"/>
<path d="M158.33 158.402C158.33 158.473 157.901 158.473 157.186 158.759C156.472 159.045 155.542 159.689 154.685 160.761C153.898 161.833 153.326 163.406 153.184 165.264C153.041 167.051 153.326 169.053 153.612 171.126C154.256 175.271 155.256 178.988 156.043 181.633C156.4 182.92 156.686 183.992 156.901 184.778C157.115 185.493 157.186 185.922 157.186 185.922C157.186 185.922 157.043 185.493 156.758 184.778C156.543 184.064 156.186 182.991 155.757 181.633C154.971 178.988 153.898 175.271 153.255 171.054C152.969 168.981 152.683 166.908 152.826 165.05C152.969 163.191 153.541 161.547 154.47 160.403C155.328 159.26 156.4 158.688 157.115 158.402C157.472 158.259 157.758 158.188 157.973 158.188C158.187 158.402 158.33 158.402 158.33 158.402Z" fill="#263238"/>
<path d="M174.056 185.493C174.056 185.565 173.27 185.994 171.983 186.708C170.625 187.423 168.767 188.352 166.694 189.282C164.621 190.211 162.691 190.997 161.261 191.569C159.831 192.069 158.974 192.427 158.974 192.355C158.974 192.284 159.831 191.926 161.19 191.355C162.548 190.783 164.478 189.925 166.551 188.996C168.624 188.066 170.482 187.209 171.84 186.565C173.198 185.851 174.056 185.493 174.056 185.493Z" fill="#263238"/>
<path d="M128.88 223.235L180.275 225.022C188.638 225.308 195.214 232.242 195.071 240.605L192.927 314.016L173.055 313.373L174.556 244.68L128.88 243.464V223.235Z" fill="#263238"/>
<path d="M107.65 223.235L159.045 225.022C167.408 225.308 173.985 232.242 173.842 240.605L171.697 314.016L151.611 312.444L153.327 244.68L107.65 243.464V223.235Z" fill="#263238"/>
<path d="M146.179 249.898H141.104V310.442H146.179V249.898Z" fill="#455A64"/>
<path d="M98.6436 191.14V235.744C98.6436 241.606 103.361 246.324 109.223 246.324H138.887V191.14C138.887 188.567 136.743 186.422 134.17 186.422H103.361C100.788 186.422 98.6436 188.495 98.6436 191.14Z" fill="#455A64"/>
<path d="M178.917 249.898H106.578C106.578 245.537 110.081 242.035 114.441 242.035H171.054C175.343 242.035 178.917 245.537 178.917 249.898Z" fill="#455A64"/>
<path d="M138.959 241.034C138.959 241.034 138.959 241.177 138.959 241.391C138.959 241.606 138.959 241.963 138.816 242.392C138.673 243.25 138.101 244.465 136.886 245.394C136.242 245.895 135.528 246.252 134.598 246.395C133.669 246.538 132.74 246.466 131.739 246.466C129.738 246.466 127.522 246.466 125.234 246.466C120.66 246.466 116.442 246.466 113.44 246.395C112.01 246.395 110.795 246.324 109.866 246.324C109.509 246.324 109.151 246.324 108.865 246.324C108.651 246.324 108.508 246.324 108.508 246.252C108.508 246.252 108.651 246.252 108.865 246.181C109.151 246.181 109.437 246.181 109.866 246.109C110.795 246.109 112.01 246.038 113.44 246.038C116.442 245.966 120.66 245.966 125.234 245.966C127.522 245.966 129.738 245.966 131.739 245.966C132.74 245.966 133.669 246.038 134.527 245.895C135.385 245.752 136.099 245.394 136.743 244.965C137.958 244.108 138.458 242.892 138.673 242.106C138.887 241.463 138.887 241.034 138.959 241.034Z" fill="#263238"/>
<path d="M143.605 250.255C146.052 250.255 148.036 250.159 148.036 250.041C148.036 249.922 146.052 249.826 143.605 249.826C141.157 249.826 139.173 249.922 139.173 250.041C139.173 250.159 141.157 250.255 143.605 250.255Z" fill="#263238"/>
<path d="M170.053 246.681C169.981 246.681 169.838 245.966 169.624 244.537C169.409 243.178 169.052 241.177 168.695 238.675C168.266 236.245 168.051 233.243 166.693 230.312C165.978 228.811 165.121 227.381 163.977 226.023C162.833 224.665 161.475 223.45 159.974 222.377C158.401 221.305 156.757 220.519 155.113 220.019C153.469 219.518 151.754 219.161 150.11 219.161C146.821 219.089 143.819 219.089 141.389 219.018C138.887 219.018 136.886 218.946 135.456 218.875C134.098 218.803 133.312 218.803 133.312 218.732C133.312 218.66 134.098 218.66 135.456 218.589C136.814 218.517 138.887 218.517 141.389 218.446C143.891 218.446 146.821 218.375 150.181 218.375C151.825 218.375 153.612 218.732 155.328 219.232C157.115 219.733 158.83 220.59 160.403 221.663C161.975 222.735 163.405 224.022 164.549 225.451C165.692 226.881 166.622 228.382 167.265 229.954C167.408 230.312 167.551 230.741 167.694 231.098C167.765 231.313 167.837 231.456 167.908 231.67C167.98 231.884 168.051 232.027 168.051 232.242C168.123 232.599 168.266 233.028 168.337 233.386C168.409 233.743 168.48 234.172 168.552 234.529C168.838 235.959 168.909 237.317 169.124 238.604C169.409 241.105 169.695 243.107 169.838 244.465C169.981 245.823 170.053 246.681 170.053 246.681Z" fill="#455A64"/>
<path d="M165.693 315.946H164.978C164.978 304.08 155.328 294.43 143.462 294.43C131.596 294.43 121.946 304.08 121.946 315.946H121.231C121.231 303.723 131.167 293.715 143.462 293.715C155.757 293.715 165.693 303.651 165.693 315.946Z" fill="#455A64"/>
<path d="M121.589 320.378C123.445 320.378 124.949 318.874 124.949 317.018C124.949 315.163 123.445 313.659 121.589 313.659C119.734 313.659 118.229 315.163 118.229 317.018C118.229 318.874 119.734 320.378 121.589 320.378Z" fill="#263238"/>
<path d="M165.55 319.949C167.406 319.949 168.91 318.445 168.91 316.589C168.91 314.734 167.406 313.23 165.55 313.23C163.695 313.23 162.19 314.734 162.19 316.589C162.19 318.445 163.695 319.949 165.55 319.949Z" fill="#263238"/>
<path d="M165.478 310.442C165.478 310.513 155.828 310.656 143.891 310.656C131.954 310.656 122.304 310.585 122.304 310.442C122.304 310.299 131.954 310.228 143.891 310.228C155.828 310.299 165.478 310.37 165.478 310.442Z" fill="#455A64"/>
<path d="M248.182 149.252L285.495 169.91L284.065 172.555L247.109 151.54L248.182 149.252Z" fill="#007FDB"/>
<path d="M246.323 147.322L248.039 144.677L249.04 145.321L247.467 147.966L246.323 147.322Z" fill="#007FDB"/>
<path d="M281.206 166.694L283.136 167.766L276.917 207.652H273.915L281.206 166.694Z" fill="#007FDB"/>
<path d="M265.337 211.798C265.337 211.798 269.912 207.223 275.988 207.509C282.063 207.867 285.209 211.727 285.209 211.727L265.337 211.798Z" fill="#007FDB"/>
<path d="M246.324 165.407L231.599 156.901L235.887 149.538C238.246 145.464 243.464 144.034 247.539 146.393C251.613 148.752 253.043 153.97 250.684 158.045L246.324 165.407Z" fill="#007FDB"/>
</g>
<defs>
<clipPath id="clip0_1130_534">
<rect width="428.6" height="284.637" fill="white" transform="translate(0 35.7405)"/>
</clipPath>
</defs>
</svg>
