<svg width="25" height="25" viewBox="0 0 25 25" fill="none" xmlns="http://www.w3.org/2000/svg">
<path d="M2.93359 12.4594C2.93416 14.8407 3.78406 17.1437 5.33056 18.9545C6.87705 20.7653 9.01871 21.9652 11.3706 22.3384V15.3494H8.83359V12.4594H11.3736V10.2594C11.3175 9.74445 11.3755 9.2235 11.5434 8.73352C11.7113 8.24354 11.9851 7.79655 12.3452 7.42429C12.7054 7.05203 13.1431 6.76363 13.6272 6.57958C14.1114 6.39553 14.6301 6.32034 15.1466 6.35936C15.8966 6.37136 16.6466 6.43836 17.3866 6.55936V9.01836H16.1226C15.9078 8.99022 15.6894 9.01072 15.4835 9.07834C15.2777 9.14596 15.0897 9.25897 14.9334 9.40902C14.7771 9.55908 14.6565 9.74233 14.5806 9.94525C14.5046 10.1482 14.4752 10.3656 14.4946 10.5814V12.4594H17.2656L16.8226 15.3504H14.4946V22.3384C16.3822 22.04 18.1448 21.2071 19.5738 19.9381C21.0027 18.6692 22.0381 17.0173 22.5573 15.1782C23.0766 13.339 23.058 11.3896 22.5038 9.56069C21.9495 7.73178 20.8828 6.09999 19.43 4.8585C17.9771 3.61701 16.1989 2.81783 14.306 2.55556C12.413 2.29329 10.4845 2.57893 8.74885 3.37866C7.01318 4.17838 5.54301 5.4587 4.5124 7.06803C3.48179 8.67736 2.9339 10.5483 2.93359 12.4594Z" fill="#3E3E3E"/>
</svg>
