<svg width="20" height="21" viewBox="0 0 20 21" fill="none" xmlns="http://www.w3.org/2000/svg">
<g clip-path="url(#clip0_398_2278)">
<path d="M9.99844 1.15234C4.69644 1.15234 0.398438 5.45034 0.398438 10.7523C0.398438 16.0543 4.69644 20.3523 9.99844 20.3523C15.3004 20.3523 19.5984 16.0543 19.5984 10.7523C19.5984 5.45034 15.3004 1.15234 9.99844 1.15234ZM7.64844 14.7313H5.70444V8.47534H7.64844V14.7313ZM6.66444 7.70734C6.05044 7.70734 5.65344 7.27234 5.65344 6.73434C5.65344 6.18534 6.06244 5.76334 6.68944 5.76334C7.31644 5.76334 7.70044 6.18534 7.71244 6.73434C7.71244 7.27234 7.31644 7.70734 6.66444 7.70734ZM14.7484 14.7313H12.8044V11.2643C12.8044 10.4573 12.5224 9.90934 11.8194 9.90934C11.2824 9.90934 10.9634 10.2803 10.8224 10.6373C10.7704 10.7643 10.7574 10.9443 10.7574 11.1233V14.7303H8.81244V10.4703C8.81244 9.68934 8.78744 9.03634 8.76144 8.47434H10.4504L10.5394 9.34334H10.5784C10.8344 8.93534 11.4614 8.33334 12.5104 8.33334C13.7894 8.33334 14.7484 9.19034 14.7484 11.0323V14.7313Z" fill="#3E3E3E"/>
</g>
<defs>
<clipPath id="clip0_398_2278">
<rect width="20" height="20" fill="white" transform="translate(0 0.751953)"/>
</clipPath>
</defs>
</svg>
