<svg width="21" height="21" viewBox="0 0 21 21" fill="none" xmlns="http://www.w3.org/2000/svg">
<g clip-path="url(#clip0_398_2276)">
<path d="M10.9281 0.861328C5.62613 0.861328 1.32812 5.15933 1.32812 10.4613C1.32812 15.7633 5.62613 20.0613 10.9281 20.0613C16.2301 20.0613 20.5281 15.7633 20.5281 10.4613C20.5281 5.15933 16.2301 0.861328 10.9281 0.861328ZM14.8331 8.72533C14.8371 8.80733 14.8381 8.88933 14.8381 8.96933C14.8381 11.4693 12.9371 14.3503 9.45913 14.3503C8.43142 14.352 7.42509 14.0569 6.56112 13.5003C6.70812 13.5183 6.85913 13.5253 7.01213 13.5253C7.89813 13.5253 8.71313 13.2243 9.36013 12.7163C8.96584 12.7086 8.5838 12.578 8.26724 12.3428C7.95068 12.1077 7.71537 11.7796 7.59412 11.4043C7.87728 11.4582 8.16898 11.4469 8.44712 11.3713C8.01917 11.2848 7.63432 11.0529 7.35783 10.715C7.08134 10.3771 6.93023 9.95394 6.93012 9.51733V9.49433C7.18512 9.63533 7.47713 9.72133 7.78713 9.73133C7.38592 9.46426 7.10191 9.054 6.99317 8.58446C6.88443 8.11492 6.95918 7.62158 7.20213 7.20533C7.67708 7.78933 8.26939 8.26708 8.94069 8.60764C9.612 8.9482 10.3473 9.14399 11.0991 9.18233C11.0035 8.77664 11.0447 8.35073 11.2161 7.97083C11.3876 7.59093 11.6797 7.27832 12.0472 7.08159C12.4146 6.88487 12.8368 6.81505 13.248 6.883C13.6592 6.95095 14.0365 7.15285 14.3211 7.45733C14.7443 7.3736 15.1501 7.21838 15.5211 6.99833C15.3801 7.43646 15.0848 7.8085 14.6901 8.04533C15.065 8.00018 15.431 7.89941 15.7761 7.74633C15.5226 8.12622 15.2033 8.45777 14.8331 8.72533Z" fill="#3E3E3E"/>
</g>
<defs>
<clipPath id="clip0_398_2276">
<rect width="20" height="20" fill="white" transform="translate(0.929688 0.460938)"/>
</clipPath>
</defs>
</svg>
