<svg width="108" height="108" viewBox="0 0 108 108" fill="none" xmlns="http://www.w3.org/2000/svg">
<path d="M98.55 49.4959C98.55 49.0009 98.28 48.5059 98.145 48.0109C97.9367 47.1376 97.666 46.2804 97.335 45.4459C97.11 44.9059 96.795 44.3659 96.525 43.7809C96.255 43.1959 95.85 42.4309 95.445 41.8009C95.04 41.1709 94.5 40.8559 94.5 40.4959C94.5 40.1359 93.6 39.3709 93.105 38.8309C92.61 38.2909 92.16 37.9309 91.665 37.4809L90 35.9959L88.38 34.9159C87.744 34.5267 87.0826 34.1809 86.4 33.8809L84.645 33.0709C83.91 32.7987 83.1585 32.5732 82.395 32.3959C81.7902 32.218 81.1737 32.0826 80.55 31.9909H79.74C78.0067 26.5876 74.615 21.8677 70.0466 18.5016C65.4783 15.1355 59.9655 13.2943 54.2912 13.2395C48.6169 13.1847 43.0696 14.9191 38.4371 18.1963C33.8046 21.4736 30.3224 26.127 28.485 31.4959H27.675C27.0513 31.5876 26.4348 31.723 25.83 31.9009C25.0665 32.0782 24.315 32.3037 23.58 32.5759L21.825 33.3859C21.1425 33.6859 20.4809 34.0317 19.845 34.4209L18.225 35.9959L16.56 37.3909C16.065 37.8409 15.57 38.2459 15.12 38.7409C14.67 39.2359 14.175 39.8659 13.725 40.4059C13.275 40.9459 12.915 41.4409 12.555 42.0259C12.195 42.6109 11.835 43.3309 11.475 44.0059C11.115 44.6809 10.89 45.1309 10.665 45.6709C10.334 46.5054 10.0633 47.3626 9.855 48.2359C9.855 48.7309 9.54 49.2259 9.45 49.7209C9.1699 51.1292 9.01928 52.5601 9 53.9959C9.0211 55.3698 9.15656 56.7395 9.405 58.0909C9.405 58.5409 9.63 58.9459 9.72 59.3959C9.94242 60.2799 10.2128 61.1512 10.53 62.0059L11.07 63.3109C11.4661 64.1786 11.917 65.0204 12.42 65.8309L13.05 66.8209C13.1147 66.947 13.19 67.0674 13.275 67.1809L13.5 67.4959C15.5958 70.2903 18.3134 72.5584 21.4377 74.1205C24.5619 75.6826 28.007 76.4959 31.5 76.4959C31.51 74.1128 32.4649 71.831 34.155 70.1509C35.8351 68.4607 38.1169 67.5059 40.5 67.4959C42.083 67.481 43.6396 67.9013 45 68.7109V53.9959C45 51.6089 45.9482 49.3198 47.636 47.6319C49.3239 45.9441 51.6131 44.9959 54 44.9959C56.3869 44.9959 58.6761 45.9441 60.364 47.6319C62.0518 49.3198 63 51.6089 63 53.9959V69.1609C64.3673 68.3677 65.9193 67.9487 67.5 67.9459C69.9379 67.9687 72.2676 68.9556 73.98 70.6909C75.495 72.257 76.3904 74.3196 76.5 76.4959C79.993 76.4959 83.4381 75.6826 86.5623 74.1205C89.6866 72.5584 92.4042 70.2903 94.5 67.4959L94.725 67.2709C94.81 67.1574 94.8853 67.037 94.95 66.9109L95.58 65.9209C96.083 65.1104 96.5339 64.2687 96.93 63.4009L97.47 62.0959C97.7872 61.2412 98.0576 60.3699 98.28 59.4859C98.28 59.0359 98.505 58.6309 98.595 58.1809C98.8485 56.7999 98.9839 55.3998 99 53.9959C98.9948 52.4849 98.8441 50.978 98.55 49.4959Z" fill="#A6C5FF"/>
<path d="M64.3958 73.71L58.5008 79.38V54C58.5008 52.8065 58.0267 51.6619 57.1828 50.818C56.3389 49.9741 55.1943 49.5 54.0008 49.5C52.8074 49.5 51.6628 49.9741 50.8189 50.818C49.9749 51.6619 49.5008 52.8065 49.5008 54V79.155L43.6958 73.305C43.2763 72.8854 42.7782 72.5526 42.23 72.3255C41.6818 72.0985 41.0942 71.9816 40.5008 71.9816C39.9075 71.9816 39.3199 72.0985 38.7717 72.3255C38.2235 72.5526 37.7254 72.8854 37.3058 73.305C36.8863 73.7246 36.5534 74.2227 36.3264 74.7709C36.0993 75.3191 35.9824 75.9066 35.9824 76.5C35.9824 77.0934 36.0993 77.6809 36.3264 78.2291C36.5534 78.7773 36.8863 79.2754 37.3058 79.695L50.8058 93.195C51.2263 93.6121 51.725 93.942 52.2733 94.166C52.8215 94.3899 53.4086 94.5034 54.0008 94.5C55.1594 94.4954 56.2716 94.0441 57.1058 93.24L70.6058 80.19C71.0833 79.796 71.4744 79.3077 71.7546 78.7557C72.0347 78.2036 72.198 77.5997 72.2341 76.9817C72.2702 76.3637 72.1785 75.7449 71.9645 75.1639C71.7506 74.583 71.4191 74.0525 70.9907 73.6055C70.5624 73.1586 70.0464 72.8048 69.4751 72.5663C68.9038 72.3279 68.2895 72.2099 67.6705 72.2197C67.0515 72.2295 66.4412 72.3669 65.8777 72.6233C65.3143 72.8798 64.8098 73.2497 64.3958 73.71Z" fill="#A6C5FF"/>
<path d="M98.55 49.4959C98.55 49.0009 98.28 48.5059 98.145 48.0109C97.9367 47.1376 97.666 46.2804 97.335 45.4459C97.11 44.9059 96.795 44.3659 96.525 43.7809C96.255 43.1959 95.85 42.4309 95.445 41.8009C95.04 41.1709 94.5 40.8559 94.5 40.4959C94.5 40.1359 93.6 39.3709 93.105 38.8309C92.61 38.2909 92.16 37.9309 91.665 37.4809L90 35.9959L88.38 34.9159C87.744 34.5267 87.0826 34.1809 86.4 33.8809L84.645 33.0709C83.91 32.7987 83.1585 32.5732 82.395 32.3959C81.7902 32.218 81.1737 32.0826 80.55 31.9909H79.74C78.0067 26.5876 74.615 21.8677 70.0466 18.5016C65.4783 15.1355 59.9655 13.2943 54.2912 13.2395C48.6169 13.1847 43.0696 14.9191 38.4371 18.1963C33.8046 21.4736 30.3224 26.127 28.485 31.4959H27.675C27.0513 31.5876 26.4348 31.723 25.83 31.9009C25.0665 32.0782 24.315 32.3037 23.58 32.5759L21.825 33.3859C21.1425 33.6859 20.4809 34.0317 19.845 34.4209L18.225 35.9959L16.56 37.3909C16.065 37.8409 15.57 38.2459 15.12 38.7409C14.67 39.2359 14.175 39.8659 13.725 40.4059C13.275 40.9459 12.915 41.4409 12.555 42.0259C12.195 42.6109 11.835 43.3309 11.475 44.0059C11.115 44.6809 10.89 45.1309 10.665 45.6709C10.334 46.5054 10.0633 47.3626 9.855 48.2359C9.855 48.7309 9.54 49.2259 9.45 49.7209C9.1699 51.1292 9.01928 52.5601 9 53.9959C9.0211 55.3698 9.15656 56.7395 9.405 58.0909C9.405 58.5409 9.63 58.9459 9.72 59.3959C9.94242 60.2799 10.2128 61.1512 10.53 62.0059L11.07 63.3109C11.4661 64.1786 11.917 65.0204 12.42 65.8309L13.05 66.8209C13.1147 66.947 13.19 67.0674 13.275 67.1809L13.5 67.4959C15.5958 70.2903 18.3134 72.5584 21.4377 74.1205C24.5619 75.6826 28.007 76.4959 31.5 76.4959C31.51 74.1128 32.4649 71.831 34.155 70.1509C35.8351 68.4607 38.1169 67.5059 40.5 67.4959C42.083 67.481 43.6396 67.9013 45 68.7109V53.9959C45 51.6089 45.9482 49.3198 47.636 47.6319C49.3239 45.9441 51.6131 44.9959 54 44.9959C56.3869 44.9959 58.6761 45.9441 60.364 47.6319C62.0518 49.3198 63 51.6089 63 53.9959V69.1609C64.3673 68.3677 65.9193 67.9487 67.5 67.9459C69.9379 67.9687 72.2676 68.9556 73.98 70.6909C75.495 72.257 76.3904 74.3196 76.5 76.4959C79.993 76.4959 83.4381 75.6826 86.5623 74.1205C89.6866 72.5584 92.4042 70.2903 94.5 67.4959L94.725 67.2709C94.81 67.1574 94.8853 67.037 94.95 66.9109L95.58 65.9209C96.083 65.1104 96.5339 64.2687 96.93 63.4009L97.47 62.0959C97.7872 61.2412 98.0576 60.3699 98.28 59.4859C98.28 59.0359 98.505 58.6309 98.595 58.1809C98.8485 56.7999 98.9839 55.3998 99 53.9959C98.9948 52.4849 98.8441 50.978 98.55 49.4959Z" fill="#A6C5FF"/>
<path d="M64.3958 73.71L58.5008 79.38V54C58.5008 52.8065 58.0267 51.6619 57.1828 50.818C56.3389 49.9741 55.1943 49.5 54.0008 49.5C52.8074 49.5 51.6628 49.9741 50.8189 50.818C49.9749 51.6619 49.5008 52.8065 49.5008 54V79.155L43.6958 73.305C43.2763 72.8854 42.7782 72.5526 42.23 72.3255C41.6818 72.0985 41.0942 71.9816 40.5008 71.9816C39.9075 71.9816 39.3199 72.0985 38.7717 72.3255C38.2235 72.5526 37.7254 72.8854 37.3058 73.305C36.8863 73.7246 36.5534 74.2227 36.3264 74.7709C36.0993 75.3191 35.9824 75.9066 35.9824 76.5C35.9824 77.0934 36.0993 77.6809 36.3264 78.2291C36.5534 78.7773 36.8863 79.2754 37.3058 79.695L50.8058 93.195C51.2263 93.6121 51.725 93.942 52.2733 94.166C52.8215 94.3899 53.4086 94.5034 54.0008 94.5C55.1594 94.4954 56.2716 94.0441 57.1058 93.24L70.6058 80.19C71.0833 79.796 71.4744 79.3077 71.7546 78.7557C72.0347 78.2036 72.198 77.5997 72.2341 76.9817C72.2702 76.3637 72.1785 75.7449 71.9645 75.1639C71.7506 74.583 71.4191 74.0525 70.9907 73.6055C70.5624 73.1586 70.0464 72.8048 69.4751 72.5663C68.9038 72.3279 68.2895 72.2099 67.6705 72.2197C67.0515 72.2295 66.4412 72.3669 65.8777 72.6233C65.3143 72.8798 64.8098 73.2497 64.3958 73.71Z" fill="#A6C5FF"/>
</svg>
