<svg width="14" height="16" viewBox="0 0 14 16" fill="none" xmlns="http://www.w3.org/2000/svg">
<g clip-path="url(#clip0_398_2280)">
<path d="M8.93081 6.32983C10.5645 8.08205 10.5421 10.8913 8.94065 12.6166C8.93764 12.6202 8.93409 12.624 8.93081 12.6275L7.09331 14.5962C5.47265 16.3327 2.83592 16.3324 1.2155 14.5962C-0.405166 12.8601 -0.405166 10.0347 1.2155 8.29858L2.23012 7.21149C2.49918 6.92321 2.96254 7.11481 2.97644 7.52221C2.99415 8.04141 3.08105 8.56304 3.2414 9.06677C3.2957 9.23734 3.2569 9.42601 3.13795 9.55345L2.78011 9.93686C2.01377 10.7579 1.98974 12.0949 2.74853 12.924C3.51481 13.7612 4.77431 13.7662 5.54647 12.9389L7.38397 10.9705C8.15482 10.1445 8.15159 8.8096 7.38397 7.98715C7.28277 7.87893 7.18084 7.79485 7.10121 7.73611C7.04488 7.69466 6.99837 7.63969 6.96539 7.57557C6.93241 7.51144 6.91387 7.43995 6.91126 7.36679C6.90043 7.05721 7.0028 6.7382 7.23112 6.49357L7.80682 5.87672C7.95778 5.71498 8.19461 5.69511 8.36966 5.82601C8.57014 5.976 8.75791 6.14459 8.93081 6.32983ZM12.7845 2.20067C11.1641 0.464478 8.52735 0.464243 6.90669 2.20067L5.06919 4.16942C5.06591 4.17293 5.06235 4.17674 5.05935 4.18026C3.45793 5.90561 3.43548 8.71486 5.06919 10.4671C5.24208 10.6523 5.42984 10.8209 5.63031 10.9709C5.80537 11.1018 6.04222 11.0819 6.19315 10.9202L6.76885 10.3033C6.99717 10.0587 7.09954 9.73966 7.08872 9.43008C7.0861 9.35692 7.06756 9.28543 7.03458 9.22131C7.0016 9.15719 6.95509 9.10221 6.89876 9.06077C6.81913 9.00203 6.7172 8.91794 6.616 8.80972C5.84838 7.98727 5.84515 6.65233 6.616 5.82642L8.4535 3.85796C9.22566 3.03065 10.4851 3.03563 11.2514 3.87291C12.0102 4.70201 11.9862 6.03894 11.2199 6.86001L10.862 7.24342C10.7431 7.37086 10.7043 7.55954 10.7586 7.7301C10.9189 8.23383 11.0058 8.75546 11.0235 9.27466C11.0375 9.68207 11.5008 9.87367 11.7699 9.58539L12.7845 8.4983C14.4052 6.76219 14.4052 3.9368 12.7845 2.20067Z" fill="#3E3E3E"/>
</g>
<defs>
<clipPath id="clip0_398_2280">
<rect width="14" height="15" fill="white" transform="translate(0 0.898438)"/>
</clipPath>
</defs>
</svg>
