<svg width="28" height="29" viewBox="0 0 28 29" fill="none" xmlns="http://www.w3.org/2000/svg">
<path d="M26.8332 3.52052C25.716 4.30858 24.479 4.91131 23.1698 5.30552C22.4672 4.49762 21.5334 3.92499 20.4947 3.6651C19.456 3.40521 18.3626 3.47058 17.3623 3.85238C16.3619 4.23418 15.503 4.91399 14.9016 5.79986C14.3003 6.68572 13.9855 7.73491 13.9998 8.80552V9.97219C11.9496 10.0253 9.91799 9.57064 8.08601 8.64854C6.25404 7.72645 4.67854 6.3656 3.49984 4.68719C3.49984 4.68719 -1.16683 15.1872 9.33317 19.8539C6.93045 21.4848 4.06819 22.3026 1.1665 22.1872C11.6665 28.0205 24.4998 22.1872 24.4998 8.77052C24.4988 8.44555 24.4675 8.12138 24.4065 7.80219C25.5972 6.62793 26.4375 5.14535 26.8332 3.52052V3.52052Z" stroke="#3B71FE" stroke-width="2" stroke-linecap="round" stroke-linejoin="round"/>
</svg>
