<svg width="28" height="29" viewBox="0 0 28 29" fill="none" xmlns="http://www.w3.org/2000/svg">
<path d="M14.0002 25.6872C20.4435 25.6872 25.6668 20.4638 25.6668 14.0205C25.6668 7.57717 20.4435 2.35382 14.0002 2.35382C7.55684 2.35382 2.3335 7.57717 2.3335 14.0205C2.3335 20.4638 7.55684 25.6872 14.0002 25.6872Z" stroke="#3B71FE" stroke-width="2" stroke-linecap="round" stroke-linejoin="round"/>
<path d="M25.375 15.0005C21.2917 13.9155 17.64 14.0438 14.945 15.0005C11.935 16.0738 9.1 18.3372 6.265 22.3738M9.98667 3.22882C15.085 10.2638 17.01 14.2188 19.355 23.9022L9.98667 3.22882ZM22.3183 5.95882C17.9783 11.0338 11.8883 12.5622 2.625 12.7838L22.3183 5.95882Z" stroke="#3B71FE" stroke-width="2" stroke-linecap="round" stroke-linejoin="round"/>
</svg>
