<svg width="28" height="29" viewBox="0 0 28 29" fill="none" xmlns="http://www.w3.org/2000/svg">
<path d="M19.8335 2.35382H8.16683C4.94517 2.35382 2.3335 4.96549 2.3335 8.18715V19.8538C2.3335 23.0755 4.94517 25.6872 8.16683 25.6872H19.8335C23.0552 25.6872 25.6668 23.0755 25.6668 19.8538V8.18715C25.6668 4.96549 23.0552 2.35382 19.8335 2.35382Z" stroke="#3B71FE" stroke-width="2" stroke-linecap="round" stroke-linejoin="round"/>
<path d="M20.4167 7.60382H20.4283M18.6667 13.2855C18.8106 14.2564 18.6448 15.2481 18.1927 16.1193C17.7406 16.9906 17.0253 17.6971 16.1485 18.1384C15.2718 18.5797 14.2782 18.7334 13.3091 18.5774C12.34 18.4215 11.4447 17.9639 10.7506 17.2698C10.0566 16.5758 9.599 15.6805 9.44306 14.7114C9.28712 13.7423 9.44073 12.7487 9.88203 11.8719C10.3233 10.9951 11.0299 10.2799 11.9011 9.82777C12.7724 9.37569 13.764 9.20984 14.735 9.35382C15.7254 9.50069 16.6423 9.96219 17.3503 10.6702C18.0583 11.3782 18.5198 12.2951 18.6667 13.2855Z" stroke="#3B71FE" stroke-width="2" stroke-linecap="round" stroke-linejoin="round"/>
</svg>
