<svg width="36" height="37" viewBox="0 0 36 37" fill="none" xmlns="http://www.w3.org/2000/svg">
<path d="M13.8568 2.45873L13.8613 5.3754L22.6113 5.36179L22.6067 2.44512L25.5234 2.44059L25.5279 5.35725L31.3613 5.34818C31.748 5.34758 32.1192 5.50064 32.3931 5.77371C32.6671 6.04677 32.8213 6.41747 32.8219 6.80424L32.8582 30.1375C32.8588 30.5243 32.7057 30.8955 32.4326 31.1694C32.1596 31.4433 31.7889 31.5975 31.4021 31.5981L5.15213 31.639C4.76536 31.6396 4.39419 31.4865 4.12027 31.2134C3.84636 30.9404 3.69213 30.5697 3.69153 30.1829L3.65524 6.8496C3.65464 6.46283 3.80771 6.09166 4.08077 5.81774C4.35384 5.54383 4.72453 5.38961 5.11131 5.389L10.9446 5.37993L10.9401 2.46327L13.8568 2.45873ZM29.9143 12.6421L6.58098 12.6784L6.60593 28.72L29.9392 28.6837L29.9143 12.6421ZM22.68 15.7684L24.7453 17.8272L17.5377 25.0572L12.3731 19.9086L14.4349 17.8433L17.5328 20.933L22.6814 15.7684L22.68 15.7684Z" fill="#959595"/>
</svg>
