<svg width="474" height="441" viewBox="0 0 474 441" fill="none" xmlns="http://www.w3.org/2000/svg">
<g clip-path="url(#clip0_1099_432)">
<path d="M164.242 400.32C203.538 371.424 212.441 317.529 210.906 268.828C210.599 260.711 211.52 252.27 207.836 245.127C204.152 237.984 195.863 233.114 188.802 236.685C183.276 239.608 180.513 246.426 177.443 252.27C173.145 260.062 167.005 266.231 159.638 270.451C154.726 273.049 148.893 274.672 143.981 272.075C137.534 268.179 136.613 258.438 136.613 250.646C136.613 235.711 136.92 220.777 136.92 205.842C136.92 197.725 136.92 189.608 134.771 181.816C132.315 174.024 127.096 167.206 120.035 164.933C112.667 162.66 103.764 167.206 102.229 174.998C101.615 178.245 102.229 181.816 101.922 185.063C101.615 188.309 100.388 192.206 97.3176 193.18C94.2476 194.154 91.1777 191.881 89.0287 189.608C81.0468 181.491 75.8279 171.102 70.916 160.712C66.0041 150.323 61.0922 139.609 54.0313 130.843C46.9704 122.076 37.1466 114.934 26.0948 114.284C15.3499 113.635 3.68414 120.778 0.921183 132.141C-1.84177 143.505 4.29813 154.868 11.359 164.284C21.4898 177.92 33.4626 189.933 46.6634 199.998C49.1194 201.946 51.5753 203.894 52.4963 206.816C54.0313 212.335 49.4264 217.53 44.2075 219.153C38.6815 221.101 32.5416 220.452 26.4018 221.426C20.5689 222.075 14.122 224.997 11.666 230.841C8.59605 238.958 15.0429 247.724 21.4898 253.244C34.3836 264.607 48.8124 273.373 64.4691 279.542C69.995 281.815 75.8279 283.763 80.4328 287.659C85.0378 291.88 87.8007 299.022 85.0378 304.866C82.2748 310.386 75.2139 312.334 69.381 311.36C63.5481 310.061 58.3292 306.815 52.8033 304.542C42.3655 300.321 28.8577 300.97 22.1038 310.711C17.8059 316.879 17.1919 325.645 19.6479 333.113C21.7968 340.58 26.4018 347.074 31.3137 352.918C48.1984 373.697 69.381 390.58 93.6336 399.346C117.886 407.138 140.297 409.735 164.242 400.32Z" fill="#F5F5F5"/>
<path d="M164.857 436.358C163.322 417.203 159.331 394.476 152.577 370.125C145.823 345.775 136.306 319.477 125.561 292.529C122.799 285.711 120.036 279.217 117.58 272.724C114.817 266.231 112.361 259.737 109.291 253.568C103.458 241.231 97.0109 229.867 90.257 219.153C83.8102 208.439 77.0563 198.699 70.9164 189.608C64.7765 180.517 58.6366 172.076 53.1107 164.608C41.7519 149.674 31.314 138.959 23.6392 131.817C19.9552 128.245 16.8853 125.648 14.7363 123.7C13.8153 122.726 12.8943 122.076 12.2804 121.752C11.6664 121.427 11.3594 121.102 11.3594 121.102C11.3594 121.102 11.6664 121.427 11.9734 121.752C12.5874 122.401 13.2013 123.05 14.1223 124.024C15.9643 125.972 19.0342 128.57 22.7182 132.141C30.0861 139.284 40.5239 150.323 51.8827 165.258C57.4086 172.725 63.5485 181.167 69.6884 190.257C75.8283 199.348 82.2752 209.413 88.7221 220.127C95.169 230.841 101.616 242.205 107.449 254.542C110.519 260.711 112.975 267.205 115.738 273.698C118.501 280.191 120.957 287.01 123.719 293.503C134.464 320.451 143.981 346.424 150.735 370.775C157.489 395.125 161.48 417.527 163.322 436.683" fill="#E0E0E0"/>
<path d="M108.677 253.244C108.677 253.244 108.984 251.945 109.291 249.672C109.598 247.4 110.212 244.153 110.826 240.257C112.054 232.14 112.975 221.101 114.203 208.764C115.431 196.426 116.659 185.387 117.887 177.595C118.501 173.699 119.115 170.452 119.422 168.18C119.729 165.907 120.036 164.608 119.729 164.608C119.729 164.608 119.422 165.907 118.808 167.855C118.194 170.128 117.58 173.375 116.966 177.271C115.431 185.063 114.203 196.426 112.975 208.439C111.747 220.452 110.826 231.491 109.905 239.932C109.598 243.828 109.291 246.75 108.984 249.348C108.677 251.945 108.677 253.244 108.677 253.244Z" fill="#E0E0E0"/>
<path d="M11.0518 233.763C11.0518 233.763 12.5867 234.088 15.0427 234.413C17.4987 234.737 21.1826 235.062 25.7875 235.387C34.6904 236.361 46.9702 238.309 60.4779 240.906C73.6787 243.828 85.9585 246.75 94.5544 249.348C98.8523 250.646 102.536 251.62 104.992 252.27C107.448 252.919 108.676 253.244 108.676 253.244C108.676 253.244 107.448 252.594 104.992 251.62C102.536 250.646 99.1593 249.348 94.8614 248.049C86.2655 245.452 73.9857 242.205 60.4779 239.283C46.9702 236.685 34.6904 234.737 25.4805 234.088C21.1826 234.088 17.4987 233.763 14.7357 233.763C12.2797 233.763 11.0518 233.763 11.0518 233.763Z" fill="#E0E0E0"/>
<path d="M151.349 368.177C151.349 368.177 151.656 367.853 151.963 366.879C152.27 365.905 152.884 364.606 153.498 362.983C155.033 359.736 156.875 354.866 159.331 349.022C163.935 337.334 170.075 320.451 176.522 302.269C182.969 283.763 188.802 267.205 193.407 255.192C195.556 249.348 197.398 244.478 198.626 241.231C199.24 239.608 199.547 238.309 200.161 237.335C200.468 236.361 200.468 236.036 200.468 236.036C200.468 236.036 200.161 236.361 199.854 237.335C199.547 238.309 198.933 239.608 198.319 241.231C196.784 244.478 194.942 249.348 192.486 255.192C187.881 266.88 181.741 283.763 175.294 301.944C168.847 320.451 163.014 337.009 158.41 349.022C156.261 354.866 154.419 359.736 153.191 362.983C152.577 364.606 152.27 365.905 151.656 366.879C151.349 367.528 151.349 368.177 151.349 368.177Z" fill="#E0E0E0"/>
<path d="M21.4902 323.697C21.4902 323.697 21.7972 324.022 22.7182 324.347C23.6392 324.671 24.8672 324.996 26.4022 325.645C29.7791 326.944 34.691 328.567 40.2169 330.516C51.8827 334.412 68.1534 340.256 85.9591 346.749C103.765 353.243 120.036 358.762 132.008 362.658C137.841 364.606 142.753 365.905 146.13 366.879C147.665 367.203 148.893 367.528 150.121 367.853C151.042 368.177 151.349 368.177 151.349 368.177C151.349 368.177 151.042 367.853 150.121 367.528C149.2 367.203 147.972 366.879 146.437 366.229C143.06 364.931 138.148 363.307 132.622 361.359C120.957 357.463 104.686 351.619 86.8801 345.126C69.0744 338.632 52.8037 333.113 40.8309 329.217C34.998 327.269 30.0861 325.97 26.7091 324.996C25.1742 324.671 23.9462 324.347 22.7182 324.022C21.7972 324.022 21.4902 323.697 21.4902 323.697Z" fill="#E0E0E0"/>
<path d="M434.398 361.035L280.287 351.619C279.366 349.346 278.752 348.048 278.752 348.048L237 349.022L223.493 348.048C223.493 348.048 223.186 348.372 222.879 349.346L82.889 352.593C54.9525 352.593 25.481 370.775 25.788 393.826C25.481 415.904 35.6118 439.605 60.4784 438.956L251.429 437.657H442.38C467.554 437.982 474 422.073 474 403.242C476.456 367.853 455.581 361.359 434.398 361.035Z" fill="#455A64"/>
<path d="M77.6699 438.631C77.6699 438.631 77.9769 438.631 78.5909 438.631C79.2049 438.631 80.1259 438.631 81.3539 438.631C83.8098 438.631 87.1868 438.631 91.7917 438.631C101.002 438.631 113.895 438.306 130.166 438.306C162.708 438.306 207.836 437.982 258.49 437.657L257.876 438.306C257.569 433.761 257.262 429.216 256.955 424.345C256.341 414.605 255.727 404.865 255.113 395.774L255.727 396.424C208.757 390.904 167.312 386.359 137.534 382.788C122.798 381.164 110.825 379.541 102.537 378.567C98.5456 377.917 95.1686 377.593 93.0197 377.268C92.0987 377.268 91.1777 376.943 90.5637 376.943C89.9497 376.943 89.6427 376.943 89.6427 376.943C89.6427 376.943 89.9497 376.943 90.5637 376.943C91.1777 376.943 92.0987 376.943 93.0197 377.268C95.1686 377.593 98.5456 377.917 102.537 378.242C110.825 379.216 122.798 380.515 137.534 382.138C167.312 385.385 208.757 389.93 255.727 395.45H256.034V395.774C256.648 404.865 257.262 414.605 257.876 424.345C258.183 429.216 258.49 433.761 258.797 438.306V438.956H258.183C207.836 438.956 162.707 438.956 129.859 439.28C113.588 439.28 100.388 439.28 91.4847 439.28C86.8798 439.28 83.5028 439.28 81.0469 439.28C79.8189 439.28 78.8979 439.28 78.2839 439.28C78.2839 438.956 77.6699 438.631 77.6699 438.631Z" fill="#263238"/>
<path d="M116.965 380.84C116.965 380.84 114.816 379.216 111.44 377.268C108.063 374.995 103.151 372.398 97.3178 370.775C91.4849 369.151 85.9589 368.502 82.275 368.502C78.2841 368.502 75.8281 368.827 75.8281 368.502C75.8281 368.502 76.4421 368.177 77.6701 368.177C78.8981 367.853 80.433 367.853 82.275 367.853C86.2659 367.528 91.7919 368.177 97.6248 369.801C103.458 371.424 108.37 374.346 111.747 376.619C113.281 377.917 114.816 378.891 115.43 379.541C116.658 380.19 116.965 380.515 116.965 380.84Z" fill="#263238"/>
<path d="M354.742 388.941C392.198 379.575 422.499 371.699 422.421 371.35C422.343 371.001 391.916 378.311 354.46 387.677C317.004 397.043 286.703 404.918 286.781 405.267C286.859 405.616 317.286 398.307 354.742 388.941Z" fill="#263238"/>
<path d="M396.638 368.177C396.638 368.502 390.805 369.801 384.665 374.346C378.525 378.567 375.148 384.086 375.148 383.762C375.148 383.762 375.762 382.138 377.297 380.19C378.832 378.242 381.288 375.645 384.358 373.372C387.428 371.099 390.498 369.801 392.954 369.151C395.103 368.177 396.638 367.853 396.638 368.177Z" fill="#263238"/>
<path d="M256.648 400.32L285.199 404.541L285.506 437.657L259.104 437.008L256.648 400.32Z" fill="#B78876"/>
<path d="M285.199 404.541H298.093C300.549 404.541 303.005 405.19 305.154 406.489L311.908 410.709C314.057 412.008 321.425 415.904 323.881 416.553C331.862 419.151 345.063 422.722 347.826 424.995C355.808 431.488 353.352 439.28 349.054 439.93C345.37 440.579 285.199 437.332 285.199 437.332V404.541Z" fill="#007FDB"/>
<path d="M306.689 434.735C306.382 434.735 305.461 430.839 305.154 426.294C304.847 421.423 305.768 417.527 306.075 417.527C306.382 417.527 306.075 421.423 306.382 426.294C306.382 430.839 306.996 434.735 306.689 434.735Z" fill="#263238"/>
<path d="M312.314 426.716C312.292 431.02 312.55 434.51 312.889 434.512C313.228 434.514 313.52 431.027 313.542 426.723C313.564 422.42 313.306 418.929 312.967 418.928C312.628 418.926 312.336 422.413 312.314 426.716Z" fill="#263238"/>
<path d="M318.645 427.687C318.986 432.155 319.536 435.754 319.874 435.725C320.212 435.696 320.21 432.051 319.869 427.582C319.528 423.114 318.978 419.515 318.64 419.544C318.302 419.573 318.304 423.218 318.645 427.687Z" fill="#263238"/>
<path d="M301.162 425.969C301.162 425.969 300.241 425.969 298.4 424.995C296.865 424.345 294.409 423.047 291.953 420.774C291.339 420.125 290.725 419.475 290.111 418.826C289.497 418.177 288.883 417.527 288.576 416.229C288.269 415.255 288.269 413.956 288.883 412.982C289.19 412.333 289.804 412.008 290.418 412.008C291.032 412.008 291.646 412.008 292.26 412.333C296.558 413.956 299.934 418.177 300.855 423.696C301.469 429.216 298.707 434.086 295.023 436.683C294.102 437.332 293.181 437.982 291.953 437.982C291.339 437.982 290.725 437.982 290.418 437.982C289.804 437.657 289.497 437.332 289.19 436.683C288.576 435.384 289.19 434.41 289.497 433.436C290.111 432.462 290.725 431.813 291.032 431.164C293.488 428.891 295.637 427.592 297.479 426.618C299.014 425.969 300.241 425.644 300.241 425.969C300.241 425.969 299.32 426.294 297.786 427.268C296.251 428.242 294.102 429.54 291.953 431.813C291.339 432.462 290.725 433.112 290.418 433.761C290.111 434.41 289.804 435.384 290.111 436.034C290.418 436.683 291.339 437.008 292.26 436.683C293.181 436.358 294.102 436.034 294.716 435.384C298.093 433.112 300.548 428.242 299.934 423.371C299.32 418.501 295.944 414.281 292.26 412.982C291.339 412.657 290.418 412.657 289.804 413.307C289.19 413.956 289.19 414.93 289.497 415.579C290.111 417.203 291.646 418.501 292.567 419.475C297.172 424.67 301.162 425.644 301.162 425.969Z" fill="#263238"/>
<path d="M349.361 439.93C349.361 439.93 350.282 439.28 350.896 437.982C351.51 436.358 351.51 433.761 349.975 431.164C348.44 428.566 345.677 426.294 341.993 424.67C338.309 423.371 334.011 422.722 329.713 421.099C320.81 418.177 313.443 414.281 308.224 410.709C305.768 409.086 303.619 407.463 302.391 406.489C301.163 405.515 300.242 404.865 300.549 404.541C300.549 404.541 301.47 404.865 302.698 406.164C304.233 407.138 306.075 408.437 308.531 410.06C313.75 413.307 321.117 417.203 329.713 419.8C334.011 421.099 338.309 421.748 342.3 423.371C345.984 424.67 349.054 427.268 350.589 430.19C352.124 433.112 352.124 436.034 351.203 437.657C350.896 438.631 350.282 438.956 349.975 439.28C349.668 439.93 349.361 440.254 349.361 439.93Z" fill="#263238"/>
<path d="M224.413 3.2467C215.51 6.81809 205.38 21.4283 203.538 31.1684C202.003 39.9346 204.152 49.0254 205.073 57.7915C206.301 66.5576 205.994 76.6224 200.468 83.4405C197.091 87.6613 192.179 90.2586 188.188 93.83C182.355 99.0248 178.978 106.817 178.364 114.609C177.75 122.726 180.513 130.843 185.425 136.687C178.671 138.31 174.373 145.453 174.373 152.596C174.68 159.738 178.671 166.232 184.197 170.452C189.723 174.673 196.477 176.621 202.924 178.245C209.984 179.543 217.352 180.193 224.106 177.595C232.088 174.673 237.921 167.53 244.061 161.686C251.736 154.544 260.639 148.375 266.164 139.284C272.611 128.57 273.532 115.258 273.532 102.596C273.532 76.6224 270.155 50.9734 264.323 25.649" fill="#263238"/>
<path d="M338.923 181.816L388.042 271.425C394.182 282.464 394.489 296.1 389.27 307.464C383.13 320.775 369.929 328.892 356.114 328.567L281.208 326.619L279.059 297.724L345.062 284.087L300.241 202.92L338.923 181.816Z" fill="#B78876"/>
<path d="M157.489 336.035L226.563 355.19L228.097 333.437L164.55 294.477L210.599 203.244L171.61 182.141L122.798 272.399C111.132 295.775 122.184 324.347 145.823 332.463L157.489 336.035Z" fill="#B78876"/>
<path d="M318.354 239.607L365.324 213.309C365.324 213.309 357.342 195.777 345.062 177.92C330.327 156.492 307.916 141.881 282.129 136.037L228.097 137.011C220.423 137.985 213.976 139.609 208.757 141.881V141.557C179.285 148.375 147.051 216.231 147.051 216.231L190.03 239.932L190.951 247.075C192.179 256.49 196.17 265.256 202.31 272.399L190.03 359.086L329.099 361.684L311.293 299.672L318.354 239.607Z" fill="#007FDB"/>
<path d="M203.231 272.724C203.231 272.724 202.31 272.075 201.082 271.101C199.854 269.802 198.012 268.179 196.477 265.581C193.1 260.386 189.723 251.62 190.644 241.88C191.258 237.01 192.486 232.789 193.714 228.569C194.942 224.673 196.17 221.101 197.398 218.179C198.626 215.257 199.547 212.984 200.161 211.361C200.775 209.738 201.389 208.764 201.389 208.764C201.389 208.764 201.082 209.738 200.468 211.361C199.854 213.309 198.933 215.582 198.012 218.504C197.091 221.426 195.863 224.997 194.635 228.893C193.407 232.789 192.179 237.335 191.565 241.88C191.258 246.426 191.872 250.971 192.793 255.192C193.714 259.088 195.556 262.334 197.091 264.932C200.468 270.451 203.538 272.724 203.231 272.724Z" fill="#263238"/>
<path d="M199.978 188.331C203.703 193.669 207.054 197.738 207.464 197.418C207.873 197.099 205.185 192.513 201.46 187.174C197.735 181.836 194.383 177.768 193.974 178.087C193.565 178.407 196.253 182.993 199.978 188.331Z" fill="#FAFAFA"/>
<path d="M221.767 162.854C226.506 160.061 230.148 157.416 229.901 156.947C229.653 156.477 225.61 158.36 220.87 161.152C216.13 163.945 212.489 166.59 212.736 167.06C212.984 167.53 217.027 165.647 221.767 162.854Z" fill="#FAFAFA"/>
<path d="M175.463 204.56C175.066 209.923 175.156 214.305 175.663 214.347C176.17 214.389 176.902 210.075 177.299 204.712C177.696 199.348 177.606 194.967 177.099 194.925C176.592 194.883 175.86 199.197 175.463 204.56Z" fill="#FAFAFA"/>
<path d="M217.887 238.849C222.478 236.142 225.998 233.566 225.75 233.096C225.503 232.626 221.58 234.44 216.99 237.148C212.399 239.855 208.879 242.431 209.126 242.901C209.374 243.371 213.296 241.557 217.887 238.849Z" fill="#FAFAFA"/>
<path d="M236.552 201.385C239.923 197.356 242.346 193.8 241.965 193.444C241.584 193.087 238.543 196.065 235.173 200.094C231.802 204.123 229.379 207.678 229.76 208.035C230.141 208.391 233.182 205.414 236.552 201.385Z" fill="#FAFAFA"/>
<path d="M268.711 198.38C271.455 202.477 274.016 205.546 274.431 205.235C274.846 204.925 272.958 201.351 270.215 197.254C267.471 193.158 264.91 190.088 264.495 190.399C264.08 190.71 265.967 194.283 268.711 198.38Z" fill="#FAFAFA"/>
<path d="M255.354 231.191C255.929 237.438 256.806 242.459 257.313 242.407C257.819 242.355 257.763 237.249 257.187 231.002C256.611 224.756 255.734 219.735 255.228 219.787C254.722 219.839 254.778 224.945 255.354 231.191Z" fill="#FAFAFA"/>
<path d="M238.758 266.217C241.363 271.046 243.833 274.744 244.275 274.477C244.717 274.21 242.963 270.08 240.358 265.252C237.753 260.424 235.283 256.726 234.842 256.992C234.4 257.259 236.153 261.389 238.758 266.217Z" fill="#FAFAFA"/>
<path d="M282.032 264.972C285.355 260.436 287.722 256.491 287.32 256.162C286.918 255.833 283.898 259.243 280.576 263.779C277.253 268.316 274.886 272.26 275.288 272.59C275.69 272.919 278.709 269.509 282.032 264.972Z" fill="#FAFAFA"/>
<path d="M305.767 237.335C305.46 237.659 300.855 235.711 295.943 231.491C291.031 227.27 287.961 223.049 288.268 222.725C288.575 222.4 292.259 226.296 296.864 230.192C301.776 234.088 306.074 237.01 305.767 237.335Z" fill="#FAFAFA"/>
<path d="M325.129 212.012C331.061 211.858 335.86 211.297 335.848 210.759C335.835 210.221 331.016 209.91 325.083 210.064C319.151 210.218 314.352 210.779 314.364 211.317C314.377 211.855 319.196 212.166 325.129 212.012Z" fill="#FAFAFA"/>
<g opacity="0.3">
<g opacity="0.3">
<g opacity="0.3">
<path opacity="0.3" d="M343.528 170.128C348.44 178.245 349.054 188.634 345.677 197.4C342.3 206.166 334.318 212.66 325.722 214.608C316.819 216.556 307.303 213.309 300.856 206.816C299.321 205.192 298.093 203.569 295.944 202.595C294.102 201.621 291.953 201.621 290.111 201.296C283.05 199.997 276.603 194.803 273.84 187.66C271.077 180.517 271.998 172.076 275.989 165.907L343.528 170.128Z" fill="black"/>
</g>
</g>
</g>
<path d="M182.663 380.19L174.681 283.438L343.835 282.789L333.09 380.839L182.663 380.19Z" fill="#263238"/>
<path d="M259.411 346.1C265.345 346.1 270.156 341.012 270.156 334.736C270.156 328.46 265.345 323.373 259.411 323.373C253.477 323.373 248.666 328.46 248.666 334.736C248.666 341.012 253.477 346.1 259.411 346.1Z" fill="#FAFAFA"/>
<path d="M262.174 170.452C276.296 170.128 287.962 157.79 287.962 142.855L289.19 31.4931C289.19 26.9477 286.12 23.0517 281.822 22.4023L237.308 10.7142C223.186 9.0908 213.669 27.5971 212.748 42.8566C211.827 59.7395 211.213 80.1938 213.055 92.5313C216.739 117.856 235.159 120.778 235.159 120.778C235.159 120.778 235.159 130.518 235.159 142.531C235.159 158.115 247.438 170.777 262.174 170.452Z" fill="#B78876"/>
<path d="M221.958 59.0902C221.958 60.7135 223.186 62.3369 225.028 62.3369C226.563 62.3369 228.098 61.0382 228.098 59.4148C228.098 57.7915 226.87 56.1681 225.028 56.1681C223.493 55.8435 221.958 57.1421 221.958 59.0902Z" fill="#263238"/>
<path d="M216.739 53.2461C217.046 53.5708 219.502 51.9474 222.572 51.9474C225.949 51.9474 228.405 53.5708 228.712 53.2461C229.019 52.9214 228.405 52.2721 227.484 51.6227C226.563 50.9734 224.721 49.9994 222.572 49.9994C220.423 49.9994 218.888 50.6487 217.967 51.6227C217.046 52.2721 216.739 53.2461 216.739 53.2461Z" fill="#263238"/>
<path d="M253.271 59.0902C253.271 60.7135 254.499 62.3369 256.341 62.3369C257.876 62.3369 259.411 61.0382 259.411 59.4148C259.411 57.7915 258.183 56.1681 256.341 56.1681C254.499 55.8435 253.271 57.1421 253.271 59.0902Z" fill="#263238"/>
<path d="M249.281 53.8954C249.588 54.2201 252.044 52.5967 255.114 52.5967C258.49 52.5967 260.946 54.2201 261.253 53.8954C261.56 53.5707 260.946 52.9214 260.025 52.272C259.104 51.6227 257.263 50.6487 255.114 50.6487C252.965 50.6487 251.43 51.298 250.509 52.272C249.281 52.9214 248.974 53.8954 249.281 53.8954Z" fill="#263238"/>
<path d="M237.308 79.8691C237.308 79.5445 235.159 79.2198 232.089 78.8951C231.168 78.8951 230.554 78.5705 230.247 77.9211C229.94 77.2718 230.554 76.2978 230.861 75.3237C231.782 73.051 232.396 70.7783 233.317 68.5056C236.694 58.7655 239.15 50.9734 238.843 50.9734C238.536 50.9734 235.466 58.4408 232.089 68.181C231.168 70.4537 230.554 72.7264 229.633 74.9991C229.326 75.9731 228.712 77.2718 229.326 78.5705C229.633 79.2198 230.247 79.8691 230.554 79.8691C231.168 80.1938 231.475 80.1938 232.089 80.1938C235.159 79.8691 237.308 79.8691 237.308 79.8691Z" fill="#263238"/>
<path d="M234.852 120.778C234.852 120.778 250.815 121.752 266.779 111.687C266.779 111.687 259.104 128.895 235.159 126.622L234.852 120.778Z" fill="#AA6550"/>
<path d="M238.536 87.9859C239.763 86.3626 241.912 85.3885 243.754 85.7132C245.289 85.7132 246.517 86.6872 247.438 87.9859C248.359 89.2846 248.359 90.908 247.745 92.2066C246.824 93.5053 244.982 93.83 243.447 93.5053C241.912 93.1806 240.684 91.882 239.15 90.908C238.843 90.5833 238.536 90.2586 238.229 89.9339C238.229 88.9599 238.229 88.6353 238.536 87.9859Z" fill="#AA6550"/>
<path d="M246.825 82.1418C246.211 82.1418 246.211 86.0379 243.141 88.6353C240.071 91.2326 236.387 90.908 236.387 91.5573C236.387 91.882 237.308 92.2067 238.843 92.2067C240.378 92.2067 242.834 91.882 244.676 89.934C246.518 88.3106 247.439 86.0379 247.439 84.4145C247.439 83.1159 247.132 82.1418 246.825 82.1418Z" fill="#263238"/>
<path d="M247.745 48.0514C248.052 49.0254 251.429 48.7007 255.113 49.0254C259.104 49.3501 262.174 50.6488 262.481 49.6748C262.788 49.3501 262.174 48.3761 260.946 47.4021C259.718 46.428 257.569 45.7787 255.42 45.454C252.964 45.1294 251.122 45.454 249.587 46.1034C248.359 46.7527 247.438 47.4021 247.745 48.0514Z" fill="#263238"/>
<path d="M217.353 47.0774C217.967 47.7267 220.116 47.0774 222.879 47.0774C225.642 47.0774 227.791 47.7267 228.405 46.7527C228.712 46.428 228.405 45.454 227.177 44.8047C226.256 44.1553 224.414 43.506 222.572 43.506C220.73 43.506 219.195 44.1553 218.274 45.1293C217.353 45.7787 217.046 46.428 217.353 47.0774Z" fill="#263238"/>
<path d="M346.905 159.414C342.607 151.297 332.783 146.102 332.783 137.011C332.783 131.492 336.774 126.297 337.081 120.778C337.695 109.414 323.88 103.57 320.196 92.856C316.819 83.1158 322.652 72.4017 320.503 62.3369C318.047 49.9993 307.609 45.1293 298.706 37.0125C295.023 33.4411 292.26 28.8957 289.804 24.3503C289.497 23.701 289.19 23.0516 288.883 22.7269C283.05 12.3375 272.612 5.19469 261.253 3.89601C248.359 -0.974065 234.852 0.649292 229.019 2.27265C223.493 3.24666 217.967 5.84403 214.283 10.7141C210.292 15.2595 208.45 22.0776 209.985 27.9217C211.52 33.7658 217.353 38.3112 223.186 37.6618C227.484 37.0125 231.782 33.7658 236.08 35.0645C240.07 36.3631 242.219 41.5579 246.517 42.2072C250.508 42.8566 254.192 39.2852 258.183 38.6358C262.788 38.3112 266.779 42.2072 268.621 46.428C269.542 48.0513 270.156 49.9993 270.463 51.6227C273.84 69.4796 280.287 77.5964 275.682 87.9859C273.226 93.5053 269.235 98.3754 268.621 104.544C267.086 118.505 284.278 128.57 283.357 142.531C283.05 148.375 279.366 153.57 277.217 159.089C273.226 170.452 277.217 184.738 286.734 191.881C291.646 195.452 298.092 197.4 303.618 195.127C304.232 194.803 304.846 194.478 305.46 194.153C308.53 197.075 312.521 199.348 316.512 200.322C326.643 202.595 337.081 196.426 343.221 187.66C349.054 179.868 351.817 168.18 346.905 159.414Z" fill="#263238"/>
<path d="M305.767 194.478C305.767 194.154 309.144 194.153 314.056 191.556C316.512 190.257 319.582 187.985 322.038 184.738C324.494 181.491 326.95 177.271 327.871 172.076C328.792 166.881 327.871 160.712 325.108 155.193C322.345 149.674 317.433 145.128 311.293 142.531C308.223 140.907 304.846 139.609 302.391 136.362C299.935 133.44 299.014 128.895 299.628 124.998C300.242 121.102 301.777 117.206 303.618 113.635C305.46 110.064 307.302 106.492 308.53 102.596C309.758 98.7001 309.758 94.804 308.223 91.2327C306.688 87.6613 304.232 84.7392 301.777 81.8172C299.321 78.8951 296.558 76.2978 294.409 73.3757C291.953 70.4537 290.418 67.207 288.883 63.6356C286.12 56.8175 284.892 49.9994 283.971 43.8306C282.743 37.6619 281.822 31.8178 280.287 26.623C277.217 16.2336 271.384 9.41546 266.779 6.49342C261.867 3.2467 258.49 3.57138 258.49 3.2467C258.49 3.2467 258.797 3.2467 259.104 3.2467C259.411 3.2467 260.025 3.2467 260.946 3.57138C262.481 3.89605 264.63 4.54539 267.086 6.16875C269.542 7.7921 272.305 10.0648 275.068 13.6362C277.524 16.8829 279.98 21.4283 281.515 26.623C283.05 31.8178 284.278 37.6619 285.506 43.8306C286.734 49.9994 287.962 56.8175 290.418 63.3109C291.646 66.5576 293.488 69.8043 295.637 72.4017C297.786 75.3238 300.549 77.9211 303.004 80.8432C305.46 83.7652 308.223 86.6873 309.758 90.5833C311.293 94.4794 311.293 99.0248 310.065 103.245C307.609 111.362 302.084 117.531 301.163 125.323C300.549 128.895 301.163 132.791 303.311 135.388C305.46 137.985 308.837 139.609 311.6 140.907C314.67 142.206 317.74 144.154 320.196 146.427C322.652 148.699 324.494 151.622 326.029 154.219C328.792 160.063 329.713 166.232 328.792 171.751C327.871 177.271 325.415 181.816 322.652 185.063C319.889 188.309 316.819 190.582 314.363 191.881C311.6 193.179 309.451 193.829 307.916 194.153C307.302 194.153 306.688 194.154 306.074 194.478C305.767 194.478 305.767 194.478 305.767 194.478Z" fill="#455A64"/>
</g>
<defs>
<clipPath id="clip0_1099_432">
<rect width="474" height="440.254" fill="white"/>
</clipPath>
</defs>
</svg>
