<svg width="36" height="37" viewBox="0 0 36 37" fill="none" xmlns="http://www.w3.org/2000/svg">
<path d="M5.80403 25.8041C5.18589 24.739 4.7049 23.6 4.3725 22.4142C5.09134 22.0472 5.69464 21.4885 6.11566 20.7999C6.53668 20.1113 6.75902 19.3196 6.75806 18.5125C6.75711 17.7054 6.53291 16.9143 6.11026 16.2267C5.68761 15.5391 5.08299 14.9818 4.36329 14.6165C5.0188 12.2318 6.27059 10.0532 8.00074 8.28603C8.67823 8.725 9.46395 8.96795 10.271 8.98802C11.078 9.00808 11.8748 8.80447 12.5733 8.39972C13.2717 7.99497 13.8446 7.40486 14.2285 6.6947C14.6123 5.98454 14.7922 5.18202 14.7482 4.37595C17.142 3.75334 19.6549 3.75044 22.0501 4.36751C22.009 5.17369 22.1917 5.97553 22.5781 6.68429C22.9644 7.39305 23.5393 7.9811 24.2392 8.38337C24.9391 8.78563 25.7366 8.98643 26.5435 8.96354C27.3504 8.94065 28.1352 8.69496 28.8111 8.25367C29.6568 9.11277 30.4079 10.0901 31.0396 11.1815C31.6728 12.2728 32.1471 13.411 32.4712 14.5713C31.7523 14.9383 31.149 15.497 30.728 16.1856C30.307 16.8742 30.0847 17.6659 30.0856 18.473C30.0866 19.2801 30.3108 20.0712 30.7334 20.7588C31.1561 21.4464 31.7607 22.0037 32.4804 22.369C31.8249 24.7537 30.5731 26.9323 28.8429 28.6995C28.1654 28.2605 27.3797 28.0176 26.5727 27.9975C25.7657 27.9774 24.9689 28.181 24.2704 28.5858C23.5719 28.9905 22.9991 29.5807 22.6152 30.2908C22.2314 31.001 22.0515 31.8035 22.0955 32.6096C19.7017 33.2322 17.1888 33.2351 14.7936 32.618C14.8347 31.8118 14.652 31.01 14.2656 30.3012C13.8792 29.5925 13.3043 29.0044 12.6045 28.6021C11.9046 28.1999 11.1071 27.9991 10.3002 28.022C9.4933 28.0449 8.70846 28.2905 8.03254 28.7318C7.16928 27.8537 6.42051 26.87 5.80403 25.8041ZM14.0586 26.077C15.6141 26.971 16.7847 28.4076 17.3462 30.1115C18.074 30.1789 18.8046 30.1793 19.5322 30.1096C20.0887 28.4037 21.2554 26.9634 22.8086 26.0649C24.3607 25.1637 26.1909 24.8674 27.948 25.2329C28.3699 24.6373 28.7335 24.0023 29.0358 23.3383C27.8371 22.0035 27.1733 20.2732 27.1718 18.4791C27.169 16.6416 27.8517 14.9241 29.0207 13.6142C28.7142 12.9513 28.3471 12.3182 27.924 11.723C26.1692 12.0936 24.3393 11.8036 22.785 10.9085C21.2296 10.0145 20.0589 8.57788 19.4975 6.87398C18.7697 6.80658 18.0391 6.80625 17.3115 6.87593C16.755 8.5818 15.5882 10.0221 14.0351 10.9206C12.483 11.8218 10.6528 12.1181 8.89572 11.7526C8.47455 12.3486 8.11032 12.983 7.80783 13.6472C9.00657 14.982 9.67034 16.7123 9.67185 18.5064C9.6747 20.3439 8.99196 22.0614 7.82295 23.3713C8.12946 24.0342 8.49659 24.6673 8.91965 25.2625C10.6745 24.8919 12.5044 25.1819 14.0586 26.077ZM18.4286 22.8677C17.2683 22.8696 16.1548 22.4104 15.3331 21.5912C14.5113 20.772 14.0486 19.6599 14.0468 18.4996C14.045 17.3392 14.5042 16.2257 15.3234 15.404C16.1426 14.5822 17.2547 14.1196 18.415 14.1178C19.5754 14.116 20.6889 14.5752 21.5106 15.3944C22.3324 16.2135 22.795 17.3256 22.7968 18.486C22.7986 19.6463 22.3394 20.7598 21.5202 21.5815C20.701 22.4033 19.589 22.8659 18.4286 22.8677ZM18.4241 19.9511C18.8109 19.9505 19.1816 19.7963 19.4546 19.5223C19.7277 19.2484 19.8808 18.8773 19.8802 18.4905C19.8796 18.1037 19.7253 17.733 19.4514 17.46C19.1775 17.1869 18.8063 17.0338 18.4196 17.0344C18.0328 17.035 17.6621 17.1892 17.389 17.4632C17.116 17.7371 16.9629 18.1082 16.9635 18.495C16.9641 18.8818 17.1183 19.2525 17.3922 19.5256C17.6662 19.7986 18.0373 19.9517 18.4241 19.9511Z" fill="#959595"/>
</svg>
