<svg width="36" height="37" viewBox="0 0 36 37" fill="none" xmlns="http://www.w3.org/2000/svg">
<path d="M10.7851 8.29757L10.7783 3.92258C10.7777 3.5358 10.9308 3.16463 11.2038 2.89072C11.4769 2.6168 11.8476 2.46258 12.2344 2.46198L23.901 2.44383C24.2878 2.44323 24.659 2.5963 24.9329 2.86936C25.2068 3.14243 25.361 3.51312 25.3616 3.89989L25.3684 8.27489L31.2017 8.26582C31.5885 8.26521 31.9597 8.41828 32.2336 8.69135C32.5075 8.96441 32.6617 9.33511 32.6623 9.72188L32.6941 30.1385C32.6947 30.5253 32.5416 30.8965 32.2686 31.1704C31.9955 31.4443 31.6248 31.5985 31.238 31.5991L4.98807 31.6399C4.6013 31.6405 4.23013 31.4875 3.95621 31.2144C3.68229 30.9414 3.52807 30.5707 3.52747 30.1839L3.49572 9.76724C3.49511 9.38047 3.64818 9.0093 3.92125 8.73538C4.19431 8.46147 4.56501 8.30725 4.95178 8.30664L10.7851 8.29757ZM13.7199 19.9597L6.42826 19.971L6.44187 28.721L29.7752 28.6847L29.7616 19.9347L22.4699 19.9461L22.4767 24.3211L13.7267 24.3347L13.7199 19.9597ZM29.748 11.1847L6.41465 11.221L6.42372 17.0544L13.7154 17.043L13.7108 14.1264L22.4608 14.1128L22.4654 17.0294L29.757 17.0181L29.748 11.1847ZM16.632 17.0385L16.6388 21.4135L19.5555 21.4089L19.5487 17.034L16.632 17.0385ZM13.6972 5.37637L13.7018 8.29303L22.4518 8.27943L22.4472 5.36276L13.6972 5.37637Z" fill="#959595"/>
</svg>
