<svg width="176" height="175" viewBox="0 0 176 175" fill="none" xmlns="http://www.w3.org/2000/svg">
<rect x="0.799316" width="174.468" height="174.468" rx="6.39078" fill="#E3EDFF"/>
<path d="M84.872 103.305H68.5081V53.6488H108.007V77.9125C108.007 78.2228 108.261 78.4767 108.571 78.4767H112.521C112.832 78.4767 113.086 78.2228 113.086 77.9125V50.8274C113.086 49.5789 112.077 48.5703 110.829 48.5703H65.6868C64.4383 48.5703 63.4297 49.5789 63.4297 50.8274V106.126C63.4297 107.375 64.4383 108.383 65.6868 108.383H84.872C85.1824 108.383 85.4363 108.129 85.4363 107.819V103.869C85.4363 103.559 85.1824 103.305 84.872 103.305Z" fill="url(#paint0_linear_1087_514)"/>
<g clip-path="url(#clip0_1087_514)">
<path d="M99.6494 70.4844L88.1494 89.5185L76.6494 70.4844H78.5182L88.1494 86.4254L97.7806 70.4844H99.6494ZM88.1494 74.8129L85.4908 70.4844H81.4584L88.1494 81.559L94.8404 70.4844H90.808L88.1494 74.8129Z" fill="#06246A"/>
</g>
<path d="M77.6786 145.129L79.7556 139.133H80.8041L78.108 146.402H77.2592L74.5681 139.133H75.6116L77.6786 145.129ZM84.8333 145.868C84.4738 146.291 83.9462 146.502 83.2505 146.502C82.6747 146.502 82.2353 146.336 81.9324 146.003C81.6329 145.667 81.4814 145.171 81.4781 144.515V141H82.4018V144.49C82.4018 145.309 82.7346 145.718 83.4003 145.718C84.106 145.718 84.5753 145.455 84.8083 144.929V141H85.732V146.402H84.8532L84.8333 145.868ZM89.3817 146.502C88.6494 146.502 88.0536 146.263 87.5943 145.783C87.1349 145.301 86.9053 144.657 86.9053 143.851V143.681C86.9053 143.145 87.0068 142.668 87.2098 142.248C87.4162 141.826 87.7025 141.496 88.0686 141.26C88.4381 141.02 88.8375 140.9 89.2669 140.9C89.9692 140.9 90.5151 141.132 90.9045 141.594C91.2939 142.057 91.4887 142.719 91.4887 143.581V143.966H87.8289C87.8423 144.498 87.997 144.929 88.2933 145.259C88.5928 145.585 88.9723 145.748 89.4316 145.748C89.7578 145.748 90.0341 145.682 90.2604 145.549C90.4868 145.415 90.6848 145.239 90.8546 145.019L91.4188 145.459C90.9661 146.154 90.2871 146.502 89.3817 146.502ZM89.2669 141.659C88.8941 141.659 88.5812 141.796 88.3282 142.069C88.0753 142.338 87.9188 142.718 87.8589 143.207H90.565V143.137C90.5384 142.668 90.4119 142.305 90.1855 142.049C89.9592 141.789 89.653 141.659 89.2669 141.659ZM92.5821 145.918C92.5821 145.758 92.6287 145.625 92.7219 145.519C92.8184 145.412 92.9615 145.359 93.1513 145.359C93.341 145.359 93.4841 145.412 93.5806 145.519C93.6805 145.625 93.7304 145.758 93.7304 145.918C93.7304 146.071 93.6805 146.199 93.5806 146.302C93.4841 146.406 93.341 146.457 93.1513 146.457C92.9615 146.457 92.8184 146.406 92.7219 146.302C92.6287 146.199 92.5821 146.071 92.5821 145.918ZM96.2119 141V147.026C96.2119 148.065 95.7409 148.584 94.7989 148.584C94.5958 148.584 94.4078 148.554 94.2347 148.494V147.755C94.3412 147.782 94.481 147.795 94.6541 147.795C94.8605 147.795 95.0169 147.739 95.1234 147.626C95.2333 147.516 95.2882 147.323 95.2882 147.046V141H96.2119ZM95.1933 139.567C95.1933 139.421 95.2383 139.296 95.3281 139.193C95.4213 139.086 95.5561 139.033 95.7325 139.033C95.9123 139.033 96.0488 139.085 96.142 139.188C96.2352 139.291 96.2818 139.417 96.2818 139.567C96.2818 139.717 96.2352 139.842 96.142 139.942C96.0488 140.042 95.9123 140.091 95.7325 140.091C95.5528 140.091 95.418 140.042 95.3281 139.942C95.2383 139.842 95.1933 139.717 95.1933 139.567ZM100.85 144.969C100.85 144.72 100.755 144.527 100.566 144.39C100.379 144.25 100.051 144.131 99.582 144.031C99.116 143.931 98.7449 143.811 98.4686 143.671C98.1957 143.531 97.9926 143.365 97.8595 143.172C97.7297 142.979 97.6648 142.749 97.6648 142.483C97.6648 142.04 97.8512 141.666 98.224 141.36C98.6001 141.053 99.0794 140.9 99.6619 140.9C100.274 140.9 100.77 141.058 101.15 141.375C101.533 141.691 101.724 142.095 101.724 142.588H100.795C100.795 142.335 100.687 142.117 100.471 141.934C100.258 141.751 99.9881 141.659 99.6619 141.659C99.3257 141.659 99.0627 141.732 98.873 141.879C98.6833 142.025 98.5884 142.217 98.5884 142.453C98.5884 142.676 98.6766 142.844 98.853 142.957C99.0295 143.07 99.3473 143.179 99.8067 143.282C100.269 143.385 100.644 143.508 100.93 143.651C101.216 143.794 101.428 143.968 101.564 144.171C101.704 144.37 101.774 144.615 101.774 144.905C101.774 145.387 101.581 145.775 101.195 146.068C100.809 146.357 100.308 146.502 99.6918 146.502C99.2591 146.502 98.8763 146.426 98.5435 146.273C98.2106 146.119 97.9493 145.906 97.7596 145.633C97.5732 145.357 97.48 145.059 97.48 144.74H98.4037C98.4203 145.049 98.5435 145.296 98.7732 145.479C99.0062 145.658 99.3124 145.748 99.6918 145.748C100.041 145.748 100.321 145.678 100.531 145.539C100.744 145.395 100.85 145.206 100.85 144.969Z" fill="black"/>
<defs>
<linearGradient id="paint0_linear_1087_514" x1="87.9818" y1="57.2099" x2="89.0061" y2="104.379" gradientUnits="userSpaceOnUse">
<stop stop-color="#06246A"/>
<stop offset="1" stop-color="#081B49"/>
</linearGradient>
<clipPath id="clip0_1087_514">
<rect width="23" height="22" fill="white" transform="translate(76.6494 69)"/>
</clipPath>
</defs>
</svg>
