<svg width="36" height="37" viewBox="0 0 36 37" fill="none" xmlns="http://www.w3.org/2000/svg">
<path d="M17.5872 3.90896C25.6416 3.89643 32.1807 10.4152 32.1932 18.4696C32.2057 26.524 25.687 33.0631 17.6326 33.0756C9.57822 33.0881 3.03912 26.5693 3.02659 18.515C3.01406 10.4606 9.53286 3.92149 17.5872 3.90896ZM17.594 8.28395C11.9561 8.29272 7.39281 12.8702 7.40158 18.5082C7.40578 21.209 8.4596 23.6646 10.1745 25.4878L10.4024 25.7208L12.4613 23.657C11.1409 22.3378 10.3214 20.5161 10.3182 18.5036C10.312 14.4772 13.5721 11.2069 17.5986 11.2006C18.2519 11.1996 18.8849 11.2847 19.4875 11.4456L21.7633 9.16414C20.4893 8.59737 19.0786 8.28164 17.594 8.28395ZM26.9251 14.3113L24.6522 16.5928C24.8135 17.1948 24.9005 17.8276 24.9016 18.4809C24.9047 20.4934 24.0909 22.3176 22.7746 23.6409L24.8399 25.6998C26.6832 23.8492 27.8226 21.2954 27.8182 18.4764C27.8159 16.9918 27.4973 15.5821 26.9251 14.3113ZM23.7833 10.2329L18.3595 15.6721C18.1188 15.6084 17.8664 15.5752 17.6054 15.5756C15.9939 15.5781 14.6907 16.8854 14.6932 18.4968C14.6957 20.1083 16.003 21.4114 17.6144 21.4089C19.2259 21.4064 20.5291 20.0992 20.5266 18.4877C20.5262 18.2267 20.4922 17.9745 20.4277 17.7339L25.8501 12.2917L23.7848 10.2329L23.7833 10.2329Z" fill="#06246A"/>
</svg>
