<svg width="36" height="36" viewBox="0 0 36 36" fill="none" xmlns="http://www.w3.org/2000/svg">
<path d="M17.9555 32.1612C9.90114 32.1737 3.36233 25.8415 3.35016 18.0172C3.34029 11.6734 7.62381 6.29757 13.5375 4.48354L13.5421 7.49254C11.0367 8.48533 8.96411 10.2929 7.67892 12.6061C6.39373 14.9192 5.97579 17.5943 6.49659 20.1735C7.0174 22.7528 8.44459 25.0761 10.534 26.746C12.6235 28.4158 15.2453 29.3285 17.9511 29.3279C20.2754 29.3242 22.5456 28.6465 24.471 27.3815C26.3963 26.1165 27.8891 24.322 28.758 22.2277L31.8555 22.2229C30.0065 27.9732 24.4859 32.151 17.9555 32.1612ZM32.4461 19.3886L16.4773 19.4135L16.4532 3.90101C16.9329 3.85351 17.42 3.82867 17.9114 3.8279C25.9658 3.81538 32.5046 10.1476 32.5168 17.9719C32.5175 18.4493 32.4935 18.9225 32.4461 19.3886ZM19.3743 6.7468L19.3896 16.5756L29.5075 16.5599C29.179 14.0637 28.005 11.7446 26.1704 9.96798C24.3359 8.19136 21.945 7.05813 19.3743 6.7468Z" fill="#959595"/>
</svg>
