<svg width="36" height="37" viewBox="0 0 36 37" fill="none" xmlns="http://www.w3.org/2000/svg">
<path d="M9.49342 6.55229L11.1698 8.93989C9.13941 10.366 7.61654 12.4024 6.82246 14.7532C6.02838 17.1039 6.00444 19.6466 6.75414 22.0119C7.50383 24.3772 8.98811 26.4418 10.9913 27.906C12.9946 29.3701 15.4124 30.1574 17.8937 30.1535C20.3749 30.1497 22.7903 29.3548 24.789 27.8845C26.7877 26.4141 28.2655 24.3449 29.0078 21.9773C29.7502 19.6097 29.7183 17.0671 28.9169 14.7188C28.1155 12.3705 26.5864 10.3389 24.5515 8.91908L26.2205 6.52627C28.1446 7.86703 29.7165 9.65255 30.8026 11.731C31.8887 13.8095 32.4569 16.1196 32.4588 18.4647C32.4714 26.5191 25.9526 33.0582 17.8982 33.0707C9.84385 33.0832 3.30474 26.5644 3.29222 18.5101C3.28688 16.1649 3.84788 13.8532 4.92751 11.7713C6.00715 9.68942 7.5735 7.89902 9.49342 6.55229ZM16.4172 18.4897L16.3945 3.90634L19.3112 3.90181L19.3339 18.4851L16.4172 18.4897Z" fill="#06246A"/>
</svg>
