<svg width="36" height="37" viewBox="0 0 36 37" fill="none" xmlns="http://www.w3.org/2000/svg">
<path d="M28.0016 31.6032L7.58492 31.635C7.19815 31.6356 6.82698 31.4825 6.55306 31.2095C6.27915 30.9364 6.12493 30.5657 6.12432 30.1789L6.10391 17.0539L1.72892 17.0607L16.7678 3.3465C17.0359 3.10178 17.3857 2.96585 17.7487 2.96528C18.1117 2.96472 18.4619 3.09956 18.7307 3.34345L33.8122 17.0108L29.4372 17.0176L29.4576 30.1426C29.4582 30.5294 29.3052 30.9006 29.0321 31.1745C28.759 31.4484 28.3883 31.6026 28.0016 31.6032ZM9.03872 28.7161L26.5387 28.6888L26.5164 14.3345L17.754 6.39434L9.01639 14.3617L9.03872 28.7161ZM17.7796 22.8691C16.8127 22.8706 15.8848 22.4879 15.2 21.8053C14.5152 21.1226 14.1296 20.1959 14.1281 19.229C14.1266 18.262 14.5093 17.3341 15.192 16.6493C15.8746 15.9645 16.8014 15.579 17.7683 15.5775C18.7352 15.576 19.6632 15.9586 20.3479 16.6413C21.0327 17.3239 21.4183 18.2507 21.4198 19.2176C21.4213 20.1845 21.0386 21.1125 20.356 21.7973C19.6733 22.4821 18.7466 22.8676 17.7796 22.8691Z" fill="#959595"/>
</svg>
