<svg width="22" height="22" viewBox="0 0 22 22" fill="none" xmlns="http://www.w3.org/2000/svg">
<g clip-path="url(#clip0_266_78)">
<path d="M15.4662 7.29096H17.2826C17.7643 7.29096 18.2263 7.48233 18.567 7.82297C18.9076 8.16361 19.099 8.62562 19.099 9.10735V17.2811C19.099 17.7629 18.9076 18.2249 18.567 18.5655C18.2263 18.9061 17.7643 19.0975 17.2826 19.0975H4.56786C4.08612 19.0975 3.62411 18.9061 3.28347 18.5655C2.94283 18.2249 2.75146 17.7629 2.75146 17.2811V9.10735C2.75146 8.62562 2.94283 8.16361 3.28347 7.82297C3.62411 7.48233 4.08612 7.29096 4.56786 7.29096H6.38425V9.10735H4.56786V17.2811H17.2826V9.10735H15.4662V7.29096ZM5.93015 5.02047L7.21434 6.30466L10.017 3.50197V12.7401H11.8334V3.50197L14.6361 6.30466L15.9203 5.02047L10.9252 0.0253906L5.93015 5.02047Z" fill="black"/>
</g>
<defs>
<clipPath id="clip0_266_78">
<rect width="21.7967" height="21.7967" fill="white" transform="translate(0.0263672 0.0253906)"/>
</clipPath>
</defs>
</svg>
