<svg width="138" height="22" viewBox="0 0 138 22" fill="none" xmlns="http://www.w3.org/2000/svg">
<path d="M130.621 9.88611V12.7456H132.63V15.5827C132.636 15.8 132.626 16.0319 132.596 16.2315L132.579 16.3284C132.576 16.35 132.572 16.3722 132.567 16.3949L132.551 16.4647C132.548 16.4766 132.545 16.4885 132.541 16.5006L132.518 16.5742C132.337 17.0966 131.793 17.7586 130.57 17.7586C129.268 17.7586 128.745 16.9987 128.602 16.4647L128.586 16.3949L128.573 16.3284C128.537 16.1096 128.522 15.8362 128.522 15.5827V6.6218C128.522 6.34006 128.539 6.03464 128.59 5.78583L128.624 5.63463C128.626 5.62416 128.629 5.61351 128.632 5.60271L128.651 5.53612C128.655 5.52474 128.658 5.51323 128.662 5.50159L128.687 5.43041C128.873 4.93531 129.364 4.27592 130.56 4.27592C131.483 4.27592 131.979 4.65194 132.245 5.04058L132.292 5.11351C132.307 5.1378 132.321 5.16207 132.334 5.1862L132.371 5.25812L132.404 5.32874L132.432 5.39753L132.456 5.46395L132.477 5.52748L132.494 5.58757L132.508 5.6437L132.52 5.69533C132.525 5.72101 132.529 5.74827 132.534 5.77661L132.545 5.86439C132.547 5.87939 132.549 5.89454 132.55 5.90977L132.562 6.0474L132.571 6.1794L132.578 6.35938L132.579 6.45161V7.53972H137.517L137.518 6.86237L137.521 6.62013L137.52 6.43235L137.516 6.2137L137.512 6.09599L137.503 5.91252L137.49 5.72457L137.48 5.59891C137.146 2.28876 134.658 1.0152 131.63 0.793595L131.428 0.780368L131.223 0.770194C131.121 0.765859 131.018 0.762644 130.915 0.760513L130.707 0.757686C130.673 0.757335 130.638 0.757335 130.603 0.757335L130.395 0.758755C130.36 0.75923 130.326 0.759825 130.291 0.760542L130.085 0.766308L129.88 0.775052L129.677 0.786835L129.476 0.801722C129.409 0.807209 129.342 0.813223 129.276 0.819776L129.078 0.84106C129.045 0.84488 129.013 0.848837 128.98 0.852933L128.785 0.87918C128.333 0.944352 127.898 1.03719 127.485 1.16132L127.31 1.21645C125.396 1.84412 124.006 3.17861 123.721 5.59891L123.691 5.86757L123.671 6.07558L123.652 6.29367L123.637 6.51064C123.628 6.65242 123.622 6.78601 123.622 6.89647L123.622 15.2453L123.624 15.3489L123.628 15.5064L123.633 15.6168L123.64 15.7348L123.649 15.863L123.66 16.0043L123.682 16.2467L123.7 16.4326C123.977 19.5086 126.309 20.8769 129.161 21.1998L129.361 21.2206C129.696 21.2525 130.037 21.2705 130.382 21.2757L130.589 21.2772L130.798 21.2757C131.145 21.2705 131.488 21.2525 131.824 21.2206L132.024 21.1998C134.886 20.8769 137.202 19.5086 137.484 16.4326L137.507 16.1613L137.524 15.9318L137.539 15.6747L137.548 15.4532L137.556 15.1396V9.88611H130.621ZM96.5743 1.28477H91.6156V15.7893C91.6234 16.0421 91.6156 16.3261 91.5721 16.5343L91.5575 16.5974L91.5394 16.6646C91.5327 16.6876 91.5255 16.7112 91.5175 16.7353L91.4916 16.8088C91.3045 17.3075 90.828 17.9583 89.6879 17.9583C88.6188 17.9583 88.1307 17.371 87.9262 16.8847L87.8963 16.8088C87.8917 16.7964 87.8872 16.784 87.883 16.7717L87.8596 16.6995L87.8403 16.6305C87.8374 16.6193 87.8346 16.6083 87.8321 16.5974L87.8184 16.5343C87.7688 16.3261 87.7625 16.0421 87.7688 15.7893V1.28477H82.8116V15.3392L82.8107 15.4522L82.8125 15.6498L82.8194 15.9405L82.833 16.2938L82.8425 16.4717L82.8489 16.5661L82.8552 16.6355C83.0981 19.2358 84.6236 20.5892 86.7779 21.1556L86.9615 21.2016C87.3623 21.2972 87.7836 21.3669 88.2214 21.4135L88.4246 21.4333L88.63 21.4499L88.8376 21.4634C88.942 21.4694 89.0471 21.4742 89.1529 21.4778L89.3655 21.4837L89.58 21.4865C89.6159 21.4869 89.6519 21.4869 89.6879 21.4869L89.9037 21.4855C89.9395 21.485 89.9753 21.4844 90.0109 21.4837L90.2239 21.4778C90.3299 21.4742 90.4352 21.4694 90.5397 21.4634L90.7477 21.4499L90.9534 21.4333L91.1569 21.4135C94.0571 21.1055 96.2326 19.7851 96.5322 16.6355L96.5362 16.6042L96.5443 16.5217L96.5563 16.3571L96.567 16.158L96.5729 16.014L96.579 15.7932L96.5807 15.6498L96.5801 15.5149L96.577 15.3934C96.5762 15.3746 96.5753 15.3565 96.5743 15.3392V1.28477ZM51.0135 1.28477L48.54 16.6108L46.0679 1.28477H38.0693L37.6451 20.8912H42.5453L42.678 2.74094L46.0496 20.8912H51.0213L54.3959 2.74094L54.529 20.8912H59.4416L59.003 1.28477H51.0135ZM21.3988 1.28477L17.767 20.8912H23.0632L25.8001 2.74094L28.4713 20.8912H33.7307L30.114 1.28477H21.3988ZM113.904 17.0703L109.287 1.28477H102.011V20.6868H106.824L106.544 4.39626L111.503 20.6868H118.481V1.28477H113.636L113.904 17.0703ZM69.3833 6.38742C69.2962 6.00021 69.3214 5.58884 69.3664 5.37384C69.3792 5.31678 69.3943 5.25925 69.4121 5.20181L69.4408 5.11578C69.6364 4.57224 70.094 4.06167 71.1434 4.06167C72.2758 4.06167 72.9397 4.7676 72.9397 5.827V7.02588H77.7734V5.65933C77.7734 2.57544 75.7551 1.38913 73.5984 0.973345L73.4209 0.940883L73.243 0.911752L73.0649 0.885812L72.8869 0.862926L72.7092 0.842953L72.532 0.825756C72.4731 0.82047 72.4143 0.815624 72.3556 0.811193L72.1802 0.799128L72.0061 0.78942L71.8334 0.781931L71.6624 0.776521L71.4933 0.773052L71.2438 0.771182L71.1338 0.771569L70.9151 0.77469C70.8788 0.775473 70.8426 0.776388 70.8065 0.777436L70.5907 0.785331C70.519 0.788502 70.4477 0.792214 70.3768 0.796476L70.1651 0.81092C67.2162 1.0365 64.9149 2.2478 64.4546 5.08834C64.3184 5.95338 64.2847 6.72125 64.5015 7.70109C64.8427 9.31124 66.184 10.457 67.7237 11.4181L67.962 11.5645C68.002 11.5887 68.042 11.6127 68.0822 11.6367L68.324 11.7792L68.5673 11.9193L68.8115 12.0573L69.178 12.2608L70.1409 12.7885L70.3748 12.9182L70.6048 13.0475L70.8301 13.1766L71.05 13.3058C72.0994 13.9303 72.9402 14.5637 73.2428 15.3208C73.4102 15.7707 73.3736 16.3377 73.2926 16.6995L73.2788 16.7579C73.2588 16.8448 73.2336 16.9319 73.202 17.0174L73.1681 17.1024C72.9455 17.6227 72.4586 18.0663 71.3891 18.0663C70.169 18.0663 69.4347 17.3649 69.4347 16.3077L69.4332 14.4261H64.2303V15.9218C64.2303 19.4323 66.4576 20.9573 69.2471 21.41L69.4547 21.4416C69.5938 21.4614 69.7341 21.4786 69.8755 21.4934L70.0884 21.5137C70.3377 21.5353 70.5899 21.5495 70.844 21.5571L71.0623 21.5619C71.0987 21.5624 71.1352 21.5628 71.1717 21.563L71.2813 21.5634C71.3543 21.5634 71.427 21.5629 71.4994 21.5619L71.7157 21.5571C71.7516 21.5561 71.7875 21.5549 71.8232 21.5536L72.0369 21.544C72.1078 21.5403 72.1784 21.536 72.2486 21.5312L72.4583 21.515C72.5974 21.5031 72.7351 21.489 72.8712 21.4725L73.0742 21.4461L73.2747 21.4162C73.3412 21.4057 73.4072 21.3945 73.4728 21.3828L73.6682 21.3457C76.0295 20.8726 77.7864 19.5897 78.1392 17.1232C78.1878 16.7553 78.2177 16.4155 78.2338 16.105L78.2425 15.9023C78.2437 15.8692 78.2446 15.8365 78.2455 15.8042L78.2487 15.6146V15.4337L78.2457 15.2618L78.2401 15.0988L78.2322 14.9449C78.2307 14.92 78.2291 14.8954 78.2275 14.8713L78.2167 14.731L78.2045 14.5998L78.1911 14.4779L78.1696 14.3126L78.1473 14.1684L78.1182 14.0095L78.1047 13.9445C77.7643 12.2371 76.2695 11.0311 74.6089 10.0384L74.3707 9.89805L74.1308 9.76038L73.8899 9.62523L73.5283 9.42684L73.0486 9.16943L72.2305 8.73431L71.8939 8.55218C71.8571 8.53205 71.8205 8.51195 71.7841 8.49188L71.5687 8.37175L71.3594 8.2521C70.3291 7.65471 69.5503 7.06815 69.3833 6.38742ZM5.61961 6.33933C5.53063 5.96877 5.54454 5.57897 5.59019 5.35246L5.60909 5.26765L5.63053 5.18373C5.79383 4.59499 6.2403 3.98816 7.39426 3.98816C8.54102 3.98816 9.21624 4.70088 9.21624 5.76885V6.98232H14.1067V5.60495C14.1067 2.66207 12.2759 1.42615 10.2301 0.942687L10.0517 0.90252C9.90269 0.87059 9.75275 0.842465 9.60256 0.817783L9.42223 0.789794L9.24188 0.76497L9.06175 0.743173L8.88206 0.724262C8.82227 0.718424 8.76259 0.713044 8.70307 0.708098L8.525 0.694542L8.34808 0.683454L8.17257 0.674695L7.99868 0.668125L7.82666 0.663605L7.57265 0.660156H7.48917C7.41585 0.660156 7.34282 0.660669 7.27008 0.661702L7.05278 0.666371C6.90853 0.670537 6.76553 0.676818 6.62392 0.685282L6.41255 0.699623C6.3775 0.702288 6.34254 0.705093 6.30767 0.708036L6.09959 0.727381C6.03061 0.734392 5.96201 0.74197 5.89381 0.750123L5.69044 0.776313C5.52199 0.799589 5.35614 0.826508 5.19314 0.8572L4.99892 0.895849L4.80752 0.938171L4.61905 0.984214C4.55673 1.00019 4.4949 1.01679 4.4336 1.03403L4.25126 1.08766C2.35334 1.67108 0.985589 2.89467 0.640325 5.01785C0.497829 5.89674 0.473409 6.66989 0.679347 7.66056C1.04191 9.37253 2.52063 10.5648 4.17496 11.5665L4.4182 11.7118C4.45892 11.7358 4.49971 11.7597 4.54056 11.7835L4.78634 11.9251L5.15642 12.1336L5.6491 12.4054L6.3758 12.8037L6.72882 13.0002L7.07201 13.196L7.29425 13.3265C7.33081 13.3483 7.36711 13.3701 7.40316 13.3919L7.61614 13.5229C8.52438 14.0917 9.23571 14.6777 9.51029 15.3646C9.69013 15.8114 9.64807 16.3783 9.56309 16.7518L9.54856 16.8122C9.52757 16.8982 9.5018 16.9843 9.46994 17.069L9.43599 17.1532C9.20753 17.6827 8.71723 18.1367 7.63368 18.1367C6.40887 18.1367 5.67626 17.4233 5.67626 16.3515L5.66946 14.4648H0.408203V15.9641C0.408203 20.1723 3.58109 21.5555 7.09494 21.6595L7.31498 21.6643L7.53575 21.6659L7.75405 21.6644C7.86278 21.6628 7.97087 21.6601 8.07826 21.6562L8.29211 21.6467C8.39855 21.6412 8.50426 21.6344 8.60919 21.6265L8.818 21.6088L9.02461 21.5879C9.09311 21.5803 9.16123 21.5722 9.22895 21.5635L9.43091 21.5357C9.49783 21.5258 9.56433 21.5154 9.63041 21.5043L9.82734 21.4695C12.2726 21.0116 14.095 19.7145 14.4619 17.1775C14.5124 16.8151 14.544 16.4798 14.5617 16.1725L14.5714 15.9719L14.5774 15.7795C14.5788 15.7168 14.5796 15.6555 14.5799 15.5956L14.5792 15.4202L14.5758 15.2534L14.5699 15.0951L14.5618 14.9455L14.5519 14.8047L14.5405 14.6726L14.5214 14.4911L14.5008 14.3297L14.4729 14.1461L14.4412 13.9681C14.102 12.281 12.6518 11.0807 11.0202 10.0935L10.7803 9.95048C10.7401 9.92689 10.6999 9.90342 10.6595 9.88007L10.4169 9.74129L10.1733 9.60508L9.92941 9.47124L9.68581 9.33959L8.611 8.76906L8.26729 8.58485L8.04408 8.46315L7.82638 8.3421L7.61482 8.22153C7.58011 8.20146 7.54568 8.1814 7.51155 8.16135L7.31044 8.04112C6.4224 7.50019 5.77031 6.95899 5.61961 6.33933Z" fill="#1428A0"/>
</svg>
