<svg width="177" height="176" viewBox="0 0 177 176" fill="none" xmlns="http://www.w3.org/2000/svg">
<rect x="0.867188" width="175.633" height="175.633" rx="6.43345" fill="#E3EDFF"/>
<path d="M85.5005 103.994H69.0274V54.0069H108.79V78.4325C108.79 78.745 109.046 79.0006 109.358 79.0006H113.334C113.647 79.0006 113.902 78.745 113.902 78.4325V51.1667C113.902 49.9099 112.887 48.8945 111.63 48.8945H66.1872C64.9304 48.8945 63.915 49.9099 63.915 51.1667V106.834C63.915 108.091 64.9304 109.107 66.1872 109.107H85.5005C85.8129 109.107 86.0686 108.851 86.0686 108.539V104.562C86.0686 104.25 85.8129 103.994 85.5005 103.994Z" fill="url(#paint0_linear_1086_505)"/>
<rect x="76.7812" y="63.6914" width="24.5948" height="4.64052" rx="1.85621" fill="#06246A"/>
<rect x="76.7822" y="87.3594" width="24.5948" height="4.64052" rx="1.85621" fill="#06246A"/>
<rect x="76.7822" y="70.1875" width="24.5948" height="15.3137" rx="1.85621" fill="#06246A"/>
<path d="M24.1232 148.32H23.1582V141.002H24.1232V148.32ZM26.6262 142.882L26.6564 143.566C27.0719 143.043 27.6147 142.782 28.2848 142.782C29.4341 142.782 30.0138 143.43 30.0239 144.727V148.32H29.094V144.722C29.0907 144.33 29.0002 144.04 28.8226 143.852C28.6484 143.664 28.3753 143.571 28.0034 143.571C27.7018 143.571 27.4371 143.651 27.2092 143.812C26.9814 143.973 26.8038 144.184 26.6765 144.445V148.32H25.7466V142.882H26.6262ZM32.6877 141.565V142.882H33.703V143.601H32.6877V146.973C32.6877 147.191 32.7329 147.355 32.8234 147.466C32.9139 147.573 33.068 147.627 33.2858 147.627C33.393 147.627 33.5405 147.607 33.7281 147.566V148.32C33.4835 148.387 33.2456 148.421 33.0144 148.421C32.5989 148.421 32.2856 148.295 32.0745 148.044C31.8634 147.793 31.7579 147.436 31.7579 146.973V143.601H30.7677V142.882H31.7579V141.565H32.6877ZM37.0504 148.421C36.3132 148.421 35.7134 148.18 35.251 147.697C34.7886 147.211 34.5574 146.563 34.5574 145.752V145.581C34.5574 145.042 34.6596 144.561 34.864 144.139C35.0718 143.713 35.3599 143.381 35.7285 143.143C36.1005 142.902 36.5025 142.782 36.9348 142.782C37.6418 142.782 38.1913 143.014 38.5834 143.48C38.9754 143.946 39.1714 144.613 39.1714 145.481V145.868H35.4873C35.5007 146.404 35.6565 146.838 35.9547 147.169C36.2563 147.498 36.6383 147.662 37.1007 147.662C37.429 147.662 37.7071 147.595 37.935 147.461C38.1628 147.327 38.3622 147.149 38.5331 146.928L39.1011 147.37C38.6454 148.071 37.9618 148.421 37.0504 148.421ZM36.9348 143.545C36.5595 143.545 36.2445 143.683 35.9899 143.958C35.7352 144.229 35.5777 144.611 35.5174 145.104H38.2416V145.033C38.2148 144.561 38.0875 144.196 37.8596 143.938C37.6318 143.676 37.3235 143.545 36.9348 143.545ZM40.0309 145.556C40.0309 144.708 40.2269 144.035 40.6189 143.535C41.011 143.033 41.5304 142.782 42.177 142.782C42.8405 142.782 43.3582 143.016 43.7301 143.485L43.7754 142.882H44.6248V148.19C44.6248 148.893 44.4154 149.448 43.9965 149.853C43.581 150.259 43.0214 150.461 42.3178 150.461C41.9257 150.461 41.5421 150.378 41.1668 150.21C40.7915 150.043 40.505 149.813 40.3073 149.522L40.7898 148.964C41.1886 149.456 41.6761 149.702 42.2524 149.702C42.7048 149.702 43.0566 149.575 43.3079 149.321C43.5626 149.066 43.6899 148.707 43.6899 148.245V147.777C43.318 148.206 42.8103 148.421 42.167 148.421C41.5304 148.421 41.0143 148.165 40.6189 147.652C40.2269 147.139 40.0309 146.441 40.0309 145.556ZM40.9658 145.661C40.9658 146.275 41.0914 146.757 41.3427 147.109C41.594 147.457 41.9458 147.632 42.3982 147.632C42.9846 147.632 43.4152 147.365 43.6899 146.833V144.35C43.4051 143.83 42.9779 143.571 42.4083 143.571C41.9559 143.571 41.6024 143.747 41.3477 144.098C41.0931 144.45 40.9658 144.971 40.9658 145.661ZM48.6608 143.716C48.52 143.693 48.3676 143.681 48.2034 143.681C47.5935 143.681 47.1797 143.941 46.9619 144.46V148.32H46.0321V142.882H46.9368L46.9519 143.51C47.2568 143.024 47.689 142.782 48.2486 142.782C48.4296 142.782 48.5669 142.805 48.6608 142.852V143.716ZM52.6766 148.32C52.623 148.213 52.5795 148.022 52.546 147.747C52.1137 148.196 51.5977 148.421 50.9979 148.421C50.4618 148.421 50.0212 148.27 49.676 147.968C49.3343 147.664 49.1634 147.278 49.1634 146.812C49.1634 146.246 49.3778 145.807 49.8067 145.496C50.239 145.181 50.8454 145.023 51.6262 145.023H52.5309V144.596C52.5309 144.271 52.4337 144.013 52.2394 143.822C52.045 143.628 51.7585 143.53 51.3799 143.53C51.0482 143.53 50.7701 143.614 50.5456 143.782C50.3211 143.949 50.2088 144.152 50.2088 144.39H49.2739C49.2739 144.118 49.3694 143.857 49.5604 143.606C49.7548 143.351 50.0161 143.15 50.3445 143.003C50.6762 142.855 51.0398 142.782 51.4352 142.782C52.0618 142.782 52.5527 142.939 52.9078 143.254C53.263 143.566 53.4473 143.996 53.4607 144.546V147.049C53.4607 147.548 53.5244 147.945 53.6517 148.24V148.32H52.6766ZM51.1336 147.612C51.4251 147.612 51.7016 147.536 51.9629 147.385C52.2243 147.235 52.4136 147.039 52.5309 146.797V145.682H51.8021C50.6628 145.682 50.0932 146.015 50.0932 146.682C50.0932 146.973 50.1904 147.201 50.3847 147.365C50.5791 147.53 50.8287 147.612 51.1336 147.612ZM56.1798 141.565V142.882H57.1951V143.601H56.1798V146.973C56.1798 147.191 56.2251 147.355 56.3156 147.466C56.406 147.573 56.5602 147.627 56.778 147.627C56.8852 147.627 57.0326 147.607 57.2203 147.566V148.32C56.9757 148.387 56.7377 148.421 56.5065 148.421C56.0911 148.421 55.7778 148.295 55.5667 148.044C55.3556 147.793 55.25 147.436 55.25 146.973V143.601H54.2599V142.882H55.25V141.565H56.1798ZM60.5425 148.421C59.8054 148.421 59.2056 148.18 58.7432 147.697C58.2808 147.211 58.0496 146.563 58.0496 145.752V145.581C58.0496 145.042 58.1518 144.561 58.3562 144.139C58.5639 143.713 58.8521 143.381 59.2207 143.143C59.5926 142.902 59.9947 142.782 60.4269 142.782C61.1339 142.782 61.6835 143.014 62.0755 143.48C62.4675 143.946 62.6636 144.613 62.6636 145.481V145.868H58.9794C58.9928 146.404 59.1486 146.838 59.4468 147.169C59.7484 147.498 60.1304 147.662 60.5928 147.662C60.9212 147.662 61.1993 147.595 61.4271 147.461C61.655 147.327 61.8543 147.149 62.0252 146.928L62.5932 147.37C62.1375 148.071 61.4539 148.421 60.5425 148.421ZM60.4269 143.545C60.0516 143.545 59.7367 143.683 59.482 143.958C59.2274 144.229 59.0699 144.611 59.0096 145.104H61.7337V145.033C61.7069 144.561 61.5796 144.196 61.3517 143.938C61.1239 143.676 60.8156 143.545 60.4269 143.545ZM68.0214 146.013L68.1621 146.978L68.3682 146.109L69.8157 141.002H70.63L72.0423 146.109L72.2434 146.993L72.3992 146.008L73.5351 141.002H74.5051L72.7309 148.32H71.8513L70.3435 142.988L70.2279 142.43L70.1123 142.988L68.5492 148.32H67.6696L65.9004 141.002H66.8654L68.0214 146.013ZM76.4452 148.32H75.5154V142.882H76.4452V148.32ZM75.44 141.44C75.44 141.289 75.4852 141.161 75.5757 141.058C75.6695 140.954 75.8069 140.902 75.9878 140.902C76.1688 140.902 76.3062 140.954 76.4 141.058C76.4938 141.161 76.5407 141.289 76.5407 141.44C76.5407 141.59 76.4938 141.716 76.4 141.816C76.3062 141.917 76.1688 141.967 75.9878 141.967C75.8069 141.967 75.6695 141.917 75.5757 141.816C75.4852 141.716 75.44 141.59 75.44 141.44ZM79.1995 141.565V142.882H80.2148V143.601H79.1995V146.973C79.1995 147.191 79.2448 147.355 79.3352 147.466C79.4257 147.573 79.5798 147.627 79.7976 147.627C79.9049 147.627 80.0523 147.607 80.2399 147.566V148.32C79.9953 148.387 79.7574 148.421 79.5262 148.421C79.1107 148.421 78.7974 148.295 78.5863 148.044C78.3752 147.793 78.2697 147.436 78.2697 146.973V143.601H77.2795V142.882H78.2697V141.565H79.1995ZM82.2353 143.54C82.6474 143.034 83.1836 142.782 83.8437 142.782C84.993 142.782 85.5727 143.43 85.5827 144.727V148.32H84.6529V144.722C84.6495 144.33 84.5591 144.04 84.3815 143.852C84.2072 143.664 83.9341 143.571 83.5622 143.571C83.2606 143.571 82.9959 143.651 82.7681 143.812C82.5402 143.973 82.3626 144.184 82.2353 144.445V148.32H81.3055V140.6H82.2353V143.54ZM93.715 146.41H90.649L89.9605 148.32H88.9653L91.7598 141.002H92.6042L95.4038 148.32H94.4136L93.715 146.41ZM90.9406 145.616H93.4285L92.182 142.193L90.9406 145.616ZM99.9072 145.455V148.32H98.9422V141.002H101.641C102.442 141.002 103.069 141.207 103.521 141.615C103.977 142.024 104.205 142.565 104.205 143.239C104.205 143.949 103.982 144.497 103.536 144.882C103.094 145.264 102.459 145.455 101.631 145.455H99.9072ZM99.9072 144.666H101.641C102.157 144.666 102.553 144.546 102.827 144.304C103.102 144.06 103.24 143.708 103.24 143.249C103.24 142.813 103.102 142.465 102.827 142.204C102.553 141.942 102.176 141.806 101.696 141.796H99.9072V144.666ZM108.587 148.32C108.534 148.213 108.49 148.022 108.457 147.747C108.024 148.196 107.508 148.421 106.909 148.421C106.372 148.421 105.932 148.27 105.587 147.968C105.245 147.664 105.074 147.278 105.074 146.812C105.074 146.246 105.288 145.807 105.717 145.496C106.15 145.181 106.756 145.023 107.537 145.023H108.442V144.596C108.442 144.271 108.344 144.013 108.15 143.822C107.956 143.628 107.669 143.53 107.291 143.53C106.959 143.53 106.681 143.614 106.456 143.782C106.232 143.949 106.119 144.152 106.119 144.39H105.185C105.185 144.118 105.28 143.857 105.471 143.606C105.665 143.351 105.927 143.15 106.255 143.003C106.587 142.855 106.95 142.782 107.346 142.782C107.972 142.782 108.463 142.939 108.819 143.254C109.174 143.566 109.358 143.996 109.371 144.546V147.049C109.371 147.548 109.435 147.945 109.562 148.24V148.32H108.587ZM107.044 147.612C107.336 147.612 107.612 147.536 107.874 147.385C108.135 147.235 108.324 147.039 108.442 146.797V145.682H107.713C106.574 145.682 106.004 146.015 106.004 146.682C106.004 146.973 106.101 147.201 106.295 147.365C106.49 147.53 106.739 147.612 107.044 147.612ZM110.608 145.556C110.608 144.708 110.804 144.035 111.196 143.535C111.588 143.033 112.107 142.782 112.754 142.782C113.417 142.782 113.935 143.016 114.307 143.485L114.352 142.882H115.202V148.19C115.202 148.893 114.992 149.448 114.573 149.853C114.158 150.259 113.598 150.461 112.895 150.461C112.503 150.461 112.119 150.378 111.744 150.21C111.368 150.043 111.082 149.813 110.884 149.522L111.367 148.964C111.765 149.456 112.253 149.702 112.829 149.702C113.282 149.702 113.634 149.575 113.885 149.321C114.14 149.066 114.267 148.707 114.267 148.245V147.777C113.895 148.206 113.387 148.421 112.744 148.421C112.107 148.421 111.591 148.165 111.196 147.652C110.804 147.139 110.608 146.441 110.608 145.556ZM111.543 145.661C111.543 146.275 111.668 146.757 111.92 147.109C112.171 147.457 112.523 147.632 112.975 147.632C113.562 147.632 113.992 147.365 114.267 146.833V144.35C113.982 143.83 113.555 143.571 112.985 143.571C112.533 143.571 112.179 143.747 111.925 144.098C111.67 144.45 111.543 144.971 111.543 145.661ZM118.866 148.421C118.129 148.421 117.529 148.18 117.066 147.697C116.604 147.211 116.373 146.563 116.373 145.752V145.581C116.373 145.042 116.475 144.561 116.679 144.139C116.887 143.713 117.175 143.381 117.544 143.143C117.916 142.902 118.318 142.782 118.75 142.782C119.457 142.782 120.007 143.014 120.399 143.48C120.791 143.946 120.987 144.613 120.987 145.481V145.868H117.303C117.316 146.404 117.472 146.838 117.77 147.169C118.072 147.498 118.454 147.662 118.916 147.662C119.244 147.662 119.522 147.595 119.75 147.461C119.978 147.327 120.178 147.149 120.348 146.928L120.916 147.37C120.461 148.071 119.777 148.421 118.866 148.421ZM118.75 143.545C118.375 143.545 118.06 143.683 117.805 143.958C117.551 144.229 117.393 144.611 117.333 145.104H120.057V145.033C120.03 144.561 119.903 144.196 119.675 143.938C119.447 143.676 119.139 143.545 118.75 143.545ZM124.766 148.32V141.002H127.159C127.953 141.002 128.549 141.166 128.948 141.495C129.35 141.823 129.551 142.309 129.551 142.952C129.551 143.294 129.454 143.597 129.26 143.862C129.065 144.123 128.801 144.326 128.466 144.47C128.861 144.581 129.173 144.792 129.401 145.104C129.632 145.412 129.747 145.78 129.747 146.209C129.747 146.866 129.535 147.382 129.109 147.757C128.683 148.133 128.082 148.32 127.305 148.32H124.766ZM125.731 144.898V147.531H127.325C127.774 147.531 128.127 147.416 128.385 147.184C128.647 146.95 128.777 146.628 128.777 146.219C128.777 145.338 128.298 144.898 127.34 144.898H125.731ZM125.731 144.123H127.189C127.611 144.123 127.948 144.018 128.199 143.807C128.454 143.596 128.581 143.309 128.581 142.947C128.581 142.545 128.464 142.254 128.229 142.073C127.995 141.889 127.638 141.796 127.159 141.796H125.731V144.123ZM134.391 147.783C134.03 148.208 133.498 148.421 132.798 148.421C132.219 148.421 131.776 148.253 131.471 147.918C131.17 147.58 131.017 147.081 131.014 146.42V142.882H131.944V146.395C131.944 147.22 132.279 147.632 132.949 147.632C133.659 147.632 134.132 147.367 134.366 146.838V142.882H135.296V148.32H134.412L134.391 147.783ZM137.724 148.32H136.794V142.882H137.724V148.32ZM136.719 141.44C136.719 141.289 136.764 141.161 136.854 141.058C136.948 140.954 137.085 140.902 137.266 140.902C137.447 140.902 137.585 140.954 137.679 141.058C137.772 141.161 137.819 141.289 137.819 141.44C137.819 141.59 137.772 141.716 137.679 141.816C137.585 141.917 137.447 141.967 137.266 141.967C137.085 141.967 136.948 141.917 136.854 141.816C136.764 141.716 136.719 141.59 136.719 141.44ZM140.227 148.32H139.297V140.6H140.227V148.32ZM141.493 145.556C141.493 144.722 141.691 144.051 142.086 143.545C142.482 143.036 143 142.782 143.64 142.782C144.276 142.782 144.78 142.999 145.152 143.435V140.6H146.082V148.32H145.228L145.183 147.737C144.811 148.193 144.293 148.421 143.629 148.421C143 148.421 142.485 148.163 142.086 147.647C141.691 147.131 141.493 146.457 141.493 145.626V145.556ZM142.423 145.661C142.423 146.278 142.551 146.761 142.805 147.109C143.06 147.457 143.412 147.632 143.861 147.632C144.45 147.632 144.881 147.367 145.152 146.838V144.34C144.874 143.827 144.447 143.571 143.871 143.571C143.415 143.571 143.06 143.747 142.805 144.098C142.551 144.45 142.423 144.971 142.423 145.661ZM149.787 148.421C149.049 148.421 148.45 148.18 147.987 147.697C147.525 147.211 147.294 146.563 147.294 145.752V145.581C147.294 145.042 147.396 144.561 147.6 144.139C147.808 143.713 148.096 143.381 148.465 143.143C148.837 142.902 149.239 142.782 149.671 142.782C150.378 142.782 150.927 143.014 151.319 143.48C151.712 143.946 151.908 144.613 151.908 145.481V145.868H148.223C148.237 146.404 148.393 146.838 148.691 147.169C148.992 147.498 149.374 147.662 149.837 147.662C150.165 147.662 150.443 147.595 150.671 147.461C150.899 147.327 151.098 147.149 151.269 146.928L151.837 147.37C151.381 148.071 150.698 148.421 149.787 148.421ZM149.671 143.545C149.296 143.545 148.981 143.683 148.726 143.958C148.471 144.229 148.314 144.611 148.254 145.104H150.978V145.033C150.951 144.561 150.824 144.196 150.596 143.938C150.368 143.676 150.06 143.545 149.671 143.545ZM155.617 143.716C155.476 143.693 155.324 143.681 155.159 143.681C154.55 143.681 154.136 143.941 153.918 144.46V148.32H152.988V142.882H153.893L153.908 143.51C154.213 143.024 154.645 142.782 155.205 142.782C155.386 142.782 155.523 142.805 155.617 142.852V143.716Z" fill="black"/>
<defs>
<linearGradient id="paint0_linear_1086_505" x1="88.631" y1="57.5918" x2="89.6622" y2="105.076" gradientUnits="userSpaceOnUse">
<stop stop-color="#06246A"/>
<stop offset="1" stop-color="#081B49"/>
</linearGradient>
</defs>
</svg>
