<svg width="378" height="270" viewBox="0 0 378 270" fill="none" xmlns="http://www.w3.org/2000/svg">
<rect width="378" height="270" rx="10" fill="#EFEFEF"/>
<path d="M142.363 47.5698C140.077 46.246 138.22 47.3082 138.209 49.9349L138 117.586C138 120.202 139.836 123.41 142.122 124.734L233.659 177.608C235.939 178.927 237.801 177.87 237.806 175.243L238 107.592C238 104.976 236.159 101.763 233.873 100.444L142.363 47.5698Z" fill="#007FDB" stroke="#4979D4" stroke-width="0.826123" stroke-linejoin="round"/>
<path d="M142.363 47.5698C140.077 46.246 138.22 47.3082 138.209 49.9349L138 117.586C138 120.202 139.836 123.41 142.122 124.734L233.659 177.608C235.939 178.927 237.801 177.87 237.806 175.243L238 107.592C238 104.976 236.159 101.763 233.873 100.444L142.363 47.5698Z" fill="#007FDB" stroke="#4979D4" stroke-width="0.826123" stroke-linejoin="round"/>
<path d="M224.604 131.714V123.661L217.595 119.611V127.669L224.604 131.714ZM217.432 119.083L224.829 123.342C224.882 123.378 224.926 123.425 224.958 123.48C224.989 123.536 225.008 123.598 225.012 123.661V132.143C225.012 132.258 224.923 132.305 224.823 132.248L217.443 127.989C217.39 127.953 217.347 127.905 217.315 127.85C217.283 127.795 217.264 127.733 217.26 127.669V119.182C217.26 119.067 217.344 119.02 217.448 119.083" fill="#4979D4"/>
<path d="M190.626 104.458L212.223 116.932C212.277 116.968 212.322 117.016 212.353 117.073C212.385 117.129 212.403 117.192 212.406 117.257C212.406 117.372 212.323 117.419 212.218 117.356L190.621 104.887C190.567 104.852 190.523 104.805 190.491 104.749C190.459 104.694 190.441 104.632 190.437 104.568C190.437 104.447 190.526 104.4 190.626 104.458Z" fill="#4979D4"/>
<path d="M190.615 107.838L212.212 120.312C212.267 120.346 212.312 120.393 212.344 120.449C212.376 120.505 212.394 120.567 212.396 120.632C212.396 120.752 212.312 120.799 212.212 120.742L190.615 108.267C190.562 108.232 190.518 108.185 190.486 108.129C190.454 108.074 190.436 108.012 190.432 107.948C190.432 107.828 190.516 107.781 190.615 107.838Z" fill="#4979D4"/>
<path d="M190.605 111.208L212.202 123.682C212.257 123.716 212.303 123.763 212.336 123.819C212.369 123.874 212.388 123.937 212.391 124.002C212.391 124.122 212.307 124.169 212.202 124.106L190.605 111.637C190.552 111.601 190.508 111.552 190.476 111.496C190.444 111.44 190.426 111.377 190.422 111.313C190.422 111.192 190.506 111.15 190.605 111.208Z" fill="#4979D4"/>
<path d="M224.567 145.005V136.952L217.558 132.902V140.955L224.573 145.005H224.567ZM217.401 132.368L224.777 136.627C224.831 136.663 224.877 136.711 224.91 136.767C224.942 136.823 224.961 136.887 224.965 136.952L224.939 145.428C224.939 145.549 224.855 145.596 224.75 145.538L217.375 141.279C217.32 141.244 217.275 141.196 217.242 141.139C217.209 141.083 217.19 141.02 217.187 140.955L217.213 132.473C217.213 132.358 217.297 132.305 217.401 132.368Z" fill="#4979D4"/>
<path d="M190.589 117.749L212.181 130.223C212.236 130.258 212.282 130.306 212.314 130.362C212.347 130.419 212.366 130.482 212.369 130.547C212.369 130.663 212.285 130.71 212.181 130.647L190.583 118.173C190.53 118.138 190.486 118.092 190.455 118.037C190.423 117.983 190.404 117.922 190.4 117.859C190.4 117.738 190.484 117.691 190.589 117.749Z" fill="#4979D4"/>
<path d="M190.579 121.15L212.176 133.619C212.229 133.655 212.274 133.704 212.305 133.76C212.337 133.816 212.356 133.879 212.359 133.943C212.359 134.058 212.276 134.106 212.171 134.048L190.574 121.574C190.521 121.538 190.476 121.491 190.445 121.436C190.413 121.38 190.394 121.318 190.391 121.254C190.387 121.231 190.391 121.208 190.401 121.187C190.412 121.166 190.428 121.148 190.449 121.137C190.469 121.126 190.492 121.121 190.516 121.123C190.539 121.125 190.561 121.135 190.579 121.15Z" fill="#4979D4"/>
<path d="M190.568 124.504L212.166 136.978C212.22 137.013 212.266 137.061 212.297 137.117C212.329 137.174 212.347 137.238 212.349 137.302C212.349 137.418 212.265 137.465 212.166 137.407L190.568 124.933C190.515 124.898 190.47 124.851 190.438 124.795C190.406 124.74 190.388 124.677 190.385 124.614C190.385 124.493 190.469 124.446 190.568 124.504Z" fill="#4979D4"/>
<path d="M224.525 158.301L224.551 150.248L217.542 146.198V154.256L224.525 158.301ZM217.359 145.669L224.735 149.929C224.79 149.964 224.835 150.011 224.868 150.068C224.901 150.124 224.92 150.188 224.923 150.253L224.897 158.73C224.897 158.85 224.813 158.892 224.708 158.834L217.333 154.575C217.279 154.541 217.233 154.494 217.201 154.438C217.168 154.383 217.149 154.32 217.145 154.256L217.171 145.743C217.171 145.622 217.255 145.575 217.359 145.638" fill="#4979D4"/>
<path d="M190.547 131.039L212.145 143.514C212.199 143.548 212.244 143.595 212.277 143.651C212.31 143.706 212.329 143.768 212.333 143.833C212.333 143.948 212.249 144 212.145 143.937L190.547 131.463C190.494 131.428 190.45 131.381 190.418 131.325C190.386 131.27 190.368 131.208 190.364 131.144C190.364 131.029 190.448 130.982 190.547 131.039Z" fill="#4979D4"/>
<path d="M190.537 134.419L212.134 146.888C212.188 146.923 212.233 146.97 212.266 147.026C212.299 147.081 212.318 147.143 212.322 147.208C212.322 147.328 212.239 147.375 212.134 147.317L190.537 134.843C190.483 134.808 190.439 134.76 190.408 134.705C190.376 134.65 190.357 134.588 190.353 134.524C190.353 134.409 190.437 134.357 190.537 134.419Z" fill="#4979D4"/>
<path d="M190.531 137.794L212.128 150.269C212.182 150.304 212.226 150.351 212.257 150.407C212.289 150.462 212.308 150.524 212.312 150.588C212.312 150.708 212.228 150.755 212.123 150.692L190.526 138.223C190.473 138.187 190.428 138.139 190.397 138.082C190.365 138.026 190.347 137.963 190.343 137.899C190.343 137.784 190.432 137.737 190.531 137.794Z" fill="#4979D4"/>
<path d="M229.175 165.396L228.992 165.291L229.175 165.396ZM229.013 165.103L229.139 122.081L186.593 97.4884L186.472 140.51L229.013 165.103ZM186.41 96.9756L229.301 121.757C229.355 121.793 229.399 121.842 229.432 121.898C229.466 121.951 229.486 122.013 229.489 122.076L229.364 165.532C229.367 165.554 229.363 165.577 229.354 165.597C229.345 165.617 229.33 165.635 229.311 165.647C229.291 165.66 229.267 165.666 229.243 165.666C229.219 165.666 229.196 165.66 229.175 165.647L186.284 140.866C186.229 140.831 186.184 140.782 186.153 140.725C186.122 140.671 186.104 140.609 186.101 140.547L186.221 97.1169C186.219 97.0935 186.223 97.07 186.234 97.0488C186.244 97.0276 186.259 97.0096 186.279 96.9965C186.299 96.9855 186.321 96.9798 186.344 96.9798C186.367 96.9798 186.389 96.9855 186.41 96.9965" fill="#4979D4"/>
<path d="M229.317 115.305L229.134 115.2L229.317 115.305ZM229.134 114.986V107.828L147.828 60.8552V68.0133L229.134 114.986ZM147.65 60.3214L229.343 107.508C229.397 107.543 229.441 107.589 229.474 107.644C229.507 107.7 229.525 107.763 229.526 107.828V115.415C229.528 115.437 229.524 115.46 229.515 115.481C229.506 115.502 229.491 115.521 229.474 115.535C229.453 115.548 229.43 115.554 229.406 115.554C229.382 115.554 229.358 115.548 229.338 115.535L147.624 68.3377C147.569 68.3025 147.524 68.2539 147.494 68.1964C147.459 68.1433 147.441 68.0816 147.441 68.0185V60.4313C147.439 60.408 147.443 60.3844 147.454 60.3633C147.464 60.3421 147.479 60.324 147.499 60.311C147.519 60.2995 147.541 60.2935 147.564 60.2935C147.587 60.2935 147.61 60.2995 147.63 60.311" fill="#4979D4"/>
<path d="M182.502 138.417L182.314 138.307L182.502 138.417ZM182.314 138.093L182.46 95.092L159.267 81.702L159.147 124.724L182.335 138.114L182.314 138.093ZM159.063 81.1682L182.627 94.7728C182.681 94.8073 182.726 94.8539 182.758 94.9088C182.792 94.9639 182.81 95.0273 182.811 95.092L182.69 138.522C182.693 138.545 182.689 138.568 182.679 138.588C182.669 138.609 182.653 138.626 182.633 138.637C182.613 138.649 182.59 138.655 182.567 138.655C182.544 138.655 182.522 138.649 182.502 138.637L158.938 125.032C158.883 124.999 158.838 124.952 158.807 124.896C158.775 124.842 158.758 124.781 158.755 124.719L158.88 81.2886C158.877 81.2657 158.88 81.2423 158.889 81.221C158.899 81.1998 158.914 81.1815 158.933 81.1682C158.953 81.1572 158.975 81.1515 158.998 81.1515C159.021 81.1515 159.043 81.1572 159.063 81.1682Z" fill="#4979D4"/>
<path d="M155.397 122.783L155.209 122.673L155.397 122.783ZM155.209 122.458L155.329 79.4363L146.437 74.3032L146.316 117.325L155.209 122.458ZM146.259 73.7956L155.517 79.1485C155.572 79.1817 155.617 79.2286 155.648 79.2845C155.681 79.338 155.699 79.3995 155.7 79.4625L155.58 122.892C155.582 122.915 155.578 122.938 155.569 122.959C155.559 122.98 155.545 122.998 155.528 123.013C155.508 123.025 155.485 123.032 155.462 123.032C155.439 123.032 155.416 123.025 155.397 123.013L146.133 117.665C146.079 117.632 146.034 117.585 146.003 117.529C145.971 117.475 145.953 117.414 145.95 117.351L146.076 73.9212C146.074 73.8992 146.078 73.877 146.087 73.8569C146.096 73.8368 146.11 73.8193 146.128 73.8061C146.148 73.7946 146.171 73.7886 146.193 73.7886C146.216 73.7886 146.239 73.7946 146.259 73.8061" fill="#4979D4"/>
<path d="M164.561 89.4041L179.578 98.0796C179.633 98.115 179.679 98.1628 179.711 98.2192C179.744 98.2756 179.763 98.3389 179.767 98.404C179.767 98.5244 179.683 98.5662 179.578 98.5087L164.561 89.8331C164.507 89.7986 164.461 89.7516 164.429 89.6962C164.396 89.6407 164.377 89.5783 164.373 89.514C164.373 89.3936 164.456 89.3465 164.561 89.4041Z" fill="#4979D4"/>
<path d="M162.061 91.3506L179.558 101.46C179.612 101.494 179.658 101.541 179.69 101.597C179.723 101.652 179.742 101.715 179.746 101.779C179.746 101.899 179.662 101.946 179.558 101.889L162.061 91.7797C162.008 91.7445 161.963 91.6973 161.932 91.6419C161.9 91.5865 161.882 91.5243 161.878 91.4605C161.878 91.3401 161.962 91.2931 162.061 91.3506Z" fill="#4979D4"/>
<path d="M164.541 96.6143L179.558 105.29C179.612 105.324 179.658 105.371 179.69 105.427C179.723 105.482 179.742 105.545 179.746 105.609C179.746 105.729 179.662 105.776 179.558 105.714L164.541 97.0434C164.486 97.008 164.44 96.9601 164.408 96.9037C164.375 96.8474 164.356 96.784 164.352 96.7189C164.352 96.6038 164.436 96.5567 164.541 96.6143Z" fill="#4979D4"/>
<path d="M162.061 98.5608L179.563 108.67C179.616 108.705 179.661 108.752 179.693 108.808C179.724 108.863 179.743 108.925 179.746 108.989C179.746 109.104 179.662 109.151 179.558 109.094L162.061 98.9847C162.008 98.9495 161.963 98.9023 161.932 98.8469C161.9 98.7914 161.882 98.7293 161.878 98.6655C161.878 98.5504 161.962 98.5033 162.061 98.5608Z" fill="#4979D4"/>
<path d="M148.985 80.3988L153.556 83.0151C153.609 83.0505 153.653 83.0978 153.685 83.1532C153.717 83.2086 153.735 83.2705 153.739 83.3343C153.739 83.4546 153.656 83.4965 153.556 83.4389L148.979 80.8227C148.925 80.7885 148.88 80.7415 148.848 80.6859C148.816 80.6302 148.798 80.5676 148.796 80.5035C148.796 80.3884 148.88 80.3413 148.985 80.3988Z" fill="#4979D4"/>
<path d="M148.2 83.3395L153.53 86.4215C153.584 86.4556 153.629 86.5026 153.661 86.5583C153.693 86.6139 153.711 86.6765 153.713 86.7406C153.713 86.861 153.629 86.9081 153.53 86.8505L148.2 83.7686C148.145 83.7347 148.1 83.6878 148.068 83.6321C148.036 83.5764 148.018 83.5136 148.017 83.4494C148.017 83.329 148.1 83.2819 148.2 83.3395Z" fill="#4979D4"/>
<path d="M148.948 87.6091L153.519 90.2253C153.572 90.2597 153.616 90.306 153.648 90.3605C153.68 90.415 153.698 90.4763 153.702 90.5393C153.702 90.6596 153.618 90.7067 153.519 90.6492L148.942 88.0067C148.889 87.9708 148.844 87.9227 148.812 87.8663C148.78 87.81 148.762 87.747 148.759 87.6823C148.759 87.5672 148.843 87.5201 148.948 87.5829" fill="#4979D4"/>
<path d="M148.179 90.5498L153.509 93.6265C153.563 93.6599 153.608 93.706 153.64 93.7607C153.672 93.8154 153.69 93.8772 153.692 93.9405C153.692 94.0608 153.609 94.1079 153.509 94.0504L148.179 90.9684C148.125 90.9342 148.08 90.8873 148.048 90.8316C148.016 90.776 147.998 90.7134 147.996 90.6492C147.996 90.5341 148.08 90.487 148.179 90.5446" fill="#4979D4"/>
<path d="M164.477 119.14L179.494 127.811C179.549 127.846 179.595 127.894 179.627 127.95C179.66 128.007 179.679 128.07 179.683 128.135C179.683 128.25 179.599 128.297 179.494 128.24L164.477 119.58C164.423 119.545 164.377 119.498 164.345 119.443C164.312 119.388 164.293 119.325 164.289 119.261C164.289 119.14 164.372 119.093 164.477 119.156" fill="#4979D4"/>
<path d="M161.988 121.082L179.485 131.191C179.54 131.226 179.585 131.274 179.618 131.33C179.651 131.387 179.67 131.45 179.673 131.515C179.673 131.63 179.589 131.678 179.485 131.615L161.988 121.511C161.934 121.476 161.89 121.429 161.858 121.373C161.826 121.318 161.808 121.255 161.805 121.192C161.805 121.071 161.889 121.024 161.988 121.082Z" fill="#4979D4"/>
<path d="M196.908 136.528L203.01 151.172L205.175 144.794L211.552 142.63L196.908 136.528Z" stroke="#CDDEFF" stroke-width="3.66667" stroke-linecap="round" stroke-linejoin="round"/>
<path d="M205.537 145.157L210.715 150.335" stroke="#CDDEFF" stroke-width="3.66667" stroke-linecap="round" stroke-linejoin="round"/>
<path d="M193.456 139.979L190.869 142.569M194.697 128.277L195.645 131.813L194.697 128.277ZM192.193 135.265L188.656 134.317L192.193 135.265ZM202.949 130.487L200.359 133.077L202.949 130.487Z" stroke="#CDDEFF" stroke-width="3.66667" stroke-linecap="round" stroke-linejoin="round"/>
</svg>
