<svg width="378" height="270" viewBox="0 0 378 270" fill="none" xmlns="http://www.w3.org/2000/svg">
<rect width="378" height="270" rx="10" fill="#EFEFEF"/>
<path d="M128.581 52.5983C126.18 51.2083 124.231 52.3236 124.22 55.0817L124 126.116C124 128.863 125.928 132.231 128.328 133.621L224.441 189.139C226.836 190.524 228.791 189.414 228.797 186.656L229 115.622C229 112.875 227.067 109.501 224.667 108.117L128.581 52.5983Z" fill="#007FDB" stroke="#4979D4" stroke-width="0.826123" stroke-linejoin="round"/>
<path d="M128.581 52.5983C126.18 51.2083 124.231 52.3236 124.22 55.0817L124 126.116C124 128.863 125.928 132.231 128.328 133.621L224.441 189.139C226.836 190.524 228.791 189.414 228.797 186.656L229 115.622C229 112.875 227.067 109.501 224.667 108.117L128.581 52.5983Z" fill="#007FDB" stroke="#4979D4" stroke-width="0.826123" stroke-linejoin="round"/>
<path d="M214.934 140.95V132.494L207.574 128.242V136.703L214.934 140.95ZM207.404 127.687L215.17 132.159C215.226 132.197 215.272 132.246 215.306 132.304C215.339 132.362 215.358 132.428 215.362 132.494V141.401C215.362 141.521 215.269 141.571 215.165 141.51L207.415 137.038C207.36 137 207.314 136.951 207.281 136.893C207.247 136.835 207.228 136.77 207.223 136.703V127.791C207.223 127.671 207.311 127.621 207.421 127.687" fill="#4979D4"/>
<path d="M179.256 112.331L201.934 125.429C201.99 125.467 202.037 125.517 202.07 125.576C202.104 125.636 202.123 125.702 202.126 125.77C202.126 125.89 202.038 125.94 201.928 125.874L179.251 112.781C179.195 112.744 179.148 112.695 179.115 112.637C179.082 112.578 179.062 112.513 179.059 112.446C179.059 112.32 179.152 112.27 179.256 112.331Z" fill="#4979D4"/>
<path d="M179.246 115.88L201.923 128.978C201.98 129.014 202.028 129.063 202.061 129.121C202.095 129.18 202.113 129.246 202.115 129.313C202.115 129.44 202.027 129.489 201.923 129.429L179.246 116.331C179.19 116.293 179.144 116.244 179.11 116.186C179.077 116.128 179.057 116.062 179.053 115.996C179.053 115.869 179.141 115.82 179.246 115.88Z" fill="#4979D4"/>
<path d="M179.235 119.418L201.912 132.516C201.97 132.552 202.018 132.601 202.052 132.66C202.087 132.718 202.107 132.784 202.11 132.852C202.11 132.978 202.022 133.027 201.912 132.962L179.235 119.869C179.179 119.831 179.133 119.78 179.099 119.721C179.066 119.662 179.047 119.596 179.043 119.528C179.043 119.402 179.13 119.358 179.235 119.418Z" fill="#4979D4"/>
<path d="M214.896 154.905V146.45L207.536 142.197V150.653L214.901 154.905H214.896ZM207.371 141.637L215.115 146.109C215.173 146.146 215.221 146.196 215.255 146.256C215.289 146.315 215.309 146.381 215.313 146.45L215.286 155.35C215.286 155.477 215.198 155.526 215.088 155.466L207.344 150.993C207.286 150.956 207.238 150.906 207.204 150.847C207.17 150.787 207.15 150.721 207.146 150.653L207.174 141.747C207.174 141.626 207.261 141.571 207.371 141.637Z" fill="#4979D4"/>
<path d="M179.218 126.286L201.89 139.384C201.948 139.421 201.996 139.471 202.03 139.531C202.065 139.59 202.085 139.657 202.088 139.725C202.088 139.846 202 139.895 201.89 139.829L179.213 126.731C179.157 126.695 179.111 126.647 179.077 126.589C179.044 126.532 179.025 126.468 179.021 126.402C179.021 126.275 179.109 126.226 179.218 126.286Z" fill="#4979D4"/>
<path d="M179.208 129.857L201.885 142.95C201.941 142.988 201.987 143.039 202.02 143.098C202.054 143.157 202.073 143.223 202.077 143.291C202.077 143.412 201.989 143.461 201.879 143.401L179.202 130.302C179.146 130.265 179.1 130.216 179.067 130.157C179.033 130.099 179.014 130.034 179.01 129.967C179.006 129.943 179.01 129.918 179.021 129.896C179.032 129.874 179.049 129.856 179.071 129.844C179.092 129.832 179.117 129.827 179.141 129.829C179.166 129.832 179.189 129.842 179.208 129.857Z" fill="#4979D4"/>
<path d="M179.196 133.379L201.873 146.477C201.931 146.514 201.978 146.564 202.012 146.624C202.045 146.683 202.064 146.75 202.065 146.818C202.065 146.939 201.978 146.988 201.873 146.928L179.196 133.83C179.14 133.793 179.093 133.744 179.059 133.685C179.026 133.627 179.007 133.562 179.004 133.494C179.004 133.368 179.092 133.319 179.196 133.379Z" fill="#4979D4"/>
<path d="M214.852 168.866L214.88 160.41L207.52 156.158V164.619L214.852 168.866ZM207.328 155.603L215.072 160.075C215.13 160.112 215.178 160.162 215.212 160.221C215.247 160.281 215.266 160.347 215.27 160.416L215.242 169.316C215.242 169.443 215.154 169.487 215.044 169.426L207.3 164.954C207.243 164.918 207.196 164.868 207.161 164.81C207.127 164.752 207.107 164.686 207.103 164.619L207.13 155.68C207.13 155.554 207.218 155.504 207.328 155.57" fill="#4979D4"/>
<path d="M179.174 140.241L201.852 153.339C201.909 153.376 201.956 153.425 201.991 153.483C202.025 153.542 202.045 153.607 202.049 153.675C202.049 153.795 201.961 153.85 201.852 153.784L179.174 140.686C179.118 140.649 179.072 140.6 179.038 140.542C179.005 140.484 178.986 140.418 178.982 140.351C178.982 140.23 179.07 140.181 179.174 140.241Z" fill="#4979D4"/>
<path d="M179.163 143.79L201.84 156.883C201.897 156.92 201.945 156.969 201.979 157.027C202.013 157.085 202.033 157.151 202.038 157.218C202.038 157.344 201.95 157.394 201.84 157.334L179.163 144.235C179.107 144.198 179.061 144.149 179.028 144.09C178.994 144.032 178.975 143.967 178.971 143.9C178.971 143.779 179.059 143.724 179.163 143.79Z" fill="#4979D4"/>
<path d="M179.158 147.334L201.835 160.432C201.891 160.469 201.937 160.519 201.971 160.577C202.004 160.635 202.023 160.7 202.027 160.767C202.027 160.894 201.939 160.943 201.83 160.877L179.152 147.785C179.096 147.746 179.05 147.696 179.017 147.637C178.983 147.578 178.964 147.512 178.96 147.444C178.96 147.323 179.053 147.274 179.158 147.334Z" fill="#4979D4"/>
<path d="M219.735 176.316L219.543 176.206L219.735 176.316ZM219.565 176.008L219.696 130.835L175.023 105.013L174.897 150.186L219.565 176.008ZM174.831 104.474L219.867 130.495C219.923 130.533 219.97 130.584 220.004 130.643C220.04 130.699 220.061 130.763 220.064 130.83L219.933 176.459C219.936 176.482 219.932 176.506 219.922 176.527C219.913 176.548 219.897 176.567 219.878 176.58C219.856 176.593 219.832 176.6 219.806 176.6C219.781 176.6 219.756 176.593 219.735 176.58L174.699 150.559C174.641 150.522 174.594 150.471 174.562 150.411C174.528 150.354 174.51 150.29 174.507 150.224L174.633 104.623C174.631 104.598 174.635 104.573 174.646 104.551C174.656 104.529 174.673 104.51 174.693 104.496C174.714 104.485 174.738 104.479 174.762 104.479C174.786 104.479 174.81 104.485 174.831 104.496" fill="#4979D4"/>
<path d="M219.882 123.72L219.69 123.61L219.882 123.72ZM219.69 123.385V115.869L134.319 66.5479V74.0639L219.69 123.385ZM134.133 65.9875L219.91 115.534C219.966 115.57 220.013 115.619 220.047 115.677C220.082 115.735 220.101 115.801 220.102 115.869V123.836C220.104 123.86 220.1 123.884 220.09 123.906C220.081 123.928 220.066 123.947 220.047 123.962C220.026 123.975 220.001 123.982 219.976 123.982C219.951 123.982 219.926 123.975 219.904 123.962L134.105 74.4046C134.048 74.3677 134 74.3166 133.968 74.2562C133.932 74.2005 133.913 74.1357 133.913 74.0694V66.1029C133.911 66.0783 133.915 66.0537 133.926 66.0314C133.936 66.0092 133.953 65.9902 133.973 65.9765C133.994 65.9645 134.018 65.9581 134.042 65.9581C134.066 65.9581 134.09 65.9645 134.111 65.9765" fill="#4979D4"/>
<path d="M170.727 147.988L170.53 147.873L170.727 147.988ZM170.53 147.648L170.683 102.497L146.331 88.437L146.205 133.61L170.551 147.67L170.53 147.648ZM146.117 87.8766L170.859 102.161C170.915 102.198 170.962 102.247 170.996 102.304C171.032 102.362 171.051 102.429 171.051 102.497L170.925 148.098C170.928 148.122 170.924 148.146 170.913 148.168C170.902 148.189 170.885 148.207 170.865 148.219C170.844 148.232 170.82 148.238 170.796 148.238C170.772 148.238 170.748 148.232 170.727 148.219L145.985 133.934C145.927 133.899 145.88 133.85 145.848 133.791C145.814 133.734 145.796 133.67 145.793 133.605L145.924 88.003C145.921 87.9789 145.924 87.9543 145.934 87.932C145.944 87.9097 145.959 87.8905 145.979 87.8766C146 87.8651 146.024 87.859 146.048 87.859C146.072 87.859 146.096 87.8651 146.117 87.8766Z" fill="#4979D4"/>
<path d="M142.266 131.572L142.069 131.456L142.266 131.572ZM142.069 131.231L142.195 86.058L132.858 80.6683L132.732 125.841L142.069 131.231ZM132.672 80.1353L142.393 85.7559C142.45 85.7907 142.498 85.8399 142.53 85.8987C142.565 85.9548 142.584 86.0194 142.585 86.0855L142.459 131.687C142.46 131.711 142.456 131.735 142.447 131.757C142.437 131.779 142.422 131.798 142.404 131.813C142.383 131.827 142.359 131.834 142.335 131.834C142.311 131.834 142.287 131.827 142.266 131.813L132.54 126.198C132.482 126.164 132.435 126.114 132.402 126.056C132.369 125.999 132.35 125.935 132.347 125.869L132.479 80.2672C132.477 80.2441 132.482 80.2208 132.491 80.1997C132.501 80.1785 132.516 80.1602 132.534 80.1463C132.555 80.1343 132.579 80.1279 132.603 80.1279C132.627 80.1279 132.651 80.1343 132.672 80.1463" fill="#4979D4"/>
<path d="M151.889 96.5243L167.657 105.634C167.714 105.671 167.762 105.721 167.796 105.78C167.831 105.839 167.851 105.906 167.854 105.974C167.854 106.101 167.767 106.145 167.657 106.084L151.889 96.9748C151.832 96.9385 151.784 96.8893 151.75 96.831C151.715 96.7728 151.695 96.7072 151.691 96.6397C151.691 96.5133 151.779 96.4639 151.889 96.5243Z" fill="#4979D4"/>
<path d="M149.264 98.5681L167.635 109.183C167.692 109.219 167.74 109.268 167.774 109.327C167.809 109.385 167.829 109.45 167.833 109.518C167.833 109.644 167.745 109.694 167.635 109.633L149.264 99.0187C149.208 98.9818 149.161 98.9322 149.128 98.874C149.094 98.8158 149.075 98.7505 149.072 98.6835C149.072 98.5572 149.16 98.5077 149.264 98.5681Z" fill="#4979D4"/>
<path d="M151.867 104.095L167.635 113.204C167.692 113.241 167.74 113.29 167.774 113.348C167.809 113.407 167.829 113.472 167.833 113.54C167.833 113.666 167.745 113.715 167.635 113.649L151.867 104.546C151.81 104.508 151.762 104.458 151.727 104.399C151.693 104.34 151.673 104.273 151.669 104.205C151.669 104.084 151.757 104.035 151.867 104.095Z" fill="#4979D4"/>
<path d="M149.264 106.139L167.641 116.754C167.697 116.791 167.743 116.84 167.777 116.898C167.81 116.957 167.829 117.022 167.833 117.089C167.833 117.21 167.745 117.259 167.635 117.199L149.264 106.584C149.208 106.547 149.161 106.498 149.128 106.439C149.094 106.381 149.075 106.316 149.072 106.249C149.072 106.128 149.16 106.079 149.264 106.139Z" fill="#4979D4"/>
<path d="M135.533 87.0689L140.333 89.816C140.389 89.8532 140.435 89.9028 140.469 89.961C140.502 90.0191 140.521 90.0842 140.525 90.1511C140.525 90.2775 140.438 90.3214 140.333 90.261L135.527 87.5139C135.47 87.478 135.423 87.4287 135.39 87.3703C135.356 87.3118 135.337 87.2461 135.335 87.1788C135.335 87.0579 135.423 87.0084 135.533 87.0689Z" fill="#4979D4"/>
<path d="M134.709 90.1565L140.305 93.3926C140.362 93.4285 140.41 93.4778 140.443 93.5362C140.477 93.5947 140.495 93.6604 140.498 93.7277C140.498 93.8541 140.41 93.9035 140.305 93.8431L134.709 90.607C134.651 90.5715 134.604 90.5223 134.57 90.4638C134.537 90.4053 134.518 90.3393 134.517 90.2719C134.517 90.1455 134.604 90.0961 134.709 90.1565Z" fill="#4979D4"/>
<path d="M135.495 94.6396L140.295 97.3867C140.351 97.4227 140.397 97.4713 140.43 97.5286C140.464 97.5859 140.483 97.6502 140.487 97.7163C140.487 97.8427 140.399 97.8922 140.295 97.8317L135.489 95.0572C135.433 95.0194 135.386 94.9689 135.353 94.9097C135.319 94.8506 135.3 94.7844 135.297 94.7165C135.297 94.5957 135.385 94.5462 135.495 94.6121" fill="#4979D4"/>
<path d="M134.688 97.7275L140.284 100.958C140.341 100.993 140.388 101.041 140.422 101.099C140.455 101.156 140.474 101.221 140.477 101.288C140.477 101.414 140.389 101.463 140.284 101.403L134.688 98.167C134.631 98.1311 134.583 98.0818 134.55 98.0234C134.516 97.9649 134.498 97.8992 134.496 97.8318C134.496 97.711 134.583 97.6615 134.688 97.722" fill="#4979D4"/>
<path d="M151.801 127.748L167.569 136.851C167.627 136.889 167.675 136.939 167.709 136.998C167.743 137.057 167.763 137.124 167.767 137.192C167.767 137.313 167.679 137.362 167.569 137.302L151.801 128.209C151.744 128.173 151.697 128.124 151.662 128.065C151.628 128.007 151.608 127.941 151.604 127.874C151.604 127.748 151.691 127.698 151.801 127.764" fill="#4979D4"/>
<path d="M149.187 129.786L167.559 140.401C167.616 140.437 167.665 140.488 167.699 140.547C167.733 140.606 167.753 140.673 167.756 140.741C167.756 140.862 167.668 140.912 167.559 140.846L149.187 130.236C149.131 130.2 149.084 130.15 149.051 130.092C149.017 130.034 148.998 129.968 148.995 129.901C148.995 129.775 149.083 129.725 149.187 129.786Z" fill="#4979D4"/>
</svg>
