<svg width="474" height="441" viewBox="0 0 474 441" fill="none" xmlns="http://www.w3.org/2000/svg">
<path d="M164.244 400.319C203.539 371.424 212.442 317.528 210.907 268.828C210.6 260.711 211.521 252.269 207.837 245.127C204.153 237.984 195.864 233.114 188.803 236.685C183.278 239.607 180.515 246.425 177.445 252.269C173.147 260.061 167.007 266.23 159.639 270.451C154.727 273.048 148.894 274.672 143.982 272.074C137.535 268.178 136.614 258.438 136.614 250.646C136.614 235.711 136.921 220.776 136.921 205.841C136.921 197.725 136.921 189.608 134.772 181.816C132.316 174.024 127.098 167.205 120.037 164.933C112.669 162.66 103.766 167.205 102.231 174.998C101.617 178.244 102.231 181.816 101.924 185.062C101.617 188.309 100.389 192.205 97.319 193.179C94.2491 194.153 91.1791 191.88 89.0302 189.608C81.0483 181.491 75.8294 171.102 70.9175 160.712C66.0056 150.323 61.0936 139.608 54.0328 130.842C46.9719 122.076 37.148 114.933 26.0962 114.284C15.3514 113.635 3.6856 120.777 0.922648 132.141C-1.84031 143.504 4.29959 154.868 11.3605 164.283C21.4913 177.92 33.4641 189.932 46.6649 199.997C49.1208 201.945 51.5768 203.893 52.4978 206.815C54.0328 212.335 49.4278 217.53 44.2089 219.153C38.683 221.101 32.5431 220.452 26.4032 221.426C20.5703 222.075 14.1234 224.997 11.6675 230.841C8.59752 238.958 15.0444 247.724 21.4913 253.243C34.3851 264.607 48.8138 273.373 64.4706 279.542C69.9965 281.814 75.8294 283.762 80.4343 287.659C85.0392 291.879 87.8022 299.022 85.0392 304.866C82.2763 310.386 75.2154 312.334 69.3825 311.36C63.5496 310.061 58.3307 306.814 52.8048 304.541C42.367 300.321 28.8592 300.97 22.1053 310.71C17.8074 316.879 17.1934 325.645 19.6493 333.113C21.7983 340.58 26.4032 347.073 31.3151 352.917C48.1998 373.696 69.3825 390.579 93.6351 399.345C117.888 407.138 140.298 409.735 164.244 400.319Z" fill="#F5F5F5"/>
<path d="M164.857 436.358C163.322 417.203 159.331 394.476 152.577 370.126C145.823 345.775 136.306 319.477 125.561 292.529C122.799 285.711 120.036 279.218 117.58 272.724C114.817 266.231 112.361 259.737 109.291 253.568C103.458 241.231 97.0109 229.867 90.257 219.153C83.8102 208.439 77.0563 198.699 70.9164 189.608C64.7765 180.517 58.6366 172.076 53.1107 164.609C41.7519 149.674 31.314 138.959 23.6392 131.817C19.9552 128.245 16.8853 125.648 14.7363 123.7C13.8153 122.726 12.8943 122.077 12.2804 121.752C11.6664 121.427 11.3594 121.103 11.3594 121.103C11.3594 121.103 11.6664 121.427 11.9734 121.752C12.5874 122.401 13.2013 123.051 14.1223 124.025C15.9643 125.973 19.0342 128.57 22.7182 132.141C30.0861 139.284 40.5239 150.323 51.8827 165.258C57.4086 172.725 63.5485 181.167 69.6884 190.258C75.8283 199.348 82.2752 209.413 88.7221 220.127C95.169 230.841 101.616 242.205 107.449 254.542C110.519 260.711 112.975 267.205 115.738 273.698C118.501 280.192 120.957 287.01 123.719 293.503C134.464 320.451 143.981 346.424 150.735 370.775C157.489 395.125 161.48 417.528 163.322 436.683" fill="#E0E0E0"/>
<path d="M108.68 253.244C108.68 253.244 108.987 251.945 109.294 249.672C109.601 247.4 110.215 244.153 110.829 240.257C112.057 232.14 112.978 221.101 114.206 208.764C115.434 196.426 116.662 185.387 117.89 177.595C118.504 173.699 119.118 170.452 119.425 168.18C119.732 165.907 120.038 164.608 119.731 164.608C119.731 164.608 119.425 165.907 118.811 167.855C118.197 170.128 117.583 173.375 116.969 177.271C115.434 185.063 114.206 196.426 112.978 208.439C111.75 220.452 110.829 231.491 109.908 239.932C109.601 243.828 109.294 246.75 108.987 249.348C108.68 251.945 108.68 253.244 108.68 253.244Z" fill="#E0E0E0"/>
<path d="M11.0547 233.763C11.0547 233.763 12.5897 234.087 15.0456 234.412C17.5016 234.737 21.1855 235.061 25.7904 235.386C34.6933 236.36 46.9731 238.308 60.4809 240.905C73.6816 243.827 85.9614 246.75 94.5573 249.347C98.8552 250.646 102.539 251.62 104.995 252.269C107.451 252.918 108.679 253.243 108.679 253.243C108.679 253.243 107.451 252.594 104.995 251.62C102.539 250.646 99.1622 249.347 94.8643 248.048C86.2684 245.451 73.9886 242.204 60.4809 239.282C46.9731 236.685 34.6933 234.737 25.4834 234.087C21.1855 234.087 17.5016 233.763 14.7386 233.763C12.2827 233.763 11.0547 233.763 11.0547 233.763Z" fill="#E0E0E0"/>
<path d="M151.352 368.177C151.352 368.177 151.659 367.853 151.966 366.879C152.273 365.905 152.887 364.606 153.501 362.983C155.036 359.736 156.877 354.866 159.333 349.022C163.938 337.334 170.078 320.451 176.525 302.269C182.972 283.763 188.805 267.205 193.41 255.192C195.559 249.348 197.401 244.478 198.629 241.231C199.243 239.608 199.55 238.309 200.164 237.335C200.471 236.361 200.471 236.036 200.471 236.036C200.471 236.036 200.164 236.361 199.857 237.335C199.55 238.309 198.936 239.608 198.322 241.231C196.787 244.478 194.945 249.348 192.489 255.192C187.884 266.88 181.744 283.763 175.297 301.944C168.85 320.451 163.017 337.009 158.412 349.022C156.263 354.866 154.422 359.736 153.194 362.983C152.58 364.606 152.273 365.905 151.659 366.879C151.352 367.528 151.352 368.177 151.352 368.177Z" fill="#E0E0E0"/>
<path d="M21.4922 323.697C21.4922 323.697 21.7992 324.022 22.7202 324.347C23.6412 324.671 24.8691 324.996 26.4041 325.645C29.781 326.944 34.693 328.567 40.2189 330.515C51.8847 334.411 68.1554 340.256 85.9611 346.749C103.767 353.242 120.038 358.762 132.01 362.658C137.843 364.606 142.755 365.905 146.132 366.879C147.667 367.203 148.895 367.528 150.123 367.853C151.044 368.177 151.351 368.177 151.351 368.177C151.351 368.177 151.044 367.853 150.123 367.528C149.202 367.203 147.974 366.879 146.439 366.229C143.062 364.931 138.15 363.307 132.624 361.359C120.959 357.463 104.688 351.619 86.8821 345.126C69.0764 338.632 52.8057 333.113 40.8329 329.217C35 327.269 30.088 325.97 26.7111 324.996C25.1761 324.671 23.9481 324.347 22.7202 324.022C21.7992 324.022 21.4922 323.697 21.4922 323.697Z" fill="#E0E0E0"/>
<path d="M434.398 361.035L280.287 351.619C279.366 349.347 278.752 348.048 278.752 348.048L237 349.022L223.493 348.048C223.493 348.048 223.186 348.373 222.879 349.347L82.889 352.593C54.9525 352.593 25.481 370.775 25.788 393.827C25.481 415.904 35.6118 439.605 60.4784 438.956L251.429 437.657H442.38C467.554 437.982 474 422.073 474 403.242C476.456 367.853 455.581 361.359 434.398 361.035Z" fill="#455A64"/>
<path d="M77.6719 438.631C77.6719 438.631 77.9789 438.631 78.5929 438.631C79.2069 438.631 80.1278 438.631 81.3558 438.631C83.8118 438.631 87.1887 438.631 91.7936 438.631C101.003 438.631 113.897 438.306 130.168 438.306C162.709 438.306 207.838 437.982 258.492 437.657L257.878 438.306C257.571 433.761 257.264 429.215 256.957 424.345C256.343 414.605 255.729 404.865 255.115 395.774L255.729 396.424C208.759 390.904 167.314 386.359 137.536 382.787C122.8 381.164 110.827 379.541 102.538 378.567C98.5475 377.917 95.1706 377.593 93.0216 377.268C92.1006 377.268 91.1797 376.943 90.5657 376.943C89.9517 376.943 89.6447 376.943 89.6447 376.943C89.6447 376.943 89.9517 376.943 90.5657 376.943C91.1797 376.943 92.1006 376.943 93.0216 377.268C95.1706 377.593 98.5475 377.917 102.538 378.242C110.827 379.216 122.8 380.515 137.536 382.138C167.314 385.385 208.759 389.93 255.729 395.45H256.036V395.774C256.65 404.865 257.264 414.605 257.878 424.345C258.185 429.215 258.492 433.761 258.799 438.306V438.956H258.185C207.838 438.956 162.709 438.956 129.861 439.28C113.59 439.28 100.389 439.28 91.4866 439.28C86.8817 439.28 83.5048 439.28 81.0488 439.28C79.8208 439.28 78.8999 439.28 78.2859 439.28C78.2859 438.956 77.6719 438.631 77.6719 438.631Z" fill="#263238"/>
<path d="M116.965 380.84C116.965 380.84 114.816 379.216 111.44 377.268C108.063 374.995 103.151 372.398 97.3178 370.775C91.4849 369.151 85.9589 368.502 82.275 368.502C78.2841 368.502 75.8281 368.827 75.8281 368.502C75.8281 368.502 76.4421 368.177 77.6701 368.177C78.8981 367.853 80.433 367.853 82.275 367.853C86.2659 367.528 91.7919 368.177 97.6248 369.801C103.458 371.424 108.37 374.346 111.747 376.619C113.281 377.917 114.816 378.891 115.43 379.541C116.658 380.19 116.965 380.515 116.965 380.84Z" fill="#263238"/>
<path d="M354.743 388.941C392.199 379.575 422.5 371.7 422.422 371.351C422.344 371.002 391.917 378.311 354.461 387.677C317.005 397.043 286.704 404.919 286.782 405.268C286.86 405.617 317.287 398.307 354.743 388.941Z" fill="#263238"/>
<path d="M396.638 368.177C396.638 368.502 390.805 369.801 384.665 374.346C378.525 378.567 375.148 384.086 375.148 383.762C375.148 383.762 375.762 382.138 377.297 380.19C378.832 378.242 381.288 375.645 384.358 373.372C387.428 371.099 390.498 369.801 392.954 369.151C395.103 368.177 396.638 367.853 396.638 368.177Z" fill="#263238"/>
<path d="M256.648 400.32L285.199 404.541L285.506 437.658L259.104 437.008L256.648 400.32Z" fill="#B78876"/>
<path d="M285.199 404.541H298.093C300.549 404.541 303.005 405.19 305.154 406.489L311.908 410.71C314.057 412.008 321.425 415.905 323.881 416.554C331.862 419.151 345.063 422.723 347.826 424.995C355.808 431.489 353.352 439.281 349.054 439.93C345.37 440.58 285.199 437.333 285.199 437.333V404.541Z" fill="#007FDB"/>
<path d="M306.691 434.736C306.384 434.736 305.463 430.84 305.156 426.294C304.849 421.424 305.77 417.528 306.077 417.528C306.384 417.528 306.077 421.424 306.384 426.294C306.384 430.84 306.998 434.736 306.691 434.736Z" fill="#263238"/>
<path d="M312.311 426.717C312.289 431.02 312.547 434.511 312.886 434.512C313.225 434.514 313.517 431.027 313.539 426.724C313.561 422.42 313.303 418.93 312.964 418.928C312.625 418.926 312.333 422.413 312.311 426.717Z" fill="#263238"/>
<path d="M318.643 427.687C318.984 432.156 319.534 435.755 319.872 435.726C320.21 435.697 320.208 432.051 319.867 427.583C319.526 423.115 318.976 419.516 318.638 419.544C318.3 419.573 318.302 423.219 318.643 427.687Z" fill="#263238"/>
<path d="M301.163 425.97C301.163 425.97 300.242 425.97 298.4 424.996C296.866 424.346 294.41 423.048 291.954 420.775C291.34 420.126 290.726 419.476 290.112 418.827C289.498 418.178 288.884 417.528 288.577 416.23C288.27 415.255 288.27 413.957 288.884 412.983C289.191 412.333 289.805 412.009 290.419 412.009C291.033 412.009 291.647 412.009 292.261 412.333C296.559 413.957 299.935 418.178 300.856 423.697C301.47 429.216 298.707 434.086 295.024 436.684C294.103 437.333 293.182 437.982 291.954 437.982C291.34 437.982 290.726 437.982 290.419 437.982C289.805 437.658 289.498 437.333 289.191 436.684C288.577 435.385 289.191 434.411 289.498 433.437C290.112 432.463 290.726 431.814 291.033 431.164C293.489 428.892 295.638 427.593 297.48 426.619C299.014 425.97 300.242 425.645 300.242 425.97C300.242 425.97 299.321 426.294 297.786 427.268C296.252 428.242 294.103 429.541 291.954 431.814C291.34 432.463 290.726 433.112 290.419 433.762C290.112 434.411 289.805 435.385 290.112 436.034C290.419 436.684 291.34 437.008 292.261 436.684C293.182 436.359 294.103 436.034 294.717 435.385C298.093 433.112 300.549 428.242 299.935 423.372C299.321 418.502 295.945 414.281 292.261 412.983C291.34 412.658 290.419 412.658 289.805 413.307C289.191 413.957 289.191 414.931 289.498 415.58C290.112 417.204 291.647 418.502 292.568 419.476C297.173 424.671 301.163 425.645 301.163 425.97Z" fill="#263238"/>
<path d="M349.36 439.93C349.36 439.93 350.281 439.281 350.895 437.982C351.509 436.359 351.509 433.761 349.974 431.164C348.439 428.567 345.676 426.294 341.992 424.671C338.308 423.372 334.01 422.723 329.712 421.099C320.809 418.177 313.442 414.281 308.223 410.71C305.767 409.086 303.618 407.463 302.39 406.489C301.162 405.515 300.241 404.866 300.548 404.541C300.548 404.541 301.469 404.866 302.697 406.164C304.232 407.138 306.074 408.437 308.53 410.06C313.749 413.307 321.116 417.203 329.712 419.801C334.01 421.099 338.308 421.749 342.299 423.372C345.983 424.671 349.053 427.268 350.588 430.19C352.123 433.112 352.123 436.034 351.202 437.658C350.895 438.632 350.281 438.956 349.974 439.281C349.667 439.93 349.36 440.255 349.36 439.93Z" fill="#263238"/>
<path d="M224.415 3.24707C215.512 6.81846 205.381 21.4287 203.54 31.1688C202.005 39.9349 204.154 49.0257 205.074 57.7919C206.302 66.558 205.995 76.6228 200.47 83.4409C197.093 87.6616 192.181 90.259 188.19 93.8304C182.357 99.0251 178.98 106.817 178.366 114.609C177.752 122.726 180.515 130.843 185.427 136.687C178.673 138.31 174.375 145.453 174.375 152.596C174.682 159.739 178.673 166.232 184.199 170.453C189.725 174.674 196.479 176.622 202.926 178.245C209.986 179.544 217.354 180.193 224.108 177.596C232.09 174.674 237.923 167.531 244.063 161.687C251.738 154.544 260.641 148.375 266.166 139.284C272.613 128.57 273.534 115.259 273.534 102.597C273.534 76.6228 270.157 50.9738 264.324 25.6494" fill="#263238"/>
<path d="M338.923 181.815L388.042 271.425C394.182 282.464 394.489 296.1 389.27 307.463C383.13 320.775 369.929 328.892 356.114 328.567L281.208 326.619L279.059 297.723L345.062 284.087L300.241 202.919L338.923 181.815Z" fill="#B78876"/>
<path d="M157.489 336.035L226.563 355.19L228.097 333.437L164.55 294.477L210.599 203.244L171.61 182.141L122.798 272.399C111.132 295.776 122.184 324.347 145.823 332.463L157.489 336.035Z" fill="#B78876"/>
<path d="M318.354 239.607L365.324 213.309C365.324 213.309 357.342 195.777 345.062 177.92C330.327 156.491 307.916 141.881 282.129 136.037L228.097 137.011C220.423 137.985 213.976 139.608 208.757 141.881V141.557C179.285 148.375 147.051 216.231 147.051 216.231L190.03 239.932L190.951 247.075C192.179 256.49 196.17 265.256 202.31 272.399L190.03 359.086L329.099 361.684L311.293 299.671L318.354 239.607Z" fill="#007FDB"/>
<path d="M203.233 272.724C203.233 272.724 202.312 272.075 201.084 271.101C199.856 269.802 198.014 268.179 196.479 265.581C193.102 260.386 189.725 251.62 190.646 241.88C191.26 237.01 192.488 232.789 193.716 228.569C194.944 224.673 196.172 221.101 197.4 218.179C198.628 215.257 199.549 212.984 200.163 211.361C200.777 209.738 201.391 208.764 201.391 208.764C201.391 208.764 201.084 209.738 200.47 211.361C199.856 213.309 198.935 215.582 198.014 218.504C197.093 221.426 195.865 224.997 194.637 228.893C193.409 232.789 192.181 237.335 191.567 241.88C191.26 246.426 191.874 250.971 192.795 255.192C193.716 259.088 195.558 262.334 197.093 264.932C200.47 270.451 203.54 272.724 203.233 272.724Z" fill="#263238"/>
<path d="M199.974 188.331C203.699 193.669 207.05 197.738 207.46 197.418C207.869 197.099 205.181 192.512 201.456 187.174C197.731 181.836 194.379 177.768 193.97 178.087C193.561 178.407 196.249 182.993 199.974 188.331Z" fill="#FAFAFA"/>
<path d="M221.768 162.854C226.507 160.062 230.149 157.417 229.902 156.947C229.654 156.477 225.611 158.36 220.871 161.152C216.131 163.945 212.49 166.59 212.737 167.06C212.985 167.53 217.028 165.647 221.768 162.854Z" fill="#FAFAFA"/>
<path d="M175.461 204.56C175.064 209.923 175.154 214.305 175.661 214.347C176.168 214.389 176.901 210.075 177.297 204.712C177.694 199.349 177.605 194.967 177.097 194.925C176.59 194.883 175.858 199.197 175.461 204.56Z" fill="#FAFAFA"/>
<path d="M217.885 238.849C222.476 236.141 225.996 233.565 225.748 233.095C225.501 232.626 221.578 234.44 216.988 237.147C212.397 239.855 208.877 242.431 209.124 242.901C209.372 243.37 213.294 241.556 217.885 238.849Z" fill="#FAFAFA"/>
<path d="M236.552 201.385C239.923 197.356 242.346 193.801 241.965 193.444C241.584 193.088 238.543 196.065 235.173 200.094C231.802 204.123 229.379 207.679 229.76 208.035C230.141 208.391 233.182 205.414 236.552 201.385Z" fill="#FAFAFA"/>
<path d="M268.711 198.38C271.455 202.477 274.016 205.546 274.431 205.235C274.846 204.924 272.958 201.351 270.215 197.254C267.471 193.157 264.91 190.088 264.495 190.399C264.08 190.71 265.967 194.283 268.711 198.38Z" fill="#FAFAFA"/>
<path d="M255.354 231.191C255.929 237.438 256.806 242.459 257.313 242.407C257.819 242.355 257.763 237.249 257.187 231.002C256.611 224.756 255.734 219.735 255.228 219.787C254.722 219.839 254.778 224.945 255.354 231.191Z" fill="#FAFAFA"/>
<path d="M238.761 266.217C241.366 271.046 243.836 274.744 244.278 274.477C244.719 274.21 242.966 270.08 240.361 265.252C237.756 260.424 235.286 256.726 234.845 256.992C234.403 257.259 236.156 261.389 238.761 266.217Z" fill="#FAFAFA"/>
<path d="M282.031 264.972C285.354 260.436 287.721 256.491 287.319 256.162C286.917 255.832 283.897 259.243 280.575 263.779C277.252 268.316 274.885 272.26 275.287 272.59C275.689 272.919 278.708 269.509 282.031 264.972Z" fill="#FAFAFA"/>
<path d="M305.766 237.334C305.459 237.659 300.854 235.711 295.942 231.49C291.03 227.269 287.96 223.049 288.267 222.724C288.574 222.399 292.258 226.295 296.863 230.192C301.775 234.088 306.073 237.01 305.766 237.334Z" fill="#FAFAFA"/>
<path d="M325.131 212.012C331.063 211.858 335.862 211.297 335.85 210.759C335.837 210.221 331.018 209.91 325.085 210.065C319.153 210.219 314.354 210.78 314.366 211.317C314.379 211.855 319.198 212.166 325.131 212.012Z" fill="#FAFAFA"/>
<g opacity="0.3">
<g opacity="0.3">
<g opacity="0.3">
<path opacity="0.3" d="M343.526 170.128C348.438 178.245 349.052 188.634 345.675 197.4C342.298 206.166 334.316 212.66 325.72 214.608C316.817 216.556 307.301 213.309 300.854 206.816C299.319 205.192 298.091 203.569 295.942 202.595C294.1 201.621 291.951 201.621 290.109 201.296C283.048 199.998 276.601 194.803 273.838 187.66C271.075 180.517 271.996 172.076 275.987 165.907L343.526 170.128Z" fill="black"/>
</g>
</g>
</g>
<path d="M182.662 380.19L174.68 283.438L343.834 282.789L333.089 380.84L182.662 380.19Z" fill="#263238"/>
<path d="M259.409 346.1C265.343 346.1 270.154 341.012 270.154 334.737C270.154 328.461 265.343 323.373 259.409 323.373C253.475 323.373 248.664 328.461 248.664 334.737C248.664 341.012 253.475 346.1 259.409 346.1Z" fill="#FAFAFA"/>
<path d="M262.171 170.452C276.293 170.128 287.959 157.79 287.959 142.855L289.187 31.493C289.187 26.9476 286.117 23.0515 281.819 22.4022L237.305 10.714C223.183 9.09068 213.666 27.5969 212.745 42.8565C211.824 59.7394 211.21 80.1937 213.052 92.5312C216.736 117.856 235.156 120.778 235.156 120.778C235.156 120.778 235.156 130.518 235.156 142.531C235.156 158.115 247.436 170.777 262.171 170.452Z" fill="#B78876"/>
<path d="M221.953 59.0899C221.953 60.7133 223.181 62.3366 225.023 62.3366C226.558 62.3366 228.093 61.038 228.093 59.4146C228.093 57.7912 226.865 56.1679 225.023 56.1679C223.488 55.8432 221.953 57.1419 221.953 59.0899Z" fill="#263238"/>
<path d="M216.734 53.2457C217.041 53.5704 219.497 51.9471 222.567 51.9471C225.944 51.9471 228.4 53.5704 228.707 53.2457C229.014 52.9211 228.4 52.2717 227.479 51.6224C226.558 50.973 224.716 49.999 222.567 49.999C220.418 49.999 218.883 50.6484 217.962 51.6224C217.041 52.2717 216.734 53.2457 216.734 53.2457Z" fill="#263238"/>
<path d="M253.27 59.0899C253.27 60.7133 254.498 62.3366 256.339 62.3366C257.874 62.3366 259.409 61.038 259.409 59.4146C259.409 57.7912 258.181 56.1679 256.339 56.1679C254.498 55.8432 253.27 57.1419 253.27 59.0899Z" fill="#263238"/>
<path d="M249.279 53.8952C249.586 54.2198 252.042 52.5965 255.112 52.5965C258.489 52.5965 260.945 54.2198 261.251 53.8952C261.558 53.5705 260.944 52.9211 260.024 52.2718C259.103 51.6225 257.261 50.6484 255.112 50.6484C252.963 50.6484 251.428 51.2978 250.507 52.2718C249.279 52.9211 248.972 53.8952 249.279 53.8952Z" fill="#263238"/>
<path d="M237.303 79.8694C237.303 79.5447 235.154 79.22 232.084 78.8954C231.163 78.8954 230.549 78.5707 230.242 77.9214C229.935 77.272 230.549 76.298 230.856 75.324C231.777 73.0513 232.391 70.7786 233.312 68.5059C236.689 58.7657 239.145 50.9736 238.838 50.9736C238.531 50.9736 235.461 58.4411 232.084 68.1812C231.163 70.4539 230.549 72.7266 229.628 74.9993C229.321 75.9733 228.707 77.272 229.321 78.5707C229.628 79.22 230.242 79.8694 230.549 79.8694C231.163 80.1941 231.47 80.1941 232.084 80.1941C235.154 79.8694 237.303 79.8694 237.303 79.8694Z" fill="#263238"/>
<path d="M234.848 120.777C234.848 120.777 250.811 121.751 266.775 111.687C266.775 111.687 259.1 128.894 235.155 126.621L234.848 120.777Z" fill="#AA6550"/>
<path d="M238.534 87.9863C239.762 86.3629 241.911 85.3889 243.752 85.7136C245.287 85.7136 246.515 86.6876 247.436 87.9863C248.357 89.285 248.357 90.9083 247.743 92.207C246.822 93.5057 244.98 93.8304 243.445 93.5057C241.911 93.181 240.683 91.8823 239.148 90.9083C238.841 90.5836 238.534 90.259 238.227 89.9343C238.227 88.9603 238.227 88.6356 238.534 87.9863Z" fill="#AA6550"/>
<path d="M246.821 82.1416C246.207 82.1416 246.207 86.0377 243.137 88.635C240.067 91.2324 236.383 90.9077 236.383 91.5571C236.383 91.8817 237.304 92.2064 238.839 92.2064C240.374 92.2064 242.83 91.8817 244.672 89.9337C246.514 88.3104 247.435 86.0377 247.435 84.4143C247.435 83.1156 247.128 82.1416 246.821 82.1416Z" fill="#263238"/>
<path d="M247.743 48.0509C248.05 49.0249 251.427 48.7003 255.111 49.0249C259.102 49.3496 262.172 50.6483 262.479 49.6743C262.786 49.3496 262.172 48.3756 260.944 47.4016C259.716 46.4276 257.567 45.7782 255.418 45.4535C252.962 45.1289 251.12 45.4535 249.585 46.1029C248.357 46.7522 247.436 47.4016 247.743 48.0509Z" fill="#263238"/>
<path d="M217.35 47.0772C217.963 47.7266 220.112 47.0772 222.875 47.0772C225.638 47.0772 227.787 47.7266 228.401 46.7526C228.708 46.4279 228.401 45.4539 227.173 44.8045C226.252 44.1552 224.41 43.5059 222.568 43.5059C220.726 43.5059 219.191 44.1552 218.27 45.1292C217.349 45.7786 217.043 46.4279 217.35 47.0772Z" fill="#263238"/>
<path d="M346.904 159.414C342.606 151.297 332.782 146.102 332.782 137.011C332.782 131.492 336.773 126.297 337.08 120.778C337.694 109.414 323.879 103.57 320.195 92.8561C316.818 83.1159 322.651 72.4018 320.502 62.337C318.046 49.9995 307.608 45.1294 298.706 37.0126C295.022 33.4412 292.259 28.8958 289.803 24.3504C289.496 23.7011 289.189 23.0517 288.882 22.7271C283.049 12.3376 272.611 5.19481 261.252 3.89613C248.358 -0.973943 234.851 0.649414 229.018 2.27277C223.492 3.24679 217.966 5.84416 214.282 10.7142C210.291 15.2596 208.449 22.0777 209.984 27.9218C211.519 33.7659 217.352 38.3113 223.185 37.662C227.483 37.0126 231.781 33.7659 236.079 35.0646C240.069 36.3633 242.218 41.558 246.516 42.2074C250.507 42.8567 254.191 39.2853 258.182 38.636C262.787 38.3113 266.778 42.2074 268.62 46.4281C269.541 48.0514 270.155 49.9995 270.462 51.6228C273.839 69.4797 280.286 77.5965 275.681 87.986C273.225 93.5054 269.234 98.3755 268.62 104.544C267.085 118.505 284.277 128.57 283.356 142.531C283.049 148.375 279.365 153.57 277.216 159.089C273.225 170.453 277.216 184.738 286.733 191.881C291.645 195.452 298.092 197.4 303.617 195.128C304.231 194.803 304.845 194.478 305.459 194.154C308.529 197.076 312.52 199.348 316.511 200.322C326.642 202.595 337.08 196.426 343.22 187.66C349.053 179.868 351.816 168.18 346.904 159.414Z" fill="#263238"/>
<path d="M305.765 194.479C305.765 194.154 309.142 194.154 314.054 191.556C316.51 190.258 319.58 187.985 322.036 184.738C324.492 181.492 326.948 177.271 327.869 172.076C328.79 166.881 327.869 160.713 325.106 155.193C322.343 149.674 317.431 145.128 311.291 142.531C308.221 140.908 304.845 139.609 302.389 136.362C299.933 133.44 299.012 128.895 299.626 124.999C300.24 121.103 301.775 117.207 303.617 113.635C305.459 110.064 307.3 106.493 308.528 102.597C309.756 98.7005 309.756 94.8044 308.221 91.233C306.686 87.6616 304.231 84.7396 301.775 81.8176C299.319 78.8955 296.556 76.2981 294.407 73.3761C291.951 70.4541 290.416 67.2073 288.881 63.636C286.118 56.8179 284.89 49.9998 283.969 43.831C282.741 37.6622 281.82 31.8182 280.285 26.6234C277.215 16.2339 271.382 9.41583 266.777 6.49378C261.865 3.24707 258.488 3.57174 258.488 3.24707C258.488 3.24707 258.795 3.24707 259.102 3.24707C259.409 3.24707 260.023 3.24707 260.944 3.57174C262.479 3.89641 264.628 4.54576 267.084 6.16911C269.54 7.79247 272.303 10.0652 275.066 13.6366C277.522 16.8833 279.978 21.4287 281.513 26.6234C283.048 31.8182 284.276 37.6622 285.504 43.831C286.732 49.9998 287.96 56.8179 290.416 63.3113C291.644 66.558 293.486 69.8047 295.635 72.4021C297.784 75.3241 300.547 77.9215 303.003 80.8435C305.458 83.7656 308.221 86.6876 309.756 90.5837C311.291 94.4797 311.291 99.0251 310.063 103.246C307.607 111.363 302.082 117.531 301.161 125.324C300.547 128.895 301.161 132.791 303.31 135.388C305.459 137.986 308.835 139.609 311.598 140.908C314.668 142.206 317.738 144.154 320.194 146.427C322.65 148.7 324.492 151.622 326.027 154.219C328.79 160.063 329.711 166.232 328.79 171.752C327.869 177.271 325.413 181.816 322.65 185.063C319.887 188.31 316.817 190.582 314.361 191.881C311.598 193.18 309.449 193.829 307.914 194.154C307.3 194.154 306.686 194.154 306.072 194.479C305.765 194.479 305.765 194.479 305.765 194.479Z" fill="#455A64"/>
</svg>
