<svg width="11" height="11" viewBox="0 0 11 11" fill="none" xmlns="http://www.w3.org/2000/svg">
<g clip-path="url(#clip0_1379_609)">
<path d="M8.85506 7.86555H9.69182V8.70231H1.32422V7.86555H2.16098V4.93688C2.16098 4.04919 2.51361 3.19786 3.1413 2.57017C3.769 1.94248 4.62033 1.58984 5.50802 1.58984C6.39571 1.58984 7.24704 1.94248 7.87473 2.57017C8.50243 3.19786 8.85506 4.04919 8.85506 4.93688V7.86555ZM8.0183 7.86555V4.93688C8.0183 4.27112 7.75383 3.63262 7.28306 3.16185C6.81229 2.69108 6.17379 2.4266 5.50802 2.4266C4.84225 2.4266 4.20375 2.69108 3.73298 3.16185C3.26221 3.63262 2.99774 4.27112 2.99774 4.93688V7.86555H8.0183ZM4.25288 9.53907H6.76316V10.3758H4.25288V9.53907Z" fill="black"/>
</g>
<circle cx="8.02118" cy="2.84442" r="1.67352" fill="#ED5B75"/>
<defs>
<clipPath id="clip0_1379_609">
<rect width="10.0411" height="10.0411" fill="white" transform="translate(0.488281 0.75293)"/>
</clipPath>
</defs>
</svg>
