<svg width="834" height="284" viewBox="0 0 834 284" fill="none" xmlns="http://www.w3.org/2000/svg">
<rect y="0.0800781" width="833.177" height="283.496" fill="#3734A9"/>
<g clip-path="url(#clip0_1171_537)">
<path d="M611.134 259.953C633.871 242.751 639.022 210.668 638.134 181.678C637.956 176.846 638.489 171.821 636.357 167.569C634.226 163.317 629.43 160.418 625.345 162.544C622.147 164.283 620.549 168.342 618.772 171.821C616.286 176.459 612.733 180.132 608.47 182.644C605.628 184.19 602.253 185.157 599.411 183.61C595.681 181.291 595.148 175.493 595.148 170.854C595.148 161.964 595.326 153.074 595.326 144.183C595.326 139.351 595.326 134.52 594.082 129.881C592.661 125.242 589.642 121.184 585.556 119.831C581.293 118.478 576.142 121.184 575.254 125.822C574.899 127.755 575.254 129.881 575.076 131.814C574.899 133.746 574.188 136.066 572.412 136.645C570.636 137.225 568.86 135.872 567.616 134.52C562.998 129.688 559.978 123.503 557.136 117.318C554.294 111.134 551.452 104.756 547.367 99.5374C543.281 94.3191 537.597 90.0671 531.203 89.6806C524.986 89.294 518.236 93.546 516.638 100.31C515.039 107.075 518.591 113.839 522.677 119.444C528.538 127.562 535.466 134.713 543.104 140.704C544.525 141.864 545.946 143.023 546.479 144.763C547.367 148.048 544.702 151.141 541.683 152.107C538.486 153.267 534.933 152.88 531.38 153.46C528.006 153.847 524.275 155.586 522.854 159.065C521.078 163.897 524.808 169.115 528.538 172.401C535.999 179.165 544.347 184.383 553.406 188.056C556.603 189.409 559.978 190.568 562.643 192.887C565.307 195.4 566.906 199.652 565.307 203.131C563.708 206.416 559.623 207.576 556.248 206.996C552.873 206.223 549.854 204.29 546.656 202.938C540.617 200.425 532.801 200.812 528.894 206.61C526.407 210.282 526.052 215.5 527.473 219.945C528.716 224.391 531.38 228.256 534.222 231.735C543.992 244.104 556.248 254.154 570.281 259.373C584.313 264.011 597.28 265.557 611.134 259.953Z" fill="#F5F5F5"/>
<path d="M611.489 281.407C610.601 270.004 608.291 256.475 604.384 241.979C600.476 227.484 594.969 211.829 588.753 195.787C587.154 191.729 585.555 187.863 584.134 183.998C582.536 180.133 581.115 176.267 579.338 172.595C575.964 165.251 572.233 158.486 568.326 152.108C564.595 145.73 560.688 139.932 557.135 134.52C553.583 129.109 550.03 124.084 546.833 119.639C540.261 110.748 534.221 104.37 529.781 100.118C527.649 97.9922 525.873 96.446 524.63 95.2864C524.097 94.7066 523.564 94.32 523.209 94.1268C522.853 93.9335 522.676 93.7402 522.676 93.7402C522.676 93.7402 522.853 93.9335 523.031 94.1268C523.386 94.5133 523.742 94.8999 524.274 95.4797C525.34 96.6393 527.116 98.1855 529.248 100.311C533.511 104.563 539.55 111.135 546.122 120.025C549.32 124.47 552.872 129.495 556.425 134.907C559.977 140.319 563.707 146.31 567.437 152.688C571.168 159.066 574.898 165.83 578.273 173.175C580.049 176.847 581.47 180.712 583.069 184.578C584.667 188.443 586.088 192.502 587.687 196.367C593.904 212.409 599.41 227.871 603.318 242.366C607.226 256.861 609.535 270.197 610.601 281.6" fill="#E0E0E0"/>
<path d="M578.984 172.4C578.984 172.4 579.162 171.627 579.34 170.274C579.517 168.921 579.872 166.988 580.228 164.669C580.938 159.837 581.471 153.266 582.182 145.922C582.892 138.577 583.603 132.006 584.313 127.368C584.668 125.048 585.024 123.116 585.201 121.763C585.379 120.41 585.557 119.637 585.379 119.637C585.379 119.637 585.201 120.41 584.846 121.569C584.491 122.922 584.136 124.855 583.78 127.174C582.892 131.813 582.182 138.577 581.471 145.728C580.761 152.879 580.228 159.451 579.695 164.476C579.517 166.795 579.34 168.534 579.162 170.081C578.984 171.627 578.984 172.4 578.984 172.4Z" fill="#E0E0E0"/>
<path d="M522.5 160.805C522.5 160.805 523.388 160.998 524.809 161.191C526.23 161.384 528.362 161.578 531.026 161.771C536.177 162.351 543.282 163.51 551.098 165.057C558.736 166.796 565.841 168.536 570.814 170.082C573.301 170.855 575.432 171.435 576.853 171.821C578.275 172.208 578.985 172.401 578.985 172.401C578.985 172.401 578.275 172.014 576.853 171.435C575.432 170.855 573.479 170.082 570.992 169.309C566.018 167.762 558.913 165.83 551.098 164.09C543.282 162.544 536.177 161.384 530.848 160.998C528.362 160.998 526.23 160.805 524.632 160.805C523.211 160.805 522.5 160.805 522.5 160.805Z" fill="#E0E0E0"/>
<path d="M603.676 240.82C603.676 240.82 603.853 240.626 604.031 240.047C604.209 239.467 604.564 238.694 604.919 237.727C605.807 235.795 606.873 232.895 608.294 229.417C610.958 222.459 614.511 212.409 618.241 201.586C621.971 190.569 625.346 180.712 628.011 173.561C629.254 170.082 630.32 167.183 631.03 165.251C631.385 164.284 631.563 163.511 631.918 162.931C632.096 162.351 632.096 162.158 632.096 162.158C632.096 162.158 631.918 162.351 631.741 162.931C631.563 163.511 631.208 164.284 630.853 165.251C629.964 167.183 628.899 170.082 627.478 173.561C624.813 180.519 621.261 190.569 617.531 201.392C613.8 212.409 610.426 222.266 607.761 229.417C606.518 232.895 605.452 235.795 604.742 237.727C604.386 238.694 604.209 239.467 603.853 240.047C603.676 240.433 603.676 240.82 603.676 240.82Z" fill="#E0E0E0"/>
<path d="M528.539 214.34C528.539 214.34 528.717 214.533 529.25 214.726C529.782 214.92 530.493 215.113 531.381 215.499C533.335 216.273 536.177 217.239 539.374 218.399C546.124 220.718 555.538 224.197 565.84 228.062C576.143 231.928 585.557 235.213 592.484 237.532C595.859 238.692 598.701 239.465 600.655 240.045C601.543 240.238 602.254 240.431 602.964 240.625C603.497 240.818 603.675 240.818 603.675 240.818C603.675 240.818 603.497 240.625 602.964 240.431C602.431 240.238 601.721 240.045 600.833 239.658C598.879 238.885 596.037 237.919 592.84 236.759C586.09 234.44 576.676 230.961 566.373 227.096C556.071 223.23 546.657 219.945 539.729 217.625C536.355 216.466 533.513 215.693 531.559 215.113C530.671 214.92 529.96 214.726 529.25 214.533C528.717 214.533 528.539 214.34 528.539 214.34Z" fill="#E0E0E0"/>
<path d="M767.447 236.567L678.279 230.962C677.746 229.609 677.391 228.836 677.391 228.836L653.234 229.416L645.418 228.836C645.418 228.836 645.241 229.029 645.063 229.609L564.066 231.542C547.902 231.542 530.85 242.365 531.027 256.087C530.85 269.23 536.711 283.338 551.099 282.952L661.582 282.179H772.066C786.631 282.372 790.361 272.902 790.361 261.692C791.782 240.625 779.703 236.76 767.447 236.567Z" fill="#455A64"/>
<path d="M561.047 282.759C561.047 282.759 561.225 282.759 561.58 282.759C561.935 282.759 562.468 282.759 563.178 282.759C564.599 282.759 566.553 282.759 569.218 282.759C574.546 282.759 582.007 282.565 591.421 282.565C610.249 282.565 636.36 282.372 665.668 282.179L665.313 282.565C665.136 279.86 664.958 277.154 664.78 274.255C664.425 268.457 664.07 262.658 663.715 257.247L664.07 257.633C636.893 254.348 612.914 251.642 595.684 249.516C587.158 248.55 580.23 247.583 575.435 247.003C573.125 246.617 571.172 246.424 569.928 246.23C569.395 246.23 568.862 246.037 568.507 246.037C568.152 246.037 567.974 246.037 567.974 246.037C567.974 246.037 568.152 246.037 568.507 246.037C568.862 246.037 569.395 246.037 569.928 246.23C571.172 246.424 573.125 246.617 575.435 246.81C580.23 247.39 587.158 248.163 595.684 249.129C612.914 251.062 636.893 253.768 664.07 257.054H664.247V257.247C664.603 262.658 664.958 268.457 665.313 274.255C665.491 277.154 665.668 279.86 665.846 282.565V282.952H665.491C636.36 282.952 610.249 282.952 591.243 283.145C581.829 283.145 574.191 283.145 569.04 283.145C566.376 283.145 564.422 283.145 563.001 283.145C562.29 283.145 561.757 283.145 561.402 283.145C561.402 282.952 561.047 282.759 561.047 282.759Z" fill="#263238"/>
<path d="M583.782 248.357C583.782 248.357 582.539 247.391 580.585 246.231C578.631 244.878 575.789 243.332 572.414 242.366C569.039 241.4 565.842 241.013 563.711 241.013C561.401 241.013 559.98 241.206 559.98 241.013C559.98 241.013 560.336 240.82 561.046 240.82C561.757 240.626 562.645 240.626 563.711 240.626C566.02 240.433 569.217 240.82 572.592 241.786C575.967 242.752 578.809 244.492 580.763 245.845C581.651 246.618 582.539 247.198 582.894 247.584C583.605 247.971 583.782 248.164 583.782 248.357Z" fill="#263238"/>
<path d="M721.361 253.179C743.033 247.603 760.565 242.915 760.52 242.708C760.475 242.5 742.869 246.851 721.197 252.426C699.526 258.002 681.994 262.69 682.039 262.898C682.084 263.105 699.689 258.754 721.361 253.179Z" fill="#263238"/>
<path d="M745.598 240.819C745.598 241.012 742.223 241.785 738.67 244.491C735.118 247.003 733.164 250.289 733.164 250.096C733.164 250.096 733.519 249.129 734.407 247.97C735.296 246.81 736.717 245.264 738.493 243.911C740.269 242.558 742.045 241.785 743.466 241.398C744.71 240.819 745.598 240.625 745.598 240.819Z" fill="#263238"/>
<path d="M664.602 259.953L681.121 262.466L681.298 282.179L666.023 281.793L664.602 259.953Z" fill="#B78876"/>
<path d="M681.121 262.465H688.581C690.002 262.465 691.423 262.851 692.667 263.624L696.575 266.137C697.818 266.91 702.081 269.229 703.502 269.616C708.12 271.162 715.758 273.288 717.357 274.641C721.975 278.506 720.554 283.145 718.067 283.531C715.936 283.918 681.121 281.985 681.121 281.985V262.465Z" fill="#007FDB"/>
<path d="M693.557 280.439C693.379 280.439 692.846 278.119 692.669 275.414C692.491 272.515 693.024 270.195 693.201 270.195C693.379 270.195 693.201 272.515 693.379 275.414C693.379 278.119 693.734 280.439 693.557 280.439Z" fill="#263238"/>
<path d="M696.806 275.666C696.793 278.227 696.942 280.305 697.139 280.306C697.335 280.307 697.504 278.232 697.516 275.67C697.529 273.108 697.38 271.03 697.184 271.029C696.988 271.028 696.818 273.104 696.806 275.666Z" fill="#263238"/>
<path d="M700.473 276.244C700.67 278.904 700.989 281.046 701.184 281.029C701.38 281.012 701.379 278.842 701.181 276.182C700.984 273.522 700.666 271.379 700.47 271.396C700.275 271.413 700.276 273.584 700.473 276.244Z" fill="#263238"/>
<path d="M690.356 275.221C690.356 275.221 689.823 275.221 688.758 274.641C687.87 274.254 686.449 273.481 685.028 272.128C684.672 271.742 684.317 271.355 683.962 270.969C683.607 270.582 683.251 270.196 683.074 269.423C682.896 268.843 682.896 268.07 683.251 267.49C683.429 267.103 683.784 266.91 684.139 266.91C684.495 266.91 684.85 266.91 685.205 267.103C687.692 268.07 689.646 270.582 690.179 273.868C690.534 277.154 688.935 280.053 686.804 281.599C686.271 281.985 685.738 282.372 685.028 282.372C684.672 282.372 684.317 282.372 684.139 282.372C683.784 282.179 683.607 281.985 683.429 281.599C683.074 280.826 683.429 280.246 683.607 279.666C683.962 279.086 684.317 278.7 684.495 278.313C685.916 276.96 687.159 276.187 688.225 275.607C689.113 275.221 689.823 275.028 689.823 275.221C689.823 275.221 689.291 275.414 688.402 275.994C687.514 276.574 686.271 277.347 685.028 278.7C684.672 279.086 684.317 279.473 684.139 279.859C683.962 280.246 683.784 280.826 683.962 281.212C684.139 281.599 684.672 281.792 685.205 281.599C685.738 281.405 686.271 281.212 686.626 280.826C688.58 279.473 690.001 276.574 689.646 273.675C689.291 270.776 687.337 268.263 685.205 267.49C684.672 267.297 684.139 267.297 683.784 267.683C683.429 268.07 683.429 268.65 683.607 269.036C683.962 270.002 684.85 270.776 685.383 271.355C688.047 274.448 690.356 275.028 690.356 275.221Z" fill="#263238"/>
<path d="M718.246 283.531C718.246 283.531 718.779 283.145 719.134 282.372C719.489 281.405 719.489 279.859 718.601 278.313C717.713 276.767 716.114 275.414 713.983 274.448C711.851 273.675 709.364 273.288 706.878 272.322C701.726 270.582 697.463 268.263 694.444 266.137C693.023 265.171 691.779 264.204 691.069 263.624C690.358 263.045 689.826 262.658 690.003 262.465C690.003 262.465 690.536 262.658 691.247 263.431C692.135 264.011 693.2 264.784 694.621 265.75C697.641 267.683 701.904 270.002 706.878 271.549C709.364 272.322 711.851 272.708 714.16 273.675C716.292 274.448 718.068 275.994 718.956 277.733C719.844 279.473 719.844 281.212 719.311 282.179C719.134 282.758 718.779 282.952 718.601 283.145C718.423 283.531 718.246 283.725 718.246 283.531Z" fill="#263238"/>
<path d="M645.953 23.582C640.802 25.708 634.94 34.4052 633.874 40.2034C632.986 45.4217 634.23 50.8333 634.763 56.0516C635.473 61.2699 635.295 67.2613 632.098 71.32C630.144 73.8326 627.302 75.3787 624.993 77.5047C621.618 80.5971 619.664 85.2356 619.309 89.8741C618.954 94.7059 620.553 99.5376 623.395 103.017C619.487 103.983 617 108.235 617 112.487C617.178 116.739 619.487 120.604 622.684 123.117C625.881 125.629 629.789 126.789 633.519 127.755C637.605 128.528 641.868 128.915 645.775 127.369C650.394 125.629 653.769 121.377 657.321 117.898C661.762 113.646 666.913 109.974 670.11 104.563C673.84 98.1847 674.373 90.2606 674.373 82.723C674.373 67.2613 672.419 51.9929 669.044 36.9177" fill="#263238"/>
<path d="M712.207 129.881L740.627 183.224C744.18 189.795 744.358 197.912 741.338 204.677C737.785 212.601 730.148 217.433 722.154 217.239L678.814 216.08L677.57 198.879L715.76 190.761L689.826 142.443L712.207 129.881Z" fill="#B78876"/>
<path d="M607.229 221.685L647.195 233.088L648.083 220.139L611.315 196.946L637.959 142.637L615.4 130.074L587.158 183.804C580.408 197.719 586.802 214.727 600.48 219.559L607.229 221.685Z" fill="#B78876"/>
<path d="M700.307 164.282L727.483 148.627C727.483 148.627 722.865 138.191 715.76 127.561C707.234 114.805 694.267 106.108 679.347 102.629L648.085 103.209C643.644 103.789 639.914 104.755 636.894 106.108V105.915C619.842 109.973 601.191 150.367 601.191 150.367L626.059 164.476L626.592 168.728C627.302 174.333 629.612 179.551 633.164 183.803L626.059 235.406L706.523 236.952L696.221 200.038L700.307 164.282Z" fill="#007FDB"/>
<path d="M633.696 183.996C633.696 183.996 633.163 183.61 632.452 183.03C631.742 182.257 630.676 181.291 629.788 179.744C627.834 176.652 625.88 171.434 626.413 165.636C626.768 162.736 627.479 160.224 628.189 157.711C628.9 155.392 629.61 153.266 630.321 151.527C631.031 149.787 631.564 148.434 631.92 147.468C632.275 146.502 632.63 145.922 632.63 145.922C632.63 145.922 632.452 146.502 632.097 147.468C631.742 148.628 631.209 149.981 630.676 151.72C630.143 153.459 629.433 155.585 628.722 157.905C628.012 160.224 627.301 162.93 626.946 165.636C626.768 168.341 627.124 171.047 627.657 173.56C628.189 175.879 629.255 177.812 630.143 179.358C632.097 182.643 633.873 183.996 633.696 183.996Z" fill="#263238"/>
<path d="M631.815 133.759C633.97 136.936 635.909 139.358 636.146 139.168C636.383 138.978 634.827 136.248 632.672 133.07C630.517 129.892 628.578 127.471 628.341 127.661C628.104 127.851 629.659 130.581 631.815 133.759Z" fill="#FAFAFA"/>
<path d="M644.422 118.591C647.164 116.928 649.271 115.354 649.128 115.074C648.985 114.795 646.645 115.915 643.903 117.578C641.161 119.24 639.054 120.815 639.197 121.094C639.34 121.374 641.679 120.253 644.422 118.591Z" fill="#FAFAFA"/>
<path d="M617.631 143.419C617.402 146.611 617.453 149.22 617.747 149.245C618.04 149.27 618.464 146.702 618.694 143.509C618.923 140.317 618.872 137.708 618.578 137.683C618.285 137.658 617.861 140.226 617.631 143.419Z" fill="#FAFAFA"/>
<path d="M642.176 163.831C644.832 162.219 646.869 160.686 646.726 160.406C646.582 160.126 644.313 161.206 641.657 162.818C639.001 164.43 636.964 165.963 637.107 166.243C637.251 166.522 639.52 165.443 642.176 163.831Z" fill="#FAFAFA"/>
<path d="M652.974 141.529C654.924 139.131 656.326 137.014 656.105 136.802C655.885 136.59 654.125 138.362 652.175 140.761C650.225 143.159 648.823 145.276 649.044 145.488C649.264 145.7 651.024 143.928 652.974 141.529Z" fill="#FAFAFA"/>
<path d="M671.583 139.74C673.171 142.179 674.653 144.006 674.893 143.821C675.133 143.636 674.04 141.509 672.453 139.07C670.865 136.631 669.383 134.804 669.143 134.989C668.903 135.175 669.996 137.302 671.583 139.74Z" fill="#FAFAFA"/>
<path d="M663.855 159.273C664.188 162.991 664.695 165.98 664.988 165.949C665.281 165.918 665.249 162.879 664.916 159.16C664.583 155.442 664.075 152.453 663.782 152.484C663.489 152.515 663.522 155.555 663.855 159.273Z" fill="#FAFAFA"/>
<path d="M654.252 180.123C655.76 182.997 657.189 185.198 657.444 185.039C657.7 184.881 656.685 182.422 655.178 179.548C653.671 176.674 652.242 174.472 651.986 174.631C651.731 174.79 652.745 177.248 654.252 180.123Z" fill="#FAFAFA"/>
<path d="M679.288 179.381C681.211 176.681 682.581 174.333 682.348 174.136C682.115 173.94 680.368 175.97 678.446 178.671C676.523 181.371 675.153 183.72 675.386 183.916C675.619 184.112 677.366 182.082 679.288 179.381Z" fill="#FAFAFA"/>
<path d="M693.024 162.929C692.846 163.122 690.182 161.963 687.34 159.45C684.498 156.938 682.721 154.425 682.899 154.232C683.077 154.039 685.208 156.358 687.872 158.677C690.714 160.997 693.201 162.736 693.024 162.929Z" fill="#FAFAFA"/>
<path d="M704.226 147.854C707.658 147.763 710.435 147.429 710.428 147.109C710.42 146.788 707.632 146.603 704.199 146.695C700.767 146.787 697.99 147.121 697.997 147.441C698.005 147.761 700.793 147.946 704.226 147.854Z" fill="#FAFAFA"/>
<g opacity="0.3">
<g opacity="0.3">
<g opacity="0.3">
<path opacity="0.3" d="M714.869 122.923C717.711 127.754 718.066 133.939 716.112 139.157C714.158 144.376 709.54 148.241 704.567 149.401C699.415 150.56 693.909 148.628 690.179 144.762C689.291 143.796 688.58 142.83 687.337 142.25C686.271 141.67 685.028 141.67 683.962 141.477C679.877 140.704 676.146 137.611 674.548 133.359C672.949 129.107 673.482 124.082 675.791 120.41L714.869 122.923Z" fill="black"/>
</g>
</g>
</g>
<path d="M621.794 247.97L617.176 190.375L715.048 189.988L708.831 248.356L621.794 247.97Z" fill="#263238"/>
<path d="M666.201 227.675C669.635 227.675 672.418 224.647 672.418 220.911C672.418 217.175 669.635 214.146 666.201 214.146C662.768 214.146 659.984 217.175 659.984 220.911C659.984 224.647 662.768 227.675 666.201 227.675Z" fill="#FAFAFA"/>
<path d="M667.802 123.116C675.972 122.922 682.722 115.578 682.722 106.688L683.433 40.3956C683.433 37.6898 681.656 35.3705 679.17 34.984L653.414 28.0262C645.243 27.0598 639.737 38.0763 639.204 47.16C638.671 57.2101 638.316 69.3862 639.382 76.7305C641.513 91.8057 652.171 93.5452 652.171 93.5452C652.171 93.5452 652.171 99.3433 652.171 106.494C652.171 115.771 659.276 123.309 667.802 123.116Z" fill="#B78876"/>
<path d="M644.531 56.8237C644.531 57.7901 645.242 58.7564 646.308 58.7564C647.196 58.7564 648.084 57.9834 648.084 57.017C648.084 56.0506 647.373 55.0843 646.308 55.0843C645.419 54.891 644.531 55.6641 644.531 56.8237Z" fill="#263238"/>
<path d="M641.512 53.3448C641.689 53.5381 643.11 52.5717 644.887 52.5717C646.84 52.5717 648.262 53.5381 648.439 53.3448C648.617 53.1516 648.261 52.765 647.729 52.3785C647.196 51.9919 646.13 51.4121 644.887 51.4121C643.643 51.4121 642.755 51.7987 642.222 52.3785C641.689 52.765 641.512 53.3448 641.512 53.3448Z" fill="#263238"/>
<path d="M662.652 56.8237C662.652 57.7901 663.363 58.7564 664.429 58.7564C665.317 58.7564 666.205 57.9834 666.205 57.017C666.205 56.0506 665.494 55.0843 664.429 55.0843C663.363 54.891 662.652 55.6641 662.652 56.8237Z" fill="#263238"/>
<path d="M660.341 53.7315C660.519 53.9248 661.94 52.9585 663.716 52.9585C665.67 52.9585 667.091 53.9248 667.269 53.7315C667.446 53.5383 667.091 53.1517 666.558 52.7652C666.025 52.3786 664.96 51.7988 663.716 51.7988C662.473 51.7988 661.585 52.1854 661.052 52.7652C660.341 53.1517 660.164 53.7315 660.341 53.7315Z" fill="#263238"/>
<path d="M653.415 69.1933C653.415 69.0001 652.171 68.8068 650.395 68.6135C649.862 68.6135 649.507 68.4202 649.329 68.0337C649.152 67.6472 649.507 67.0673 649.685 66.4875C650.218 65.1346 650.573 63.7817 651.106 62.4288C653.06 56.6307 654.481 51.9922 654.303 51.9922C654.125 51.9922 652.349 56.4374 650.395 62.2356C649.862 63.5885 649.507 64.9414 648.974 66.2943C648.797 66.8741 648.441 67.6472 648.797 68.4202C648.974 68.8068 649.329 69.1933 649.507 69.1933C649.862 69.3866 650.04 69.3866 650.395 69.3866C652.171 69.1933 653.415 69.1933 653.415 69.1933Z" fill="#263238"/>
<path d="M651.992 93.5444C651.992 93.5444 661.229 94.1242 670.465 88.1328C670.465 88.1328 666.025 98.3762 652.17 97.0233L651.992 93.5444Z" fill="#AA6550"/>
<path d="M654.123 74.0247C654.833 73.0583 656.077 72.4785 657.143 72.6718C658.031 72.6718 658.741 73.2516 659.274 74.0247C659.807 74.7978 659.807 75.7641 659.452 76.5372C658.919 77.3103 657.853 77.5036 656.965 77.3103C656.077 77.117 655.366 76.344 654.478 75.7641C654.301 75.5709 654.123 75.3776 653.945 75.1843C653.945 74.6045 653.945 74.4112 654.123 74.0247Z" fill="#AA6550"/>
<path d="M658.922 70.5449C658.567 70.5449 658.567 72.8642 656.791 74.4103C655.014 75.9565 652.883 75.7632 652.883 76.1498C652.883 76.3431 653.416 76.5363 654.304 76.5363C655.192 76.5363 656.613 76.3431 657.679 75.1834C658.744 74.2171 659.277 72.8642 659.277 71.8978C659.277 71.1247 659.1 70.5449 658.922 70.5449Z" fill="#263238"/>
<path d="M659.452 50.2529C659.63 50.8327 661.584 50.6394 663.715 50.8327C666.025 51.0259 667.801 51.799 667.978 51.2192C668.156 51.0259 667.801 50.4461 667.09 49.8663C666.38 49.2865 665.136 48.9 663.893 48.7067C662.472 48.5134 661.406 48.7067 660.518 49.0932C659.808 49.4798 659.275 49.8663 659.452 50.2529Z" fill="#263238"/>
<path d="M641.867 49.6729C642.223 50.0594 643.466 49.6729 645.065 49.6729C646.663 49.6729 647.907 50.0594 648.262 49.4796C648.44 49.2863 648.262 48.7065 647.551 48.32C647.019 47.9334 645.953 47.5469 644.887 47.5469C643.821 47.5469 642.933 47.9334 642.4 48.5132C641.867 48.8998 641.69 49.2863 641.867 49.6729Z" fill="#263238"/>
<path d="M716.826 116.545C714.339 111.713 708.655 108.621 708.655 103.209C708.655 99.9235 710.964 96.8311 711.142 93.5455C711.497 86.781 703.504 83.3022 701.372 76.9242C699.418 71.1261 702.793 64.7481 701.55 58.7567C700.129 51.4124 694.09 48.5133 688.938 43.6815C686.807 41.5556 685.208 38.8498 683.787 36.144C683.61 35.7574 683.432 35.3709 683.254 35.1776C679.88 28.9929 673.84 24.741 667.268 23.9679C659.808 21.0688 651.992 22.0352 648.617 23.0015C645.42 23.5813 642.223 25.1275 640.091 28.0266C637.782 30.7324 636.717 34.7911 637.605 38.2699C638.493 41.7488 641.868 44.4546 645.243 44.0681C647.729 43.6815 650.216 41.7488 652.703 42.5219C655.012 43.295 656.255 46.3873 658.742 46.7739C661.051 47.1604 663.183 45.0344 665.492 44.6479C668.156 44.4546 670.465 46.7739 671.531 49.2864C672.064 50.2528 672.419 51.4124 672.597 52.3787C674.551 63.0087 678.281 67.8405 675.617 74.0251C674.196 77.3107 671.886 80.2098 671.531 83.882C670.643 92.1926 680.59 98.184 680.057 106.495C679.88 109.974 677.748 113.066 676.505 116.352C674.196 123.116 676.505 131.62 682.011 135.872C684.853 137.998 688.583 139.158 691.781 137.805C692.136 137.611 692.491 137.418 692.846 137.225C694.623 138.964 696.932 140.317 699.241 140.897C705.102 142.25 711.142 138.578 714.694 133.359C718.069 128.721 719.668 121.763 716.826 116.545Z" fill="#263238"/>
<path d="M693.022 137.419C693.022 137.226 694.976 137.226 697.818 135.679C699.239 134.906 701.016 133.553 702.437 131.621C703.858 129.688 705.279 127.175 705.811 124.083C706.344 120.991 705.811 117.319 704.213 114.033C702.614 110.747 699.772 108.042 696.22 106.495C694.443 105.529 692.489 104.756 691.068 102.823C689.647 101.084 689.115 98.378 689.47 96.0588C689.825 93.7395 690.713 91.4203 691.779 89.2943C692.845 87.1683 693.91 85.0423 694.621 82.723C695.331 80.4038 695.331 78.0845 694.443 75.9586C693.555 73.8326 692.134 72.0931 690.713 70.3537C689.292 68.6142 687.694 67.0681 686.45 65.3286C685.029 63.5892 684.141 61.6565 683.253 59.5305C681.654 55.4718 680.944 51.4131 680.411 47.7409C679.7 44.0688 679.168 40.5899 678.279 37.4976C676.503 31.3129 673.128 27.2542 670.464 25.5147C667.622 23.582 665.668 23.7753 665.668 23.582C665.668 23.582 665.846 23.582 666.023 23.582C666.201 23.582 666.556 23.582 667.089 23.7753C667.977 23.9686 669.22 24.3551 670.641 25.3215C672.063 26.2878 673.661 27.6407 675.26 29.7667C676.681 31.6994 678.102 34.4052 678.99 37.4976C679.878 40.5899 680.589 44.0688 681.299 47.7409C682.01 51.4131 682.72 55.4718 684.141 59.3372C684.852 61.2699 685.917 63.2026 687.161 64.7488C688.404 66.4883 690.003 68.0344 691.424 69.7739C692.845 71.5133 694.443 73.2528 695.331 75.572C696.22 77.8913 696.22 80.5971 695.509 83.1096C694.088 87.9414 690.891 91.6135 690.358 96.252C690.003 98.378 690.358 100.697 691.601 102.243C692.845 103.79 694.799 104.756 696.397 105.529C698.173 106.302 699.95 107.462 701.371 108.815C702.792 110.168 703.858 111.907 704.746 113.453C706.344 116.932 706.877 120.604 706.344 123.89C705.811 127.175 704.39 129.881 702.792 131.814C701.193 133.747 699.417 135.1 697.996 135.873C696.397 136.646 695.154 137.032 694.266 137.226C693.91 137.226 693.555 137.226 693.2 137.419C693.022 137.419 693.022 137.419 693.022 137.419Z" fill="#455A64"/>
</g>
<defs>
<clipPath id="clip0_1171_537">
<rect width="274.254" height="262.076" fill="white" transform="translate(516.105 21.6484)"/>
</clipPath>
</defs>
</svg>
