<svg width="179" height="178" viewBox="0 0 179 178" fill="none" xmlns="http://www.w3.org/2000/svg">
<rect x="0.933594" width="177.365" height="177.365" rx="6.49689" fill="#E3EDFF"/>
<path d="M86.4019 105.018H69.7663V54.5378H109.921V79.2043C109.921 79.5198 110.179 79.778 110.495 79.778H114.51C114.826 79.778 115.084 79.5198 115.084 79.2043V51.6696C115.084 50.4004 114.059 49.375 112.789 49.375H66.8981C65.6289 49.375 64.6035 50.4004 64.6035 51.6696V107.886C64.6035 109.156 65.6289 110.181 66.8981 110.181H86.4019C86.7174 110.181 86.9755 109.923 86.9755 109.607V105.592C86.9755 105.276 86.7174 105.018 86.4019 105.018Z" fill="url(#paint0_linear_1087_522)"/>
<g clip-path="url(#clip0_1087_522)">
<path d="M90.3449 93L79.5858 87.1005L77.6494 70.482L90.3449 66L103.04 70.482L101.104 87.1005L90.3449 93ZM90.3449 68.9835L82.4085 86.601H85.3676L86.963 82.659H93.6994L95.2949 86.601H98.254L90.3449 68.9835ZM92.663 80.229H88.0267L90.3449 74.7075L92.663 80.229Z" fill="#06246A"/>
</g>
<path d="M72.3286 147.755H69.2324L68.5371 149.684H67.5321L70.3542 142.293H71.2069L74.034 149.684H73.0341L72.3286 147.755ZM69.5268 146.953H72.0393L70.7805 143.496L69.5268 146.953ZM75.7699 144.192L75.8004 144.882C76.22 144.354 76.7682 144.09 77.4449 144.09C78.6056 144.09 79.191 144.745 79.2011 146.054V149.684H78.2621V146.049C78.2587 145.653 78.1674 145.361 77.988 145.171C77.8121 144.982 77.5363 144.887 77.1607 144.887C76.8561 144.887 76.5888 144.968 76.3587 145.131C76.1286 145.293 75.9493 145.506 75.8207 145.77V149.684H74.8817V144.192H75.7699ZM80.3939 146.892C80.3939 146.036 80.5918 145.356 80.9877 144.852C81.3837 144.344 81.9081 144.09 82.5612 144.09C83.2312 144.09 83.754 144.327 84.1296 144.801L84.1753 144.192H85.0331V149.552C85.0331 150.262 84.8216 150.822 84.3986 151.232C83.979 151.641 83.4139 151.846 82.7033 151.846C82.3074 151.846 81.92 151.761 81.541 151.592C81.162 151.423 80.8727 151.191 80.6731 150.897L81.1603 150.333C81.563 150.831 82.0553 151.079 82.6374 151.079C83.0942 151.079 83.4495 150.951 83.7032 150.694C83.9604 150.436 84.089 150.074 84.089 149.607V149.135C83.7134 149.569 83.2008 149.785 82.5511 149.785C81.9081 149.785 81.387 149.526 80.9877 149.009C80.5918 148.491 80.3939 147.785 80.3939 146.892ZM81.338 146.999C81.338 147.618 81.4649 148.105 81.7186 148.46C81.9724 148.812 82.3277 148.988 82.7845 148.988C83.3767 148.988 83.8115 148.719 84.089 148.181V145.674C83.8014 145.149 83.3699 144.887 82.7947 144.887C82.3379 144.887 81.9809 145.065 81.7237 145.42C81.4666 145.775 81.338 146.301 81.338 146.999ZM89.8448 149.14C89.4794 149.57 88.9431 149.785 88.2358 149.785C87.6505 149.785 87.2038 149.616 86.8959 149.278C86.5913 148.936 86.4374 148.432 86.434 147.765V144.192H87.373V147.74C87.373 148.572 87.7114 148.988 88.3881 148.988C89.1055 148.988 89.5826 148.721 89.8195 148.186V144.192H90.7585V149.684H89.8651L89.8448 149.14ZM93.21 149.684H92.271V141.887H93.21V149.684ZM98.1081 149.684C98.0539 149.575 98.01 149.382 97.9761 149.105C97.5396 149.558 97.0185 149.785 96.4128 149.785C95.8714 149.785 95.4264 149.633 95.0779 149.328C94.7327 149.02 94.5602 148.631 94.5602 148.161C94.5602 147.589 94.7767 147.146 95.2099 146.831C95.6464 146.513 96.2588 146.354 97.0473 146.354H97.9609V145.923C97.9609 145.594 97.8628 145.334 97.6665 145.141C97.4702 144.945 97.1809 144.846 96.7986 144.846C96.4636 144.846 96.1827 144.931 95.956 145.1C95.7293 145.269 95.6159 145.474 95.6159 145.714H94.6718C94.6718 145.44 94.7683 145.176 94.9611 144.923C95.1574 144.665 95.4213 144.462 95.753 144.314C96.088 144.165 96.4551 144.09 96.8544 144.09C97.4872 144.09 97.9829 144.249 98.3416 144.567C98.7002 144.882 98.8864 145.317 98.8999 145.872V148.399C98.8999 148.904 98.9642 149.305 99.0928 149.602V149.684H98.1081ZM96.5498 148.968C96.8442 148.968 97.1234 148.892 97.3873 148.74C97.6513 148.587 97.8425 148.389 97.9609 148.146V147.019H97.2249C96.0744 147.019 95.4992 147.356 95.4992 148.029C95.4992 148.323 95.5973 148.553 95.7936 148.719C95.9898 148.885 96.2419 148.968 96.5498 148.968ZM103.026 145.034C102.884 145.011 102.73 144.999 102.565 144.999C101.949 144.999 101.531 145.261 101.311 145.785V149.684H100.372V144.192H101.285L101.301 144.826C101.609 144.335 102.045 144.09 102.61 144.09C102.793 144.09 102.932 144.114 103.026 144.161V145.034ZM103.285 149.191C103.285 149.029 103.333 148.893 103.427 148.785C103.526 148.677 103.671 148.623 103.864 148.623C104.057 148.623 104.202 148.677 104.3 148.785C104.402 148.893 104.453 149.029 104.453 149.191C104.453 149.347 104.402 149.477 104.3 149.582C104.202 149.687 104.057 149.739 103.864 149.739C103.671 149.739 103.526 149.687 103.427 149.582C103.333 149.477 103.285 149.347 103.285 149.191ZM106.975 144.192V150.318C106.975 151.374 106.497 151.902 105.539 151.902C105.332 151.902 105.141 151.871 104.965 151.81V151.059C105.074 151.086 105.216 151.1 105.392 151.1C105.602 151.1 105.761 151.042 105.869 150.927C105.98 150.815 106.036 150.619 106.036 150.338V144.192H106.975ZM105.94 142.735C105.94 142.586 105.986 142.459 106.077 142.354C106.172 142.246 106.309 142.192 106.488 142.192C106.671 142.192 106.81 142.244 106.904 142.349C106.999 142.454 107.046 142.583 107.046 142.735C107.046 142.887 106.999 143.014 106.904 143.116C106.81 143.217 106.671 143.268 106.488 143.268C106.305 143.268 106.168 143.217 106.077 143.116C105.986 143.014 105.94 142.887 105.94 142.735ZM111.691 148.227C111.691 147.973 111.594 147.777 111.401 147.638C111.212 147.496 110.879 147.374 110.401 147.273C109.928 147.171 109.55 147.049 109.27 146.907C108.992 146.765 108.786 146.596 108.65 146.4C108.518 146.203 108.452 145.97 108.452 145.699C108.452 145.249 108.642 144.868 109.021 144.557C109.403 144.246 109.89 144.09 110.483 144.09C111.105 144.09 111.609 144.251 111.995 144.572C112.384 144.894 112.579 145.305 112.579 145.806H111.635C111.635 145.549 111.525 145.327 111.305 145.141C111.088 144.955 110.814 144.862 110.483 144.862C110.141 144.862 109.874 144.936 109.681 145.085C109.488 145.234 109.391 145.428 109.391 145.669C109.391 145.895 109.481 146.066 109.66 146.181C109.84 146.296 110.163 146.406 110.63 146.511C111.1 146.616 111.481 146.741 111.772 146.887C112.063 147.032 112.278 147.208 112.416 147.415C112.559 147.618 112.63 147.866 112.63 148.161C112.63 148.652 112.433 149.046 112.041 149.344C111.648 149.638 111.139 149.785 110.513 149.785C110.073 149.785 109.684 149.707 109.346 149.552C109.007 149.396 108.742 149.179 108.549 148.902C108.359 148.621 108.265 148.318 108.265 147.993H109.204C109.22 148.308 109.346 148.558 109.579 148.745C109.816 148.927 110.127 149.019 110.513 149.019C110.868 149.019 111.153 148.948 111.366 148.805C111.582 148.66 111.691 148.467 111.691 148.227Z" fill="black"/>
<defs>
<linearGradient id="paint0_linear_1087_522" x1="89.5633" y1="58.1581" x2="90.6046" y2="106.111" gradientUnits="userSpaceOnUse">
<stop stop-color="#06246A"/>
<stop offset="1" stop-color="#081B49"/>
</linearGradient>
<clipPath id="clip0_1087_522">
<rect width="25" height="27" fill="white" transform="translate(77.6494 66)"/>
</clipPath>
</defs>
</svg>
