<svg width="176" height="176" viewBox="0 0 176 176" fill="none" xmlns="http://www.w3.org/2000/svg">
<rect width="175.167" height="175.167" rx="6.41638" fill="#E3EDFF"/>
<path d="M84.4086 103.719H67.9792V53.8644H107.636V78.2253C107.636 78.5369 107.891 78.7918 108.203 78.7918H112.169C112.48 78.7918 112.735 78.5369 112.735 78.2253V51.0318C112.735 49.7783 111.723 48.7656 110.469 48.7656H65.1465C63.893 48.7656 62.8804 49.7783 62.8804 51.0318V106.552C62.8804 107.805 63.893 108.818 65.1465 108.818H84.4086C84.7202 108.818 84.9751 108.563 84.9751 108.251V104.286C84.9751 103.974 84.7202 103.719 84.4086 103.719Z" fill="url(#paint0_linear_1087_493)"/>
<g clip-path="url(#clip0_1087_493)">
<path d="M77.6372 67.0938L79.445 87.4304L87.5567 90.1125L95.7202 87.4304L97.528 67.0938H77.6372ZM93.6016 73.6654H84.081L84.2934 76.2036H93.3893L92.6848 83.8286L87.6137 85.2159V85.2313H87.5567L82.4441 83.8286L82.1334 79.9339H84.6042L84.7855 81.8915L87.5567 82.6366L90.3383 81.8915L90.6491 78.6956H82.0039L81.3408 71.2145H93.8295L93.6016 73.6654Z" fill="#06246A"/>
</g>
<path d="M61.2412 147.953H60.2737V144.58H56.5943V147.953H55.6319V140.654H56.5943V143.793H60.2737V140.654H61.2412V147.953ZM67.843 141.447H65.497V147.953H64.5396V141.447H62.1986V140.654H67.843V141.447ZM70.169 140.654L72.5551 146.61L74.9412 140.654H76.1893V147.953H75.2269V145.111L75.3171 142.043L72.921 147.953H72.1841L69.793 142.058L69.8883 145.111V147.953H68.9258V140.654H70.169ZM78.8562 147.166H82.315V147.953H77.8887V140.654H78.8562V147.166ZM83.4529 148.58H82.6559L85.7036 140.654H86.4957L83.4529 148.58ZM93.0123 145.637C92.9221 146.409 92.6363 147.006 92.1551 147.427C91.6772 147.845 91.0406 148.053 90.2452 148.053C89.383 148.053 88.6913 147.744 88.1699 147.126C87.6519 146.508 87.3929 145.681 87.3929 144.645V143.943C87.3929 143.264 87.5133 142.668 87.7539 142.153C87.9978 141.639 88.342 141.244 88.7865 140.97C89.231 140.693 89.7456 140.554 90.3304 140.554C91.1058 140.554 91.7273 140.771 92.1952 141.206C92.6631 141.637 92.9354 142.235 93.0123 143H92.0448C91.9613 142.419 91.7791 141.998 91.4984 141.737C91.2211 141.477 90.8317 141.346 90.3304 141.346C89.7155 141.346 89.2326 141.574 88.8817 142.028C88.5342 142.482 88.3604 143.129 88.3604 143.968V144.675C88.3604 145.467 88.5258 146.097 88.8567 146.565C89.1875 147.032 89.6504 147.266 90.2452 147.266C90.7799 147.266 91.1893 147.146 91.4734 146.905C91.7608 146.661 91.9513 146.239 92.0448 145.637H93.0123ZM96.4812 144.7C95.6557 144.463 95.0542 144.172 94.6765 143.828C94.3023 143.48 94.1151 143.052 94.1151 142.544C94.1151 141.97 94.344 141.495 94.8019 141.121C95.263 140.743 95.8612 140.554 96.5964 140.554C97.0977 140.554 97.5439 140.651 97.9349 140.845C98.3292 141.039 98.6333 141.306 98.8472 141.647C99.0644 141.988 99.173 142.361 99.173 142.765H98.2056C98.2056 142.324 98.0652 141.978 97.7845 141.727C97.5038 141.473 97.1078 141.346 96.5964 141.346C96.1219 141.346 95.751 141.452 95.4836 141.662C95.2196 141.869 95.0876 142.158 95.0876 142.529C95.0876 142.827 95.2129 143.079 95.4636 143.286C95.7175 143.49 96.147 143.677 96.7518 143.848C97.3601 144.018 97.8346 144.207 98.1755 144.414C98.5197 144.618 98.7737 144.857 98.9374 145.131C99.1045 145.405 99.1881 145.727 99.1881 146.098C99.1881 146.69 98.9575 147.164 98.4963 147.522C98.0351 147.876 97.4185 148.053 96.6466 148.053C96.1453 148.053 95.6774 147.958 95.243 147.768C94.8085 147.574 94.4727 147.31 94.2354 146.976C94.0015 146.641 93.8845 146.262 93.8845 145.838H94.852C94.852 146.279 95.0141 146.628 95.3382 146.885C95.6657 147.139 96.1018 147.266 96.6466 147.266C97.1545 147.266 97.5439 147.163 97.8146 146.956C98.0852 146.748 98.2206 146.466 98.2206 146.108C98.2206 145.751 98.0953 145.475 97.8446 145.281C97.594 145.084 97.1395 144.89 96.4812 144.7ZM102.577 144.7C101.751 144.463 101.15 144.172 100.772 143.828C100.398 143.48 100.211 143.052 100.211 142.544C100.211 141.97 100.44 141.495 100.897 141.121C101.359 140.743 101.957 140.554 102.692 140.554C103.193 140.554 103.639 140.651 104.03 140.845C104.425 141.039 104.729 141.306 104.943 141.647C105.16 141.988 105.269 142.361 105.269 142.765H104.301C104.301 142.324 104.161 141.978 103.88 141.727C103.599 141.473 103.203 141.346 102.692 141.346C102.217 141.346 101.847 141.452 101.579 141.662C101.315 141.869 101.183 142.158 101.183 142.529C101.183 142.827 101.308 143.079 101.559 143.286C101.813 143.49 102.243 143.677 102.847 143.848C103.456 144.018 103.93 144.207 104.271 144.414C104.615 144.618 104.869 144.857 105.033 145.131C105.2 145.405 105.284 145.727 105.284 146.098C105.284 146.69 105.053 147.164 104.592 147.522C104.131 147.876 103.514 148.053 102.742 148.053C102.241 148.053 101.773 147.958 101.339 147.768C100.904 147.574 100.568 147.31 100.331 146.976C100.097 146.641 99.9801 146.262 99.9801 145.838H100.948C100.948 146.279 101.11 146.628 101.434 146.885C101.761 147.139 102.197 147.266 102.742 147.266C103.25 147.266 103.639 147.163 103.91 146.956C104.181 146.748 104.316 146.466 104.316 146.108C104.316 145.751 104.191 145.475 103.94 145.281C103.69 145.084 103.235 144.89 102.577 144.7ZM106.562 148.58H105.765L108.813 140.654H109.605L106.562 148.58ZM113.81 140.654H114.778V145.823C114.778 146.521 114.567 147.068 114.146 147.462C113.729 147.856 113.17 148.053 112.472 148.053C111.747 148.053 111.182 147.868 110.778 147.497C110.373 147.126 110.171 146.606 110.171 145.938H111.134C111.134 146.356 111.247 146.682 111.474 146.915C111.705 147.149 112.038 147.266 112.472 147.266C112.87 147.266 113.19 147.141 113.434 146.89C113.682 146.64 113.807 146.289 113.81 145.838V140.654ZM118.568 144.7C117.742 144.463 117.141 144.172 116.763 143.828C116.389 143.48 116.201 143.052 116.201 142.544C116.201 141.97 116.43 141.495 116.888 141.121C117.349 140.743 117.948 140.554 118.683 140.554C119.184 140.554 119.63 140.651 120.021 140.845C120.416 141.039 120.72 141.306 120.934 141.647C121.151 141.988 121.259 142.361 121.259 142.765H120.292C120.292 142.324 120.152 141.978 119.871 141.727C119.59 141.473 119.194 141.346 118.683 141.346C118.208 141.346 117.837 141.452 117.57 141.662C117.306 141.869 117.174 142.158 117.174 142.529C117.174 142.827 117.299 143.079 117.55 143.286C117.804 143.49 118.233 143.677 118.838 143.848C119.446 144.018 119.921 144.207 120.262 144.414C120.606 144.618 120.86 144.857 121.024 145.131C121.191 145.405 121.274 145.727 121.274 146.098C121.274 146.69 121.044 147.164 120.583 147.522C120.122 147.876 119.505 148.053 118.733 148.053C118.232 148.053 117.764 147.958 117.329 147.768C116.895 147.574 116.559 147.31 116.322 146.976C116.088 146.641 115.971 146.262 115.971 145.838H116.938C116.938 146.279 117.1 146.628 117.425 146.885C117.752 147.139 118.188 147.266 118.733 147.266C119.241 147.266 119.63 147.163 119.901 146.956C120.172 146.748 120.307 146.466 120.307 146.108C120.307 145.751 120.182 145.475 119.931 145.281C119.68 145.084 119.226 144.89 118.568 144.7Z" fill="black"/>
<defs>
<linearGradient id="paint0_linear_1087_493" x1="87.5308" y1="57.4399" x2="88.5592" y2="104.798" gradientUnits="userSpaceOnUse">
<stop stop-color="#06246A"/>
<stop offset="1" stop-color="#081B49"/>
</linearGradient>
<clipPath id="clip0_1087_493">
<rect width="19.8908" height="26.3072" fill="white" transform="translate(77.6377 65.4492)"/>
</clipPath>
</defs>
</svg>
