<svg width="138" height="26" viewBox="0 0 138 26" fill="none" xmlns="http://www.w3.org/2000/svg">
<path d="M2.95472 20.4119C1.92602 20.4141 0.975683 19.8627 0.4672 18.9684C-0.0339529 18.0797 -0.00390077 16.987 0.545342 16.1271L5.66798 8.08282C6.20176 7.20265 7.16783 6.67774 8.19675 6.70883C9.22491 6.73347 10.1601 7.30994 10.6441 8.2174C11.1216 9.12038 11.062 10.2068 10.49 11.0544L5.37061 19.0987C4.84298 19.9209 3.93164 20.4163 2.95472 20.4119Z" fill="#F62B54"/>
<path d="M11.7415 20.4116C10.7083 20.4116 9.7576 19.8591 9.25836 18.9713C8.75832 18.085 8.78837 16.995 9.3365 16.1376L14.4494 8.11177C14.9754 7.21896 15.9444 6.68173 16.9803 6.70847C18.0222 6.73126 18.9664 7.31407 19.444 8.22573C19.9182 9.13739 19.8488 10.2303 19.2595 11.0757L14.1477 19.1016C13.6217 19.9202 12.7146 20.4141 11.7415 20.4116Z" fill="#FFCC00"/>
<path d="M20.3316 20.4798C21.7882 20.4798 22.9689 19.3238 22.9689 17.8979C22.9689 16.4719 21.7882 15.3159 20.3316 15.3159C18.8751 15.3159 17.6943 16.4719 17.6943 17.8979C17.6943 19.3238 18.8751 20.4798 20.3316 20.4798Z" fill="#00CA72"/>
<path d="M134.903 15.4645C135.699 15.4645 136.176 16.031 136.176 16.9589V20.1389H137.258V16.8862C137.258 15.3082 136.514 14.3933 135.116 14.3933C134.569 14.3933 133.701 14.543 133.183 15.5491C132.938 14.9445 132.381 14.5234 131.732 14.453C131.532 14.4163 131.328 14.4042 131.125 14.4172C130.68 14.453 129.887 14.7297 129.591 15.357V14.5137H128.508V20.1389H129.591V17.1033C129.591 15.9225 130.364 15.4645 131.138 15.4645C131.863 15.4645 132.339 16.0191 132.339 16.947V20.1389H133.416V17.1033C133.416 16.1634 133.98 15.4536 134.903 15.4645ZM124.532 19.199C125.027 19.2099 125.505 19.0123 125.851 18.6542C126.198 18.296 126.383 17.8087 126.364 17.3084C126.364 16.1753 125.531 15.4645 124.532 15.4645C123.533 15.4645 122.7 16.1753 122.7 17.3084C122.681 17.8076 122.865 18.2939 123.211 18.6509C123.556 19.0091 124.031 19.2077 124.524 19.199H124.532ZM124.532 20.2539C122.95 20.2539 121.629 19.0851 121.629 17.3019C121.629 15.5187 122.95 14.3868 124.532 14.3868C126.115 14.3868 127.447 15.5187 127.447 17.3019C127.447 19.0851 126.107 20.2594 124.525 20.2594L124.532 20.2539ZM116.056 17.3019L116.045 17.3084C116.045 15.5253 117.401 14.3933 118.994 14.3868C119.804 14.3711 120.582 14.6992 121.135 15.2897L120.315 15.9887C119.963 15.643 119.487 15.4524 118.994 15.459C117.996 15.459 117.127 16.1699 117.127 17.3019C117.127 18.067 117.582 18.7562 118.28 19.0492C118.978 19.3423 119.781 19.1795 120.315 18.639L121.147 19.3379C120.592 19.9345 119.809 20.2674 118.994 20.2539C117.413 20.2539 116.056 19.0851 116.056 17.3019ZM112.591 19.059C112.589 18.8604 112.665 18.669 112.804 18.5269C112.943 18.3849 113.132 18.3038 113.331 18.3015C113.53 18.3038 113.719 18.3849 113.858 18.5269C113.997 18.669 114.074 18.8604 114.071 19.059C114.051 19.4544 113.727 19.7658 113.331 19.7699C112.935 19.7658 112.611 19.4544 112.591 19.059Z" fill="#333333"/>
<path d="M115.552 7.36327H111.698L108.997 14.3277L106.309 7.36327H102.455L107.141 18.3683L104.227 25.6442H108.052L115.552 7.36327ZM92.1136 13.4844C92.1136 15.2426 93.6504 16.3995 95.1601 16.3995C96.6437 16.3995 98.1012 15.3229 98.1012 13.4833C98.1012 11.6437 96.6437 10.566 95.1601 10.566C93.6504 10.566 92.1136 11.724 92.1136 13.4833V13.4844ZM98.1012 19.6294V18.2369C97.3198 19.4199 95.4965 19.8671 94.561 19.8671C91.4635 19.8671 88.365 17.4251 88.365 13.4833C88.365 9.54256 91.4624 7.10063 94.561 7.10063C95.3413 7.10063 97.1646 7.3611 98.1012 8.72858V7.36761H101.694V19.6316L98.1012 19.6305V19.6294ZM87.3426 19.6294H83.7502V18.1056C83.1501 19.2343 81.6947 19.892 80.1839 19.892C77.0593 19.892 74.2994 17.3969 74.2994 13.5332C74.2994 9.59683 77.0593 7.09845 80.1839 7.09845C81.6925 7.09845 83.1522 7.72793 83.7502 8.85774V0.682129H87.3426V19.6294ZM83.6721 13.4562C83.6721 11.6177 82.3448 10.54 80.8612 10.54C79.3244 10.54 78.048 11.6958 78.048 13.4562C78.048 15.273 79.3244 16.4234 80.8601 16.4234C82.3719 16.4256 83.6721 15.2165 83.6721 13.4562ZM65.4173 13.1393C65.4173 11.2747 66.381 10.6441 67.6562 10.6441C68.8794 10.6441 69.765 11.4581 69.765 13.0861V19.6272H73.3834V12.2992C73.3834 8.80673 71.6643 7.09845 68.9304 7.09845C67.4989 7.09845 66.0674 7.91243 65.4162 9.14751V7.36327H61.7999V19.6272H65.4173V13.1393ZM54.4524 19.8378C51.0164 19.8378 48.1501 17.3166 48.1501 13.4551C48.1501 9.5914 51.0131 7.0952 54.4524 7.0952C57.8918 7.0952 60.7798 9.5914 60.7798 13.4551C60.7798 17.3188 57.8885 19.8389 54.4524 19.8389V19.8378ZM54.4524 16.2671C55.961 16.2671 57.2124 15.1623 57.2124 13.4562C57.2124 11.8011 55.9621 10.6713 54.4524 10.6713C53.7178 10.6598 53.0107 10.9505 52.4967 11.4755C51.9798 12.0031 51.699 12.7178 51.7185 13.4562C51.7196 15.1644 52.9688 16.2671 54.4524 16.2671ZM41.6632 10.6452C42.73 10.6452 43.6677 11.4863 43.6677 13.0872V19.6294H47.2601V12.6639C47.2601 8.96084 45.4596 7.09628 42.5738 7.09628C41.7164 7.09628 40.1014 7.35676 38.9293 9.27558C38.2521 7.85708 36.9508 7.12125 35.0276 7.12125C33.6639 7.11431 32.4221 7.9054 31.852 9.14426V7.36436H28.2314V19.6283H31.8488V13.1393C31.8488 11.2747 32.8646 10.6441 33.9575 10.6441C34.9994 10.6441 35.9349 11.4581 35.9621 13.0079V19.6283H39.5805V13.1393C39.5805 11.3561 40.5182 10.6463 41.6632 10.6463V10.6452Z" fill="#333333"/>
</svg>
