<svg width="378" height="270" viewBox="0 0 378 270" fill="none" xmlns="http://www.w3.org/2000/svg">
<rect width="378" height="270" rx="10" fill="#EFEFEF"/>
<path d="M141.45 46.5812C139.118 45.2309 137.224 46.3143 137.213 48.9936L137 117.998C137 120.667 138.873 123.938 141.204 125.289L234.572 179.221C236.898 180.566 238.797 179.488 238.803 176.809L239 107.804C239 105.135 237.122 101.858 234.79 100.513L141.45 46.5812Z" fill="#007FDB" stroke="#4979D4" stroke-width="0.826123" stroke-linejoin="round"/>
<path d="M141.45 46.5812C139.118 45.2309 137.224 46.3143 137.213 48.9936L137 117.998C137 120.667 138.873 123.938 141.204 125.289L234.572 179.221C236.898 180.566 238.797 179.488 238.803 176.809L239 107.804C239 105.135 237.122 101.858 234.79 100.513L141.45 46.5812Z" fill="url(#paint0_linear_1121_535)" stroke="#4979D4" stroke-width="0.826123" stroke-linejoin="round"/>
<path d="M230.143 143.528L229.956 143.421L230.143 143.528ZM229.956 143.202V135.901L147.025 87.9892V95.2905L229.956 143.202ZM146.843 87.4448L230.17 135.576C230.225 135.611 230.27 135.658 230.303 135.714C230.337 135.771 230.356 135.835 230.357 135.901V143.64C230.358 143.663 230.354 143.687 230.345 143.708C230.336 143.729 230.321 143.748 230.303 143.763C230.282 143.776 230.258 143.782 230.234 143.782C230.209 143.782 230.185 143.776 230.164 143.763L146.817 95.6214C146.761 95.5855 146.715 95.5359 146.683 95.4773C146.648 95.4231 146.63 95.3602 146.63 95.2958V87.5569C146.628 87.533 146.632 87.5091 146.642 87.4875C146.653 87.4659 146.669 87.4474 146.689 87.4341C146.709 87.4224 146.732 87.4163 146.755 87.4163C146.779 87.4163 146.802 87.4224 146.822 87.4341" fill="#4979D4"/>
<path d="M146.845 95.5635V87.7556L216.437 127.814V135.622L146.845 95.5635Z" fill="#007FDB"/>
<path d="M230.143 143.528L229.956 143.421L230.143 143.528ZM229.956 143.202V135.901L147.025 87.9892V95.2905L229.956 143.202ZM146.843 87.4448L230.17 135.576C230.225 135.611 230.27 135.658 230.303 135.714C230.337 135.771 230.356 135.835 230.357 135.901V143.64C230.358 143.663 230.354 143.687 230.345 143.708C230.336 143.729 230.321 143.748 230.303 143.763C230.282 143.776 230.258 143.782 230.234 143.782C230.209 143.782 230.185 143.776 230.164 143.763L146.817 95.6214C146.761 95.5855 146.715 95.5359 146.683 95.4773C146.648 95.4231 146.63 95.3602 146.63 95.2958V87.5569C146.628 87.533 146.632 87.5091 146.642 87.4875C146.653 87.4659 146.669 87.4474 146.689 87.4341C146.709 87.4224 146.732 87.4163 146.755 87.4163C146.779 87.4163 146.802 87.4224 146.822 87.4341" fill="#4979D4"/>
<defs>
<linearGradient id="paint0_linear_1121_535" x1="388.43" y1="13.8692" x2="151.465" y2="3.20911" gradientUnits="userSpaceOnUse">
<stop stop-color="#DADAF9"/>
<stop offset="1" stop-color="#FFF0F9" stop-opacity="0.47"/>
</linearGradient>
</defs>
</svg>
