<svg width="209" height="140" viewBox="0 0 209 140" fill="none" xmlns="http://www.w3.org/2000/svg">
<rect width="209" height="140" fill="#3734A9"/>
<g clip-path="url(#clip0_1174_538)">
<path d="M104.395 129.024C115.255 121.082 117.715 106.27 117.291 92.8846C117.206 90.6538 117.461 88.3337 116.443 86.3706C115.424 84.4074 113.134 83.069 111.182 84.0505C109.655 84.8536 108.891 86.7275 108.043 88.3337C106.855 90.4753 105.158 92.1707 103.122 93.3308C101.764 94.0446 100.152 94.4908 98.7949 93.7769C97.0131 92.7061 96.7586 90.0291 96.7586 87.8875C96.7586 83.7828 96.8434 79.6781 96.8434 75.5734C96.8434 73.3426 96.8434 71.1117 96.2495 68.9701C95.5708 66.8285 94.1284 64.9546 92.177 64.33C90.1407 63.7054 87.6802 64.9546 87.256 67.0962C87.0863 67.9886 87.256 68.9701 87.1712 69.8625C87.0863 70.7548 86.7469 71.8256 85.8985 72.0933C85.05 72.361 84.2016 71.7364 83.6077 71.1117C81.4017 68.8809 79.9594 66.0254 78.6019 63.17C77.2443 60.3145 75.8868 57.3698 73.9354 54.9605C71.984 52.5513 69.269 50.5881 66.2145 50.4097C63.245 50.2312 60.0209 52.1943 59.2573 55.3175C58.4937 58.4406 60.1906 61.5638 62.142 64.1515C64.9419 67.8993 68.2508 71.201 71.8991 73.9672C72.5779 74.5026 73.2566 75.038 73.5112 75.8411C73.9354 77.358 72.6627 78.7858 71.2204 79.2319C69.6932 79.7673 67.9963 79.5889 66.2994 79.8566C64.6873 80.035 62.9056 80.8381 62.2269 82.4443C61.3784 84.6751 63.1601 87.0844 64.9419 88.6014C68.5054 91.7246 72.493 94.1338 76.8201 95.8293C78.3473 96.4539 79.9594 96.9893 81.232 98.0601C82.5047 99.2201 83.2683 101.183 82.5047 102.789C81.7411 104.306 79.7897 104.842 78.1776 104.574C76.5656 104.217 75.1232 103.325 73.596 102.7C70.7113 101.54 66.9781 101.719 65.1116 104.396C63.9237 106.091 63.7541 108.5 64.4328 110.553C65.0267 112.605 66.2994 114.39 67.6569 115.996C72.3234 121.707 78.1776 126.347 84.8804 128.756C91.5831 130.898 97.7767 131.612 104.395 129.024Z" fill="#F5F5F5"/>
<path d="M104.563 138.928C104.139 133.664 103.036 127.417 101.169 120.725C99.3025 114.032 96.6724 106.805 93.7028 99.3983C92.9392 97.5244 92.1756 95.7397 91.4968 93.955C90.7332 92.1704 90.0545 90.3857 89.206 88.6903C87.594 85.2994 85.8123 82.1763 83.9457 79.2316C82.1639 76.2869 80.2974 73.6099 78.6005 71.1114C76.9036 68.6129 75.2067 66.2928 73.6795 64.2404C70.5402 60.1357 67.6555 57.191 65.5344 55.2279C64.5163 54.2463 63.6678 53.5325 63.0739 52.9971C62.8194 52.7294 62.5648 52.5509 62.3952 52.4617C62.2255 52.3724 62.1406 52.2832 62.1406 52.2832C62.1406 52.2832 62.2255 52.3724 62.3103 52.4617C62.48 52.6401 62.6497 52.8186 62.9042 53.0863C63.4133 53.6217 64.2617 54.3356 65.2799 55.3171C67.3161 57.2803 70.2009 60.3142 73.3401 64.4189C74.8673 66.4713 76.5642 68.7913 78.2611 71.2898C79.958 73.7884 81.7397 76.5546 83.5215 79.4993C85.3032 82.444 87.0849 85.5671 88.697 88.958C89.5454 90.6534 90.2242 92.4381 90.9878 94.2227C91.7514 96.0074 92.4301 97.8813 93.1937 99.666C96.1633 107.072 98.7935 114.211 100.66 120.903C102.527 127.596 103.63 133.753 104.139 139.018" fill="#E0E0E0"/>
<path d="M89.0391 88.6009C89.0391 88.6009 89.1239 88.2439 89.2087 87.6193C89.2936 86.9947 89.4633 86.1023 89.633 85.0315C89.9724 82.8007 90.2269 79.7668 90.5663 76.3759C90.9056 72.9851 91.245 69.9511 91.5844 67.8096C91.7541 66.7388 91.9238 65.8464 92.0086 65.2218C92.0935 64.5972 92.1783 64.2402 92.0935 64.2402C92.0935 64.2402 92.0086 64.5972 91.8389 65.1326C91.6692 65.7572 91.4996 66.6495 91.3299 67.7203C90.9056 69.8619 90.5663 72.9851 90.2269 76.2867C89.8875 79.5883 89.633 82.6222 89.3784 84.9423C89.2936 86.0131 89.2088 86.8162 89.1239 87.5301C89.0391 88.2439 89.0391 88.6009 89.0391 88.6009Z" fill="#E0E0E0"/>
<path d="M62.0547 83.248C62.0547 83.248 62.4789 83.3373 63.1577 83.4265C63.8364 83.5157 64.8546 83.605 66.1272 83.6942C68.5877 83.9619 71.9815 84.4973 75.7147 85.2112C79.363 86.0143 82.7568 86.8174 85.1324 87.5312C86.3202 87.8882 87.3384 88.1559 88.0171 88.3343C88.6959 88.5128 89.0353 88.602 89.0353 88.602C89.0353 88.602 88.6959 88.4236 88.0171 88.1559C87.3384 87.8882 86.4051 87.5312 85.2173 87.1743C82.8416 86.4604 79.4478 85.5681 75.7147 84.765C71.9815 84.0511 68.5877 83.5157 66.0424 83.3373C64.8546 83.3373 63.8364 83.248 63.0728 83.248C62.3941 83.248 62.0547 83.248 62.0547 83.248Z" fill="#E0E0E0"/>
<path d="M100.828 120.189C100.828 120.189 100.913 120.1 100.998 119.832C101.083 119.564 101.252 119.207 101.422 118.761C101.846 117.869 102.355 116.53 103.034 114.924C104.307 111.712 106.004 107.072 107.785 102.075C109.567 96.9883 111.179 92.4375 112.452 89.1358C113.046 87.5296 113.555 86.1912 113.894 85.2988C114.064 84.8527 114.149 84.4957 114.318 84.228C114.403 83.9603 114.403 83.8711 114.403 83.8711C114.403 83.8711 114.318 83.9603 114.234 84.228C114.149 84.4957 113.979 84.8527 113.809 85.2988C113.385 86.1912 112.876 87.5296 112.197 89.1358C110.925 92.3482 109.228 96.9884 107.446 101.985C105.664 107.072 104.052 111.623 102.78 114.924C102.186 116.53 101.677 117.869 101.337 118.761C101.168 119.207 101.083 119.564 100.913 119.832C100.828 120.01 100.828 120.189 100.828 120.189Z" fill="#E0E0E0"/>
<path d="M64.9453 107.965C64.9453 107.965 65.0302 108.054 65.2847 108.143C65.5392 108.233 65.8786 108.322 66.3028 108.5C67.2361 108.857 68.5936 109.303 70.1208 109.839C73.3449 110.91 77.8417 112.516 82.7627 114.3C87.6837 116.085 92.1804 117.602 95.4894 118.673C97.1014 119.208 98.4589 119.565 99.3922 119.833C99.8164 119.922 100.156 120.011 100.495 120.101C100.75 120.19 100.835 120.19 100.835 120.19C100.835 120.19 100.75 120.101 100.495 120.011C100.241 119.922 99.9013 119.833 99.477 119.654C98.5438 119.297 97.1862 118.851 95.659 118.316C92.4349 117.245 87.9382 115.639 83.0172 113.854C78.0962 112.07 73.5995 110.553 70.2905 109.482C68.6785 108.946 67.321 108.589 66.3877 108.322C65.9634 108.233 65.6241 108.143 65.2847 108.054C65.0302 108.054 64.9453 107.965 64.9453 107.965Z" fill="#E0E0E0"/>
<path d="M179.055 118.226L136.463 115.638C136.208 115.013 136.039 114.656 136.039 114.656L124.5 114.924L120.767 114.656C120.767 114.656 120.682 114.745 120.597 115.013L81.908 115.906C74.1871 115.906 66.042 120.903 66.1269 127.238C66.042 133.306 68.8419 139.82 75.7143 139.641L128.488 139.285H181.261C188.218 139.374 190 135.001 190 129.826C190.679 120.099 184.909 118.315 179.055 118.226Z" fill="#455A64"/>
<path d="M80.4688 139.552C80.4688 139.552 80.5536 139.552 80.7233 139.552C80.893 139.552 81.1475 139.552 81.4869 139.552C82.1656 139.552 83.0989 139.552 84.3716 139.552C86.9169 139.552 90.4804 139.463 94.9772 139.463C103.971 139.463 116.443 139.373 130.442 139.284L130.273 139.463C130.188 138.213 130.103 136.964 130.018 135.626C129.848 132.949 129.679 130.272 129.509 127.773L129.679 127.952C116.697 126.435 105.243 125.185 97.0134 124.204C92.9409 123.758 89.632 123.312 87.3412 123.044C86.2382 122.865 85.3049 122.776 84.711 122.687C84.4564 122.687 84.2019 122.598 84.0322 122.598C83.8625 122.598 83.7777 122.598 83.7777 122.598C83.7777 122.598 83.8625 122.598 84.0322 122.598C84.2019 122.598 84.4564 122.598 84.711 122.687C85.3049 122.776 86.2382 122.865 87.3412 122.955C89.632 123.222 92.9409 123.579 97.0134 124.025C105.243 124.918 116.697 126.167 129.679 127.684H129.763V127.773C129.933 130.272 130.103 132.949 130.273 135.626C130.357 136.964 130.442 138.213 130.527 139.463V139.641H130.357C116.443 139.641 103.971 139.641 94.8923 139.73C90.3956 139.73 86.7472 139.73 84.2868 139.73C83.0141 139.73 82.0808 139.73 81.402 139.73C81.0627 139.73 80.8081 139.73 80.6384 139.73C80.6384 139.641 80.4688 139.552 80.4688 139.552Z" fill="#263238"/>
<path d="M91.3223 123.67C91.3223 123.67 90.7284 123.224 89.7951 122.688C88.8618 122.064 87.5043 121.35 85.8922 120.904C84.2802 120.457 82.753 120.279 81.7349 120.279C80.6319 120.279 79.9531 120.368 79.9531 120.279C79.9531 120.279 80.1228 120.19 80.4622 120.19C80.8016 120.1 81.2258 120.1 81.7349 120.1C82.8378 120.011 84.365 120.19 85.9771 120.636C87.5891 121.082 88.9466 121.885 89.8799 122.51C90.3042 122.867 90.7284 123.134 90.8981 123.313C91.2374 123.491 91.3223 123.581 91.3223 123.67Z" fill="#263238"/>
<path d="M157.04 125.895C167.392 123.321 175.766 121.157 175.745 121.061C175.723 120.965 167.314 122.974 156.962 125.548C146.611 128.122 138.236 130.287 138.258 130.383C138.279 130.479 146.689 128.47 157.04 125.895Z" fill="#263238"/>
<path d="M168.619 120.188C168.619 120.277 167.007 120.634 165.31 121.883C163.613 123.043 162.68 124.56 162.68 124.471C162.68 124.471 162.849 124.025 163.274 123.489C163.698 122.954 164.377 122.24 165.225 121.615C166.073 120.991 166.922 120.634 167.601 120.455C168.195 120.188 168.619 120.099 168.619 120.188Z" fill="#263238"/>
<path d="M129.93 129.023L137.82 130.183L137.905 139.285L130.608 139.107L129.93 129.023Z" fill="#B78876"/>
<path d="M137.82 130.184H141.384C142.063 130.184 142.741 130.362 143.335 130.719L145.202 131.879C145.796 132.236 147.832 133.307 148.511 133.485C150.717 134.199 154.365 135.181 155.129 135.805C157.335 137.59 156.656 139.732 155.468 139.91C154.45 140.088 137.82 139.196 137.82 139.196V130.184Z" fill="#007FDB"/>
<path d="M143.762 138.481C143.677 138.481 143.422 137.411 143.337 136.161C143.253 134.823 143.507 133.752 143.592 133.752C143.677 133.752 143.592 134.823 143.677 136.161C143.677 137.411 143.846 138.481 143.762 138.481Z" fill="#263238"/>
<path d="M145.314 136.278C145.308 137.461 145.379 138.42 145.473 138.421C145.566 138.421 145.647 137.463 145.653 136.28C145.659 135.097 145.588 134.138 145.494 134.138C145.401 134.137 145.32 135.096 145.314 136.278Z" fill="#263238"/>
<path d="M147.059 136.545C147.153 137.773 147.305 138.763 147.399 138.755C147.492 138.747 147.491 137.745 147.397 136.517C147.303 135.289 147.151 134.299 147.057 134.307C146.964 134.315 146.965 135.317 147.059 136.545Z" fill="#263238"/>
<path d="M142.23 136.073C142.23 136.073 141.975 136.073 141.466 135.806C141.042 135.627 140.363 135.27 139.684 134.646C139.515 134.467 139.345 134.289 139.175 134.11C139.006 133.932 138.836 133.753 138.751 133.396C138.666 133.129 138.666 132.772 138.836 132.504C138.921 132.326 139.09 132.236 139.26 132.236C139.43 132.236 139.599 132.236 139.769 132.326C140.957 132.772 141.89 133.932 142.145 135.449C142.315 136.966 141.551 138.304 140.533 139.018C140.278 139.197 140.024 139.375 139.684 139.375C139.515 139.375 139.345 139.375 139.26 139.375C139.09 139.286 139.006 139.197 138.921 139.018C138.751 138.661 138.921 138.393 139.006 138.126C139.175 137.858 139.345 137.68 139.43 137.501C140.109 136.876 140.702 136.52 141.212 136.252C141.636 136.073 141.975 135.984 141.975 136.073C141.975 136.073 141.721 136.163 141.296 136.43C140.872 136.698 140.278 137.055 139.684 137.68C139.515 137.858 139.345 138.036 139.26 138.215C139.175 138.393 139.09 138.661 139.175 138.84C139.26 139.018 139.515 139.107 139.769 139.018C140.024 138.929 140.278 138.84 140.448 138.661C141.381 138.036 142.06 136.698 141.89 135.359C141.721 134.021 140.787 132.861 139.769 132.504C139.515 132.415 139.26 132.415 139.09 132.593C138.921 132.772 138.921 133.039 139.006 133.218C139.175 133.664 139.599 134.021 139.854 134.289C141.127 135.716 142.23 135.984 142.23 136.073Z" fill="#263238"/>
<path d="M155.554 139.91C155.554 139.91 155.808 139.732 155.978 139.375C156.148 138.928 156.148 138.215 155.723 137.501C155.299 136.787 154.535 136.162 153.517 135.716C152.499 135.359 151.311 135.181 150.124 134.734C147.663 133.931 145.627 132.861 144.184 131.879C143.506 131.433 142.912 130.987 142.572 130.719C142.233 130.451 141.978 130.273 142.063 130.184C142.063 130.184 142.318 130.273 142.657 130.63C143.081 130.897 143.591 131.254 144.269 131.701C145.712 132.593 147.748 133.664 150.124 134.378C151.311 134.734 152.499 134.913 153.602 135.359C154.62 135.716 155.469 136.43 155.893 137.233C156.317 138.036 156.317 138.839 156.063 139.285C155.978 139.553 155.808 139.642 155.723 139.732C155.638 139.91 155.554 139.999 155.554 139.91Z" fill="#263238"/>
<path d="M121.025 19.8906C118.564 20.8722 115.765 24.8877 115.256 27.5647C114.831 29.974 115.425 32.4725 115.68 34.8818C116.019 37.2911 115.934 40.0573 114.407 41.9312C113.474 43.0912 112.116 43.8051 111.013 44.7866C109.401 46.2144 108.468 48.356 108.298 50.4976C108.129 52.7284 108.892 54.9592 110.25 56.5654C108.383 57.0116 107.195 58.9747 107.195 60.9378C107.28 62.9009 108.383 64.6856 109.91 65.8456C111.438 67.0057 113.304 67.5411 115.086 67.9872C117.037 68.3442 119.074 68.5226 120.94 67.8088C123.146 67.0057 124.758 65.0425 126.455 63.4363C128.576 61.4732 131.037 59.7778 132.564 57.2793C134.346 54.3346 134.6 50.676 134.6 47.1959C134.6 40.0573 133.667 33.0079 132.055 26.0477" fill="#263238"/>
<path d="M152.662 68.9707L166.237 93.599C167.934 96.6329 168.019 100.381 166.576 103.504C164.879 107.162 161.231 109.393 157.413 109.304L136.711 108.769L136.117 100.827L154.359 97.0791L141.971 74.7709L152.662 68.9707Z" fill="#B78876"/>
<path d="M102.522 111.357L121.612 116.622L122.036 110.643L104.473 99.9352L117.2 74.8607L106.425 69.0605L92.9343 93.8673C89.7102 100.292 92.7646 108.145 99.2977 110.375L102.522 111.357Z" fill="#B78876"/>
<path d="M146.984 84.854L159.965 77.6261C159.965 77.6261 157.759 72.8076 154.365 67.8997C150.293 62.0104 144.099 57.9949 136.972 56.3887L122.04 56.6564C119.918 56.9241 118.137 57.3702 116.694 57.9949V57.9056C108.549 59.7795 99.6406 78.4292 99.6406 78.4292L111.519 84.9432L111.773 86.9064C112.113 89.4941 113.216 91.9034 114.913 93.8666L111.519 117.692L149.953 118.406L145.032 101.362L146.984 84.854Z" fill="#007FDB"/>
<path d="M115.162 93.9559C115.162 93.9559 114.907 93.7774 114.568 93.5097C114.228 93.1528 113.719 92.7066 113.295 91.9927C112.362 90.565 111.429 88.1557 111.683 85.4787C111.853 84.1402 112.192 82.9802 112.532 81.8202C112.871 80.7494 113.21 79.7678 113.55 78.9647C113.889 78.1616 114.144 77.537 114.313 77.0908C114.483 76.6446 114.653 76.377 114.653 76.377C114.653 76.377 114.568 76.6446 114.398 77.0908C114.228 77.6262 113.974 78.2508 113.719 79.0539C113.465 79.857 113.125 80.8386 112.786 81.9094C112.447 82.9802 112.107 84.2295 111.938 85.4787C111.853 86.728 112.023 87.9772 112.277 89.1373C112.532 90.2081 113.041 91.1004 113.465 91.8143C114.398 93.3312 115.247 93.9559 115.162 93.9559Z" fill="#263238"/>
<path d="M114.259 70.7615C115.289 72.2286 116.215 73.3468 116.328 73.259C116.441 73.1712 115.698 71.9107 114.669 70.4436C113.639 68.9765 112.713 67.8583 112.6 67.9461C112.487 68.0339 113.23 69.2944 114.259 70.7615Z" fill="#FAFAFA"/>
<path d="M120.284 63.7596C121.594 62.9921 122.6 62.2652 122.532 62.136C122.463 62.0068 121.346 62.5244 120.036 63.2919C118.726 64.0594 117.72 64.7863 117.788 64.9155C117.856 65.0447 118.974 64.5272 120.284 63.7596Z" fill="#FAFAFA"/>
<path d="M107.489 75.2209C107.38 76.695 107.404 77.8993 107.544 77.9108C107.685 77.9223 107.887 76.7367 107.997 75.2627C108.106 73.7887 108.082 72.5844 107.942 72.5729C107.801 72.5613 107.599 73.7469 107.489 75.2209Z" fill="#FAFAFA"/>
<path d="M119.217 84.6456C120.486 83.9014 121.459 83.1935 121.39 83.0643C121.322 82.9352 120.238 83.4338 118.969 84.178C117.7 84.9221 116.727 85.6301 116.796 85.7592C116.864 85.8883 117.948 85.3897 119.217 84.6456Z" fill="#FAFAFA"/>
<path d="M124.373 74.3477C125.304 73.2404 125.974 72.2633 125.868 72.1653C125.763 72.0673 124.923 72.8856 123.991 73.993C123.06 75.1003 122.39 76.0775 122.495 76.1754C122.601 76.2734 123.441 75.4551 124.373 74.3477Z" fill="#FAFAFA"/>
<path d="M133.262 73.524C134.021 74.65 134.729 75.4936 134.843 75.4081C134.958 75.3226 134.436 74.3406 133.678 73.2146C132.919 72.0886 132.212 71.2451 132.097 71.3305C131.982 71.416 132.504 72.398 133.262 73.524Z" fill="#FAFAFA"/>
<path d="M129.57 82.5413C129.73 84.258 129.972 85.6381 130.112 85.6238C130.252 85.6094 130.236 84.2061 130.077 82.4893C129.918 80.7726 129.676 79.3925 129.536 79.4068C129.396 79.4212 129.411 80.8245 129.57 82.5413Z" fill="#FAFAFA"/>
<path d="M124.986 92.1681C125.706 93.4951 126.389 94.5114 126.511 94.4382C126.633 94.3649 126.148 93.2297 125.429 91.9027C124.709 90.5757 124.026 89.5594 123.904 89.6327C123.782 89.7059 124.266 90.8411 124.986 92.1681Z" fill="#FAFAFA"/>
<path d="M136.94 91.8262C137.858 90.5794 138.513 89.4953 138.402 89.4048C138.29 89.3142 137.456 90.2515 136.538 91.4983C135.619 92.7451 134.965 93.8293 135.076 93.9198C135.187 94.0103 136.022 93.073 136.94 91.8262Z" fill="#FAFAFA"/>
<path d="M143.498 84.2297C143.413 84.3189 142.141 83.7835 140.783 82.6235C139.426 81.4635 138.577 80.3034 138.662 80.2142C138.747 80.125 139.765 81.1958 141.038 82.2666C142.395 83.3374 143.583 84.1405 143.498 84.2297Z" fill="#FAFAFA"/>
<path d="M148.856 77.2686C150.496 77.226 151.822 77.0716 151.818 76.9238C151.815 76.776 150.483 76.6907 148.844 76.7333C147.204 76.776 145.878 76.9304 145.881 77.0782C145.885 77.226 147.217 77.3112 148.856 77.2686Z" fill="#FAFAFA"/>
<g opacity="0.3">
<g opacity="0.3">
<g opacity="0.3">
<path opacity="0.3" d="M153.941 65.7577C155.298 67.9885 155.468 70.844 154.535 73.2533C153.601 75.6626 151.395 77.4472 149.02 77.9826C146.559 78.518 143.929 77.6257 142.147 75.841C141.723 75.3949 141.384 74.9487 140.79 74.681C140.281 74.4133 139.687 74.4133 139.178 74.3241C137.226 73.9671 135.445 72.5394 134.681 70.5763C133.918 68.6131 134.172 66.2931 135.275 64.5977L153.941 65.7577Z" fill="black"/>
</g>
</g>
</g>
<path d="M109.479 123.491L107.273 96.8992L154.023 96.7207L151.053 123.669L109.479 123.491Z" fill="#263238"/>
<path d="M130.688 114.121C132.328 114.121 133.658 112.723 133.658 110.998C133.658 109.273 132.328 107.875 130.688 107.875C129.048 107.875 127.719 109.273 127.719 110.998C127.719 112.723 129.048 114.121 130.688 114.121Z" fill="#FAFAFA"/>
<path d="M131.452 65.8461C135.354 65.7569 138.579 62.366 138.579 58.2613L138.918 27.6544C138.918 26.4051 138.07 25.3343 136.882 25.1558L124.579 21.9434C120.676 21.4973 118.046 26.5836 117.792 30.7775C117.537 35.4176 117.367 41.0393 117.877 44.4302C118.895 51.3903 123.985 52.1934 123.985 52.1934C123.985 52.1934 123.985 54.8704 123.985 58.172C123.985 62.4552 127.379 65.9353 131.452 65.8461Z" fill="#B78876"/>
<path d="M120.344 35.2386C120.344 35.6848 120.683 36.131 121.192 36.131C121.616 36.131 122.041 35.774 122.041 35.3279C122.041 34.8817 121.701 34.4355 121.192 34.4355C120.768 34.3463 120.344 34.7032 120.344 35.2386Z" fill="#263238"/>
<path d="M118.898 33.6326C118.983 33.7218 119.662 33.2756 120.51 33.2756C121.444 33.2756 122.123 33.7218 122.207 33.6326C122.292 33.5433 122.123 33.3649 121.868 33.1864C121.613 33.0079 121.104 32.7402 120.51 32.7402C119.917 32.7402 119.492 32.9187 119.238 33.1864C118.983 33.3649 118.898 33.6326 118.898 33.6326Z" fill="#263238"/>
<path d="M128.992 35.2406C128.992 35.6868 129.332 36.1329 129.841 36.1329C130.265 36.1329 130.689 35.776 130.689 35.3298C130.689 34.8837 130.35 34.4375 129.841 34.4375C129.332 34.3483 128.992 34.7052 128.992 35.2406Z" fill="#263238"/>
<path d="M127.89 33.8123C127.975 33.9015 128.654 33.4553 129.502 33.4553C130.435 33.4553 131.114 33.9015 131.199 33.8123C131.284 33.723 131.114 33.5446 130.86 33.3661C130.605 33.1876 130.096 32.9199 129.502 32.9199C128.908 32.9199 128.484 33.0984 128.229 33.3661C127.89 33.5446 127.805 33.8123 127.89 33.8123Z" fill="#263238"/>
<path d="M124.575 40.9496C124.575 40.8603 123.982 40.7711 123.133 40.6819C122.879 40.6819 122.709 40.5926 122.624 40.4142C122.539 40.2357 122.709 39.968 122.794 39.7003C123.048 39.0757 123.218 38.451 123.472 37.8264C124.406 35.1494 125.085 33.0078 125 33.0078C124.915 33.0078 124.066 35.0602 123.133 37.7372C122.879 38.3618 122.709 38.9864 122.454 39.6111C122.369 39.8788 122.2 40.2357 122.369 40.5926C122.454 40.7711 122.624 40.9496 122.709 40.9496C122.879 41.0388 122.963 41.0388 123.133 41.0388C123.982 40.9496 124.575 40.9496 124.575 40.9496Z" fill="#263238"/>
<path d="M123.898 52.1938C123.898 52.1938 128.31 52.4615 132.722 49.6953C132.722 49.6953 130.601 54.4247 123.983 53.8L123.898 52.1938Z" fill="#AA6550"/>
<path d="M124.921 43.1808C125.26 42.7346 125.854 42.4669 126.363 42.5562C126.787 42.5562 127.127 42.8239 127.381 43.1808C127.636 43.5377 127.636 43.9839 127.466 44.3408C127.212 44.6978 126.703 44.787 126.278 44.6978C125.854 44.6085 125.515 44.2516 125.09 43.9839C125.006 43.8947 124.921 43.8054 124.836 43.7162C124.836 43.4485 124.836 43.3593 124.921 43.1808Z" fill="#AA6550"/>
<path d="M127.213 41.5742C127.043 41.5742 127.043 42.645 126.195 43.3589C125.346 44.0727 124.328 43.9835 124.328 44.162C124.328 44.2512 124.583 44.3404 125.007 44.3404C125.431 44.3404 126.11 44.2512 126.619 43.7158C127.128 43.2696 127.383 42.645 127.383 42.1989C127.383 41.8419 127.298 41.5742 127.213 41.5742Z" fill="#263238"/>
<path d="M127.462 32.2059C127.547 32.4736 128.48 32.3844 129.498 32.4736C130.601 32.5628 131.449 32.9198 131.534 32.6521C131.619 32.5628 131.449 32.2951 131.11 32.0274C130.771 31.7597 130.177 31.5813 129.583 31.492C128.904 31.4028 128.395 31.492 127.971 31.6705C127.631 31.849 127.377 32.0274 127.462 32.2059Z" fill="#263238"/>
<path d="M119.063 31.9366C119.233 32.1151 119.827 31.9366 120.59 31.9366C121.354 31.9366 121.948 32.1151 122.117 31.8474C122.202 31.7582 122.117 31.4905 121.778 31.312C121.524 31.1335 121.014 30.9551 120.505 30.9551C119.996 30.9551 119.572 31.1335 119.318 31.4012C119.063 31.5797 118.978 31.7582 119.063 31.9366Z" fill="#263238"/>
<path d="M154.872 62.8127C153.685 60.5819 150.97 59.1541 150.97 56.6556C150.97 55.1386 152.072 53.7109 152.157 52.194C152.327 49.0708 148.509 47.4646 147.491 44.5199C146.558 41.8429 148.17 38.8982 147.576 36.132C146.897 32.7412 144.012 31.4027 141.552 29.1718C140.534 28.1903 139.77 26.941 139.091 25.6917C139.006 25.5133 138.922 25.3348 138.837 25.2456C137.225 22.3901 134.34 20.427 131.201 20.0701C127.637 18.7316 123.904 19.1777 122.292 19.6239C120.765 19.8916 119.238 20.6055 118.22 21.944C117.117 23.1932 116.607 25.0671 117.032 26.6733C117.456 28.2795 119.068 29.5288 120.68 29.3503C121.868 29.1718 123.056 28.2795 124.243 28.6364C125.346 28.9934 125.94 30.4211 127.128 30.5996C128.231 30.778 129.249 29.7965 130.352 29.618C131.625 29.5288 132.728 30.5996 133.237 31.7596C133.492 32.2058 133.661 32.7412 133.746 33.1873C134.679 38.0951 136.461 40.326 135.188 43.1814C134.51 44.6984 133.407 46.0369 133.237 47.7323C132.813 51.5693 137.564 54.3356 137.31 58.1726C137.225 59.7788 136.207 61.2065 135.613 62.7235C134.51 65.8466 135.613 69.7729 138.243 71.736C139.6 72.7176 141.382 73.253 142.909 72.6283C143.079 72.5391 143.249 72.4499 143.418 72.3606C144.267 73.1637 145.37 73.7884 146.473 74.0561C149.273 74.6807 152.157 72.9853 153.854 70.576C155.466 68.4344 156.23 65.222 154.872 62.8127Z" fill="#263238"/>
<path d="M143.504 72.4489C143.504 72.3597 144.437 72.3597 145.794 71.6458C146.473 71.2889 147.322 70.6642 148 69.7719C148.679 68.8796 149.358 67.7195 149.612 66.2918C149.867 64.8641 149.612 63.1686 148.849 61.6517C148.085 60.1347 146.728 58.8855 145.031 58.1716C144.182 57.7254 143.249 57.3685 142.57 56.4762C141.892 55.6731 141.637 54.4238 141.807 53.353C141.976 52.2822 142.401 51.2114 142.91 50.2299C143.419 49.2483 143.928 48.2667 144.267 47.1959C144.607 46.1251 144.607 45.0543 144.182 44.0728C143.758 43.0912 143.079 42.2881 142.401 41.485C141.722 40.6819 140.958 39.9681 140.364 39.165C139.686 38.3619 139.261 37.4695 138.837 36.488C138.074 34.6141 137.734 32.7402 137.48 31.0448C137.14 29.3493 136.886 27.7431 136.461 26.3154C135.613 23.4599 134.001 21.5861 132.728 20.783C131.371 19.8906 130.438 19.9799 130.438 19.8906C130.438 19.8906 130.522 19.8906 130.607 19.8906C130.692 19.8906 130.862 19.8906 131.116 19.9799C131.54 20.0691 132.134 20.2476 132.813 20.6937C133.492 21.1399 134.256 21.7645 135.019 22.7461C135.698 23.6384 136.377 24.8877 136.801 26.3154C137.225 27.7431 137.564 29.3493 137.904 31.0448C138.243 32.7402 138.583 34.6141 139.261 36.3987C139.601 37.2911 140.11 38.1834 140.704 38.8973C141.298 39.7004 142.061 40.4142 142.74 41.2173C143.419 42.0204 144.182 42.8235 144.607 43.8943C145.031 44.9651 145.031 46.2144 144.691 47.3744C144.013 49.6052 142.485 51.3007 142.231 53.4422C142.061 54.4238 142.231 55.4946 142.825 56.2085C143.419 56.9223 144.352 57.3685 145.116 57.7254C145.964 58.0824 146.813 58.6178 147.491 59.2424C148.17 59.867 148.679 60.6701 149.103 61.384C149.867 62.9902 150.121 64.6856 149.867 66.2026C149.612 67.7195 148.934 68.9688 148.17 69.8611C147.406 70.7535 146.558 71.3781 145.879 71.735C145.116 72.092 144.522 72.2704 144.097 72.3597C143.928 72.3597 143.758 72.3597 143.588 72.4489C143.504 72.4489 143.504 72.4489 143.504 72.4489Z" fill="#455A64"/>
</g>
<defs>
<clipPath id="clip0_1174_538">
<rect width="131" height="121" fill="white" transform="translate(59 19)"/>
</clipPath>
</defs>
</svg>
