<svg width="177" height="176" viewBox="0 0 177 176" fill="none" xmlns="http://www.w3.org/2000/svg">
<rect x="0.5" width="175.633" height="175.633" rx="6.43345" fill="#E3EDFF"/>
<path d="M85.1333 103.994H68.6602V54.0069H108.423V78.4325C108.423 78.745 108.679 79.0006 108.991 79.0006H112.967C113.28 79.0006 113.535 78.745 113.535 78.4325V51.1667C113.535 49.9099 112.52 48.8945 111.263 48.8945H65.82C64.5632 48.8945 63.5479 49.9099 63.5479 51.1667V106.834C63.5479 108.091 64.5632 109.107 65.82 109.107H85.1333C85.4457 109.107 85.7014 108.851 85.7014 108.539V104.562C85.7014 104.25 85.4457 103.994 85.1333 103.994Z" fill="url(#paint0_linear_1086_497)"/>
<path d="M92.4682 68.7084C92.8334 68.8711 93.1191 69.1721 93.2623 69.5454C93.4056 69.9186 93.3948 70.3335 93.2322 70.6987L85.1904 88.7928C85.0224 89.1496 84.7213 89.4264 84.3516 89.5639C83.982 89.7013 83.5732 89.6884 83.2129 89.528C82.8526 89.3676 82.5695 89.0724 82.4243 88.7057C82.2791 88.339 82.2833 87.93 82.4361 87.5664L90.4779 69.4723C90.6406 69.1071 90.9417 68.8215 91.3149 68.6783C91.6881 68.535 92.103 68.5458 92.4682 68.7084ZM81.5977 73.4812C81.7462 73.6127 81.8672 73.7721 81.954 73.9505C82.0407 74.1288 82.0914 74.3225 82.1031 74.5204C82.1149 74.7184 82.0875 74.9167 82.0225 75.1041C81.9575 75.2914 81.8562 75.4641 81.7244 75.6123L78.5921 79.1326L81.7244 82.6549C81.9899 82.954 82.1258 83.3464 82.102 83.7456C82.0783 84.1449 81.8969 84.5184 81.5977 84.7839C81.4496 84.9154 81.2771 85.0164 81.0899 85.0812C80.9028 85.146 80.7047 85.1733 80.507 85.1616C80.1077 85.1378 79.7342 84.9564 79.4687 84.6573L75.4478 80.1338C75.2027 79.8578 75.0674 79.5016 75.0674 79.1326C75.0674 78.7635 75.2027 78.4073 75.4478 78.1314L79.4687 73.6078C79.6002 73.4594 79.7596 73.3383 79.938 73.2516C80.1163 73.1649 80.31 73.1142 80.5079 73.1024C80.7059 73.0907 80.9042 73.1181 81.0916 73.1831C81.2789 73.248 81.4516 73.3494 81.5997 73.4812H81.5977ZM95.6789 73.4812C95.827 73.3497 95.9996 73.2486 96.1868 73.1838C96.3739 73.119 96.572 73.0917 96.7697 73.1034C96.9674 73.1152 97.1609 73.1658 97.339 73.2523C97.5172 73.3389 97.6766 73.4597 97.808 73.6078L101.829 78.1314C102.074 78.4073 102.209 78.7635 102.209 79.1326C102.209 79.5016 102.074 79.8578 101.829 80.1338L97.808 84.6573C97.5425 84.9564 97.169 85.1378 96.7697 85.1616C96.3704 85.1853 95.9781 85.0495 95.6789 84.7839C95.3798 84.5184 95.1984 84.1449 95.1747 83.7456C95.1509 83.3464 95.2867 82.954 95.5523 82.6549L98.6826 79.1326L95.5543 75.6102C95.4228 75.4621 95.3217 75.2896 95.2569 75.1024C95.1921 74.9153 95.1648 74.7172 95.1766 74.5195C95.1883 74.3218 95.2389 74.1283 95.3255 73.9501C95.412 73.772 95.5328 73.6126 95.681 73.4812H95.6789Z" fill="#06246A"/>
<path d="M65.5683 144.938H62.3968V147.531H66.0809V148.32H61.4318V141.002H66.0307V141.796H62.3968V144.149H65.5683V144.938ZM68.9609 144.867L70.1672 142.882H71.2528L69.4736 145.571L71.3081 148.32H70.2325L68.976 146.285L67.7195 148.32H66.6388L68.4734 145.571L66.6941 142.882H67.7697L68.9609 144.867ZM76.8369 145.661C76.8369 146.489 76.6475 147.156 76.2689 147.662C75.8903 148.168 75.3776 148.421 74.7309 148.421C74.0708 148.421 73.5515 148.211 73.1728 147.793V150.411H72.243V142.882H73.0924L73.1376 143.485C73.5163 143.016 74.0423 142.782 74.7158 142.782C75.3692 142.782 75.8853 143.028 76.2639 143.52C76.6459 144.013 76.8369 144.698 76.8369 145.576V145.661ZM75.907 145.556C75.907 144.943 75.7764 144.459 75.515 144.103C75.2536 143.748 74.8951 143.571 74.4394 143.571C73.8765 143.571 73.4543 143.82 73.1728 144.32V146.918C73.4509 147.414 73.8765 147.662 74.4495 147.662C74.8951 147.662 75.2486 147.486 75.51 147.134C75.7747 146.779 75.907 146.253 75.907 145.556ZM77.7768 145.551C77.7768 145.018 77.8806 144.539 78.0884 144.113C78.2995 143.688 78.591 143.36 78.9629 143.128C79.3382 142.897 79.7654 142.782 80.2446 142.782C80.9851 142.782 81.5832 143.038 82.0389 143.551C82.498 144.063 82.7275 144.745 82.7275 145.596V145.661C82.7275 146.191 82.6253 146.667 82.4209 147.089C82.2199 147.508 81.93 147.834 81.5514 148.069C81.1761 148.304 80.7438 148.421 80.2546 148.421C79.5175 148.421 78.9194 148.165 78.4603 147.652C78.0046 147.139 77.7768 146.461 77.7768 145.616V145.551ZM78.7116 145.661C78.7116 146.265 78.8507 146.749 79.1288 147.114C79.4102 147.479 79.7855 147.662 80.2546 147.662C80.7271 147.662 81.1024 147.478 81.3805 147.109C81.6586 146.737 81.7977 146.218 81.7977 145.551C81.7977 144.954 81.6553 144.472 81.3704 144.103C81.089 143.731 80.7137 143.545 80.2446 143.545C79.7855 143.545 79.4153 143.728 79.1338 144.093C78.8523 144.459 78.7116 144.981 78.7116 145.661ZM86.5222 143.716C86.3815 143.693 86.229 143.681 86.0648 143.681C85.455 143.681 85.0412 143.941 84.8234 144.46V148.32H83.8936V142.882H84.7983L84.8133 143.51C85.1183 143.024 85.5505 142.782 86.1101 142.782C86.291 142.782 86.4284 142.805 86.5222 142.852V143.716ZM88.8946 141.565V142.882H89.9098V143.601H88.8946V146.973C88.8946 147.191 88.9398 147.355 89.0303 147.466C89.1207 147.573 89.2749 147.627 89.4927 147.627C89.5999 147.627 89.7473 147.607 89.935 147.566V148.32C89.6904 148.387 89.4525 148.421 89.2213 148.421C88.8058 148.421 88.4925 148.295 88.2814 148.044C88.0703 147.793 87.9647 147.436 87.9647 146.973V143.601H86.9746V142.882H87.9647V141.565H88.8946ZM99.0825 145.998C98.9921 146.772 98.7056 147.37 98.2231 147.793C97.7439 148.211 97.1056 148.421 96.3081 148.421C95.4436 148.421 94.75 148.111 94.2273 147.491C93.7079 146.871 93.4482 146.042 93.4482 145.003V144.299C93.4482 143.619 93.5689 143.021 93.8101 142.505C94.0547 141.989 94.3998 141.594 94.8455 141.319C95.2911 141.041 95.8072 140.902 96.3935 140.902C97.1709 140.902 97.7942 141.12 98.2633 141.555C98.7324 141.987 99.0055 142.587 99.0825 143.354H98.1125C98.0287 142.771 97.8461 142.349 97.5646 142.088C97.2865 141.827 96.8962 141.696 96.3935 141.696C95.777 141.696 95.2928 141.924 94.941 142.379C94.5925 142.835 94.4183 143.483 94.4183 144.325V145.033C94.4183 145.827 94.5841 146.459 94.9159 146.928C95.2476 147.397 95.7117 147.632 96.3081 147.632C96.8442 147.632 97.2547 147.511 97.5395 147.27C97.8277 147.025 98.0187 146.601 98.1125 145.998H99.0825ZM100.012 145.551C100.012 145.018 100.116 144.539 100.324 144.113C100.535 143.688 100.827 143.36 101.199 143.128C101.574 142.897 102.001 142.782 102.48 142.782C103.221 142.782 103.819 143.038 104.275 143.551C104.734 144.063 104.963 144.745 104.963 145.596V145.661C104.963 146.191 104.861 146.667 104.656 147.089C104.455 147.508 104.166 147.834 103.787 148.069C103.412 148.304 102.979 148.421 102.49 148.421C101.753 148.421 101.155 148.165 100.696 147.652C100.24 147.139 100.012 146.461 100.012 145.616V145.551ZM100.947 145.661C100.947 146.265 101.086 146.749 101.364 147.114C101.646 147.479 102.021 147.662 102.49 147.662C102.963 147.662 103.338 147.478 103.616 147.109C103.894 146.737 104.033 146.218 104.033 145.551C104.033 144.954 103.891 144.472 103.606 144.103C103.325 143.731 102.949 143.545 102.48 143.545C102.021 143.545 101.651 143.728 101.369 144.093C101.088 144.459 100.947 144.981 100.947 145.661ZM105.903 145.556C105.903 144.722 106.101 144.051 106.496 143.545C106.891 143.036 107.409 142.782 108.049 142.782C108.686 142.782 109.19 142.999 109.562 143.435V140.6H110.492V148.32H109.637L109.592 147.737C109.22 148.193 108.703 148.421 108.039 148.421C107.409 148.421 106.895 148.163 106.496 147.647C106.101 147.131 105.903 146.457 105.903 145.626V145.556ZM106.833 145.661C106.833 146.278 106.96 146.761 107.215 147.109C107.469 147.457 107.821 147.632 108.27 147.632C108.86 147.632 109.291 147.367 109.562 146.838V144.34C109.284 143.827 108.857 143.571 108.28 143.571C107.825 143.571 107.469 143.747 107.215 144.098C106.96 144.45 106.833 144.971 106.833 145.661ZM114.196 148.421C113.459 148.421 112.859 148.18 112.397 147.697C111.934 147.211 111.703 146.563 111.703 145.752V145.581C111.703 145.042 111.805 144.561 112.01 144.139C112.217 143.713 112.506 143.381 112.874 143.143C113.246 142.902 113.648 142.782 114.08 142.782C114.788 142.782 115.337 143.014 115.729 143.48C116.121 143.946 116.317 144.613 116.317 145.481V145.868H112.633C112.646 146.404 112.802 146.838 113.1 147.169C113.402 147.498 113.784 147.662 114.246 147.662C114.575 147.662 114.853 147.595 115.081 147.461C115.309 147.327 115.508 147.149 115.679 146.928L116.247 147.37C115.791 148.071 115.107 148.421 114.196 148.421ZM114.08 143.545C113.705 143.545 113.39 143.683 113.136 143.958C112.881 144.229 112.723 144.611 112.663 145.104H115.387V145.033C115.36 144.561 115.233 144.196 115.005 143.938C114.777 143.676 114.469 143.545 114.08 143.545Z" fill="black"/>
<defs>
<linearGradient id="paint0_linear_1086_497" x1="88.2638" y1="57.5918" x2="89.295" y2="105.076" gradientUnits="userSpaceOnUse">
<stop stop-color="#06246A"/>
<stop offset="1" stop-color="#081B49"/>
</linearGradient>
</defs>
</svg>
