<svg width="60" height="60" viewBox="0 0 60 60" fill="none" xmlns="http://www.w3.org/2000/svg">
<rect width="60" height="60" rx="5" fill="#E9ECF2"/>
<path d="M29.7997 13.2C23.2949 13.2 17.3933 16.9515 14.6185 22.7999H12.1997C11.9231 22.7999 11.6653 22.9437 11.52 23.1796C11.3747 23.4156 11.3606 23.7093 11.4841 23.9578L14.6841 30.3578C14.82 30.6281 15.0966 30.8 15.3997 30.8C15.7029 30.8 15.9794 30.6281 16.1154 30.3578L19.3154 23.9578C19.4388 23.7093 19.4263 23.4156 19.2794 23.1796C19.1341 22.9437 18.8763 22.7999 18.5997 22.7999H16.4138C19.0482 17.9032 24.173 14.8 29.7998 14.8C38.181 14.8 44.9998 21.6188 44.9998 29.9999C44.9998 38.3811 38.181 45.1999 29.7998 45.1999C23.575 45.1999 18.0418 41.4687 15.7062 35.6935C15.5406 35.2842 15.0765 35.0873 14.664 35.2513C14.2547 35.417 14.0562 35.8826 14.2218 36.2935C16.8046 42.6763 22.9186 46.7999 29.7998 46.7999C39.0638 46.7999 46.5998 39.2639 46.5998 29.9999C46.5998 20.7359 39.0638 13.2 29.7998 13.2H29.7997ZM15.3997 28.2107L13.4934 24.3998H17.3043L15.3997 28.2107ZM32.9997 31.5998C32.9997 32.9233 31.9231 33.9998 30.5997 33.9998V35.1998C30.5997 35.642 30.2418 35.9998 29.7997 35.9998C29.3575 35.9998 28.9997 35.642 28.9997 35.1998V33.9998H27.7997C27.3575 33.9998 26.9997 33.642 26.9997 33.1998C26.9997 32.7576 27.3575 32.3998 27.7997 32.3998H30.5997C31.0403 32.3998 31.3997 32.0405 31.3997 31.5998C31.3997 31.1592 31.0403 30.7998 30.5997 30.7998H28.9997C27.6762 30.7998 26.5997 29.7233 26.5997 28.3998C26.5997 27.0764 27.6762 25.9998 28.9997 25.9998V24.7998C28.9997 24.3576 29.3575 23.9998 29.7997 23.9998C30.2418 23.9998 30.5997 24.3576 30.5997 24.7998V25.9998H31.7997C32.2419 25.9998 32.5997 26.3576 32.5997 26.7998C32.5997 27.242 32.2418 27.5998 31.7997 27.5998H28.9997C28.559 27.5998 28.1997 27.9592 28.1997 28.3998C28.1997 28.8405 28.559 29.1998 28.9997 29.1998H30.5997C31.9231 29.1998 32.9997 30.2764 32.9997 31.5998ZM29.7997 39.1998C24.7261 39.1998 20.5997 35.0734 20.5997 29.9998C20.5997 24.9262 24.7261 20.7998 29.7997 20.7998C34.8733 20.7998 38.9997 24.9262 38.9997 29.9998C38.9997 35.0734 34.8733 39.1998 29.7997 39.1998ZM29.7997 22.3998C25.6089 22.3998 22.1997 25.8092 22.1997 29.9998C22.1997 34.1905 25.609 37.5998 29.7997 37.5998C33.9903 37.5998 37.3997 34.1905 37.3997 29.9998C37.3997 25.8092 33.9903 22.3998 29.7997 22.3998Z" fill="black"/>
</svg>
