<svg width="176" height="175" viewBox="0 0 176 175" fill="none" xmlns="http://www.w3.org/2000/svg">
<rect x="0.665527" width="174.468" height="174.468" rx="6.39078" fill="#E3EDFF"/>
<path d="M84.7377 103.305H68.3739V53.6488H107.873V77.9125C107.873 78.2228 108.127 78.4767 108.437 78.4767H112.387C112.697 78.4767 112.951 78.2228 112.951 77.9125V50.8274C112.951 49.5789 111.943 48.5703 110.694 48.5703H65.5525C64.304 48.5703 63.2954 49.5789 63.2954 50.8274V106.126C63.2954 107.375 64.304 108.383 65.5525 108.383H84.7377C85.0481 108.383 85.302 108.129 85.302 107.819V103.869C85.302 103.559 85.0481 103.305 84.7377 103.305Z" fill="url(#paint0_linear_1087_507)"/>
<g clip-path="url(#clip0_1087_507)">
<path d="M96.8866 73.9978C96.6124 73.9064 96.3382 73.8201 96.064 73.7388C96.1097 73.5509 96.1503 73.363 96.1909 73.1751C96.8155 70.1486 96.4042 67.7162 95.0179 66.9138C93.6823 66.147 91.5038 66.9443 89.2999 68.8638C89.0815 69.0517 88.8683 69.2498 88.6651 69.4478C88.528 69.3158 88.3858 69.1837 88.2437 69.0568C85.9331 67.0052 83.6175 66.1419 82.2312 66.9494C80.9007 67.7212 80.5046 70.0115 81.0632 72.8755C81.119 73.1599 81.18 73.4392 81.2511 73.7236C80.9261 73.815 80.6062 73.9166 80.3065 74.0232C77.5948 74.9626 75.6499 76.4455 75.6499 77.9791C75.6499 79.5634 77.7218 81.1529 80.5401 82.1177C80.7687 82.1939 80.9972 82.2701 81.2308 82.3361C81.1546 82.6408 81.0886 82.9404 81.0276 83.2501C80.4944 86.0685 80.9108 88.3029 82.2413 89.0697C83.6124 89.8619 85.9179 89.0494 88.1624 87.0841C88.3401 86.9267 88.5179 86.7642 88.6956 86.5916C88.919 86.8099 89.1526 87.0181 89.3862 87.2212C91.5597 89.09 93.7077 89.8466 95.0331 89.0798C96.4042 88.2876 96.8511 85.8857 96.2722 82.9607C96.2265 82.7373 96.1757 82.5087 96.1198 82.2751C96.2823 82.2294 96.4397 82.1787 96.5972 82.1279C99.5272 81.158 101.65 79.5888 101.65 77.9791C101.65 76.4404 99.6491 74.9474 96.8866 73.9978ZM90.0159 69.6865C91.905 68.0412 93.6671 67.3962 94.4694 67.8583C95.3276 68.3509 95.6577 70.3416 95.1194 72.9568C95.0839 73.1294 95.0483 73.297 95.0026 73.4646C93.8753 73.2107 92.7327 73.0279 91.5851 72.9263C90.9249 71.9818 90.2038 71.0779 89.4218 70.2298C89.6198 70.0419 89.8128 69.8642 90.0159 69.6865ZM83.4144 79.2892C83.6479 79.7361 83.8866 80.1779 84.1405 80.6146C84.3995 81.0564 84.6636 81.4982 84.9429 81.9298C84.1507 81.8435 83.3636 81.7166 82.5866 81.549C82.8101 80.8177 83.0894 80.0611 83.4144 79.2892ZM83.4144 76.7197C83.0944 75.963 82.8253 75.2216 82.6019 74.5056C83.3331 74.3431 84.1101 74.2111 84.9175 74.1095C84.6483 74.531 84.3843 74.9626 84.1354 75.3994C83.8866 75.831 83.6429 76.2728 83.4144 76.7197ZM83.9933 78.0044C84.3284 77.3037 84.694 76.6181 85.08 75.9427C85.4659 75.2673 85.8823 74.6123 86.319 73.9673C87.0808 73.9115 87.8577 73.881 88.6499 73.881C89.4421 73.881 90.2241 73.9115 90.9808 73.9673C91.4124 74.6072 91.8237 75.2623 92.2147 75.9326C92.6058 76.6029 92.9714 77.2884 93.3167 77.9841C92.9765 78.6849 92.6108 79.3755 92.2198 80.056C91.8339 80.7314 91.4226 81.3865 90.9909 82.0365C90.2343 82.0923 89.4472 82.1177 88.6499 82.1177C87.8526 82.1177 87.0808 82.0923 86.3343 82.0466C85.8925 81.4017 85.4761 80.7416 85.0851 80.0662C84.694 79.3908 84.3335 78.7052 83.9933 78.0044ZM93.1644 80.6044C93.4233 80.1576 93.6671 79.7056 93.9058 79.2486C94.2308 79.9849 94.5151 80.7314 94.764 81.4982C93.9769 81.6759 93.1796 81.813 92.3772 81.9044C92.6515 81.4779 92.9104 81.0412 93.1644 80.6044ZM93.8956 76.7197C93.6569 76.2728 93.4132 75.8259 93.1593 75.3892C92.9104 74.9576 92.6515 74.531 92.3823 74.1095C93.1999 74.2111 93.9819 74.3482 94.7132 74.5158C94.4796 75.2673 94.2054 75.9986 93.8956 76.7197ZM88.6601 71.0068C89.1933 71.5857 89.696 72.1951 90.1632 72.8248C89.1577 72.7791 88.1472 72.7791 87.1417 72.8248C87.6394 72.1697 88.1522 71.5603 88.6601 71.0068ZM82.7694 67.8939C83.6226 67.3962 85.5167 68.1072 87.5124 69.8744C87.6394 69.9861 87.7663 70.108 87.8983 70.2298C87.1112 71.0779 86.3851 71.9818 85.7198 72.9263C84.5722 73.0279 83.4347 73.2056 82.3073 73.4544C82.2413 73.1955 82.1854 72.9314 82.1296 72.6673C81.6522 70.2095 81.9671 68.356 82.7694 67.8939ZM81.5253 81.2798C81.312 81.2189 81.1038 81.1529 80.8956 81.0818C79.814 80.7416 78.5851 80.2033 77.6964 79.4974C77.1835 79.1419 76.8382 78.5935 76.7417 77.9791C76.7417 77.0498 78.3464 75.8615 80.662 75.0541C80.9515 74.9525 81.246 74.8611 81.5405 74.7748C81.8858 75.8767 82.3022 76.9583 82.7847 78.0044C82.2972 79.0658 81.8757 80.1626 81.5253 81.2798ZM87.4464 86.2564C86.6085 87.0232 85.6386 87.6326 84.5823 88.049C84.0187 88.3181 83.3687 88.3435 82.7897 88.115C81.9823 87.6478 81.6472 85.8552 82.1042 83.4431C82.1601 83.1587 82.221 82.8744 82.2921 82.5951C83.4296 82.8388 84.5772 83.0064 85.7401 83.0927C86.4104 84.0423 87.1468 84.9513 87.9339 85.8044C87.7714 85.9619 87.6089 86.1142 87.4464 86.2564ZM88.6905 85.0224C88.1726 84.4638 87.6546 83.8443 87.1519 83.1791C87.6394 83.1994 88.1421 83.2095 88.6499 83.2095C89.1729 83.2095 89.6858 83.1994 90.1937 83.174C89.7265 83.8189 89.2237 84.4333 88.6905 85.0224ZM95.3276 86.5458C95.2819 87.1654 94.9772 87.7443 94.4897 88.1353C93.6823 88.6025 91.9608 87.9931 90.1022 86.3986C89.889 86.2158 89.6757 86.0177 89.4573 85.8146C90.2343 84.9564 90.9503 84.0474 91.6003 83.0927C92.7632 82.9962 93.921 82.8185 95.0636 82.5595C95.1144 82.7677 95.1601 82.9759 95.2007 83.1791C95.4495 84.2759 95.4901 85.4185 95.3276 86.5458ZM96.2519 81.0869C96.1097 81.1326 95.9675 81.1783 95.8202 81.2189C95.4647 80.1119 95.028 79.0302 94.5253 77.9791C95.0128 76.9431 95.4241 75.8767 95.7694 74.7849C96.0335 74.8611 96.2874 74.9423 96.5312 75.0236C98.8976 75.8361 100.558 77.0447 100.558 77.9689C100.558 78.9642 98.7858 80.249 96.2519 81.0869ZM88.6499 75.6736C89.9347 75.6736 90.9757 76.7146 90.9757 77.9994C90.9757 79.2841 89.9347 80.3251 88.6499 80.3251C87.3651 80.3251 86.3241 79.2841 86.3241 77.9994C86.3241 76.7146 87.3651 75.6736 88.6499 75.6736Z" fill="#06246A"/>
</g>
<path d="M79.0573 143.462H77.3497V146.402H76.3861V139.133H78.7927C79.6115 139.133 80.2406 139.319 80.6799 139.692C81.1226 140.065 81.344 140.607 81.344 141.32C81.344 141.772 81.2208 142.167 80.9745 142.503C80.7315 142.839 80.392 143.09 79.956 143.257L81.6635 146.342V146.402H80.635L79.0573 143.462ZM77.3497 142.678H78.8226C79.2986 142.678 79.6764 142.555 79.956 142.308C80.2389 142.062 80.3804 141.732 80.3804 141.32C80.3804 140.87 80.2456 140.526 79.976 140.286C79.7097 140.047 79.3236 139.925 78.8176 139.922H77.3497V142.678ZM84.789 146.502C84.0567 146.502 83.4609 146.263 83.0016 145.783C82.5423 145.301 82.3126 144.657 82.3126 143.851V143.681C82.3126 143.145 82.4141 142.668 82.6171 142.248C82.8235 141.826 83.1098 141.496 83.4759 141.26C83.8454 141.02 84.2448 140.9 84.6742 140.9C85.3765 140.9 85.9224 141.132 86.3118 141.594C86.7013 142.057 86.896 142.719 86.896 143.581V143.966H83.2363C83.2496 144.498 83.4043 144.929 83.7006 145.259C84.0002 145.585 84.3796 145.748 84.8389 145.748C85.1651 145.748 85.4414 145.682 85.6677 145.549C85.8941 145.415 86.0921 145.239 86.2619 145.019L86.8261 145.459C86.3734 146.154 85.6944 146.502 84.789 146.502ZM84.6742 141.659C84.3014 141.659 83.9885 141.796 83.7355 142.069C83.4826 142.338 83.3261 142.718 83.2662 143.207H85.9723V143.137C85.9457 142.668 85.8192 142.305 85.5929 142.049C85.3665 141.789 85.0603 141.659 84.6742 141.659ZM91.3046 146.402C91.2514 146.296 91.2081 146.106 91.1748 145.833C90.7454 146.279 90.2328 146.502 89.637 146.502C89.1045 146.502 88.6668 146.352 88.3239 146.053C87.9844 145.75 87.8147 145.367 87.8147 144.905C87.8147 144.342 88.0277 143.906 88.4537 143.596C88.8831 143.284 89.4856 143.127 90.2611 143.127H91.1598V142.703C91.1598 142.38 91.0633 142.124 90.8702 141.934C90.6772 141.741 90.3926 141.644 90.0165 141.644C89.687 141.644 89.4107 141.727 89.1877 141.894C88.9647 142.06 88.8532 142.262 88.8532 142.498H87.9245C87.9245 142.228 88.0194 141.969 88.2091 141.719C88.4021 141.466 88.6618 141.266 88.988 141.12C89.3175 140.974 89.6786 140.9 90.0714 140.9C90.6938 140.9 91.1815 141.057 91.5343 141.37C91.8871 141.679 92.0702 142.107 92.0835 142.653V145.139C92.0835 145.635 92.1467 146.03 92.2732 146.322V146.402H91.3046ZM89.7718 145.698C90.0614 145.698 90.336 145.623 90.5956 145.474C90.8553 145.324 91.0433 145.129 91.1598 144.89V143.781H90.4359C89.3042 143.781 88.7383 144.112 88.7383 144.775C88.7383 145.064 88.8348 145.291 89.0279 145.454C89.221 145.617 89.4689 145.698 89.7718 145.698ZM95.6983 145.748C96.0278 145.748 96.3157 145.648 96.562 145.449C96.8084 145.249 96.9448 144.999 96.9714 144.7H97.8452C97.8285 145.009 97.722 145.304 97.5256 145.584C97.3293 145.863 97.0663 146.086 96.7368 146.253C96.4106 146.419 96.0644 146.502 95.6983 146.502C94.9627 146.502 94.3769 146.258 93.9408 145.768C93.5081 145.276 93.2918 144.603 93.2918 143.751V143.596C93.2918 143.07 93.3883 142.603 93.5813 142.193C93.7744 141.784 94.0507 141.466 94.4101 141.24C94.773 141.013 95.2007 140.9 95.6933 140.9C96.2991 140.9 96.8017 141.082 97.2011 141.444C97.6039 141.807 97.8186 142.278 97.8452 142.857H96.9714C96.9448 142.508 96.8117 142.222 96.572 141.999C96.3357 141.772 96.0428 141.659 95.6933 141.659C95.224 141.659 94.8595 141.829 94.5999 142.168C94.3436 142.505 94.2154 142.992 94.2154 143.631V143.806C94.2154 144.429 94.3436 144.908 94.5999 145.244C94.8562 145.58 95.2223 145.748 95.6983 145.748ZM100.137 139.692V141H101.145V141.714H100.137V145.064C100.137 145.281 100.182 145.444 100.272 145.554C100.362 145.66 100.515 145.713 100.731 145.713C100.838 145.713 100.984 145.693 101.17 145.653V146.402C100.927 146.469 100.691 146.502 100.461 146.502C100.049 146.502 99.7375 146.377 99.5278 146.128C99.3181 145.878 99.2132 145.524 99.2132 145.064V141.714H98.2296V141H99.2132V139.692H100.137Z" fill="black"/>
<defs>
<linearGradient id="paint0_linear_1087_507" x1="87.8475" y1="57.2099" x2="88.8718" y2="104.379" gradientUnits="userSpaceOnUse">
<stop stop-color="#06246A"/>
<stop offset="1" stop-color="#081B49"/>
</linearGradient>
<clipPath id="clip0_1087_507">
<rect width="26" height="26" fill="white" transform="translate(75.6499 65)"/>
</clipPath>
</defs>
</svg>
