<svg width="423" height="332" viewBox="0 0 423 332" fill="none" xmlns="http://www.w3.org/2000/svg">
<path d="M11.5869 20.7383C11.5869 21.4451 10.9979 22.3876 10.6444 22.9767C10.1732 23.6835 9.34853 24.3904 8.87729 25.0972C8.75948 25.3329 10.9979 27.9247 11.3513 27.8069C12.4116 27.689 13.1184 26.9822 13.4719 26.0397C13.9431 24.9794 13.8253 24.1548 13.7075 22.9767C13.7075 22.5054 13.0006 22.0342 12.765 21.6808C12.5294 21.6808 11.5869 20.8561 11.5869 20.7383Z" fill="#407BFF" fill-opacity="0.45"/>
<path d="M11.1157 63.6211C10.4088 62.0896 8.64167 61.3827 7.11015 60.7937C5.57862 60.2046 3.69367 59.6156 2.16215 60.4402C1.69091 60.6759 -0.311853 63.9745 0.0415751 64.4458C0.866242 65.3882 3.34024 65.3882 4.51834 65.7417C5.93205 66.2129 7.58138 67.391 9.11291 67.2732C9.58415 67.2732 11.3513 63.9745 11.1157 63.6211Z" fill="#407BFF" fill-opacity="0.45"/>
<path d="M34.4419 0.00389274C33.146 0.357321 32.0857 1.65323 31.2611 2.71351C30.3186 3.7738 29.3761 5.0697 29.2583 6.48342C29.2583 6.95465 31.6145 9.66427 31.9679 9.42865C33.0282 8.7218 33.7351 7.19027 34.4419 6.2478C35.2666 5.18751 36.5625 4.12723 37.0337 2.94913C37.1515 2.47789 34.7954 -0.113917 34.4419 0.00389274Z" fill="#407BFF" fill-opacity="0.45"/>
<path d="M163.09 55.9639C161.794 56.3173 160.734 57.6132 159.909 58.6735C158.967 59.7338 158.024 61.0297 157.906 62.4434C157.906 62.9146 160.262 65.6242 160.616 65.3886C161.676 64.6818 162.383 63.1502 163.09 62.2078C163.915 61.1475 165.21 60.0872 165.682 58.9091C165.799 58.4379 163.561 55.846 163.09 55.9639Z" fill="#407BFF" fill-opacity="0.45"/>
<path d="M60.949 100.849C59.6531 101.202 58.5928 102.498 57.7681 103.558C56.8257 104.619 55.8832 105.914 55.7654 107.328C55.7654 107.799 58.1216 110.509 58.475 110.273C59.5353 109.567 60.2421 108.035 60.949 107.093C61.7737 106.032 63.0696 104.972 63.5408 103.794C63.6586 103.323 61.3024 100.731 60.949 100.849Z" fill="#407BFF" fill-opacity="0.45"/>
<path d="M156.964 88.8326C156.493 89.3039 156.375 89.8929 156.139 90.4819C155.904 91.1888 155.786 91.7778 155.904 92.4847C156.021 93.0738 156.846 93.7806 157.317 94.2518C157.435 94.3697 158.378 95.5478 158.613 95.4299C159.085 95.1943 159.085 94.0162 159.202 93.4272C159.32 92.6025 159.32 91.8957 159.202 91.1888C159.202 90.9532 157.2 88.7148 156.964 88.8326Z" fill="#407BFF" fill-opacity="0.45"/>
<g opacity="0.2">
<path d="M156.964 88.8326C156.493 89.3039 156.375 89.8929 156.139 90.4819C155.904 91.1888 155.786 91.7778 155.904 92.4847C156.021 93.0738 156.846 93.7806 157.317 94.2518C157.435 94.3697 158.378 95.5478 158.613 95.4299C159.085 95.1943 159.085 94.0162 159.202 93.4272C159.32 92.6025 159.32 91.8957 159.202 91.1888C159.202 90.9532 157.2 88.7148 156.964 88.8326Z" fill="black"/>
</g>
<path d="M408.016 23.212C406.013 21.9161 403.304 20.738 400.947 20.8558C400.358 20.8558 398.591 23.5654 398.473 23.4476C399.651 23.9188 400.947 23.9188 402.125 24.2723C403.304 24.6257 404.482 25.0969 405.66 25.686C406.013 26.0394 408.016 23.212 408.016 23.212Z" fill="#407BFF" fill-opacity="0.45"/>
<path d="M198.315 151.507C196.901 153.392 195.37 155.984 195.488 158.34C195.488 158.929 197.962 160.932 197.962 161.049C198.433 159.989 198.668 158.693 199.022 157.515C199.493 156.337 200.082 155.159 200.789 154.099C200.907 153.745 198.315 151.507 198.315 151.507Z" fill="#407BFF" fill-opacity="0.45"/>
<path d="M99.3549 76.5798C97.1165 75.9908 94.1713 75.6373 91.9329 76.5798C91.3438 76.8154 90.5192 79.8785 90.4014 79.8785C91.5795 79.9963 92.8754 79.5251 94.0535 79.5251C95.3494 79.5251 96.6453 79.6429 97.8234 79.8785C98.2946 79.8785 99.3549 76.5798 99.3549 76.5798Z" fill="#407BFF" fill-opacity="0.45"/>
<path d="M184.414 84.4735C182.764 82.8242 180.526 80.9392 178.052 80.5858C177.463 80.468 175.107 82.5885 174.989 82.5885C175.931 83.2954 177.227 83.6488 178.287 84.2379C179.348 84.8269 180.408 85.6516 181.35 86.4763C181.822 86.8297 184.414 84.4735 184.414 84.4735Z" fill="#407BFF" fill-opacity="0.45"/>
<path d="M38.801 59.8516C38.5654 59.8516 37.9763 60.4406 38.5654 60.0872C38.6832 59.8516 38.801 59.8516 38.801 59.8516Z" fill="#407BFF" fill-opacity="0.45"/>
<path d="M34.2063 69.747C34.6775 69.2758 35.62 68.4511 35.7378 67.8621C36.2091 66.3306 36.4447 64.6812 37.0337 63.1497C37.1515 62.7963 37.3871 62.325 37.505 61.9716C37.8584 60.9113 38.3296 59.9688 38.8009 59.0264C37.1515 60.6757 35.62 62.5607 34.4419 64.5634C33.4994 66.2127 32.0857 69.0402 32.6748 71.0429C32.6748 71.1607 34.0885 69.747 34.2063 69.747Z" fill="#407BFF" fill-opacity="0.45"/>
<path opacity="0.2" d="M34.2063 69.747C34.6775 69.2758 35.62 68.4511 35.7378 67.8621C36.2091 66.3306 36.4447 64.6812 37.0337 63.1497C37.1515 62.7963 37.3871 62.325 37.505 61.9716C37.8584 60.9113 38.3296 59.9688 38.8009 59.0264C37.1515 60.6757 35.62 62.5607 34.4419 64.5634C33.4994 66.2127 32.0857 69.0402 32.6748 71.0429C32.6748 71.1607 34.0885 69.747 34.2063 69.747Z" fill="black"/>
<path d="M38.094 60.7938C38.094 60.7938 38.3297 60.3225 38.5653 59.9691C37.9762 60.4403 38.5653 59.7335 38.8009 59.7335C38.8009 59.7335 38.6831 59.8513 38.5653 59.9691C38.6831 59.9691 38.8009 59.8513 38.9187 59.7335C41.5105 57.7307 44.6914 56.6704 47.8722 56.317C48.4613 56.1992 49.1681 55.1389 49.6394 54.7855C49.7572 54.5499 50.9353 52.9005 51.0531 52.9005C46.4585 52.7827 42.453 55.2567 39.2721 58.5554C39.1543 58.6732 39.0365 58.791 38.9187 58.9088C38.3297 59.8513 37.9762 60.7938 37.6228 61.854C37.7406 61.6184 37.8584 61.1472 38.094 60.7938Z" fill="#407BFF" fill-opacity="0.45"/>
<path d="M407.545 39.823C408.369 40.7655 409.194 41.7079 410.019 42.6504C410.843 43.5929 411.55 44.6532 412.257 45.7135C412.964 46.7737 413.671 47.834 414.26 48.8943C414.849 49.9546 415.556 51.1327 416.145 52.193C415.32 51.4861 414.613 50.7793 413.789 50.0724C413.435 49.719 412.964 49.3656 412.61 49.1299C412.257 48.7765 411.786 48.5409 411.315 48.1875C410.608 47.1272 409.901 46.1847 409.194 45.2422C408.487 44.2998 407.662 43.3573 406.956 42.4148C406.131 41.4723 405.306 40.6477 404.482 39.823C403.657 38.9983 402.714 38.1737 401.772 37.4668C402.714 37.7024 403.775 38.0558 404.717 38.5271L405.424 38.8805L406.131 39.2339C406.602 39.3517 407.073 39.5874 407.545 39.823Z" fill="#407BFF" fill-opacity="0.45"/>
<g opacity="0.2">
<path d="M407.545 39.823C408.369 40.7655 409.194 41.7079 410.019 42.6504C410.843 43.5929 411.55 44.6532 412.257 45.7135C412.964 46.7737 413.671 47.834 414.26 48.8943C414.849 49.9546 415.556 51.1327 416.145 52.193C415.32 51.4861 414.613 50.7793 413.789 50.0724C413.435 49.719 412.964 49.3656 412.61 49.1299C412.257 48.7765 411.786 48.5409 411.315 48.1875C410.608 47.1272 409.901 46.1847 409.194 45.2422C408.487 44.2998 407.662 43.3573 406.956 42.4148C406.131 41.4723 405.306 40.6477 404.482 39.823C403.657 38.9983 402.714 38.1737 401.772 37.4668C402.714 37.7024 403.775 38.0558 404.717 38.5271L405.424 38.8805L406.131 39.2339C406.602 39.3517 407.073 39.5874 407.545 39.823Z" fill="black"/>
</g>
<path d="M244.378 67.3906C244.496 68.0975 244.261 69.1578 244.025 69.8646C243.672 70.6893 243.2 71.514 242.847 72.3386C242.729 72.6921 245.674 74.4592 245.91 74.3414C246.852 73.988 247.324 73.0455 247.442 72.103C247.677 70.9249 247.324 70.1002 246.852 69.04C246.735 68.6865 245.91 68.3331 245.557 68.0975C245.557 68.0975 244.378 67.5084 244.378 67.3906Z" fill="#407BFF" fill-opacity="0.45"/>
<path d="M258.516 112.63C257.455 111.334 255.57 111.098 253.921 110.98C252.272 110.862 250.269 110.862 248.973 111.923C248.62 112.276 247.559 116.046 248.031 116.282C249.091 116.989 251.447 116.282 252.743 116.399C254.274 116.399 256.159 117.106 257.573 116.635C258.044 116.635 258.869 112.983 258.516 112.63Z" fill="#407BFF" fill-opacity="0.45"/>
<path d="M281.017 55.1381C279.839 55.845 279.132 57.3765 278.661 58.5546C278.072 59.8505 277.483 61.2642 277.718 62.6779C277.836 63.1492 280.899 65.0341 281.135 64.7985C281.96 63.856 282.195 62.2067 282.666 61.0286C283.138 59.8505 284.198 58.4368 284.316 57.1409C284.198 56.9053 281.253 55.0203 281.017 55.1381Z" fill="#407BFF" fill-opacity="0.45"/>
<path d="M400.594 72.6918C399.416 73.3987 398.709 74.9302 398.238 76.1083C397.649 77.4042 397.06 78.8179 397.295 80.2316C397.413 80.7029 400.476 82.5878 400.712 82.3522C401.536 81.4097 401.772 79.7604 402.243 78.5823C402.714 77.4042 403.775 75.9905 403.892 74.6946C403.892 74.459 400.829 72.574 400.594 72.6918Z" fill="#407BFF" fill-opacity="0.45"/>
<path d="M297.157 114.633C295.979 115.339 295.272 116.871 294.801 118.049C294.212 119.345 293.623 120.759 293.858 122.172C293.976 122.644 297.039 124.529 297.275 124.293C298.1 123.351 298.335 121.701 298.806 120.523C299.278 119.345 300.338 117.931 300.456 116.635C300.456 116.282 297.51 114.397 297.157 114.633Z" fill="#407BFF" fill-opacity="0.45"/>
<path d="M369.963 91.6587C369.61 92.2477 369.61 92.8368 369.61 93.5436C369.61 94.2505 369.61 94.8395 369.963 95.5464C370.199 96.0176 371.259 96.6067 371.73 96.8423C371.966 96.9601 373.144 97.7848 373.262 97.667C373.733 97.3135 373.38 96.1354 373.262 95.6642C373.144 94.8395 373.026 94.2505 372.673 93.4258C372.555 93.0724 370.081 91.4231 369.963 91.6587Z" fill="#407BFF" fill-opacity="0.45"/>
<g opacity="0.2">
<path d="M369.963 91.6587C369.61 92.2477 369.61 92.8368 369.61 93.5436C369.61 94.2505 369.61 94.8395 369.963 95.5464C370.199 96.0176 371.259 96.6067 371.73 96.8423C371.966 96.9601 373.144 97.7848 373.262 97.667C373.733 97.3135 373.38 96.1354 373.262 95.6642C373.144 94.8395 373.026 94.2505 372.673 93.4258C372.555 93.0724 370.081 91.4231 369.963 91.6587Z" fill="black"/>
</g>
<path d="M348.169 58.7906C347.815 59.3797 347.815 59.9687 347.815 60.6756C347.815 61.3824 347.815 61.9715 348.169 62.6783C348.404 63.1496 349.465 63.7386 349.936 63.9742C350.171 64.0921 351.349 64.9167 351.467 64.7989C351.938 64.4455 351.585 63.2674 351.467 62.7961C351.349 61.9715 351.232 61.3824 350.878 60.5578C350.76 60.2043 348.286 58.6728 348.169 58.7906Z" fill="#407BFF" fill-opacity="0.45"/>
<g opacity="0.2">
<path d="M348.169 58.7906C347.815 59.3797 347.815 59.9687 347.815 60.6756C347.815 61.3824 347.815 61.9715 348.169 62.6783C348.404 63.1496 349.465 63.7386 349.936 63.9742C350.171 64.0921 351.349 64.9167 351.467 64.7989C351.938 64.4455 351.585 63.2674 351.467 62.7961C351.349 61.9715 351.232 61.3824 350.878 60.5578C350.76 60.2043 348.286 58.6728 348.169 58.7906Z" fill="black"/>
</g>
<path d="M384.807 40.1758C383.983 42.4142 383.158 45.2416 383.865 47.5978C383.983 48.1868 386.928 49.4827 386.928 49.6005C387.164 48.4224 386.928 47.1265 387.046 45.8306C387.164 44.5347 387.399 43.3566 387.871 42.0607C387.871 41.7073 384.807 40.2936 384.807 40.1758Z" fill="#407BFF" fill-opacity="0.45"/>
<path d="M351.232 75.9912C350.407 78.2296 349.582 81.057 350.289 83.4132C350.407 84.0023 353.352 85.2982 353.352 85.416C353.588 84.2379 353.352 82.942 353.47 81.6461C353.588 80.3502 353.824 79.1721 354.295 77.8762C354.413 77.4049 351.232 75.9912 351.232 75.9912Z" fill="#407BFF" fill-opacity="0.45"/>
<path d="M321.308 61.6182C320.483 63.8565 319.659 66.684 320.365 69.0402C320.483 69.6292 323.429 70.9251 323.429 71.0429C323.664 69.8648 323.429 68.5689 323.546 67.273C323.664 65.9771 323.9 64.799 324.371 63.5031C324.371 63.0319 321.19 61.6182 321.308 61.6182Z" fill="#407BFF" fill-opacity="0.45"/>
<path d="M408.958 101.084C406.602 101.202 403.657 101.555 401.772 103.087C401.301 103.44 401.301 106.621 401.065 106.621C402.243 106.385 403.421 105.679 404.482 105.325C405.66 104.972 406.956 104.736 408.252 104.618C408.841 104.5 408.958 101.084 408.958 101.084Z" fill="#407BFF" fill-opacity="0.45"/>
<path d="M371.848 124.174C369.846 122.996 367.136 121.818 364.662 122.054C364.073 122.172 362.306 124.763 362.188 124.763C363.366 125.117 364.662 125.117 365.84 125.47C367.136 125.824 368.196 126.295 369.374 126.766C369.963 127.12 371.848 124.174 371.848 124.174Z" fill="#407BFF" fill-opacity="0.45"/>
<path d="M291.031 83.7662C291.267 83.884 291.856 83.1772 291.267 83.5306C291.149 83.7662 291.031 83.7662 291.031 83.7662Z" fill="#407BFF" fill-opacity="0.45"/>
<path d="M296.568 74.3412C295.979 74.8124 295.037 75.4015 294.801 76.1083C294.212 77.6398 293.858 79.1714 293.034 80.5851C292.798 80.9385 292.68 81.2919 292.445 81.6454C291.973 82.5879 291.502 83.5303 290.795 84.4728C292.563 82.9413 294.33 81.2919 295.743 79.407C296.804 77.8755 298.571 75.1658 298.217 73.1631C298.1 73.1631 296.568 74.3412 296.568 74.3412Z" fill="#407BFF" fill-opacity="0.45"/>
<path opacity="0.2" d="M296.568 74.3412C295.979 74.8124 295.037 75.4015 294.801 76.1083C294.212 77.6398 293.858 79.1714 293.034 80.5851C292.798 80.9385 292.68 81.2919 292.445 81.6454C291.973 82.5879 291.502 83.5303 290.795 84.4728C292.563 82.9413 294.33 81.2919 295.743 79.407C296.804 77.8755 298.571 75.1658 298.217 73.1631C298.1 73.1631 296.568 74.3412 296.568 74.3412Z" fill="black"/>
<path d="M291.738 82.823C291.738 82.823 291.385 83.2942 291.149 83.5298C291.856 83.1764 291.149 83.7655 290.913 83.7655C290.913 83.7655 291.031 83.6476 291.149 83.5298C291.031 83.5298 290.913 83.6476 290.795 83.7655C287.968 85.5326 284.787 86.2395 281.488 86.2395C280.899 86.2395 280.075 87.2997 279.604 87.6532C279.368 87.771 278.072 89.3025 278.072 89.3025C282.667 89.7737 286.908 87.771 290.324 84.9435C290.442 84.8257 290.56 84.7079 290.795 84.5901C291.385 83.6476 291.974 82.7052 292.445 81.7627C292.209 82.1161 291.974 82.4696 291.738 82.823Z" fill="#407BFF" fill-opacity="0.45"/>
<path d="M30.2008 199.101C28.9049 198.866 27.7268 198.63 26.4309 198.395C25.2528 198.041 23.9569 197.688 22.7788 197.334C21.6007 196.981 20.4226 196.51 19.2445 196.038C18.0664 195.567 16.8883 195.096 15.7102 194.507C16.7705 194.625 17.8308 194.625 18.8911 194.742C19.3623 194.742 19.9513 194.742 20.4226 194.742C20.8938 194.742 21.4829 194.742 21.9541 194.742C23.1322 195.096 24.3103 195.449 25.4884 195.803C26.6665 196.156 27.8446 196.392 29.0227 196.627C30.2008 196.863 31.3789 197.099 32.557 197.216C33.7351 197.334 34.9132 197.452 36.0913 197.334C35.1488 197.688 34.2063 198.041 33.146 198.277L32.3213 198.512L31.4967 198.748C31.2611 198.984 30.7898 198.984 30.2008 199.101Z" fill="#407BFF" fill-opacity="0.45"/>
<g opacity="0.2">
<path d="M30.2008 199.101C28.9049 198.866 27.7268 198.63 26.4309 198.395C25.2528 198.041 23.9569 197.688 22.7788 197.334C21.6007 196.981 20.4226 196.51 19.2445 196.038C18.0664 195.567 16.8883 195.096 15.7102 194.507C16.7705 194.625 17.8308 194.625 18.8911 194.742C19.3623 194.742 19.9513 194.742 20.4226 194.742C20.8938 194.742 21.4829 194.742 21.9541 194.742C23.1322 195.096 24.3103 195.449 25.4884 195.803C26.6665 196.156 27.8446 196.392 29.0227 196.627C30.2008 196.863 31.3789 197.099 32.557 197.216C33.7351 197.334 34.9132 197.452 36.0913 197.334C35.1488 197.688 34.2063 198.041 33.146 198.277L32.3213 198.512L31.4967 198.748C31.2611 198.984 30.7898 198.984 30.2008 199.101Z" fill="black"/>
</g>
<path d="M220.11 171.535C219.992 170.828 220.11 169.767 220.345 169.061C220.581 168.118 221.052 167.411 221.288 166.469C221.406 166.115 218.343 164.466 218.107 164.702C217.164 165.173 216.693 165.998 216.693 167.058C216.575 168.236 216.929 169.061 217.4 170.003C217.636 170.357 218.343 170.71 218.696 170.946C218.932 170.946 220.11 171.535 220.11 171.535Z" fill="#407BFF" fill-opacity="0.45"/>
<path d="M212.217 128.063C212.099 129.712 213.277 131.244 214.337 132.422C215.398 133.6 216.811 135.014 218.578 135.132C219.167 135.132 222.466 133.129 222.348 132.658C222.113 131.48 219.874 130.301 219.05 129.359C217.989 128.299 217.165 126.414 215.751 125.825C215.28 125.471 212.217 127.592 212.217 128.063Z" fill="#407BFF" fill-opacity="0.45"/>
<path d="M220.463 101.438C221.641 102.734 223.526 102.734 225.058 102.734C226.707 102.734 228.71 102.734 229.888 101.438C230.241 101.084 231.066 97.3144 230.595 96.9609C229.535 96.2541 227.178 97.0787 225.882 97.1965C224.351 97.1965 222.466 96.6075 221.052 97.1965C220.699 97.4322 220.11 101.084 220.463 101.438Z" fill="#407BFF" fill-opacity="0.45"/>
<path d="M194.781 69.5109C195.959 70.8068 197.844 70.8068 199.375 70.8068C201.025 70.8068 203.028 70.8068 204.206 69.5109C204.559 69.1575 205.384 65.3876 204.912 65.0342C203.852 64.3273 201.496 65.152 200.2 65.2698C198.669 65.2698 196.784 64.6807 195.37 65.2698C195.016 65.5054 194.427 69.1575 194.781 69.5109Z" fill="#407BFF" fill-opacity="0.45"/>
<path d="M144.358 180.606C145.537 181.313 147.186 181.195 148.482 180.959C149.895 180.842 151.427 180.724 152.605 179.781C152.959 179.546 153.194 175.894 152.841 175.776C151.545 175.54 150.013 176.129 148.717 176.247C147.421 176.365 145.772 176.129 144.476 176.718C144.241 176.954 144.123 180.37 144.358 180.606Z" fill="#407BFF" fill-opacity="0.45"/>
<path d="M162.265 216.066C163.443 215.359 164.032 213.71 164.386 212.532C164.857 211.236 165.446 209.705 165.093 208.291C164.975 207.82 161.794 206.052 161.558 206.288C160.734 207.348 160.616 208.88 160.263 210.176C159.791 211.472 158.967 212.768 158.849 214.181C158.849 214.653 161.912 216.302 162.265 216.066Z" fill="#407BFF" fill-opacity="0.45"/>
<path d="M43.749 173.772C44.9271 173.066 45.5161 171.416 45.8696 170.238C46.3408 168.942 46.9299 167.411 46.5764 165.997C46.4586 165.526 43.2778 163.759 43.0421 163.994C42.2175 165.054 42.0997 166.586 41.7462 167.882C41.275 169.178 40.4503 170.474 40.3325 171.887C40.3325 172.359 43.3956 174.008 43.749 173.772Z" fill="#407BFF" fill-opacity="0.45"/>
<path d="M28.3159 107.917C29.494 107.21 30.083 105.561 30.4365 104.383C30.9077 103.087 31.4967 101.555 31.1433 100.141C31.0255 99.6702 27.8447 97.9031 27.609 98.1387C26.7844 99.199 26.6666 100.731 26.3131 102.026C25.8419 103.322 25.0172 104.618 24.8994 106.032C25.0172 106.385 28.0803 108.035 28.3159 107.917Z" fill="#407BFF" fill-opacity="0.45"/>
<path d="M228.946 68.4511C230.124 67.7442 230.713 66.0949 231.066 64.9168C231.537 63.6209 232.126 62.0894 231.773 60.6756C231.655 60.2044 228.474 58.4373 228.239 58.6729C227.414 59.7332 227.296 61.2647 226.943 62.5606C226.472 63.8565 225.647 65.1524 225.529 66.5661C225.529 66.9195 228.592 68.6867 228.946 68.4511Z" fill="#407BFF" fill-opacity="0.45"/>
<path d="M87.2208 156.926C87.5743 156.337 87.4564 155.748 87.4564 155.041C87.4564 154.334 87.3386 153.745 86.9852 153.038C86.6318 152.567 85.5715 152.096 85.1003 151.86C84.8646 151.742 83.6865 150.918 83.4509 151.153C82.9797 151.507 83.4509 152.685 83.5687 153.156C83.6865 153.981 83.9222 154.57 84.2756 155.277C84.629 155.63 87.103 157.162 87.2208 156.926Z" fill="#407BFF" fill-opacity="0.45"/>
<g opacity="0.2">
<path d="M87.2208 156.926C87.5743 156.337 87.4564 155.748 87.4564 155.041C87.4564 154.334 87.3386 153.745 86.9852 153.038C86.6318 152.567 85.5715 152.096 85.1003 151.86C84.8646 151.742 83.6865 150.918 83.4509 151.153C82.9797 151.507 83.4509 152.685 83.5687 153.156C83.6865 153.981 83.9222 154.57 84.2756 155.277C84.629 155.63 87.103 157.162 87.2208 156.926Z" fill="black"/>
</g>
<path d="M167.567 155.984C167.92 155.395 167.802 154.806 167.802 154.099C167.802 153.392 167.685 152.803 167.331 152.096C166.978 151.625 165.917 151.154 165.446 150.918C165.211 150.8 164.032 149.975 163.797 150.211C163.326 150.564 163.797 151.743 163.915 152.214C164.033 153.038 164.268 153.628 164.622 154.334C164.857 154.688 167.449 156.219 167.567 155.984Z" fill="#407BFF" fill-opacity="0.45"/>
<g opacity="0.2">
<path d="M167.567 155.984C167.92 155.395 167.802 154.806 167.802 154.099C167.802 153.392 167.685 152.803 167.331 152.096C166.978 151.625 165.917 151.154 165.446 150.918C165.211 150.8 164.032 149.975 163.797 150.211C163.326 150.564 163.797 151.743 163.915 152.214C164.033 153.038 164.268 153.628 164.622 154.334C164.857 154.688 167.449 156.219 167.567 155.984Z" fill="black"/>
</g>
<path d="M112.078 189.441C112.785 187.203 113.374 184.257 112.55 182.019C112.314 181.43 109.369 180.37 109.369 180.252C109.251 181.43 109.487 182.726 109.487 184.022C109.487 185.318 109.251 186.496 108.898 187.792C108.78 188.145 112.078 189.441 112.078 189.441Z" fill="#407BFF" fill-opacity="0.45"/>
<path d="M117.969 155.748C118.676 153.509 119.265 150.564 118.44 148.326C118.205 147.737 115.259 146.676 115.259 146.559C115.142 147.737 115.377 149.033 115.377 150.328C115.377 151.624 115.142 152.803 114.788 154.098C114.67 154.452 117.969 155.748 117.969 155.748Z" fill="#407BFF" fill-opacity="0.45"/>
<path d="M72.0232 245.518C74.3794 245.282 77.3246 244.811 79.0918 243.162C79.563 242.808 79.4452 239.628 79.563 239.51C78.3849 239.863 77.3246 240.57 76.1465 241.041C74.9684 241.513 73.6725 241.748 72.4944 241.984C72.0232 242.102 72.0232 245.518 72.0232 245.518Z" fill="#407BFF" fill-opacity="0.45"/>
<path d="M120.443 219.601C122.564 220.661 125.273 221.722 127.747 221.25C128.336 221.133 129.868 218.423 129.986 218.423C128.808 218.07 127.512 218.187 126.334 217.952C125.038 217.716 123.86 217.363 122.681 216.774C122.21 216.538 120.443 219.601 120.443 219.601Z" fill="#407BFF" fill-opacity="0.45"/>
<path d="M14.1787 156.337C14.1787 156.573 14.8856 157.044 14.4143 156.455C14.2965 156.337 14.1787 156.337 14.1787 156.337Z" fill="#407BFF" fill-opacity="0.45"/>
<path d="M24.5459 159.636C23.9569 159.164 23.1322 158.457 22.4253 158.34C20.776 158.104 19.2445 158.104 17.5951 157.633C17.2417 157.515 16.7705 157.397 16.4171 157.279C15.3568 157.044 14.2965 156.69 13.354 156.337C15.239 157.751 17.2417 159.047 19.4801 159.989C21.2472 160.696 24.1925 161.756 26.0774 160.931C26.0774 160.931 24.6637 159.636 24.5459 159.636Z" fill="#407BFF" fill-opacity="0.45"/>
<path opacity="0.2" d="M24.5459 159.636C23.9569 159.164 23.1322 158.457 22.4253 158.34C20.776 158.104 19.2445 158.104 17.5951 157.633C17.2417 157.515 16.7705 157.397 16.4171 157.279C15.3568 157.044 14.2965 156.69 13.354 156.337C15.239 157.751 17.2417 159.047 19.4801 159.989C21.2472 160.696 24.1925 161.756 26.0774 160.931C26.0774 160.931 24.6637 159.636 24.5459 159.636Z" fill="black"/>
<path d="M15.2391 156.808C15.1213 156.808 14.65 156.573 14.4144 156.455C14.8857 157.044 14.1788 156.573 14.1788 156.337C14.1788 156.337 14.2966 156.455 14.4144 156.455C14.2966 156.337 14.2966 156.337 14.1788 156.219C11.8226 153.863 10.4089 150.918 9.70203 147.737C9.58422 147.148 8.40613 146.559 7.93489 146.205C7.69927 146.088 5.93213 145.145 5.93213 145.027C6.40337 149.622 9.34861 153.274 13.0007 155.984C13.1185 156.101 13.3541 156.219 13.4719 156.337C14.5322 156.808 15.4747 157.044 16.535 157.28C16.0637 157.162 15.5925 156.926 15.2391 156.808Z" fill="#407BFF" fill-opacity="0.45"/>
<path d="M145.183 120.759C144.947 120.642 144.24 121.113 144.947 120.877C145.065 120.759 145.183 120.759 145.183 120.759Z" fill="#407BFF" fill-opacity="0.45"/>
<path d="M137.643 128.652C138.232 128.298 139.292 127.945 139.764 127.356C140.706 126.06 141.413 124.529 142.473 123.35C142.709 122.997 143.062 122.761 143.298 122.408C144.005 121.583 144.712 120.759 145.536 120.052C143.416 121.112 141.413 122.408 139.646 123.939C138.232 125.235 135.994 127.474 135.876 129.477L137.643 128.652Z" fill="#407BFF" fill-opacity="0.45"/>
<path opacity="0.2" d="M137.643 128.652C138.232 128.298 139.292 127.945 139.764 127.356C140.706 126.06 141.413 124.529 142.473 123.35C142.709 122.997 143.062 122.761 143.298 122.408C144.005 121.583 144.712 120.759 145.536 120.052C143.416 121.112 141.413 122.408 139.646 123.939C138.232 125.235 135.994 127.474 135.876 129.477L137.643 128.652Z" fill="black"/>
<path d="M144.24 121.466C144.24 121.466 144.712 121.112 144.947 120.877C144.24 121.112 144.947 120.641 145.183 120.759C145.183 120.759 145.065 120.759 144.947 120.877C145.065 120.877 145.183 120.759 145.301 120.759C148.364 119.698 151.78 119.698 154.961 120.405C155.55 120.523 156.61 119.698 157.082 119.463C157.317 119.345 158.849 118.167 158.967 118.167C154.608 116.635 150.013 117.696 146.007 119.816C145.89 119.934 145.654 119.934 145.536 120.052C144.712 120.759 144.005 121.583 143.298 122.408C143.651 122.055 143.887 121.819 144.24 121.466Z" fill="#407BFF" fill-opacity="0.45"/>
<path d="M389.991 123.94C390.934 124.882 391.758 125.824 392.583 126.767C393.408 127.709 394.232 128.77 394.939 129.712C395.646 130.773 396.353 131.715 397.06 132.775C397.767 133.836 398.356 134.896 398.945 136.074C398.12 135.367 397.295 134.66 396.471 134.071C395.999 133.718 395.646 133.482 395.175 133.129C394.703 132.775 394.35 132.54 393.879 132.186C393.172 131.244 392.465 130.183 391.64 129.241C390.934 128.298 390.109 127.356 389.284 126.531C388.46 125.589 387.635 124.764 386.692 123.94C385.75 123.115 384.807 122.408 383.865 121.701C384.807 121.937 385.868 122.29 386.81 122.644L387.517 122.879L388.224 123.233C389.049 123.468 389.52 123.704 389.991 123.94Z" fill="#407BFF" fill-opacity="0.45"/>
<g opacity="0.2">
<path d="M389.991 123.94C390.934 124.882 391.758 125.824 392.583 126.767C393.408 127.709 394.232 128.77 394.939 129.712C395.646 130.773 396.353 131.715 397.06 132.775C397.767 133.836 398.356 134.896 398.945 136.074C398.12 135.367 397.295 134.66 396.471 134.071C395.999 133.718 395.646 133.482 395.175 133.129C394.703 132.775 394.35 132.54 393.879 132.186C393.172 131.244 392.465 130.183 391.64 129.241C390.934 128.298 390.109 127.356 389.284 126.531C388.46 125.589 387.635 124.764 386.692 123.94C385.75 123.115 384.807 122.408 383.865 121.701C384.807 121.937 385.868 122.29 386.81 122.644L387.517 122.879L388.224 123.233C389.049 123.468 389.52 123.704 389.991 123.94Z" fill="black"/>
</g>
<path d="M268.765 142.437C268.53 143.143 267.705 143.85 267.116 144.321C266.409 144.911 265.467 145.264 264.76 145.853C264.524 146.089 265.938 149.152 266.291 149.269C267.352 149.387 268.176 149.034 268.883 148.209C269.708 147.267 269.826 146.442 270.061 145.382C270.179 144.911 269.708 144.321 269.472 143.85C269.472 143.615 268.765 142.437 268.765 142.437Z" fill="#407BFF" fill-opacity="0.45"/>
<path d="M339.686 150.8C339.451 149.151 337.919 147.973 336.741 147.031C335.445 146.088 333.796 144.91 332.029 145.263C331.44 145.381 328.612 147.973 328.848 148.444C329.319 149.622 331.675 150.329 332.736 151.036C334.032 151.861 335.21 153.51 336.623 153.864C337.212 153.864 339.686 151.272 339.686 150.8Z" fill="#407BFF" fill-opacity="0.45"/>
<path d="M360.892 111.334C359.596 111.216 358.183 112.277 357.122 112.984C355.944 113.808 354.648 114.633 354.059 115.929C353.824 116.282 355.473 119.581 355.709 119.581C357.005 119.227 357.947 117.932 359.007 117.225C360.068 116.518 361.599 115.811 362.424 114.869C362.777 114.633 361.246 111.452 360.892 111.334Z" fill="#407BFF" fill-opacity="0.45"/>
<path d="M412.257 170.239C411.079 170.946 410.49 172.595 410.019 173.774C409.547 175.069 408.958 176.601 409.194 178.015C409.312 178.486 412.493 180.253 412.611 180.017C413.435 178.957 413.553 177.426 414.024 176.13C414.495 174.834 415.438 173.538 415.556 172.242C415.556 171.771 412.611 170.004 412.257 170.239Z" fill="#407BFF" fill-opacity="0.45"/>
<path d="M217.047 233.032C216.929 231.736 215.869 230.44 214.926 229.38C213.984 228.32 212.923 227.142 211.628 226.67C211.156 226.553 208.093 228.437 208.211 228.791C208.682 229.969 210.096 230.911 210.921 231.854C211.745 232.914 212.57 234.328 213.748 235.035C214.102 235.27 217.047 233.503 217.047 233.032Z" fill="#407BFF" fill-opacity="0.45"/>
<path d="M375.265 223.961C374.676 224.197 374.322 224.786 373.969 225.375C373.616 225.964 373.262 226.553 373.144 227.26C373.144 227.849 373.733 228.791 373.969 229.262C374.087 229.498 374.558 230.794 374.911 230.794C375.5 230.676 375.736 229.616 375.972 229.027C376.325 228.32 376.561 227.613 376.561 226.906C376.679 226.671 375.5 223.961 375.265 223.961Z" fill="#407BFF" fill-opacity="0.45"/>
<g opacity="0.2">
<path d="M375.265 223.961C374.676 224.197 374.322 224.786 373.969 225.375C373.616 225.964 373.262 226.553 373.144 227.26C373.144 227.849 373.733 228.791 373.969 229.262C374.087 229.498 374.558 230.794 374.911 230.794C375.5 230.676 375.736 229.616 375.972 229.027C376.325 228.32 376.561 227.613 376.561 226.906C376.679 226.671 375.5 223.961 375.265 223.961Z" fill="black"/>
</g>
<path d="M292.798 206.76C292.209 206.995 291.856 207.584 291.502 208.173C291.149 208.762 290.796 209.351 290.678 210.058C290.678 210.647 291.267 211.59 291.502 212.061C291.62 212.297 292.091 213.593 292.445 213.593C293.034 213.475 293.27 212.414 293.505 211.825C293.859 211.119 294.094 210.412 294.094 209.705C294.212 209.351 292.916 206.642 292.798 206.76Z" fill="#407BFF" fill-opacity="0.45"/>
<g opacity="0.2">
<path d="M292.798 206.76C292.209 206.995 291.856 207.584 291.502 208.173C291.149 208.762 290.796 209.351 290.678 210.058C290.678 210.647 291.267 211.59 291.502 212.061C291.62 212.297 292.091 213.593 292.445 213.593C293.034 213.475 293.27 212.414 293.505 211.825C293.859 211.119 294.094 210.412 294.094 209.705C294.212 209.351 292.916 206.642 292.798 206.76Z" fill="black"/>
</g>
<path d="M302.459 164.702C301.87 164.938 301.516 165.527 301.163 166.116C300.809 166.705 300.456 167.294 300.338 168.001C300.338 168.59 300.927 169.532 301.163 170.003C301.281 170.239 301.752 171.535 302.105 171.535C302.694 171.417 302.93 170.357 303.166 169.768C303.519 169.061 303.755 168.354 303.755 167.647C303.872 167.294 302.694 164.584 302.459 164.702Z" fill="#407BFF" fill-opacity="0.45"/>
<g opacity="0.2">
<path d="M302.459 164.702C301.87 164.938 301.516 165.527 301.163 166.116C300.809 166.705 300.456 167.294 300.338 168.001C300.338 168.59 300.927 169.532 301.163 170.003C301.281 170.239 301.752 171.535 302.105 171.535C302.694 171.417 302.93 170.357 303.166 169.768C303.519 169.061 303.755 168.354 303.755 167.647C303.872 167.294 302.694 164.584 302.459 164.702Z" fill="black"/>
</g>
<path d="M387.282 151.271C385.397 152.685 383.158 154.688 382.569 157.044C382.451 157.633 384.218 160.225 384.101 160.343C384.925 159.4 385.397 158.222 386.221 157.28C387.046 156.219 387.871 155.395 388.813 154.57C389.166 154.217 387.282 151.271 387.282 151.271Z" fill="#407BFF" fill-opacity="0.45"/>
<path d="M390.345 196.865C388.106 196.04 385.279 195.333 382.923 196.04C382.334 196.158 381.155 199.103 381.038 199.103C382.216 199.339 383.512 199.103 384.808 199.103C386.103 199.221 387.281 199.456 388.577 199.81C388.813 200.045 390.227 196.865 390.345 196.865Z" fill="#407BFF" fill-opacity="0.45"/>
<path d="M422.035 120.053C420.033 118.874 417.323 117.579 414.849 117.814C414.26 117.932 412.493 120.524 412.375 120.524C413.553 120.995 414.849 120.995 416.027 121.231C417.205 121.584 418.383 122.055 419.561 122.644C420.033 122.88 422.035 120.053 422.035 120.053Z" fill="#407BFF" fill-opacity="0.45"/>
<path d="M361.246 159.4C360.185 157.28 358.536 154.806 356.298 153.745C355.709 153.51 352.881 154.806 352.763 154.688C353.47 155.63 354.648 156.337 355.473 157.28C356.298 158.222 357.122 159.283 357.711 160.343C358.065 160.814 361.246 159.4 361.246 159.4Z" fill="#407BFF" fill-opacity="0.45"/>
<path d="M320.837 196.157C321.073 196.04 321.19 195.215 320.837 195.922C320.837 196.04 320.837 196.157 320.837 196.157Z" fill="#407BFF" fill-opacity="0.45"/>
<path d="M319.895 185.201C319.777 185.908 319.305 186.968 319.423 187.675C319.777 189.207 320.366 190.738 320.601 192.388C320.719 192.741 320.719 193.212 320.719 193.684C320.955 194.744 321.073 195.804 321.073 196.865C321.662 194.626 322.133 192.27 322.133 189.796C322.133 187.911 321.897 184.73 320.484 183.316C320.484 183.316 319.895 185.201 319.895 185.201Z" fill="#407BFF" fill-opacity="0.45"/>
<path opacity="0.2" d="M319.895 185.201C319.777 185.908 319.305 186.968 319.423 187.675C319.777 189.207 320.366 190.738 320.601 192.388C320.719 192.741 320.719 193.212 320.719 193.684C320.955 194.744 321.073 195.804 321.073 196.865C321.662 194.626 322.133 192.27 322.133 189.796C322.133 187.911 321.897 184.73 320.484 183.316C320.484 183.316 319.895 185.201 319.895 185.201Z" fill="black"/>
<path d="M320.837 194.862C320.837 194.98 320.837 195.451 320.837 195.805C321.19 195.098 320.955 196.04 320.837 196.04C320.837 196.04 320.837 195.923 320.837 195.805C320.837 195.923 320.719 196.04 320.719 196.158C319.423 199.221 317.185 201.695 314.593 203.58C314.122 203.934 314.004 205.23 313.886 205.819C313.886 206.054 313.651 208.057 313.533 208.057C317.538 205.819 319.894 201.695 320.955 197.336C320.955 197.101 321.073 196.983 321.073 196.747C321.073 195.687 320.955 194.627 320.719 193.566C320.837 194.038 320.837 194.509 320.837 194.862Z" fill="#407BFF" fill-opacity="0.45"/>
<path d="M257.338 206.053C257.338 206.288 258.162 206.642 257.573 206.171C257.455 206.171 257.338 206.053 257.338 206.053Z" fill="#407BFF" fill-opacity="0.45"/>
<path d="M268.294 206.995C267.705 206.759 266.645 206.17 265.938 206.17C264.288 206.288 262.757 206.641 261.108 206.523C260.636 206.523 260.283 206.523 259.812 206.406C258.751 206.406 257.691 206.288 256.513 206.17C258.634 207.112 260.872 207.937 263.228 208.408C265.113 208.762 268.294 209.115 269.943 207.937C270.061 207.937 268.294 207.112 268.294 206.995Z" fill="#407BFF" fill-opacity="0.45"/>
<path opacity="0.2" d="M268.294 206.995C267.705 206.759 266.645 206.17 265.938 206.17C264.288 206.288 262.757 206.641 261.108 206.523C260.636 206.523 260.283 206.523 259.812 206.406C258.751 206.406 257.691 206.288 256.513 206.17C258.634 207.112 260.872 207.937 263.228 208.408C265.113 208.762 268.294 209.115 269.943 207.937C270.061 207.937 268.294 207.112 268.294 206.995Z" fill="black"/>
<path d="M258.516 206.406C258.398 206.406 257.927 206.288 257.573 206.288C258.162 206.76 257.338 206.406 257.338 206.171C257.338 206.171 257.456 206.288 257.573 206.288C257.456 206.288 257.338 206.171 257.22 206.053C254.392 204.286 252.39 201.694 250.976 198.749C250.74 198.277 249.444 197.924 248.973 197.688C248.738 197.571 246.853 197.099 246.735 196.981C248.266 201.34 251.918 204.286 256.042 206.171C256.16 206.288 256.395 206.288 256.513 206.406C257.573 206.642 258.634 206.642 259.812 206.642C259.34 206.524 258.987 206.406 258.516 206.406Z" fill="#407BFF" fill-opacity="0.45"/>
<path d="M159.568 82.6082C159.068 82.6082 156.067 86.4082 155.867 85.8082C155.767 85.4082 153.168 82.5082 151.268 80.4082C149.968 79.0082 149.667 77.0082 150.367 75.3082L151.568 72.3082C152.068 71.1082 153.068 70.2082 154.268 69.9082L157.768 71.3082L158.168 75.5082L159.568 82.6082Z" fill="#DD8C6A"/>
<path d="M160.568 85.2084L160.468 79.8084C160.468 79.8084 156.768 78.5084 154.968 80.8084C153.168 83.0084 153.668 84.4084 153.668 84.4084C153.668 84.4084 154.668 86.7084 158.068 88.6084C161.568 90.5084 160.568 85.2084 160.568 85.2084Z" fill="#407BFF"/>
<path opacity="0.2" d="M160.568 85.2084L160.468 79.8084C160.468 79.8084 156.768 78.5084 154.968 80.8084C153.168 83.0084 153.668 84.4084 153.668 84.4084C153.668 84.4084 154.668 86.7084 158.068 88.6084C161.568 90.5084 160.568 85.2084 160.568 85.2084Z" fill="black"/>
<path d="M195.068 121.908C190.468 117.908 181.668 111.108 175.768 106.508C173.068 104.408 166.968 92.808 163.768 88.108C162.868 86.808 160.468 85.208 160.468 85.208L157.168 88.108C157.168 88.108 155.868 89.808 156.468 91.508C158.768 97.908 166.168 112.708 168.768 115.208C176.268 122.708 190.468 135.008 193.368 134.708C197.768 134.408 198.568 125.008 195.068 121.908Z" fill="#407BFF"/>
<path opacity="0.2" d="M195.068 121.908C190.468 117.908 181.668 111.108 175.768 106.508C173.068 104.408 166.968 92.808 163.768 88.108C162.868 86.808 160.468 85.208 160.468 85.208L157.168 88.108C157.168 88.108 155.868 89.808 156.468 91.508C158.768 97.908 166.168 112.708 168.768 115.208C176.268 122.708 190.468 135.008 193.368 134.708C197.768 134.408 198.568 125.008 195.068 121.908Z" fill="white"/>
<path d="M241.068 330.409C241.568 329.209 242.268 328.209 243.168 327.309C243.168 327.309 246.768 321.409 244.268 311.109L249.068 307.008C250.268 306.908 251.568 307.708 252.468 308.508C253.068 309.408 253.568 309.709 254.068 310.709C255.768 313.709 259.468 320.609 259.468 320.609L258.768 321.008C257.568 318.908 256.268 317.009 254.768 315.109C253.268 313.309 253.168 316.409 253.768 319.109C254.268 321.809 252.468 325.908 247.968 328.508C242.668 331.608 240.268 332.609 241.068 330.409Z" fill="#263238"/>
<path d="M250.068 316.509C250.068 318.309 251.168 321.409 249.568 323.609C248.168 325.709 245.768 327.109 243.268 327.309C243.268 327.309 246.068 322.709 244.968 314.609C244.868 313.509 244.568 312.409 244.368 311.109C244.368 311.109 248.568 308.109 250.468 307.709L251.368 310.409C251.168 312.309 250.668 314.309 250.268 315.709C250.068 315.909 250.068 316.209 250.068 316.509Z" fill="#DD8C6A"/>
<path d="M251.267 310.509C251.067 312.409 250.567 314.409 250.167 315.809C250.067 316.009 250.067 316.209 250.067 316.509L246.167 318.109L244.967 314.609L240.667 302.109L247.467 299.309L250.367 307.709L251.267 310.509Z" fill="#DD8C6A"/>
<path opacity="0.2" d="M247.068 298.408L240.268 301.208L242.168 306.608C242.168 306.608 247.168 307.608 249.168 304.208L249.468 305.008L247.068 298.408Z" fill="black"/>
<path d="M189.368 325.609C190.468 324.909 191.568 324.409 192.868 324.109C192.868 324.109 198.968 321.109 202.468 311.009L208.868 309.809C209.968 310.409 210.768 311.409 211.168 312.609C211.168 313.709 211.168 314.809 211.068 315.909C210.868 319.409 210.168 328.309 210.168 328.309L209.368 328.209C209.468 325.809 209.468 322.309 209.268 319.909C208.968 317.609 207.268 320.209 206.268 322.709C205.268 325.209 201.568 327.709 196.268 327.509C190.068 327.409 187.568 327.009 189.368 325.609Z" fill="#263238"/>
<path d="M207.768 314.909C207.068 316.109 206.068 317.209 204.968 318.109C203.668 319.009 203.168 323.209 200.168 324.409C197.768 325.409 195.068 325.309 192.868 324.109C192.868 324.109 197.468 321.809 200.968 314.609C201.768 312.909 202.068 311.109 201.668 309.209L199.568 297.409L207.268 296.509L208.968 310.609C209.068 312.709 208.568 314.009 207.768 314.909Z" fill="#DD8C6A"/>
<path opacity="0.2" d="M198.868 291.908L200.568 302.408H201.168C203.468 303.008 206.068 302.508 207.968 301.108H207.868L206.768 291.108L198.868 291.908Z" fill="black"/>
<path d="M227.468 126.908C227.568 126.508 227.568 125.808 227.468 125.408C226.968 119.908 227.668 113.708 222.168 114.208C219.868 115.608 217.268 116.508 214.568 116.708C214.468 116.708 214.368 116.708 214.368 116.708C209.668 117.208 205.068 118.108 200.568 119.208C199.768 119.408 198.968 119.608 198.268 119.908C197.168 120.208 196.168 120.608 195.168 120.908C190.468 122.508 190.968 127.708 189.968 132.508C188.768 138.308 187.068 139.908 196.468 157.008C197.868 159.508 196.568 166.108 199.268 168.008C205.568 172.508 229.068 165.108 229.068 165.108C229.068 165.108 224.468 144.908 227.468 126.908Z" fill="#407BFF"/>
<g opacity="0.2">
<path d="M227.468 126.908C227.568 126.508 227.568 125.808 227.468 125.408C226.968 119.908 227.668 113.708 222.168 114.208C219.868 115.608 217.268 116.508 214.568 116.708C214.468 116.708 214.368 116.708 214.368 116.708C209.668 117.208 205.068 118.108 200.568 119.208C199.768 119.408 198.968 119.608 198.268 119.908C197.168 120.208 196.168 120.608 195.168 120.908C190.468 122.508 190.968 127.708 189.968 132.508C188.768 138.308 187.068 139.908 196.468 157.008C197.868 159.508 196.568 166.108 199.268 168.008C205.568 172.508 229.068 165.108 229.068 165.108C229.068 165.108 224.468 144.908 227.468 126.908Z" fill="white"/>
</g>
<path d="M199.268 168.108C199.268 168.108 196.868 206.708 194.868 236.408C193.268 260.008 197.168 300.308 197.168 300.308C197.168 300.308 203.068 302.308 209.568 298.808C209.568 298.808 212.068 261.708 210.668 239.208C219.768 206.508 232.768 175.708 223.768 163.408L199.268 168.108Z" fill="#263238"/>
<path opacity="0.3" d="M213.268 191.108L225.868 184.208C223.968 195.908 219.168 210.508 214.368 226.208C211.168 213.608 209.768 200.508 213.268 191.108Z" fill="black"/>
<path d="M205.268 167.008C205.268 167.008 212.468 199.308 217.268 228.008C219.168 248.708 240.368 305.408 240.368 305.408L244.168 304.708C245.968 304.408 247.668 303.608 249.068 302.308L250.368 301.108C250.368 301.108 244.568 260.108 238.468 244.108C239.268 210.908 240.868 173.708 228.568 162.308L205.268 167.008Z" fill="#263238"/>
<path d="M199.768 120.408C199.168 122.208 198.168 125.508 198.968 126.808C199.068 126.108 200.568 123.708 201.668 124.808C201.968 125.208 202.368 125.508 202.568 125.908C203.268 127.008 203.868 128.008 204.568 129.108C204.868 129.608 205.268 130.108 205.768 130.108C206.368 130.208 206.868 129.508 207.268 129.008C207.968 127.808 208.668 126.708 209.368 125.508C209.868 124.708 210.368 123.908 211.168 123.408C211.968 122.908 214.868 124.008 215.368 124.808C215.468 122.708 216.068 118.108 215.868 116.908C215.668 115.708 213.268 113.908 211.968 113.708C211.168 113.508 210.268 113.808 209.568 114.108C206.068 115.508 201.068 116.508 199.768 120.408Z" fill="white"/>
<path d="M210.168 107.908C210.568 111.408 211.468 115.008 213.568 116.408C213.568 116.408 215.768 119.208 208.368 124.508C207.168 125.508 205.268 126.508 204.268 125.308C201.968 122.908 201.968 120.708 202.368 119.408C202.568 118.708 203.068 118.008 203.668 117.508C205.268 116.008 204.268 114.208 202.868 108.808L206.268 106.708C207.068 105.708 208.568 105.608 209.468 106.408C209.768 106.808 210.068 107.308 210.168 107.908Z" fill="#DD8C6A"/>
<path opacity="0.2" d="M206.068 106.708C206.868 105.708 208.367 105.608 209.267 106.408C209.567 106.708 209.868 107.108 209.968 107.508C208.668 110.308 206.668 112.608 203.968 114.108C203.868 112.708 202.767 111.208 202.267 109.908C202.067 109.508 202.668 109.108 202.468 108.708L206.068 106.708Z" fill="black"/>
<path d="M206.468 83.0083C204.868 81.5083 202.368 81.2083 200.268 81.8083C198.168 82.4083 196.368 83.8083 194.768 85.4083C192.068 88.1083 189.868 91.5083 188.768 95.2083C187.668 98.9083 187.768 103.008 189.268 106.608C189.968 108.308 191.068 109.908 192.668 110.908C195.068 112.508 198.368 112.308 200.968 111.008C203.568 109.708 205.568 107.308 206.968 104.808C208.868 101.508 212.068 93.4083 209.168 87.1083C207.768 84.1083 206.468 83.0083 206.468 83.0083Z" fill="#263238"/>
<path d="M211.268 107.308C208.168 108.508 206.468 109.608 205.768 109.008C204.868 108.208 207.568 104.508 207.768 103.308C208.268 100.808 209.768 98.5084 211.968 97.2084C214.168 95.9084 217.068 95.9084 219.268 97.2084C220.568 98.0084 221.568 99.2084 221.768 100.708C221.968 102.208 220.668 103.208 219.568 104.008C217.368 105.908 214.168 106.108 211.268 107.308Z" fill="#263238"/>
<path d="M212.768 95.0084C212.568 102.108 212.568 105.108 209.168 108.908C204.068 114.608 195.568 113.008 193.668 106.008C191.968 99.7084 192.568 89.2084 199.368 86.0084C206.068 82.9084 212.968 87.9084 212.768 95.0084Z" fill="#DD8C6A"/>
<path d="M210.168 95.2087C208.768 95.9087 208.867 102.609 212.267 102.309C215.667 102.109 214.868 92.9087 210.168 95.2087Z" fill="#263238"/>
<path d="M214.468 101.508C214.168 102.808 213.368 104.008 212.268 104.808C210.768 105.808 209.468 104.608 209.468 102.908C209.468 101.308 210.268 99.0078 211.968 98.6078C213.668 98.3078 214.868 99.9078 214.468 101.508Z" fill="#DD8C6A"/>
<path d="M205.668 82.2085C195.968 83.9085 196.668 90.3085 204.968 94.4085C209.568 96.7085 215.768 101.908 211.768 110.208C210.468 112.808 226.268 103.008 221.868 97.2085C213.468 86.1085 213.068 79.8085 205.668 82.2085Z" fill="#263238"/>
<path d="M201.168 97.8086C201.168 98.4086 200.868 98.9086 200.568 98.9086C200.168 98.9086 199.868 98.5086 199.868 97.9086C199.868 97.3086 200.168 96.8086 200.468 96.8086C200.768 96.8086 201.068 97.2086 201.168 97.8086Z" fill="#263238"/>
<path d="M194.768 98.1084C194.768 98.7084 194.468 99.2084 194.168 99.2084C193.768 99.2084 193.468 98.8084 193.468 98.2084C193.468 97.6084 193.768 97.1084 194.068 97.1084C194.368 97.1084 194.668 97.6084 194.768 98.1084Z" fill="#263238"/>
<path d="M194.168 97.2079L192.768 96.9079C192.768 96.8079 193.568 97.9079 194.168 97.2079Z" fill="#263238"/>
<path d="M196.868 98.9082C196.468 100.408 195.868 101.908 195.068 103.208C195.768 103.608 196.568 103.608 197.368 103.308L196.868 98.9082Z" fill="#C13B37"/>
<path d="M203.068 95.3087C202.968 95.3087 202.968 95.3087 202.968 95.2087C202.468 94.5087 201.668 94.2087 200.868 94.2087C200.668 94.2087 200.568 94.1087 200.468 93.9087C200.468 93.7087 200.568 93.5087 200.768 93.5087C201.868 93.4087 202.868 93.9087 203.468 94.8087C203.568 94.9087 203.568 95.2087 203.368 95.3087C203.368 95.4087 203.268 95.4087 203.068 95.3087Z" fill="#263238"/>
<path d="M192.167 95.2086C192.067 95.0086 192.067 94.8086 192.267 94.7086C193.167 94.1086 194.267 94.0086 195.267 94.5086C195.467 94.6086 195.467 94.8086 195.367 95.0086C195.267 95.2086 195.067 95.2086 194.967 95.2086C194.167 94.9086 193.267 94.9086 192.567 95.4086C192.367 95.3086 192.267 95.3086 192.167 95.2086Z" fill="#263238"/>
<path d="M200.567 96.8078L199.167 96.5078C199.167 96.5078 199.967 97.5078 200.567 96.8078Z" fill="#263238"/>
<path d="M197.167 105.009C197.167 105.009 198.967 104.309 204.267 103.809C203.867 105.609 202.867 107.209 200.167 107.509C197.467 107.809 197.167 105.009 197.167 105.009Z" fill="#263238"/>
<path d="M201.268 105.908C200.268 105.908 199.268 106.308 198.468 107.108C199.068 107.408 199.668 107.608 200.168 107.508C201.168 107.508 202.168 107.108 202.968 106.408C202.468 106.008 201.868 105.808 201.268 105.908Z" fill="#FF5652"/>
<path d="M197.468 104.909C197.668 105.409 197.968 105.709 198.368 105.709C199.968 105.509 201.468 105.209 202.968 104.809C203.468 104.709 203.868 104.309 204.068 103.809C201.768 104.009 199.568 104.409 197.468 104.909Z" fill="white"/>
<path d="M257.668 76.1086L254.668 67.4086L262.568 67.3086C262.568 67.3086 262.568 72.7086 261.968 75.4086L257.668 76.1086Z" fill="#DD8C6A"/>
<path d="M257.268 62.0084L259.168 62.2084C259.968 62.3084 260.568 62.8084 260.868 63.5084L262.468 67.4084L254.568 67.5084L254.868 64.0084C255.168 62.7084 256.168 61.9084 257.268 62.0084Z" fill="#DD8C6A"/>
<path d="M256.968 73.6091L259.868 73.3091C262.068 73.1091 263.668 75.2091 262.968 77.2091L261.568 81.1091L256.168 80.2091L256.968 73.6091Z" fill="#407BFF"/>
<path opacity="0.2" d="M256.968 73.6088L259.968 73.3088C262.068 73.1088 263.668 75.1088 262.968 77.1088L261.468 81.2088L256.068 80.3088L256.968 73.6088Z" fill="black"/>
<path d="M261.968 81.6085C261.968 81.6085 256.468 105.908 228.168 128.108C220.868 133.908 214.368 118.408 222.268 114.108C228.168 110.908 240.968 104.508 245.868 96.3085C250.868 88.1085 250.768 82.2085 256.068 80.1085C261.368 78.1085 261.968 81.6085 261.968 81.6085Z" fill="#407BFF"/>
<path opacity="0.2" d="M261.968 81.6085C261.968 81.6085 256.468 105.908 228.168 128.108C220.868 133.908 214.368 118.408 222.268 114.108C228.168 110.908 240.968 104.508 245.868 96.3085C250.868 88.1085 250.768 82.2085 256.068 80.1085C261.368 78.1085 261.968 81.6085 261.968 81.6085Z" fill="white"/>
</svg>
