<svg width="64" height="64" viewBox="0 0 64 64" fill="none" xmlns="http://www.w3.org/2000/svg">
<rect width="64" height="64" rx="20" fill="#E8F2FF"/>
<rect width="64" height="64" rx="20" fill="#F8F9FD"/>
<path d="M41.534 28.9071C41.534 23.6571 37.2504 19.3735 32.0004 19.3735C26.7504 19.3735 22.4668 23.6571 22.4668 28.9071C22.4668 29.6635 22.5505 30.4198 22.7605 31.1744C23.0131 32.3918 23.4741 33.1481 24.1041 34.1981C24.2305 34.4508 24.3978 34.7018 24.5668 34.9954C24.7768 35.3318 24.9442 35.6681 25.1541 35.9618C25.9941 37.3481 26.4978 38.1454 26.4978 39.7844V43.7318C26.4978 44.7391 27.2115 45.5381 28.1778 45.7054C28.5978 47.8481 29.8578 49.1918 32.0005 49.1918C34.1431 49.1918 35.4441 47.8481 35.8231 45.7054C36.7895 45.5381 37.5031 44.6981 37.5031 43.7318V39.7844C37.5031 38.1471 38.0068 37.3071 38.8468 35.9618C39.0141 35.6681 39.2241 35.3318 39.4341 34.9954C39.6015 34.7018 39.7705 34.4491 39.8968 34.1981C40.5268 33.1481 40.9895 32.3918 41.2405 31.1744C41.4505 30.4197 41.5341 29.6634 41.5341 28.9071H41.534ZM35.864 40.7935H28.2204V39.8272C28.2204 39.6172 28.2204 39.4499 28.1777 39.2809H35.8641C35.8641 39.4482 35.8215 39.6172 35.8215 39.8272L35.8231 40.7935H35.864ZM35.4866 44.1125H28.5138C28.3038 44.1125 28.1774 43.9452 28.1774 43.7762V42.4735H35.821V43.7762C35.8637 43.9435 35.6963 44.1125 35.4863 44.1125H35.4866ZM32.0003 47.5562C31.5376 47.5562 30.3629 47.5562 29.9003 45.7925H34.1431C33.6804 47.5562 32.4631 47.5562 32.0004 47.5562H32.0003ZM39.6031 30.8397C39.3931 31.7634 39.0568 32.3934 38.4694 33.3597C38.3021 33.6124 38.1758 33.8634 38.0068 34.1571C37.7968 34.4934 37.6294 34.8297 37.4604 35.0807C36.9568 35.9207 36.4941 36.6771 36.2004 37.5581H27.884C27.5904 36.6754 27.1704 35.9207 26.624 35.0807C26.4567 34.7871 26.2467 34.4934 26.0777 34.1571C25.9103 33.8634 25.7414 33.5697 25.615 33.3597C25.0277 32.3524 24.6914 31.7634 24.4814 30.7971C24.314 30.1671 24.2287 29.5371 24.2287 28.9071C24.2287 24.5807 27.756 21.0535 32.0823 21.0535C36.4087 21.0535 39.9359 24.5808 39.9359 28.9071C39.8538 29.5371 39.7702 30.1671 39.6028 30.8397H39.6031Z" fill="#4F46BA"/>
<path d="M49.3039 28.0674H45.8175C45.3549 28.0674 44.9775 28.4447 44.9775 28.9074C44.9775 29.3701 45.3549 29.7474 45.8175 29.7474H49.3039C49.7665 29.7474 50.1439 29.37 50.1439 28.9074C50.1439 28.4463 49.7665 28.0674 49.3039 28.0674Z" fill="#4F46BA"/>
<path d="M41.7436 20.0038C41.9536 20.0038 42.1636 19.9201 42.3309 19.7511L44.8082 17.2738C45.1446 16.9375 45.1446 16.4338 44.8082 16.0975C44.4719 15.7611 43.9683 15.7611 43.6319 16.0975L41.1546 18.5748C40.8183 18.9111 40.8183 19.4148 41.1546 19.7511C41.3236 19.9201 41.5336 20.0038 41.7436 20.0038H41.7436Z" fill="#4F46BA"/>
<path d="M32.0002 15.93C32.4628 15.93 32.8402 15.5527 32.8402 15.09V11.6037C32.8402 11.141 32.4628 10.7637 32.0002 10.7637C31.5375 10.7637 31.1602 11.141 31.1602 11.6037V15.09C31.1602 15.5527 31.5375 15.93 32.0002 15.93Z" fill="#4F46BA"/>
<path d="M21.6678 19.7531C21.8351 19.9204 22.0451 20.0057 22.2551 20.0057C22.4651 20.0057 22.6751 19.9221 22.8424 19.7531C23.1788 19.4167 23.1788 18.9131 22.8424 18.5767L20.3651 16.0994C20.0288 15.7631 19.5251 15.7631 19.1888 16.0994C18.8524 16.4357 18.8524 16.9394 19.1888 17.2757L21.6678 19.7531Z" fill="#4F46BA"/>
<path d="M18.2238 28.0674H14.7375C14.2748 28.0674 13.8975 28.4447 13.8975 28.9074C13.8975 29.3701 14.2748 29.7474 14.7375 29.7474H18.2238C18.6865 29.7474 19.0638 29.37 19.0638 28.9074C19.0638 28.4463 18.6865 28.0674 18.2238 28.0674Z" fill="#4F46BA"/>
<path d="M21.6671 38.0638L19.1897 40.5411C18.8534 40.8774 18.8534 41.3811 19.1897 41.7174C19.3571 41.8848 19.5671 41.9701 19.7771 41.9701C19.9871 41.9701 20.1971 41.8864 20.3644 41.7174L22.8417 39.2401C23.1781 38.9038 23.1781 38.4001 22.8417 38.0638C22.507 37.7274 21.9623 37.7274 21.667 38.0638H21.6671Z" fill="#4F46BA"/>
<path d="M42.3329 38.0638C41.9966 37.7274 41.4929 37.7274 41.1565 38.0638C40.8202 38.4001 40.8202 38.9038 41.1565 39.2401L43.6339 41.7174C43.8012 41.8848 44.0112 41.9701 44.2212 41.9701C44.4312 41.9701 44.6412 41.8864 44.8085 41.7174C45.1449 41.3811 45.1449 40.8774 44.8085 40.5411L42.3329 38.0638Z" fill="#4F46BA"/>
</svg>
