<svg width="22" height="22" viewBox="0 0 22 22" fill="none" xmlns="http://www.w3.org/2000/svg">
<circle cx="11" cy="11" r="11" fill="#F2F2F2"/>
<g clip-path="url(#clip0_1516_108)">
<path d="M16.1068 11.5007C16.1068 11.6963 15.9482 11.8548 15.7526 11.8548C15.557 11.8548 15.3984 11.6963 15.3984 11.5007C15.3984 11.3051 15.557 11.1465 15.7526 11.1465V11.1465C15.9482 11.1465 16.1068 11.3051 16.1068 11.5007" stroke="#DCD9D9" stroke-width="1.5" stroke-linecap="round" stroke-linejoin="round"/>
<path d="M11.8568 11.5007C11.8568 11.6963 11.6982 11.8548 11.5026 11.8548C11.307 11.8548 11.1484 11.6963 11.1484 11.5007C11.1484 11.3051 11.307 11.1465 11.5026 11.1465V11.1465C11.6982 11.1465 11.8568 11.3051 11.8568 11.5007" stroke="#DCD9D9" stroke-width="1.5" stroke-linecap="round" stroke-linejoin="round"/>
<path d="M7.60677 11.5007C7.60677 11.6963 7.4482 11.8548 7.2526 11.8548C7.057 11.8548 6.89844 11.6963 6.89844 11.5007C6.89844 11.3051 7.057 11.1465 7.2526 11.1465V11.1465C7.4482 11.1465 7.60677 11.3051 7.60677 11.5007" stroke="#DCD9D9" stroke-width="1.5" stroke-linecap="round" stroke-linejoin="round"/>
</g>
<defs>
<clipPath id="clip0_1516_108">
<rect width="17" height="17" fill="white" transform="translate(3 3)"/>
</clipPath>
</defs>
</svg>
