<svg width="138" height="19" viewBox="0 0 138 19" fill="none" xmlns="http://www.w3.org/2000/svg">
<path d="M59.2079 11.848H68.2703L63.4784 4.13849L54.6836 18.0775H50.6809L61.3784 1.33377C61.8435 0.657254 62.6186 0.248535 63.4784 0.248535C64.3099 0.248535 65.0851 0.643168 65.5361 1.30559L76.2758 18.0775H72.2731L70.3845 14.9628H61.2092L59.2079 11.848ZM100.785 14.9628V0.417664H97.3888V16.3863C97.3888 16.8232 97.5579 17.246 97.8821 17.5702C98.2062 17.8943 98.6431 18.0775 99.1223 18.0775H114.612L116.613 14.9628H100.785ZM44.5923 12.3553C47.8904 12.3553 50.5682 9.69157 50.5682 6.39355C50.5682 3.09554 47.8904 0.417664 44.5923 0.417664H29.7329V18.0775H33.1282V3.53246H44.3668C45.9454 3.53246 47.2138 4.81501 47.2138 6.39355C47.2138 7.97209 45.9454 9.25465 44.3668 9.25465L34.7913 9.24055L44.9305 18.0775H49.8635L43.042 12.3553H44.5923ZM8.83143 18.0775C3.95624 18.0775 0 14.1312 0 9.25465C0 4.37809 3.95624 0.417664 8.83143 0.417664H19.0961C23.9726 0.417664 27.926 4.37809 27.926 9.25465C27.926 14.1312 23.9726 18.0775 19.0961 18.0775H8.83143ZM18.8678 14.9628C22.0263 14.9628 24.5844 12.4117 24.5844 9.25465C24.5844 6.09758 22.0263 3.53246 18.8678 3.53246H9.0583C5.90122 3.53246 3.34168 6.09758 3.34168 9.25465C3.34168 12.4117 5.90122 14.9628 9.0583 14.9628H18.8678ZM83.3651 18.0775C78.4886 18.0775 74.5282 14.1312 74.5282 9.25465C74.5282 4.37809 78.4886 0.417664 83.3651 0.417664H95.5565L93.5692 3.53246H83.5906C80.4335 3.53246 77.8685 6.09758 77.8685 9.25465C77.8685 12.4117 80.4335 14.9628 83.5906 14.9628H95.8383L93.837 18.0775H83.3651ZM124.9 14.9628C122.293 14.9628 120.08 13.2151 119.404 10.805H133.921L135.922 7.6902H119.404C120.08 5.29421 122.293 3.53246 124.9 3.53246H134.865L136.88 0.417664H124.675C119.798 0.417664 115.838 4.37809 115.838 9.25465C115.838 14.1312 119.798 18.0775 124.675 18.0775H135.147L137.148 14.9628H124.9Z" fill="#EA1B22"/>
</svg>
