<svg width="176" height="176" viewBox="0 0 176 176" fill="none" xmlns="http://www.w3.org/2000/svg">
<rect x="0.833008" width="175.167" height="175.167" rx="6.41638" fill="#E3EDFF"/>
<path d="M85.2416 103.719H68.8122V53.8644H108.469V78.2253C108.469 78.5369 108.724 78.7918 109.036 78.7918H113.002C113.313 78.7918 113.568 78.5369 113.568 78.2253V51.0318C113.568 49.7783 112.556 48.7656 111.302 48.7656H65.9795C64.7261 48.7656 63.7134 49.7783 63.7134 51.0318V106.552C63.7134 107.805 64.7261 108.818 65.9795 108.818H85.2416C85.5532 108.818 85.8081 108.563 85.8081 108.251V104.286C85.8081 103.974 85.5532 103.719 85.2416 103.719Z" fill="url(#paint0_linear_1087_500)"/>
<g clip-path="url(#clip0_1087_500)">
<path d="M88.2955 66.0029L87.9165 66.0393C84.3754 66.356 81.0627 68.2668 78.9598 71.2004C77.7998 72.8126 77.0463 74.6811 76.7635 76.6471C76.6673 77.2478 76.6291 77.8563 76.6493 78.4644C76.6493 79.3886 76.6597 79.5911 76.7635 80.2765C77.1737 83.0355 78.494 85.5783 80.5147 87.5011C82.5354 89.424 85.1405 90.6165 87.9165 90.8894C88.2955 90.931 89.9259 90.931 90.3049 90.8894C91.871 90.7364 93.3945 90.2908 94.7962 89.5758C95.0039 89.472 95.0506 89.4356 95.0195 89.4148C95.0039 89.3993 94.0849 88.1687 92.9945 86.6941L91.0007 83.9993L88.5032 80.3076C87.6732 79.0701 86.8355 77.8378 85.9902 76.6107C85.9798 76.6107 85.9694 78.2515 85.9642 80.2557C85.9538 83.7657 85.9538 83.9111 85.9123 83.9941C85.8682 84.0907 85.7907 84.1681 85.6942 84.2122C85.6163 84.2537 85.5488 84.2641 85.1802 84.2641H84.7596L84.6454 84.1862C84.577 84.1427 84.5214 84.0818 84.4844 84.0097L84.4325 83.9059L84.4377 79.0147L84.4481 74.134L84.5207 74.0354C84.5623 73.9834 84.6454 73.9211 84.7025 73.8848C84.8011 73.8381 84.8427 73.8329 85.2632 73.8329C85.7565 73.8329 85.8396 73.8536 85.9694 73.9938C86.0057 74.0354 87.3609 76.0707 88.9809 78.5215L93.8928 85.9672L95.8658 88.9579L95.9697 88.8904C96.8524 88.3193 97.787 87.4989 98.5243 86.6474C100.095 84.8502 101.113 82.6381 101.458 80.2765C101.562 79.5911 101.572 79.3938 101.572 78.4592C101.572 77.535 101.562 77.3325 101.458 76.6471C101.049 73.8936 99.7343 71.355 97.7209 69.4328C95.7075 67.5106 93.1107 66.3147 90.3413 66.0341C90.1076 66.0133 88.498 65.9822 88.2955 66.0029ZM93.3943 73.5421C93.4526 73.5709 93.5047 73.611 93.5475 73.66C93.5902 73.709 93.6229 73.766 93.6435 73.8277C93.6591 73.89 93.6643 75.2452 93.6591 78.2982V82.6805L92.8803 81.4966L92.1066 80.3128V77.1248C92.1066 75.0686 92.117 73.9108 92.1326 73.8536C92.1499 73.7892 92.1799 73.7289 92.221 73.6762C92.262 73.6236 92.3132 73.5798 92.3714 73.5473C92.4753 73.4954 92.5064 73.4954 92.8907 73.4954C93.2541 73.4954 93.3164 73.4954 93.3943 73.5421Z" fill="#06246A"/>
</g>
<path d="M79.3583 147.953H78.3908L74.7164 142.329V147.953H73.749V140.654H74.7164L78.4009 146.304V140.654H79.3583V147.953ZM83.173 148.053C82.4378 148.053 81.8396 147.813 81.3785 147.332C80.9173 146.847 80.6867 146.2 80.6867 145.392V145.221C80.6867 144.683 80.7886 144.204 80.9925 143.782C81.1997 143.358 81.4871 143.027 81.8547 142.79C82.2256 142.549 82.6266 142.429 83.0577 142.429C83.7629 142.429 84.3109 142.661 84.7019 143.126C85.0929 143.59 85.2884 144.255 85.2884 145.121V145.507H81.6141C81.6274 146.042 81.7828 146.474 82.0802 146.805C82.381 147.133 82.762 147.296 83.2232 147.296C83.5507 147.296 83.828 147.23 84.0553 147.096C84.2825 146.962 84.4814 146.785 84.6518 146.565L85.2183 147.006C84.7638 147.704 84.082 148.053 83.173 148.053ZM83.0577 143.191C82.6835 143.191 82.3693 143.328 82.1153 143.602C81.8614 143.873 81.7043 144.254 81.6441 144.745H84.3611V144.675C84.3343 144.204 84.2073 143.839 83.9801 143.582C83.7529 143.321 83.4454 143.191 83.0577 143.191ZM88.1858 144.509L89.3889 142.529H90.4717L88.6971 145.211L90.5268 147.953H89.4541L88.2009 145.923L86.9477 147.953H85.8699L87.6996 145.211L85.9251 142.529H86.9978L88.1858 144.509ZM92.7174 141.216V142.529H93.73V143.246H92.7174V146.61C92.7174 146.827 92.7625 146.991 92.8528 147.101C92.943 147.208 93.0967 147.261 93.3139 147.261C93.4209 147.261 93.5679 147.241 93.7551 147.201V147.953C93.5111 148.02 93.2738 148.053 93.0432 148.053C92.6288 148.053 92.3164 147.928 92.1058 147.677C91.8953 147.427 91.79 147.071 91.79 146.61V143.246H90.8025V142.529H91.79V141.216H92.7174ZM94.8378 147.467C94.8378 147.306 94.8846 147.173 94.9782 147.066C95.0751 146.959 95.2188 146.905 95.4093 146.905C95.5998 146.905 95.7435 146.959 95.8404 147.066C95.9406 147.173 95.9908 147.306 95.9908 147.467C95.9908 147.621 95.9406 147.749 95.8404 147.853C95.7435 147.956 95.5998 148.008 95.4093 148.008C95.2188 148.008 95.0751 147.956 94.9782 147.853C94.8846 147.749 94.8378 147.621 94.8378 147.467ZM98.4821 142.529V148.58C98.4821 149.622 98.0092 150.144 97.0635 150.144C96.8596 150.144 96.6708 150.114 96.4971 150.053V149.312C96.604 149.338 96.7444 149.352 96.9181 149.352C97.1253 149.352 97.2824 149.295 97.3893 149.181C97.4996 149.071 97.5548 148.877 97.5548 148.6V142.529H98.4821ZM97.4595 141.091C97.4595 140.944 97.5046 140.818 97.5949 140.715C97.6884 140.608 97.8238 140.554 98.0009 140.554C98.1814 140.554 98.3184 140.606 98.4119 140.71C98.5055 140.813 98.5523 140.94 98.5523 141.091C98.5523 141.241 98.5055 141.366 98.4119 141.467C98.3184 141.567 98.1814 141.617 98.0009 141.617C97.8204 141.617 97.6851 141.567 97.5949 141.467C97.5046 141.366 97.4595 141.241 97.4595 141.091ZM103.139 146.514C103.139 146.264 103.044 146.07 102.853 145.933C102.666 145.793 102.337 145.672 101.866 145.572C101.398 145.472 101.025 145.351 100.748 145.211C100.474 145.071 100.27 144.904 100.136 144.71C100.006 144.516 99.9408 144.285 99.9408 144.018C99.9408 143.574 100.128 143.198 100.502 142.89C100.88 142.583 101.361 142.429 101.946 142.429C102.561 142.429 103.059 142.588 103.44 142.905C103.824 143.223 104.016 143.629 104.016 144.123H103.084C103.084 143.869 102.975 143.65 102.758 143.467C102.544 143.283 102.273 143.191 101.946 143.191C101.608 143.191 101.344 143.264 101.154 143.412C100.963 143.559 100.868 143.751 100.868 143.988C100.868 144.212 100.957 144.381 101.134 144.494C101.311 144.608 101.63 144.717 102.091 144.82C102.556 144.924 102.932 145.047 103.219 145.191C103.507 145.335 103.719 145.509 103.856 145.712C103.996 145.913 104.066 146.159 104.066 146.449C104.066 146.934 103.873 147.323 103.485 147.617C103.097 147.908 102.594 148.053 101.976 148.053C101.542 148.053 101.157 147.977 100.823 147.823C100.489 147.669 100.227 147.455 100.036 147.181C99.8489 146.904 99.7554 146.605 99.7554 146.284H100.683C100.699 146.595 100.823 146.842 101.054 147.026C101.288 147.206 101.595 147.296 101.976 147.296C102.327 147.296 102.608 147.226 102.818 147.086C103.032 146.942 103.139 146.752 103.139 146.514Z" fill="black"/>
<defs>
<linearGradient id="paint0_linear_1087_500" x1="88.3638" y1="57.4399" x2="89.3922" y2="104.798" gradientUnits="userSpaceOnUse">
<stop stop-color="#06246A"/>
<stop offset="1" stop-color="#081B49"/>
</linearGradient>
<clipPath id="clip0_1087_500">
<rect width="24.9229" height="24.9229" fill="white" transform="translate(76.6499 66)"/>
</clipPath>
</defs>
</svg>
