<svg width="64" height="64" viewBox="0 0 64 64" fill="none" xmlns="http://www.w3.org/2000/svg">
<rect width="64" height="64" rx="20" fill="#E8F2FF"/>
<rect width="64" height="64" rx="20" fill="#F8F9FD"/>
<path d="M46.6309 35.1279H44.5794V18.7279C44.5731 17.6623 43.709 16.8014 42.6434 16.7998H21.3558C20.2855 16.8014 19.4199 17.6701 19.4199 18.7404V35.1404H17.3684C16.9262 35.1404 16.5684 35.4983 16.5684 35.9404V45.2592C16.5684 46.3296 17.434 47.1983 18.5043 47.1999H45.4951C46.5654 47.1983 47.431 46.3296 47.431 45.2592V35.928C47.431 35.7155 47.3482 35.5124 47.1982 35.3624C47.0482 35.2124 46.8435 35.128 46.631 35.128L46.6309 35.1279ZM21.0309 18.7279C21.0309 18.542 21.1809 18.3904 21.3684 18.3873H42.6436C42.8296 18.3904 42.9796 18.542 42.9796 18.7279V35.1279H40.5796C40.1842 35.1232 39.8436 35.4092 39.7796 35.7998L39.3436 38.492H24.664L24.2281 35.7998C24.1641 35.4092 23.825 35.1232 23.4281 35.1279H21.0281L21.0309 18.7279ZM45.8309 45.2483C45.8309 45.4343 45.6825 45.5858 45.495 45.5874H18.5042C18.3167 45.5858 18.1682 45.4343 18.1682 45.2483V36.7279H22.7558L23.1996 39.4201C23.2637 39.8107 23.6027 40.0967 23.9996 40.092H40.0404C40.4357 40.0967 40.7763 39.8108 40.8404 39.4201L41.2763 36.7279H45.8311L45.8309 45.2483Z" fill="#4F46BA"/>
<path d="M34.056 41.8589H29.9436C29.5014 41.8589 29.1436 42.2183 29.1436 42.6589C29.1436 43.1011 29.5014 43.4589 29.9436 43.4589H34.056C34.4982 43.4589 34.856 43.1011 34.856 42.6589C34.856 42.2182 34.4981 41.8589 34.056 41.8589Z" fill="#4F46BA"/>
<path d="M29.1559 27.0922L31.1997 24.6594V34.4314C31.1997 34.8736 31.5575 35.2314 31.9997 35.2314C32.4419 35.2314 32.7997 34.8736 32.7997 34.4314V24.6594L34.8434 27.0906V27.0922C34.9966 27.2719 35.22 27.3765 35.4559 27.3765C35.6419 27.3781 35.8231 27.3156 35.9684 27.2C36.3043 26.9172 36.3497 26.4141 36.0684 26.0765L32.6122 21.9485C32.4544 21.7767 32.2325 21.6782 31.9997 21.6782C31.7669 21.6782 31.545 21.7767 31.3872 21.9485L27.931 26.0641C27.6716 26.4032 27.7247 26.8876 28.0513 27.1641C28.3794 27.4391 28.8669 27.4079 29.156 27.0923L29.1559 27.0922Z" fill="#4F46BA"/>
</svg>
