<svg width="113" height="16" viewBox="0 0 113 16" fill="none" xmlns="http://www.w3.org/2000/svg">
<path d="M14.9705 0.222531L14.9705 15.8442L10.927 15.8442L10.927 9.41307L4.63721 9.41307L4.63721 15.8442L0.59375 15.8442L0.59375 0.222531L4.63721 0.222531L4.63721 6.34214L10.927 6.34214L10.927 0.222531L14.9705 0.222531Z" fill="#06246A"/>
<path d="M28.2228 13.0848L22.0275 13.0848L21.0344 15.8442L16.8018 15.8442L22.8078 0.222531L27.4898 0.222531L33.4958 15.8442L29.2159 15.8442L28.2228 13.0848ZM27.1824 10.1474L25.1252 4.42837L23.0916 10.1474L27.1824 10.1474Z" fill="#06246A"/>
<path d="M50.1734 15.8442L46.13 15.8442L39.3672 6.20862L39.3672 15.8442L35.3238 15.8442L35.3238 0.222531L39.3672 0.222531L46.13 9.90264L46.13 0.222531L50.1734 0.222531L50.1734 15.8442Z" fill="#06246A"/>
<path d="M59.3233 0.222531C61.0731 0.222531 62.6022 0.54891 63.9107 1.20167C65.2191 1.85443 66.228 2.77422 66.9373 3.96106C67.6625 5.13305 68.0251 6.4905 68.0251 8.03338C68.0251 9.56143 67.6625 10.9189 66.9373 12.1057C66.228 13.2925 65.2112 14.2123 63.887 14.8651C62.5786 15.5178 61.0574 15.8442 59.3233 15.8442L53.1044 15.8442L53.1044 0.222531L59.3233 0.222531ZM59.0632 12.5508C60.5923 12.5508 61.7825 12.1576 62.6338 11.3713C63.485 10.5851 63.9107 9.47241 63.9107 8.03338C63.9107 6.59434 63.485 5.47427 62.6338 4.67316C61.7825 3.87204 60.5923 3.47149 59.0632 3.47149L57.1479 3.47149L57.1479 12.5508L59.0632 12.5508Z" fill="#06246A"/>
<path d="M78.1352 16C76.5745 16 75.14 15.6588 73.8316 14.9764C72.539 14.2939 71.5064 13.3445 70.734 12.128C69.9773 10.8966 69.599 9.51692 69.599 7.98887C69.599 6.46082 69.9773 5.08855 70.734 3.87204C71.5064 2.65554 72.539 1.70607 73.8316 1.02364C75.14 0.341215 76.5745 7.04382e-09 78.1352 7.1885e-09C79.6958 7.33318e-09 81.1225 0.341215 82.4151 1.02364C83.7235 1.70607 84.7482 2.65554 85.4891 3.87204C86.2458 5.08855 86.6241 6.46082 86.6241 7.98887C86.6241 9.51692 86.2458 10.8966 85.4891 12.128C84.7324 13.3445 83.7078 14.2939 82.4151 14.9764C81.1225 15.6588 79.6958 16 78.1352 16ZM78.1352 12.5285C79.4594 12.5285 80.5155 12.1131 81.3037 11.2823C82.1077 10.4516 82.5097 9.35373 82.5097 7.98887C82.5097 6.60918 82.1077 5.51136 81.3037 4.69541C80.5155 3.86463 79.4594 3.44923 78.1352 3.44923C76.7952 3.44923 75.7233 3.85721 74.9193 4.67316C74.1311 5.4891 73.737 6.59434 73.737 7.98887C73.737 9.36857 74.1311 10.4738 74.9193 11.3046C75.7233 12.1205 76.7952 12.5285 78.1352 12.5285Z" fill="#06246A"/>
<path d="M99.6798 0.222531L99.6798 3.27121L92.9171 3.27121L92.9171 6.56467L97.9773 6.56467L97.9773 9.52434L92.9171 9.52434L92.9171 15.8442L88.8736 15.8442L88.8736 0.222531L99.6798 0.222531Z" fill="#06246A"/>
<path d="M112.611 0.222531L112.611 3.27121L105.848 3.27121L105.848 6.56467L110.909 6.56467L110.909 9.52434L105.848 9.52434L105.848 15.8442L101.805 15.8442L101.805 0.222531L112.611 0.222531Z" fill="#06246A"/>
</svg>
