<svg width="18" height="20" viewBox="0 0 18 20" fill="none" xmlns="http://www.w3.org/2000/svg">
<path d="M8.99959 0.915039C9.60416 0.915039 10.0943 1.42496 10.0943 2.05398V8.88766H16.6623C17.2669 8.88766 17.757 9.39758 17.757 10.0266C17.757 10.6556 17.2669 11.1655 16.6623 11.1655H10.0943V17.9992C10.0943 18.6282 9.60416 19.1382 8.99959 19.1382C8.39502 19.1382 7.90491 18.6282 7.90491 17.9992V11.1655H1.33686C0.73229 11.1655 0.242188 10.6556 0.242188 10.0266C0.242188 9.39758 0.73229 8.88766 1.33686 8.88766H7.90491V2.05398C7.90491 1.42496 8.39502 0.915039 8.99959 0.915039Z" fill="#06246A"/>
</svg>
