<svg width="22" height="22" viewBox="0 0 22 22" fill="none" xmlns="http://www.w3.org/2000/svg">
<path d="M18.3349 20.0038L14.8292 18.5961C15.465 17.2065 15.919 15.7716 16.2006 14.3094L18.3349 20.0038ZM7.30935 18.5961L3.80371 20.0038L5.93797 14.3094C6.21951 15.7716 6.67361 17.2065 7.30935 18.5961ZM11.0693 1.83984C11.0693 1.83984 15.6103 3.65624 15.6103 10.9218C15.6103 13.7372 14.9291 16.1439 14.0936 18.033C13.9483 18.3514 13.7142 18.621 13.4194 18.8096C13.1245 18.9981 12.7815 19.0974 12.4316 19.0956H9.70699C9.35704 19.0974 9.01401 18.9981 8.71917 18.8096C8.42433 18.621 8.19021 18.3514 8.04499 18.033C7.21853 16.1439 6.5283 13.7372 6.5283 10.9218C6.5283 3.65624 11.0693 1.83984 11.0693 1.83984ZM11.0693 10.9218C12.0683 10.9218 12.8857 10.1044 12.8857 9.10541C12.8857 8.1064 12.0683 7.28902 11.0693 7.28902C10.0703 7.28902 9.25289 8.1064 9.25289 9.10541C9.25289 10.1044 10.0703 10.9218 11.0693 10.9218Z" fill="black"/>
</svg>
