<svg width="29" height="27" viewBox="0 0 29 27" fill="none" xmlns="http://www.w3.org/2000/svg">
<rect x="0.488281" y="0.457031" width="28.4498" height="25.902" rx="3" fill="#3B5490"/>
<path d="M18.8518 14.3638V16.2747H16.9409V17.5486H18.8518V19.4594H20.1257V17.5486H22.0365V16.2747H20.1257V14.3638H18.8518ZM15.667 16.2747H8.66061V9.90521L13.7562 13.0899L18.8518 9.90521V13.0899H20.1257V8.63132C20.1257 7.93067 19.5524 7.35742 18.8518 7.35742H8.66061C7.95997 7.35742 7.38672 7.93067 7.38672 8.63132V16.2747C7.38672 16.9753 7.95997 17.5486 8.66061 17.5486H15.667V16.2747ZM18.8518 8.63132L13.7562 11.8161L8.66061 8.63132H18.8518Z" fill="white"/>
</svg>
