<svg width="15" height="15" viewBox="0 0 15 15" fill="none" xmlns="http://www.w3.org/2000/svg">
<path d="M12.4999 5.1125V1.875C12.4999 1.70924 12.4341 1.55027 12.3169 1.43306C12.1997 1.31585 12.0407 1.25 11.8749 1.25C11.7092 1.25 11.5502 1.31585 11.433 1.43306C11.3158 1.55027 11.2499 1.70924 11.2499 1.875V5.1125C10.888 5.24388 10.5752 5.48352 10.3542 5.79885C10.1332 6.11419 10.0146 6.48993 10.0146 6.875C10.0146 7.26008 10.1332 7.63581 10.3542 7.95115C10.5752 8.26648 10.888 8.50612 11.2499 8.6375V13.125C11.2499 13.2908 11.3158 13.4497 11.433 13.5669C11.5502 13.6842 11.7092 13.75 11.8749 13.75C12.0407 13.75 12.1997 13.6842 12.3169 13.5669C12.4341 13.4497 12.4999 13.2908 12.4999 13.125V8.6375C12.8619 8.50612 13.1747 8.26648 13.3957 7.95115C13.6167 7.63581 13.7352 7.26008 13.7352 6.875C13.7352 6.48993 13.6167 6.11419 13.3957 5.79885C13.1747 5.48352 12.8619 5.24388 12.4999 5.1125ZM11.8749 7.5C11.7513 7.5 11.6305 7.46335 11.5277 7.39467C11.4249 7.32599 11.3448 7.22838 11.2975 7.11418C11.2502 6.99997 11.2378 6.87431 11.262 6.75307C11.2861 6.63183 11.3456 6.52047 11.433 6.43306C11.5204 6.34565 11.6318 6.28613 11.753 6.26201C11.8743 6.23789 11.9999 6.25027 12.1141 6.29758C12.2283 6.34488 12.3259 6.42499 12.3946 6.52777C12.4633 6.63055 12.4999 6.75139 12.4999 6.875C12.4999 7.04076 12.4341 7.19973 12.3169 7.31694C12.1997 7.43415 12.0407 7.5 11.8749 7.5ZM8.12495 8.8625V1.875C8.12495 1.70924 8.0591 1.55027 7.94189 1.43306C7.82468 1.31585 7.66571 1.25 7.49995 1.25C7.33419 1.25 7.17521 1.31585 7.058 1.43306C6.94079 1.55027 6.87495 1.70924 6.87495 1.875V8.8625C6.51298 8.99388 6.20023 9.23352 5.97922 9.54885C5.75821 9.86419 5.63965 10.2399 5.63965 10.625C5.63965 11.0101 5.75821 11.3858 5.97922 11.7011C6.20023 12.0165 6.51298 12.2561 6.87495 12.3875V13.125C6.87495 13.2908 6.94079 13.4497 7.058 13.5669C7.17521 13.6842 7.33419 13.75 7.49995 13.75C7.66571 13.75 7.82468 13.6842 7.94189 13.5669C8.0591 13.4497 8.12495 13.2908 8.12495 13.125V12.3875C8.48692 12.2561 8.79966 12.0165 9.02067 11.7011C9.24168 11.3858 9.36024 11.0101 9.36024 10.625C9.36024 10.2399 9.24168 9.86419 9.02067 9.54885C8.79966 9.23352 8.48692 8.99388 8.12495 8.8625ZM7.49995 11.25C7.37633 11.25 7.2555 11.2133 7.15271 11.1447C7.04993 11.076 6.96983 10.9784 6.92252 10.8642C6.87522 10.75 6.86284 10.6243 6.88696 10.5031C6.91107 10.3818 6.9706 10.2705 7.058 10.1831C7.14541 10.0957 7.25678 10.0361 7.37802 10.012C7.49925 9.98789 7.62492 10.0003 7.73912 10.0476C7.85333 10.0949 7.95094 10.175 8.01961 10.2778C8.08829 10.3806 8.12495 10.5014 8.12495 10.625C8.12495 10.7908 8.0591 10.9497 7.94189 11.0669C7.82468 11.1842 7.66571 11.25 7.49995 11.25ZM3.74995 3.8625V1.875C3.74995 1.70924 3.6841 1.55027 3.56689 1.43306C3.44968 1.31585 3.29071 1.25 3.12495 1.25C2.95919 1.25 2.80022 1.31585 2.683 1.43306C2.56579 1.55027 2.49995 1.70924 2.49995 1.875V3.8625C2.13798 3.99388 1.82523 4.23352 1.60422 4.54885C1.38321 4.86419 1.26465 5.23993 1.26465 5.625C1.26465 6.01008 1.38321 6.38581 1.60422 6.70115C1.82523 7.01648 2.13798 7.25612 2.49995 7.3875V13.125C2.49995 13.2908 2.56579 13.4497 2.683 13.5669C2.80022 13.6842 2.95919 13.75 3.12495 13.75C3.29071 13.75 3.44968 13.6842 3.56689 13.5669C3.6841 13.4497 3.74995 13.2908 3.74995 13.125V7.3875C4.11192 7.25612 4.42466 7.01648 4.64567 6.70115C4.86668 6.38581 4.98524 6.01008 4.98524 5.625C4.98524 5.23993 4.86668 4.86419 4.64567 4.54885C4.42466 4.23352 4.11192 3.99388 3.74995 3.8625ZM3.12495 6.25C3.00133 6.25 2.8805 6.21335 2.77771 6.14467C2.67493 6.07599 2.59483 5.97838 2.54752 5.86418C2.50022 5.74997 2.48784 5.62431 2.51196 5.50307C2.53607 5.38183 2.5956 5.27047 2.683 5.18306C2.77041 5.09565 2.88178 5.03613 3.00301 5.01201C3.12425 4.98789 3.24992 5.00027 3.36412 5.04758C3.47833 5.09488 3.57594 5.17499 3.64461 5.27777C3.71329 5.38055 3.74995 5.50139 3.74995 5.625C3.74995 5.79076 3.6841 5.94973 3.56689 6.06694C3.44968 6.18415 3.29071 6.25 3.12495 6.25Z" fill="#0288F7"/>
</svg>
