<svg width="29" height="30" viewBox="0 0 29 30" fill="none" xmlns="http://www.w3.org/2000/svg">
<g clip-path="url(#clip0_398_2392)">
<path d="M21.2422 8.10972C21.0121 7.69605 20.6808 7.3525 20.2817 7.11368C19.8826 6.87486 19.4298 6.7492 18.9689 6.74937C18.508 6.74955 18.0552 6.87554 17.6563 7.11466C17.2574 7.35378 16.9263 7.69758 16.6965 8.11142L14.9884 5.04727C14.7561 4.62934 14.4205 4.28302 14.0162 4.04391C13.6118 3.80481 13.1533 3.68154 12.6877 3.68679C12.2221 3.69204 11.7663 3.82561 11.367 4.07378C10.9678 4.32194 10.6396 4.67575 10.4161 5.09882C10.0282 4.63393 9.49965 4.31885 8.91666 4.20494C8.33368 4.09103 7.73063 4.18501 7.20582 4.47155C6.68101 4.7581 6.26539 5.22031 6.02671 5.78285C5.78804 6.34538 5.74037 6.97507 5.8915 7.56925C5.46769 7.63354 5.06554 7.80433 4.72016 8.0667C4.37478 8.32908 4.09668 8.67505 3.91016 9.0744C3.72365 9.47376 3.63438 9.91434 3.65017 10.3577C3.66596 10.801 3.78632 11.2336 4.00073 11.6176L4.39612 12.327C3.93522 12.3263 3.48228 12.4514 3.08293 12.6897C2.68357 12.928 2.3519 13.2711 2.12133 13.6845C1.89075 14.0978 1.76941 14.5668 1.76953 15.0441C1.76965 15.5215 1.89122 15.9904 2.122 16.4036L6.16887 23.6633C6.97956 25.118 8.17378 26.3031 9.61157 27.0799C11.0494 27.8567 12.6711 28.1929 14.2868 28.0492C15.9025 27.9054 17.4452 27.2877 18.734 26.2683C20.0228 25.249 21.0044 23.8703 21.5637 22.2938C22.9558 20.925 23.864 19.1118 24.1429 17.1448C24.4217 15.1778 24.055 13.1708 23.1015 11.4453L21.2422 8.10972ZM11.4473 6.0548C11.5145 5.79508 11.6545 5.56183 11.8497 5.38455C12.0449 5.20727 12.2864 5.09391 12.5438 5.05882C12.8012 5.02373 13.0628 5.06847 13.2957 5.1874C13.5285 5.30633 13.722 5.4941 13.8518 5.72696L16.3333 10.1786C15.9602 10.25 15.6067 10.4046 15.2971 10.6316C14.9875 10.8587 14.7293 11.1529 14.5404 11.4937L12.8323 8.4294C12.575 7.96669 12.191 7.59331 11.729 7.3564L11.5791 7.0877L11.5786 7.08634C11.4919 6.93192 11.4357 6.76124 11.4132 6.58418C11.3907 6.40712 11.4023 6.22719 11.4473 6.0548ZM7.16233 6.52412C7.2295 6.26441 7.36953 6.03116 7.56471 5.85387C7.75989 5.67659 8.00144 5.56323 8.25882 5.52814C8.5162 5.49305 8.77785 5.5378 9.01067 5.65673C9.2435 5.77566 9.43704 5.96343 9.56682 6.19629L10.0795 7.11613C9.69739 7.18935 9.33583 7.34967 9.02097 7.58549C8.70612 7.82131 8.44585 8.12672 8.25903 8.47958C8.03208 8.20765 7.75502 7.98536 7.44408 7.82572L7.29347 7.55566C7.20682 7.40125 7.15062 7.23057 7.12811 7.0535C7.1056 6.87643 7.11723 6.6965 7.16233 6.52412ZM17.1665 25.7202C15.508 26.7093 13.5383 26.9767 11.6897 26.4636C9.84103 25.9506 8.26435 24.699 7.3055 22.9835L3.25862 15.7238C3.08457 15.4116 3.03741 15.0405 3.12751 14.6923C3.21761 14.344 3.43759 14.0471 3.73905 13.8668C4.04052 13.6866 4.39878 13.6377 4.73502 13.731C5.07126 13.8244 5.35793 14.0522 5.53198 14.3644L5.53209 14.3647L8.15709 19.0735C8.19987 19.1515 8.2571 19.2198 8.3255 19.2748C8.3939 19.3297 8.47211 19.37 8.55564 19.3935C8.63916 19.417 8.72634 19.4232 8.81217 19.4116C8.89799 19.4001 8.98076 19.371 9.05571 19.3262C9.13066 19.2814 9.19631 19.2217 9.24888 19.1505C9.30146 19.0793 9.33991 18.998 9.36203 18.9113C9.38415 18.8247 9.3895 18.7343 9.37778 18.6455C9.36606 18.5567 9.33749 18.4712 9.29372 18.3938L5.13747 10.9378C5.04993 10.7831 4.99279 10.6121 4.96934 10.4344C4.94589 10.2568 4.95659 10.0761 5.00084 9.90283C5.04508 9.72951 5.12199 9.56697 5.22713 9.42456C5.33227 9.28215 5.46357 9.16268 5.61347 9.07304C5.76338 8.98341 5.92892 8.92536 6.10056 8.90225C6.27221 8.87915 6.44658 8.89143 6.61363 8.9384C6.78067 8.98537 6.9371 9.0661 7.07389 9.17594C7.21069 9.28578 7.32516 9.42256 7.41072 9.57841L11.567 17.0345C11.654 17.1906 11.7973 17.3045 11.9655 17.3512C12.1336 17.3978 12.3127 17.3734 12.4635 17.2833C12.6142 17.1932 12.7242 17.0447 12.7692 16.8706C12.8143 16.6964 12.7907 16.5109 12.7037 16.3548L9.42245 10.4685C9.33491 10.3138 9.27777 10.1427 9.25432 9.96512C9.23087 9.7875 9.24158 9.60683 9.28582 9.43351C9.33006 9.26019 9.40697 9.09764 9.51211 8.95523C9.61725 8.81282 9.74856 8.69336 9.89846 8.60372C10.0484 8.51408 10.2139 8.45604 10.3855 8.43293C10.5572 8.40982 10.7316 8.42211 10.8986 8.46908C11.0657 8.51605 11.2221 8.59678 11.3589 8.70662C11.4957 8.81646 11.6101 8.95324 11.6957 9.10909L16.2894 17.3498C16.3771 17.5047 16.5203 17.6173 16.6878 17.6632C16.8554 17.7091 17.0336 17.6845 17.1837 17.5947C17.3338 17.505 17.4435 17.3574 17.4889 17.1842C17.5343 17.011 17.5117 16.8262 17.4261 16.6702L15.6761 13.5309V13.5308C15.5899 13.3762 15.534 13.2055 15.5115 13.0285C15.489 12.8515 15.5003 12.6717 15.545 12.4993C15.6351 12.151 15.855 11.8541 16.1565 11.6738C16.458 11.4936 16.8162 11.4447 17.1525 11.538C17.4887 11.6314 17.7754 11.8592 17.9494 12.1714L19.8088 15.507C20.2828 16.3573 20.5905 17.2959 20.7142 18.2694C20.838 19.2428 20.7754 20.232 20.53 21.1804C20.2847 22.1288 19.8613 23.0178 19.2842 23.7968C18.7071 24.5757 17.9875 25.2293 17.1665 25.7202ZM22.0907 19.3593C22.1123 17.7691 21.7165 16.2027 20.9455 14.8273L19.0862 11.4917C18.8288 11.029 18.4449 10.6556 17.9828 10.4187L17.8323 10.1487C17.6627 9.83673 17.6188 9.4681 17.71 9.12281C17.8012 8.77752 18.0203 8.48344 18.3196 8.30444C18.619 8.12543 18.9744 8.07595 19.3088 8.16673C19.6431 8.2575 19.9294 8.48122 20.1054 8.78929L21.9648 12.1249C22.5714 13.2225 22.9009 14.4609 22.9229 15.7254C22.9449 16.9899 22.6587 18.2398 22.0907 19.3593ZM18.6891 3.067L19.1422 1.31636C19.1872 1.14222 19.2972 0.993747 19.4479 0.903597C19.5986 0.813446 19.7778 0.789004 19.9459 0.835648C20.114 0.882291 20.2574 0.996199 20.3444 1.15231C20.4315 1.30843 20.4551 1.49396 20.41 1.66809L19.9569 3.41886C19.9346 3.50508 19.8961 3.58591 19.8437 3.65673C19.7912 3.72755 19.7258 3.78698 19.6512 3.83162C19.5765 3.87625 19.4941 3.90523 19.4087 3.91689C19.3232 3.92855 19.2364 3.92266 19.1532 3.89957C19.0699 3.87647 18.9919 3.83662 18.9235 3.78228C18.8551 3.72795 18.7977 3.6602 18.7546 3.5829C18.7115 3.5056 18.6836 3.42026 18.6723 3.33177C18.661 3.24327 18.6667 3.15334 18.689 3.06712L18.6891 3.067ZM21.5397 4.18317L22.5434 2.6985C22.5928 2.62538 22.6557 2.56307 22.7284 2.51511C22.8011 2.46715 22.8821 2.43449 22.967 2.41899C23.0519 2.40349 23.1389 2.40545 23.223 2.42477C23.3072 2.44409 23.3868 2.48038 23.4574 2.53158C23.528 2.58278 23.5882 2.64787 23.6345 2.72316C23.6808 2.79844 23.7123 2.88243 23.7273 2.97033C23.7422 3.05823 23.7403 3.14833 23.7217 3.23547C23.703 3.32261 23.668 3.4051 23.6186 3.47822L22.6148 4.96288C22.515 5.11055 22.3626 5.21109 22.1912 5.24239C22.0198 5.2737 21.8434 5.2332 21.7008 5.1298C21.5583 5.0264 21.4612 4.86858 21.431 4.69105C21.4007 4.51352 21.4398 4.33083 21.5397 4.18317ZM26.0361 6.3158L24.6025 7.35538C24.4599 7.45878 24.2835 7.49928 24.1121 7.46797C23.9407 7.43667 23.7883 7.33613 23.6885 7.18846C23.5887 7.04079 23.5496 6.8581 23.5798 6.68057C23.61 6.50304 23.7071 6.34522 23.8497 6.24183L25.2831 5.20213C25.4257 5.09873 25.6021 5.05823 25.7735 5.08954C25.9449 5.12084 26.0973 5.22138 26.1971 5.36905C26.297 5.51672 26.3361 5.69941 26.3058 5.87694C26.2756 6.05447 26.1785 6.21229 26.036 6.31568L26.0361 6.3158Z" fill="#464646"/>
</g>
<defs>
<clipPath id="clip0_398_2392">
<rect width="28" height="29" fill="white" transform="translate(0.433594 0.214844)"/>
</clipPath>
</defs>
</svg>
