<svg width="14" height="14" viewBox="0 0 14 14" fill="none" xmlns="http://www.w3.org/2000/svg">
<path d="M10.64 5.4861C10.642 4.32011 10.2489 3.18783 9.52493 2.27387C8.80091 1.3599 7.78864 0.718155 6.65314 0.45326C5.51764 0.188365 4.32589 0.315945 3.2722 0.8152C2.2185 1.31446 1.36501 2.15594 0.850875 3.20245C0.33674 4.24897 0.192286 5.43879 0.441064 6.57793C0.689843 7.71707 1.31718 8.73833 2.2208 9.47522C3.12441 10.2121 4.25101 10.6212 5.41691 10.6357C6.58281 10.6502 7.71923 10.2693 8.64092 9.55515L12.768 13.6822L13.6772 12.773L9.55016 8.6459C10.254 7.74276 10.6374 6.63112 10.64 5.4861ZM5.48112 9.35524C4.71587 9.35524 3.96782 9.12832 3.33154 8.70317C2.69526 8.27803 2.19934 7.67375 1.9065 6.96676C1.61365 6.25976 1.53703 5.48181 1.68632 4.73127C1.83561 3.98073 2.20411 3.29131 2.74522 2.75021C3.28633 2.2091 3.97575 1.8406 4.72629 1.6913C5.47683 1.54201 6.25478 1.61863 6.96177 1.91148C7.66877 2.20433 8.27304 2.70024 8.69819 3.33652C9.12334 3.9728 9.35026 4.72086 9.35026 5.4861C9.35026 6.51226 8.94262 7.49639 8.21701 8.222C7.49141 8.9476 6.50728 9.35524 5.48112 9.35524Z" fill="#212121" fill-opacity="0.35"/>
</svg>
