<svg width="33" height="33" viewBox="0 0 33 33" fill="none" xmlns="http://www.w3.org/2000/svg">
<path d="M28.8387 26.785C30.4992 24.7871 31.6541 22.4187 32.2057 19.88C32.7573 17.3414 32.6893 14.7073 32.0076 12.2005C31.3259 9.6937 30.0504 7.38797 28.2891 5.47836C26.5278 3.56875 24.3324 2.11145 21.8888 1.22973C19.4451 0.348007 16.8251 0.0678074 14.2502 0.412832C11.6754 0.757857 9.22154 1.71796 7.09624 3.21191C4.97093 4.70587 3.23671 6.68973 2.04027 8.99567C0.843837 11.3016 0.220387 13.8618 0.222662 16.4596C0.223536 20.2362 1.55437 23.8918 3.98163 26.785L3.95851 26.8046C4.03944 26.9017 4.13194 26.985 4.21519 27.081C4.31926 27.2001 4.43141 27.3122 4.53894 27.4278C4.86269 27.7793 5.19569 28.117 5.54488 28.4338C5.65126 28.5309 5.7611 28.6211 5.86863 28.7136C6.23863 29.0327 6.61904 29.3356 7.01332 29.6178C7.06419 29.6525 7.11044 29.6975 7.16132 29.7334V29.7195C9.86938 31.6252 13.0999 32.648 16.4113 32.648C19.7227 32.648 22.9533 31.6252 25.6613 29.7195V29.7334C25.7122 29.6975 25.7573 29.6525 25.8093 29.6178C26.2024 29.3345 26.584 29.0327 26.954 28.7136C27.0615 28.6211 27.1714 28.5297 27.2778 28.4338C27.6269 28.1158 27.9599 27.7793 28.2837 27.4278C28.3912 27.3122 28.5022 27.2001 28.6074 27.081C28.6895 26.985 28.7832 26.9017 28.8641 26.8035L28.8387 26.785ZM16.4102 7.20964C17.4392 7.20964 18.4452 7.5148 19.3009 8.08653C20.1565 8.65825 20.8234 9.47087 21.2172 10.4216C21.611 11.3724 21.7141 12.4185 21.5133 13.4278C21.3125 14.4372 20.817 15.3643 20.0893 16.0919C19.3617 16.8196 18.4346 17.3152 17.4252 17.5159C16.4159 17.7167 15.3698 17.6136 14.419 17.2198C13.4683 16.826 12.6557 16.1591 12.0839 15.3035C11.5122 14.4478 11.207 13.4418 11.207 12.4128C11.207 11.0328 11.7552 9.70938 12.731 8.7336C13.7068 7.75783 15.0302 7.20964 16.4102 7.20964ZM7.16826 26.785C7.18831 25.2668 7.80529 23.8175 8.8857 22.7507C9.96611 21.6839 11.4231 21.0854 12.9414 21.0846H19.8789C21.3972 21.0854 22.8542 21.6839 23.9346 22.7507C25.015 23.8175 25.632 25.2668 25.6521 26.785C23.1162 29.0701 19.8237 30.3347 16.4102 30.3347C12.9966 30.3347 9.7041 29.0701 7.16826 26.785Z" fill="white" fill-opacity="0.5"/>
</svg>
